<svg width="40" height="40" viewBox="0 0 40 40" fill="none" xmlns="http://www.w3.org/2000/svg">
<path d="M32.4766 33.3696C31.7938 27.3625 29.0524 24.8727 27.05 23.0571C25.6656 21.7969 25 21.1414 25 20C25 18.8742 25.6633 18.2313 27.0438 16.9969C29.0695 15.1867 31.8438 12.7071 32.4781 6.61877C32.5289 6.10727 32.4716 5.59082 32.3101 5.10284C32.1486 4.61486 31.8865 4.16622 31.5406 3.78596C31.1713 3.37979 30.721 3.05552 30.2187 2.83403C29.7164 2.61255 29.1732 2.49876 28.6242 2.50002H11.3758C10.8261 2.4983 10.2821 2.61185 9.77894 2.83335C9.2758 3.05484 8.82468 3.37936 8.4547 3.78596C8.1099 4.16675 7.84875 4.61558 7.68808 5.1035C7.52741 5.59143 7.4708 6.10762 7.52189 6.61877C8.15392 12.6875 10.918 15.1492 12.936 16.9461C14.3297 18.1875 15 18.8352 15 20C15 21.1797 14.3281 21.8406 12.9297 23.1055C10.9375 24.9102 8.20314 27.3813 7.52345 33.3696C7.46826 33.8787 7.52115 34.3938 7.67866 34.8812C7.83617 35.3685 8.09476 35.8171 8.43751 36.1977C8.80827 36.609 9.26157 36.9376 9.76785 37.162C10.2741 37.3864 10.822 37.5016 11.3758 37.5H28.6242C29.178 37.5016 29.7259 37.3864 30.2322 37.162C30.7385 36.9376 31.1918 36.609 31.5625 36.1977C31.9053 35.8171 32.1639 35.3685 32.3214 34.8812C32.4789 34.3938 32.5318 33.8787 32.4766 33.3696ZM26.8203 33.75H13.2133C11.9945 33.75 11.6508 32.3438 12.5055 31.4719C14.5742 29.375 18.75 27.8735 18.75 25.4688V17.5C18.75 15.9492 15.7813 14.7656 13.9445 12.25C13.6414 11.8352 13.6719 11.25 14.4422 11.25H25.593C26.25 11.25 26.3914 11.8305 26.093 12.2461C24.2828 14.7656 21.25 15.9414 21.25 17.5V25.4688C21.25 27.8539 25.6024 29.1406 27.5313 31.4742C28.3086 32.4149 28.0367 33.75 26.8203 33.75Z" fill="url(#paint0_linear_6434_23857)"/>
<defs>
<linearGradient id="paint0_linear_6434_23857" x1="1.33182" y1="19.9996" x2="38.3022" y2="19.9996" gradientUnits="userSpaceOnUse">
<stop stop-color="#4D7EF2"/>
<stop offset="1" stop-color="#5FD4F4"/>
</linearGradient>
</defs>
</svg>
