<svg width="40" height="40" viewBox="0 0 40 40" fill="none" xmlns="http://www.w3.org/2000/svg">
<g clip-path="url(#clip0_6434_23900)">
<path d="M35 7.5H5C4.33696 7.5 3.70107 7.76339 3.23223 8.23223C2.76339 8.70107 2.5 9.33696 2.5 10V15.1406V29.9844C2.5 30.6474 2.76339 31.2833 3.23223 31.7521C3.70107 32.221 4.33696 32.4844 5 32.4844H35C35.663 32.4844 36.2989 32.221 36.7678 31.7521C37.2366 31.2833 37.5 30.6474 37.5 29.9844V10C37.5 9.33696 37.2366 8.70107 36.7678 8.23223C36.2989 7.76339 35.663 7.5 35 7.5ZM21.25 27.5H18.75C18.4185 27.5 18.1005 27.3683 17.8661 27.1339C17.6317 26.8995 17.5 26.5815 17.5 26.25C17.5 25.9185 17.6317 25.6005 17.8661 25.3661C18.1005 25.1317 18.4185 25 18.75 25H21.25C21.5815 25 21.8995 25.1317 22.1339 25.3661C22.3683 25.6005 22.5 25.9185 22.5 26.25C22.5 26.5815 22.3683 26.8995 22.1339 27.1339C21.8995 27.3683 21.5815 27.5 21.25 27.5ZM31.25 27.5H26.25C25.9185 27.5 25.6005 27.3683 25.3661 27.1339C25.1317 26.8995 25 26.5815 25 26.25C25 25.9185 25.1317 25.6005 25.3661 25.3661C25.6005 25.1317 25.9185 25 26.25 25H31.25C31.5815 25 31.8995 25.1317 32.1339 25.3661C32.3683 25.6005 32.5 25.9185 32.5 26.25C32.5 26.5815 32.3683 26.8995 32.1339 27.1339C31.8995 27.3683 31.5815 27.5 31.25 27.5ZM5 13.8906V10H35V13.8906H5Z" fill="url(#paint0_linear_6434_23900)"/>
</g>
<defs>
<linearGradient id="paint0_linear_6434_23900" x1="-6.14017" y1="19.9919" x2="45.6276" y2="19.9919" gradientUnits="userSpaceOnUse">
<stop stop-color="#4D7EF2"/>
<stop offset="1" stop-color="#5FD4F4"/>
</linearGradient>
<clipPath id="clip0_6434_23900">
<rect width="40" height="40" fill="white"/>
</clipPath>
</defs>
</svg>
