<svg width="40" height="40" viewBox="0 0 40 40" fill="none" xmlns="http://www.w3.org/2000/svg">
<g clip-path="url(#clip0_6434_23878)">
<path d="M10 21.8758C10.0021 22.0405 9.97125 22.204 9.90917 22.3566C9.8471 22.5092 9.7551 22.6478 9.63861 22.7643C9.52211 22.8808 9.38348 22.9728 9.23088 23.0349C9.07827 23.097 8.91478 23.1279 8.75005 23.1258H1.87505C1.64283 23.1239 1.41549 23.0589 1.21733 22.9378C1.01918 22.8167 0.85766 22.6441 0.75005 22.4383C0.649983 22.2287 0.608755 21.9959 0.630772 21.7647C0.652789 21.5335 0.737224 21.3127 0.87505 21.1258C1.98128 19.6408 3.45741 18.4718 5.1563 17.7352C4.42629 17.0669 3.86541 16.2349 3.51981 15.3075C3.17422 14.3801 3.0538 13.3839 3.16846 12.4009C3.28312 11.4179 3.62959 10.4762 4.17934 9.65321C4.72909 8.83027 5.46642 8.14964 6.33063 7.66735C7.19484 7.18506 8.16123 6.9149 9.15026 6.87909C10.1393 6.84329 11.1227 7.04287 12.0195 7.4614C12.9163 7.87994 13.7009 8.50546 14.3088 9.2865C14.9166 10.0675 15.3302 10.9818 15.5157 11.9539C15.5619 12.2071 15.5298 12.4684 15.4238 12.7029C15.3177 12.9374 15.1426 13.134 14.9219 13.2664C12.901 14.4648 11.364 16.3335 10.5782 18.5477C10.1908 19.6143 9.99506 20.741 10 21.8758ZM39.125 21.1258C38.0188 19.6408 36.5427 18.4718 34.8438 17.7352C35.5738 17.0669 36.1347 16.2349 36.4803 15.3075C36.8259 14.3801 36.9463 13.3839 36.8316 12.4009C36.717 11.4179 36.3705 10.4762 35.8208 9.65321C35.271 8.83027 34.5337 8.14964 33.6695 7.66735C32.8053 7.18506 31.8389 6.9149 30.8498 6.87909C29.8608 6.84329 28.8774 7.04287 27.9806 7.4614C27.0838 7.87994 26.2992 8.50546 25.6913 9.2865C25.0835 10.0675 24.6699 10.9818 24.4844 11.9539C24.4382 12.2071 24.4703 12.4684 24.5763 12.7029C24.6824 12.9374 24.8575 13.134 25.0782 13.2664C27.1017 14.4617 28.6396 16.3315 29.4219 18.5477C29.8093 19.6143 30.005 20.741 30 21.8758C29.9979 22.0405 30.0288 22.204 30.0909 22.3566C30.153 22.5092 30.245 22.6478 30.3615 22.7643C30.478 22.8808 30.6166 22.9728 30.7692 23.0349C30.9218 23.097 31.0853 23.1279 31.25 23.1258H38.125C38.3572 23.1258 38.5847 23.0611 38.7822 22.9391C38.9797 22.817 39.1393 22.6424 39.2431 22.4348C39.3469 22.2272 39.3908 21.9947 39.37 21.7635C39.3491 21.5323 39.2643 21.3115 39.125 21.1258ZM24.5625 27.8289C25.8066 26.8754 26.7206 25.5561 27.1762 24.0563C27.6318 22.5566 27.6061 20.9518 27.1027 19.4674C26.5992 17.983 25.6434 16.6937 24.3695 15.7805C23.0955 14.8674 21.5675 14.3763 20 14.3763C18.4326 14.3763 16.9046 14.8674 15.6306 15.7805C14.3567 16.6937 13.4009 17.983 12.8974 19.4674C12.394 20.9518 12.3683 22.5566 12.8239 24.0563C13.2795 25.5561 14.1935 26.8754 15.4375 27.8289C13.0071 28.9079 11.0367 30.8119 9.87505 33.2039C9.78262 33.394 9.74122 33.6049 9.75492 33.8158C9.76861 34.0267 9.83694 34.2305 9.95317 34.407C10.0614 34.5881 10.2147 34.7381 10.3982 34.8421C10.5817 34.9462 10.7891 35.0009 11 35.0008H29C29.211 35.0009 29.4184 34.9462 29.6019 34.8421C29.7854 34.7381 29.9387 34.5881 30.0469 34.407C30.1632 34.2305 30.2315 34.0267 30.2452 33.8158C30.2589 33.6049 30.2175 33.394 30.125 33.2039C28.9634 30.8119 26.993 28.9079 24.5625 27.8289Z" fill="url(#paint0_linear_6434_23878)"/>
</g>
<defs>
<linearGradient id="paint0_linear_6434_23878" x1="-8.94091" y1="20.9376" x2="48.3735" y2="20.9376" gradientUnits="userSpaceOnUse">
<stop stop-color="#4D7EF2"/>
<stop offset="1" stop-color="#5FD4F4"/>
</linearGradient>
<clipPath id="clip0_6434_23878">
<rect width="40" height="40" fill="white"/>
</clipPath>
</defs>
</svg>
