<svg width="40" height="40" viewBox="0 0 40 40" fill="none" xmlns="http://www.w3.org/2000/svg">
<g clip-path="url(#clip0_6434_23885)">
<path d="M35.2969 25.5L35.3437 25.3438C36.5524 21.8838 36.5524 18.1162 35.3437 14.6562L35.2969 14.5C34.1604 11.3537 32.0823 8.63385 29.3453 6.7104C26.6083 4.78696 23.3452 3.75329 20 3.75C16.6547 3.75329 13.3917 4.78696 10.6547 6.7104C7.91767 8.63385 5.8396 11.3537 4.70311 14.5L4.65623 14.6562C3.44752 18.1162 3.44752 21.8838 4.65623 25.3438L4.70311 25.5C5.84346 28.6438 7.9225 31.3611 10.6586 33.2839C13.3948 35.2068 16.6558 36.2422 20 36.25C23.3452 36.2467 26.6083 35.213 29.3453 33.2896C32.0823 31.3661 34.1604 28.6463 35.2969 25.5ZM20 7.125C21.8202 8.99734 23.1837 11.2645 23.9844 13.75H16.0156C16.8163 11.2645 18.1798 8.99734 20 7.125ZM16.0156 26.25H23.9844C23.1837 28.7355 21.8202 31.0027 20 32.875C18.1798 31.0027 16.8163 28.7355 16.0156 26.25ZM15.3594 23.75C14.8803 21.2729 14.8803 18.7271 15.3594 16.25H24.6406C25.1196 18.7271 25.1196 21.2729 24.6406 23.75H15.3594ZM27.1875 16.25H33.2344C33.922 18.7027 33.922 21.2973 33.2344 23.75H27.1875C27.6042 21.2674 27.6042 18.7326 27.1875 16.25ZM32.25 13.75H26.625C25.8732 11.1177 24.5918 8.66657 22.8594 6.54688C24.8597 6.97879 26.7394 7.84883 28.3632 9.09435C29.987 10.3399 31.3144 11.9299 32.25 13.75ZM22.8594 33.4531C24.5918 31.3334 25.8732 28.8823 26.625 26.25H32.25C31.3144 28.0701 29.987 29.6601 28.3632 30.9056C26.7394 32.1512 24.8597 33.0212 22.8594 33.4531Z" fill="url(#paint0_linear_6434_23885)"/>
</g>
<defs>
<linearGradient id="paint0_linear_6434_23885" x1="-4.27346" y1="19.9996" x2="43.7975" y2="19.9996" gradientUnits="userSpaceOnUse">
<stop stop-color="#4D7EF2"/>
<stop offset="1" stop-color="#5FD4F4"/>
</linearGradient>
<clipPath id="clip0_6434_23885">
<rect width="40" height="40" fill="white"/>
</clipPath>
</defs>
</svg>
