<svg width="40" height="40" viewBox="0 0 40 40" fill="none" xmlns="http://www.w3.org/2000/svg">
<g clip-path="url(#clip0_6434_23893)">
<path d="M37.5 32.4996H35V18.0464C35.0009 17.6979 34.9274 17.3532 34.7846 17.0353C34.6419 16.7174 34.433 16.4336 34.1719 16.2027L21.6719 4.84332C21.2136 4.42278 20.6142 4.18945 19.9922 4.18945C19.3702 4.18945 18.7708 4.42278 18.3125 4.84332L5.8125 16.2027C5.55657 16.4368 5.35216 16.7217 5.21228 17.0391C5.0724 17.3565 5.00011 17.6996 5 18.0464V32.4996H2.5C2.16848 32.4996 1.85054 32.6313 1.61612 32.8657C1.3817 33.1001 1.25 33.418 1.25 33.7496C1.25 34.0811 1.3817 34.399 1.61612 34.6335C1.85054 34.8679 2.16848 34.9996 2.5 34.9996H37.5C37.8315 34.9996 38.1495 34.8679 38.3839 34.6335C38.6183 34.399 38.75 34.0811 38.75 33.7496C38.75 33.418 38.6183 33.1001 38.3839 32.8657C38.1495 32.6313 37.8315 32.4996 37.5 32.4996ZM23.75 32.4996H16.25V24.9996C16.25 24.668 16.3817 24.3501 16.6161 24.1157C16.8505 23.8813 17.1685 23.7496 17.5 23.7496H22.5C22.8315 23.7496 23.1495 23.8813 23.3839 24.1157C23.6183 24.3501 23.75 24.668 23.75 24.9996V32.4996Z" fill="url(#paint0_linear_6434_23893)"/>
</g>
<defs>
<linearGradient id="paint0_linear_6434_23893" x1="-8.00732" y1="19.5941" x2="47.4582" y2="19.5941" gradientUnits="userSpaceOnUse">
<stop stop-color="#4D7EF2"/>
<stop offset="1" stop-color="#5FD4F4"/>
</linearGradient>
<clipPath id="clip0_6434_23893">
<rect width="40" height="40" fill="white"/>
</clipPath>
</defs>
</svg>
