<svg width="40" height="40" viewBox="0 0 40 40" fill="none" xmlns="http://www.w3.org/2000/svg">
<path d="M32.4765 33.3696C31.7937 27.3625 29.0523 24.8727 27.05 23.0571C25.6656 21.7969 25 21.1414 25 20C25 18.8742 25.6632 18.2313 27.0437 16.9969C29.0695 15.1867 31.8437 12.7071 32.4781 6.61877C32.5288 6.10727 32.4716 5.59082 32.3101 5.10284C32.1486 4.61486 31.8864 4.16622 31.5406 3.78596C31.1712 3.37979 30.7209 3.05552 30.2186 2.83403C29.7163 2.61255 29.1731 2.49876 28.6242 2.50002H11.3757C10.826 2.4983 10.282 2.61185 9.77888 2.83335C9.27574 3.05484 8.82462 3.37936 8.45464 3.78596C8.10984 4.16675 7.84869 4.61558 7.68802 5.1035C7.52735 5.59143 7.47073 6.10762 7.52183 6.61877C8.15386 12.6875 10.9179 15.1492 12.9359 16.9461C14.3296 18.1875 15 18.8352 15 20C15 21.1797 14.3281 21.8406 12.9296 23.1055C10.9375 24.9102 8.20308 27.3813 7.52339 33.3696C7.4682 33.8787 7.52109 34.3938 7.6786 34.8812C7.83611 35.3685 8.0947 35.8171 8.43745 36.1977C8.80821 36.609 9.26151 36.9376 9.76779 37.162C10.2741 37.3864 10.822 37.5016 11.3757 37.5H28.6242C29.178 37.5016 29.7258 37.3864 30.2321 37.162C30.7384 36.9376 31.1917 36.609 31.5625 36.1977C31.9052 35.8171 32.1638 35.3685 32.3213 34.8812C32.4788 34.3938 32.5317 33.8787 32.4765 33.3696ZM26.8203 33.75H13.2132C11.9945 33.75 11.6507 32.3438 12.5054 31.4719C14.5742 29.375 18.75 27.8735 18.75 25.4688V17.5C18.75 15.9492 15.7812 14.7656 13.9445 12.25C13.6414 11.8352 13.6718 11.25 14.4421 11.25H25.5929C26.25 11.25 26.3914 11.8305 26.0929 12.2461C24.2828 14.7656 21.25 15.9414 21.25 17.5V25.4688C21.25 27.8539 25.6023 29.1406 27.5312 31.4742C28.3085 32.4149 28.0367 33.75 26.8203 33.75Z" fill="url(#paint0_linear_6434_23851)"/>
<defs>
<linearGradient id="paint0_linear_6434_23851" x1="1.33176" y1="19.9996" x2="38.3021" y2="19.9996" gradientUnits="userSpaceOnUse">
<stop stop-color="#4D7EF2"/>
<stop offset="1" stop-color="#5FD4F4"/>
</linearGradient>
</defs>
</svg>
