<svg width="40" height="40" viewBox="0 0 40 40" fill="none" xmlns="http://www.w3.org/2000/svg">
<path d="M38.75 13.75C38.7486 12.4244 38.2213 11.1534 37.2839 10.2161C36.3466 9.2787 35.0756 8.75145 33.75 8.75H30V7.5C29.999 6.50576 29.6035 5.55253 28.9005 4.84949C28.1975 4.14645 27.2442 3.75103 26.25 3.75H13.75C12.7558 3.75103 11.8025 4.14645 11.0995 4.84949C10.3965 5.55253 10.001 6.50576 10 7.5V8.75H6.25C4.92436 8.75145 3.65343 9.2787 2.71606 10.2161C1.7787 11.1534 1.25145 12.4244 1.25 13.75V17.5H38.75V13.75ZM27.5 8.75H12.5V7.5C12.5 7.16848 12.6317 6.85054 12.8661 6.61612C13.1005 6.3817 13.4185 6.25 13.75 6.25H26.25C26.5815 6.25 26.8995 6.3817 27.1339 6.61612C27.3683 6.85054 27.5 7.16848 27.5 7.5V8.75ZM26.25 20.625C26.25 21.1223 26.0525 21.5992 25.7008 21.9508C25.3492 22.3025 24.8723 22.5 24.375 22.5H15.625C15.1277 22.5 14.6508 22.3025 14.2992 21.9508C13.9475 21.5992 13.75 21.1223 13.75 20.625V20.3125C13.75 20.2296 13.7171 20.1501 13.6585 20.0915C13.5999 20.0329 13.5204 20 13.4375 20H1.25V31.25C1.25 32.5761 1.77678 33.8479 2.71447 34.7855C3.65215 35.7232 4.92392 36.25 6.25 36.25H33.75C35.0761 36.25 36.3479 35.7232 37.2855 34.7855C38.2232 33.8479 38.75 32.5761 38.75 31.25V20H26.5625C26.4796 20 26.4001 20.0329 26.3415 20.0915C26.2829 20.1501 26.25 20.2296 26.25 20.3125V20.625Z" fill="url(#paint0_linear_6434_23840)"/>
<defs>
<linearGradient id="paint0_linear_6434_23840" x1="-8.00732" y1="19.9996" x2="47.4582" y2="19.9996" gradientUnits="userSpaceOnUse">
<stop stop-color="#4D7EF2"/>
<stop offset="1" stop-color="#5FD4F4"/>
</linearGradient>
</defs>
</svg>
