<svg width="40" height="40" viewBox="0 0 40 40" fill="none" xmlns="http://www.w3.org/2000/svg">
<circle cx="20" cy="20" r="16" fill="white"/>
<path d="M20 2C10.0625 2 2 10.0625 2 20C2 29.9375 10.0625 38 20 38C29.9375 38 38 29.9375 38 20C38 10.0625 29.9375 2 20 2ZM19.4375 30.5C19.0667 30.5 18.7041 30.39 18.3958 30.184C18.0875 29.978 17.8471 29.6851 17.7052 29.3425C17.5633 28.9999 17.5262 28.6229 17.5985 28.2592C17.6709 27.8955 17.8495 27.5614 18.1117 27.2992C18.3739 27.0369 18.708 26.8584 19.0717 26.786C19.4354 26.7137 19.8124 26.7508 20.155 26.8927C20.4976 27.0346 20.7905 27.275 20.9965 27.5833C21.2025 27.8916 21.3125 28.2542 21.3125 28.625C21.3125 29.1223 21.115 29.5992 20.7633 29.9508C20.4117 30.3025 19.9348 30.5 19.4375 30.5ZM22.5725 20.9375C21.0528 21.9575 20.8438 22.8922 20.8438 23.75C20.8438 24.0981 20.7055 24.4319 20.4593 24.6781C20.2132 24.9242 19.8793 25.0625 19.5312 25.0625C19.1832 25.0625 18.8493 24.9242 18.6032 24.6781C18.357 24.4319 18.2188 24.0981 18.2188 23.75C18.2188 21.6959 19.1638 20.0628 21.1081 18.7569C22.9156 17.5438 23.9375 16.775 23.9375 15.0847C23.9375 13.9353 23.2812 13.0625 21.9228 12.4166C21.6031 12.2647 20.8916 12.1166 20.0159 12.1269C18.9172 12.1409 18.0641 12.4034 17.4069 12.9322C16.1675 13.9297 16.0625 15.0153 16.0625 15.0312C16.0542 15.2036 16.012 15.3726 15.9384 15.5287C15.8647 15.6848 15.7611 15.8248 15.6333 15.9408C15.5056 16.0568 15.3562 16.1465 15.1938 16.2048C15.0314 16.2631 14.8591 16.2888 14.6867 16.2805C14.5144 16.2722 14.3453 16.23 14.1893 16.1563C14.0332 16.0827 13.8932 15.9791 13.7772 15.8513C13.6612 15.7235 13.5715 15.5742 13.5132 15.4118C13.4549 15.2494 13.4292 15.077 13.4375 14.9047C13.4478 14.6769 13.6063 12.6247 15.7597 10.8922C16.8763 9.99406 18.2966 9.52719 19.9784 9.50656C21.1691 9.4925 22.2875 9.69406 23.0459 10.0522C25.3156 11.1256 26.5625 12.9153 26.5625 15.0847C26.5625 18.2563 24.4428 19.6803 22.5725 20.9375Z" fill="url(#paint0_linear_6434_23913)"/>
<defs>
<linearGradient id="paint0_linear_6434_23913" x1="-6.88703" y1="19.9996" x2="46.3598" y2="19.9996" gradientUnits="userSpaceOnUse">
<stop stop-color="#4D7EF2"/>
<stop offset="1" stop-color="#5FD4F4"/>
</linearGradient>
</defs>
</svg>
