<svg width="40" height="40" viewBox="0 0 40 40" fill="none" xmlns="http://www.w3.org/2000/svg">
<path d="M37.5 9.99988C37.5 8.6738 36.9732 7.40203 36.0355 6.46435C35.0979 5.52667 33.8261 4.99989 32.5 4.99989H31.25V3.78504C31.25 3.11239 30.7328 2.53504 30.0602 2.50145C29.8911 2.49331 29.7222 2.51956 29.5637 2.57862C29.4051 2.63769 29.2602 2.72833 29.1377 2.84506C29.0152 2.96179 28.9177 3.10217 28.851 3.2577C28.7844 3.41323 28.75 3.58068 28.75 3.74989V4.99989H11.25V3.78504C11.25 3.11239 10.7328 2.53504 10.0602 2.50145C9.89114 2.49331 9.72224 2.51956 9.56367 2.57862C9.40511 2.63769 9.26019 2.72833 9.13769 2.84506C9.01519 2.96179 8.91767 3.10217 8.85103 3.2577C8.78438 3.41323 8.75002 3.58068 8.75 3.74989V4.99989H7.5C6.17392 4.99989 4.90215 5.52667 3.96447 6.46435C3.02678 7.40203 2.5 8.6738 2.5 9.99988V10.9374C2.5 11.0203 2.53292 11.0998 2.59153 11.1584C2.65013 11.217 2.72962 11.2499 2.8125 11.2499H37.1875C37.2704 11.2499 37.3499 11.217 37.4085 11.1584C37.4671 11.0998 37.5 11.0203 37.5 10.9374V9.99988ZM2.5 32.4999C2.5 33.826 3.02678 35.0977 3.96447 36.0354C4.90215 36.9731 6.17392 37.4999 7.5 37.4999H32.5C33.8261 37.4999 35.0979 36.9731 36.0355 36.0354C36.9732 35.0977 37.5 33.826 37.5 32.4999V13.9843C37.5 13.9221 37.4753 13.8625 37.4314 13.8185C37.3874 13.7746 37.3278 13.7499 37.2656 13.7499H2.73438C2.67221 13.7499 2.6126 13.7746 2.56865 13.8185C2.52469 13.8625 2.5 13.9221 2.5 13.9843V32.4999ZM29.375 16.2499C29.7458 16.2499 30.1084 16.3598 30.4167 16.5659C30.725 16.7719 30.9654 17.0647 31.1073 17.4074C31.2492 17.75 31.2863 18.127 31.214 18.4907C31.1416 18.8544 30.963 19.1885 30.7008 19.4507C30.4386 19.7129 30.1045 19.8915 29.7408 19.9639C29.3771 20.0362 29.0001 19.9991 28.6575 19.8572C28.3149 19.7152 28.022 19.4749 27.816 19.1666C27.61 18.8582 27.5 18.4957 27.5 18.1249C27.5 17.6276 27.6975 17.1507 28.0492 16.7991C28.4008 16.4474 28.8777 16.2499 29.375 16.2499ZM29.375 22.4999C29.7458 22.4999 30.1084 22.6098 30.4167 22.8159C30.725 23.0219 30.9654 23.3147 31.1073 23.6574C31.2492 24 31.2863 24.377 31.214 24.7407C31.1416 25.1044 30.963 25.4385 30.7008 25.7007C30.4386 25.9629 30.1045 26.1415 29.7408 26.2139C29.3771 26.2862 29.0001 26.2491 28.6575 26.1072C28.3149 25.9652 28.022 25.7249 27.816 25.4166C27.61 25.1082 27.5 24.7457 27.5 24.3749C27.5 23.8776 27.6975 23.4007 28.0492 23.0491C28.4008 22.6974 28.8777 22.4999 29.375 22.4999ZM23.125 16.2499C23.4958 16.2499 23.8584 16.3598 24.1667 16.5659C24.475 16.7719 24.7154 17.0647 24.8573 17.4074C24.9992 17.75 25.0363 18.127 24.964 18.4907C24.8916 18.8544 24.713 19.1885 24.4508 19.4507C24.1886 19.7129 23.8545 19.8915 23.4908 19.9639C23.1271 20.0362 22.7501 19.9991 22.4075 19.8572C22.0649 19.7152 21.772 19.4749 21.566 19.1666C21.36 18.8582 21.25 18.4957 21.25 18.1249C21.25 17.6276 21.4475 17.1507 21.7992 16.7991C22.1508 16.4474 22.6277 16.2499 23.125 16.2499ZM23.125 22.4999C23.4958 22.4999 23.8584 22.6098 24.1667 22.8159C24.475 23.0219 24.7154 23.3147 24.8573 23.6574C24.9992 24 25.0363 24.377 24.964 24.7407C24.8916 25.1044 24.713 25.4385 24.4508 25.7007C24.1886 25.9629 23.8545 26.1415 23.4908 26.2139C23.1271 26.2862 22.7501 26.2491 22.4075 26.1072C22.0649 25.9652 21.772 25.7249 21.566 25.4166C21.36 25.1082 21.25 24.7457 21.25 24.3749C21.25 23.8776 21.4475 23.4007 21.7992 23.0491C22.1508 22.6974 22.6277 22.4999 23.125 22.4999ZM23.125 28.7499C23.4958 28.7499 23.8584 28.8598 24.1667 29.0659C24.475 29.2719 24.7154 29.5647 24.8573 29.9074C24.9992 30.25 25.0363 30.627 24.964 30.9907C24.8916 31.3544 24.713 31.6885 24.4508 31.9507C24.1886 32.2129 23.8545 32.3915 23.4908 32.4639C23.1271 32.5362 22.7501 32.4991 22.4075 32.3572C22.0649 32.2152 21.772 31.9749 21.566 31.6666C21.36 31.3582 21.25 30.9957 21.25 30.6249C21.25 30.1276 21.4475 29.6507 21.7992 29.2991C22.1508 28.9474 22.6277 28.7499 23.125 28.7499ZM16.875 22.4999C17.2458 22.4999 17.6084 22.6098 17.9167 22.8159C18.225 23.0219 18.4654 23.3147 18.6073 23.6574C18.7492 24 18.7863 24.377 18.714 24.7407C18.6416 25.1044 18.463 25.4385 18.2008 25.7007C17.9386 25.9629 17.6045 26.1415 17.2408 26.2139C16.8771 26.2862 16.5001 26.2491 16.1575 26.1072C15.8149 25.9652 15.522 25.7249 15.316 25.4166C15.11 25.1082 15 24.7457 15 24.3749C15 23.8776 15.1975 23.4007 15.5492 23.0491C15.9008 22.6974 16.3777 22.4999 16.875 22.4999ZM16.875 28.7499C17.2458 28.7499 17.6084 28.8598 17.9167 29.0659C18.225 29.2719 18.4654 29.5647 18.6073 29.9074C18.7492 30.25 18.7863 30.627 18.714 30.9907C18.6416 31.3544 18.463 31.6885 18.2008 31.9507C17.9386 32.2129 17.6045 32.3915 17.2408 32.4639C16.8771 32.5362 16.5001 32.4991 16.1575 32.3572C15.8149 32.2152 15.522 31.9749 15.316 31.6666C15.11 31.3582 15 30.9957 15 30.6249C15 30.1276 15.1975 29.6507 15.5492 29.2991C15.9008 28.9474 16.3777 28.7499 16.875 28.7499ZM10.625 22.4999C10.9958 22.4999 11.3584 22.6098 11.6667 22.8159C11.975 23.0219 12.2154 23.3147 12.3573 23.6574C12.4992 24 12.5363 24.377 12.464 24.7407C12.3916 25.1044 12.213 25.4385 11.9508 25.7007C11.6886 25.9629 11.3545 26.1415 10.9908 26.2139C10.6271 26.2862 10.2501 26.2491 9.90747 26.1072C9.56486 25.9652 9.27202 25.7249 9.06599 25.4166C8.85997 25.1082 8.75 24.7457 8.75 24.3749C8.75 23.8776 8.94754 23.4007 9.29917 23.0491C9.65081 22.6974 10.1277 22.4999 10.625 22.4999ZM10.625 28.7499C10.9958 28.7499 11.3584 28.8598 11.6667 29.0659C11.975 29.2719 12.2154 29.5647 12.3573 29.9074C12.4992 30.25 12.5363 30.627 12.464 30.9907C12.3916 31.3544 12.213 31.6885 11.9508 31.9507C11.6886 32.2129 11.3545 32.3915 10.9908 32.4639C10.6271 32.5362 10.2501 32.4991 9.90747 32.3572C9.56486 32.2152 9.27202 31.9749 9.06599 31.6666C8.85997 31.3582 8.75 30.9957 8.75 30.6249C8.75 30.1276 8.94754 29.6507 9.29917 29.2991C9.65081 28.9474 10.1277 28.7499 10.625 28.7499Z" fill="url(#paint0_linear_6434_23846)"/>
<defs>
<linearGradient id="paint0_linear_6434_23846" x1="-6.14017" y1="19.9995" x2="45.6276" y2="19.9995" gradientUnits="userSpaceOnUse">
<stop stop-color="#4D7EF2"/>
<stop offset="1" stop-color="#5FD4F4"/>
</linearGradient>
</defs>
</svg>
