<svg width="40" height="40" viewBox="0 0 40 40" fill="none" xmlns="http://www.w3.org/2000/svg">
<path d="M32.3742 7.62615C30.7521 5.98799 28.8223 4.68648 26.6957 3.7964C24.5691 2.90631 22.2875 2.44518 19.9822 2.43951C17.6768 2.43383 15.393 2.88372 13.262 3.76333C11.131 4.64294 9.19487 5.93493 7.56472 7.56508C5.93457 9.19523 4.64258 11.1314 3.76297 13.2624C2.88336 15.3934 2.43347 17.6772 2.43914 19.9825C2.44481 22.2879 2.90594 24.5694 3.79603 26.6961C4.68612 28.8227 5.98763 30.7525 7.62578 32.3746C9.24789 34.0127 11.1777 35.3143 13.3043 36.2043C15.4309 37.0944 17.7125 37.5555 20.0178 37.5612C22.3232 37.5669 24.607 37.117 26.738 36.2374C28.8689 35.3578 30.8051 34.0658 32.4353 32.4356C34.0654 30.8055 35.3574 28.8693 36.237 26.7383C37.1166 24.6074 37.5665 22.3236 37.5609 20.0182C37.5552 17.7128 37.0941 15.4313 36.204 13.3047C35.3139 11.1781 34.0124 9.24825 32.3742 7.62615ZM14.375 16.2504C14.7458 16.2504 15.1084 16.3603 15.4167 16.5664C15.725 16.7724 15.9654 17.0652 16.1073 17.4078C16.2492 17.7504 16.2863 18.1274 16.214 18.4912C16.1416 18.8549 15.963 19.189 15.7008 19.4512C15.4386 19.7134 15.1045 19.892 14.7408 19.9643C14.3771 20.0367 14.0001 19.9996 13.6575 19.8576C13.3149 19.7157 13.022 19.4754 12.816 19.1671C12.61 18.8587 12.5 18.4962 12.5 18.1254C12.4994 17.879 12.5475 17.6349 12.6415 17.4071C12.7355 17.1793 12.8736 16.9724 13.0478 16.7982C13.222 16.6239 13.429 16.4858 13.6567 16.3918C13.8845 16.2978 14.1286 16.2497 14.375 16.2504ZM27.4742 24.5449C26.5367 27.6933 23.5523 30.0004 20.0039 30.0004C16.4555 30.0004 13.4711 27.6933 12.5258 24.5449C12.4993 24.4511 12.4952 24.3525 12.5136 24.2568C12.5321 24.1612 12.5727 24.0712 12.6321 23.994C12.6915 23.9168 12.7682 23.8546 12.8559 23.8123C12.9437 23.77 13.0401 23.7488 13.1375 23.7504H26.8633C26.9606 23.7489 27.0569 23.7702 27.1446 23.8126C27.2323 23.8549 27.3088 23.9172 27.3681 23.9943C27.4275 24.0715 27.468 24.1615 27.4864 24.257C27.5048 24.3526 27.5006 24.4512 27.4742 24.5449ZM25.625 20.0004C25.2542 20.0004 24.8916 19.8904 24.5833 19.6844C24.275 19.4783 24.0346 19.1855 23.8927 18.8429C23.7508 18.5003 23.7137 18.1233 23.786 17.7596C23.8584 17.3959 24.037 17.0618 24.2992 16.7995C24.5614 16.5373 24.8955 16.3587 25.2592 16.2864C25.6229 16.214 25.9999 16.2512 26.3425 16.3931C26.6851 16.535 26.978 16.7753 27.184 17.0837C27.39 17.392 27.5 17.7545 27.5 18.1254C27.5006 18.3718 27.4525 18.6159 27.3585 18.8436C27.2645 19.0714 27.1264 19.2783 26.9522 19.4526C26.778 19.6268 26.571 19.7649 26.3433 19.8589C26.1155 19.9529 25.8714 20.001 25.625 20.0004Z" fill="url(#paint0_linear_6434_23907)"/>
<defs>
<linearGradient id="paint0_linear_6434_23907" x1="-6.23115" y1="19.9999" x2="45.7168" y2="19.9999" gradientUnits="userSpaceOnUse">
<stop stop-color="#4D7EF2"/>
<stop offset="1" stop-color="#5FD4F4"/>
</linearGradient>
</defs>
</svg>
