<svg width="40" height="40" viewBox="0 0 40 40" fill="none" xmlns="http://www.w3.org/2000/svg">
<g clip-path="url(#clip0_6434_23864)">
<path d="M12.5 8.75V3.75C12.5 3.41848 12.6317 3.10054 12.8661 2.86612C13.1005 2.6317 13.4185 2.5 13.75 2.5C14.0815 2.5 14.3995 2.6317 14.6339 2.86612C14.8683 3.10054 15 3.41848 15 3.75V8.75C15 9.08152 14.8683 9.39946 14.6339 9.63388C14.3995 9.8683 14.0815 10 13.75 10C13.4185 10 13.1005 9.8683 12.8661 9.63388C12.6317 9.39946 12.5 9.08152 12.5 8.75ZM18.75 10C19.0815 10 19.3995 9.8683 19.6339 9.63388C19.8683 9.39946 20 9.08152 20 8.75V3.75C20 3.41848 19.8683 3.10054 19.6339 2.86612C19.3995 2.6317 19.0815 2.5 18.75 2.5C18.4185 2.5 18.1005 2.6317 17.8661 2.86612C17.6317 3.10054 17.5 3.41848 17.5 3.75V8.75C17.5 9.08152 17.6317 9.39946 17.8661 9.63388C18.1005 9.8683 18.4185 10 18.75 10ZM23.75 10C24.0815 10 24.3995 9.8683 24.6339 9.63388C24.8683 9.39946 25 9.08152 25 8.75V3.75C25 3.41848 24.8683 3.10054 24.6339 2.86612C24.3995 2.6317 24.0815 2.5 23.75 2.5C23.4185 2.5 23.1005 2.6317 22.8661 2.86612C22.6317 3.10054 22.5 3.41848 22.5 3.75V8.75C22.5 9.08152 22.6317 9.39946 22.8661 9.63388C23.1005 9.8683 23.4185 10 23.75 10ZM38.75 18.75V20C38.7491 21.5894 38.1428 23.1188 37.0543 24.2769C35.9658 25.4351 34.4769 26.135 32.8906 26.2344C32.0297 28.6424 30.5793 30.7965 28.6719 32.5H32.5C32.8315 32.5 33.1495 32.6317 33.3839 32.8661C33.6183 33.1005 33.75 33.4185 33.75 33.75C33.75 34.0815 33.6183 34.3995 33.3839 34.6339C33.1495 34.8683 32.8315 35 32.5 35H5C4.66848 35 4.35054 34.8683 4.11612 34.6339C3.8817 34.3995 3.75 34.0815 3.75 33.75C3.75 33.4185 3.8817 33.1005 4.11612 32.8661C4.35054 32.6317 4.66848 32.5 5 32.5H8.82812C7.2352 31.0898 5.95908 29.3581 5.0838 27.419C4.20852 25.48 3.75394 23.3775 3.75 21.25V13.75C3.75 13.4185 3.8817 13.1005 4.11612 12.8661C4.35054 12.6317 4.66848 12.5 5 12.5H32.5C34.1576 12.5 35.7473 13.1585 36.9194 14.3306C38.0915 15.5027 38.75 17.0924 38.75 18.75ZM36.25 18.75C36.2491 17.9753 36.0083 17.2198 35.5606 16.5875C35.113 15.9551 34.4804 15.477 33.75 15.2188V21.25C33.751 22.035 33.6883 22.8189 33.5625 23.5938C34.3381 23.3646 35.0188 22.8909 35.5031 22.2432C35.9875 21.5956 36.2494 20.8087 36.25 20V18.75Z" fill="url(#paint0_linear_6434_23864)"/>
</g>
<defs>
<linearGradient id="paint0_linear_6434_23864" x1="-4.89017" y1="18.7496" x2="46.8776" y2="18.7496" gradientUnits="userSpaceOnUse">
<stop stop-color="#4D7EF2"/>
<stop offset="1" stop-color="#5FD4F4"/>
</linearGradient>
<clipPath id="clip0_6434_23864">
<rect width="40" height="40" fill="white"/>
</clipPath>
</defs>
</svg>
