<svg width="40" height="40" viewBox="0 0 40 40" fill="none" xmlns="http://www.w3.org/2000/svg">
<g clip-path="url(#clip0_6434_23871)">
<path d="M33.5938 13.468L28.9375 17.843L33.6563 30.8274C33.7371 31.0517 33.7521 31.2944 33.6995 31.527C33.6469 31.7596 33.5289 31.9722 33.3594 32.1399L29.6094 35.8899C29.4781 36.0178 29.3209 36.1161 29.1484 36.1781C28.9759 36.2401 28.7921 36.2644 28.6094 36.2493C28.4278 36.2289 28.2528 36.1695 28.0964 36.0751C27.9399 35.9807 27.8058 35.8536 27.7031 35.7024L21.0469 25.968L18.1094 28.6711V31.8743C18.1054 32.2087 17.9708 32.5283 17.7344 32.7649L14.6094 35.8899C14.4943 36.0044 14.3578 36.0951 14.2077 36.1567C14.0575 36.2184 13.8967 36.2498 13.7344 36.2493L13.4531 36.218C13.2454 36.171 13.0531 36.0717 12.8944 35.9295C12.7358 35.7873 12.6162 35.6069 12.5469 35.4055L10.5313 29.4524L4.57814 27.4368C4.37672 27.3675 4.19634 27.2478 4.05414 27.0892C3.91194 26.9306 3.81263 26.7383 3.76564 26.5305C3.7203 26.3232 3.72651 26.108 3.78372 25.9037C3.84093 25.6994 3.94739 25.5122 4.09377 25.3586L7.21877 22.2336C7.4569 22.0015 7.77683 21.8724 8.10939 21.8743H11.3438L14.2656 18.9368L4.28127 12.2961C4.13239 12.1876 4.00714 12.0499 3.91313 11.8914C3.81912 11.7329 3.75831 11.557 3.73439 11.3743C3.71697 11.189 3.74009 11.0022 3.80215 10.8268C3.86421 10.6515 3.96372 10.4917 4.09377 10.3586L7.84377 6.60864C8.01209 6.44014 8.22556 6.32393 8.45845 6.27402C8.69133 6.22412 8.93368 6.24265 9.15627 6.32739L22.1406 11.0461L26.2969 6.63989C26.3405 6.57541 26.3931 6.51753 26.4531 6.46802C27.3696 5.57586 28.5932 5.06884 29.8721 5.05125C31.151 5.03367 32.388 5.50685 33.3286 6.37347C34.2693 7.24008 34.8421 8.43424 34.9292 9.71029C35.0163 10.9863 34.6111 12.2472 33.7969 13.2336C33.7418 13.3219 33.6733 13.4009 33.5938 13.468Z" fill="url(#paint0_linear_6434_23871)"/>
</g>
<defs>
<linearGradient id="paint0_linear_6434_23871" x1="-3.97631" y1="20.6518" x2="42.1888" y2="20.6518" gradientUnits="userSpaceOnUse">
<stop stop-color="#4D7EF2"/>
<stop offset="1" stop-color="#5FD4F4"/>
</linearGradient>
<clipPath id="clip0_6434_23871">
<rect width="40" height="40" fill="white"/>
</clipPath>
</defs>
</svg>
