<svg width="404" height="563" viewBox="0 0 404 563" fill="none" xmlns="http://www.w3.org/2000/svg">
<g clip-path="url(#clip0_5_175)">
<path d="M232.342 579.234L232.562 578.985C233.956 577.324 235.491 575.644 237.145 574.053C237.746 573.457 238.06 573.177 238.147 573.1L238.173 573.078C241.032 570.292 244.06 568.268 247.102 566.822C248.73 566.018 250.405 565.402 252.082 564.935C258.856 562.975 265.253 563.428 269.462 564.171C270.146 564.277 270.673 564.377 271.013 564.445C273.046 564.861 275.04 565.456 276.97 566.219C277.908 566.569 278.833 566.984 279.739 567.454C279.767 567.467 279.793 567.481 279.821 567.494C291.218 572.839 300.819 589.48 302.65 592.802C303.261 593.868 303.839 594.926 304.384 595.972C313.358 612.958 313.736 626.289 313.752 627.38C313.761 627.546 313.767 627.673 313.771 627.76L313.775 627.822L313.775 627.995C313.775 628.029 313.774 628.062 313.774 628.094C313.768 629.357 313.445 629.891 313.224 630.045L313.202 630.06C312.834 630.346 312.423 630.121 312.423 630.121C312.423 630.121 287.848 616.374 262.868 591.877C237.897 616.36 213.343 630.098 213.343 630.098C213.343 630.098 212.003 630.831 212.003 627.972L212.003 627.799L212.007 627.728C212.089 626.026 212.86 609.869 224.018 591.274L224.099 591.132L224.113 591.112C224.686 590.103 227.711 584.801 232.342 579.234Z" fill="#DDE3F0"/>
<path d="M232.342 257.001L232.562 256.752C233.956 255.091 235.491 253.411 237.145 251.82C237.746 251.224 238.06 250.944 238.147 250.867L238.173 250.845C241.032 248.059 244.06 246.035 247.102 244.589C248.73 243.784 250.405 243.169 252.082 242.702C258.856 240.742 265.253 241.195 269.462 241.938C270.146 242.044 270.673 242.143 271.013 242.212C273.046 242.628 275.04 243.222 276.97 243.986C277.908 244.335 278.833 244.75 279.739 245.22C279.767 245.234 279.793 245.247 279.821 245.261C291.218 250.605 300.819 267.246 302.65 270.568C303.261 271.635 303.839 272.693 304.384 273.739C313.358 290.725 313.736 304.056 313.752 305.147C313.761 305.313 313.767 305.44 313.771 305.527L313.775 305.589L313.775 305.762C313.775 305.796 313.774 305.829 313.774 305.861C313.768 307.124 313.445 307.657 313.224 307.812L313.202 307.827C312.834 308.112 312.423 307.887 312.423 307.887C312.423 307.887 287.848 294.141 262.868 269.643C237.897 294.126 213.343 307.864 213.343 307.864C213.343 307.864 212.003 308.598 212.003 305.739L212.003 305.566L212.007 305.495C212.089 303.792 212.86 287.636 224.018 269.041L224.099 268.899L224.113 268.879C224.686 267.87 227.711 262.568 232.342 257.001Z" fill="#DDE3F0"/>
<path d="M232.342 418.117L232.562 417.869C233.956 416.207 235.491 414.528 237.144 412.936C237.745 412.341 238.06 412.061 238.147 411.984L238.173 411.962C241.031 409.175 244.06 407.152 247.101 405.706C248.73 404.901 250.405 404.285 252.081 403.818C258.856 401.859 265.253 402.311 269.462 403.055C270.146 403.161 270.673 403.26 271.013 403.328C273.046 403.745 275.04 404.339 276.97 405.102C277.908 405.452 278.832 405.867 279.739 406.337C279.767 406.35 279.793 406.364 279.821 406.377C291.218 411.722 300.819 428.363 302.65 431.685C303.261 432.752 303.838 433.809 304.384 434.856C313.357 451.841 313.736 465.173 313.752 466.264C313.761 466.429 313.766 466.557 313.771 466.643L313.775 466.706L313.775 466.879C313.775 466.912 313.774 466.945 313.774 466.978C313.768 468.24 313.445 468.774 313.224 468.929L313.202 468.943C312.834 469.229 312.423 469.004 312.423 469.004C312.423 469.004 287.848 455.258 262.868 430.76C237.897 455.243 213.343 468.981 213.343 468.981C213.343 468.981 212.003 469.714 212.003 466.856L212.003 466.683L212.007 466.611C212.089 464.909 212.86 448.753 224.018 430.158L224.099 430.016L224.112 429.996C224.686 428.987 227.711 423.685 232.342 418.117Z" fill="#DDE3F0"/>
<path d="M232.342 498.676L232.562 498.427C233.956 496.765 235.491 495.086 237.145 493.495C237.746 492.899 238.06 492.619 238.147 492.542L238.173 492.52C241.032 489.734 244.06 487.71 247.102 486.264C248.73 485.459 250.405 484.843 252.082 484.377C258.856 482.417 265.253 482.87 269.462 483.613C270.146 483.719 270.673 483.818 271.013 483.887C273.046 484.303 275.04 484.897 276.97 485.661C277.908 486.01 278.833 486.425 279.739 486.895C279.767 486.909 279.793 486.922 279.821 486.936C291.218 492.28 300.819 508.921 302.65 512.243C303.261 513.31 303.839 514.368 304.384 515.414C313.358 532.4 313.736 545.731 313.752 546.822C313.761 546.988 313.767 547.115 313.771 547.202L313.775 547.264L313.775 547.437C313.775 547.471 313.774 547.503 313.774 547.536C313.768 548.799 313.445 549.332 313.224 549.487L313.202 549.502C312.834 549.787 312.423 549.562 312.423 549.562C312.423 549.562 287.848 535.816 262.868 511.318C237.897 535.801 213.343 549.539 213.343 549.539C213.343 549.539 212.003 550.272 212.003 547.414L212.003 547.241L212.008 547.17C212.089 545.467 212.86 529.311 224.018 510.716L224.099 510.574L224.113 510.554C224.686 509.545 227.711 504.243 232.342 498.676Z" fill="#DDE3F0"/>
<path d="M232.342 176.444L232.562 176.195C233.956 174.534 235.491 172.854 237.145 171.263C237.746 170.667 238.06 170.388 238.147 170.31L238.173 170.288C241.032 167.502 244.06 165.479 247.102 164.032C248.73 163.228 250.405 162.612 252.082 162.145C258.856 160.185 265.253 160.638 269.462 161.381C270.146 161.487 270.673 161.587 271.013 161.655C273.046 162.071 275.04 162.666 276.97 163.429C277.908 163.779 278.833 164.194 279.739 164.664C279.767 164.677 279.793 164.691 279.821 164.704C291.218 170.049 300.819 186.69 302.65 190.012C303.261 191.078 303.839 192.136 304.384 193.182C313.358 210.168 313.736 223.499 313.752 224.59C313.761 224.756 313.767 224.883 313.771 224.97L313.775 225.032L313.775 225.205C313.775 225.239 313.774 225.272 313.774 225.304C313.768 226.567 313.445 227.101 313.224 227.255L313.202 227.27C312.834 227.556 312.423 227.331 312.423 227.331C312.423 227.331 287.848 213.584 262.868 189.087C237.897 213.57 213.343 227.308 213.343 227.308C213.343 227.308 212.003 228.041 212.003 225.182L212.003 225.009L212.008 224.938C212.089 223.236 212.86 207.079 224.018 188.484L224.099 188.342L224.113 188.322C224.686 187.314 227.711 182.011 232.342 176.444Z" fill="#DDE3F0"/>
<path d="M232.342 337.559L232.562 337.31C233.956 335.649 235.491 333.969 237.145 332.378C237.746 331.782 238.06 331.502 238.147 331.425L238.173 331.403C241.032 328.617 244.06 326.593 247.102 325.147C248.73 324.343 250.405 323.727 252.082 323.26C258.856 321.3 265.253 321.753 269.462 322.496C270.146 322.602 270.673 322.702 271.013 322.77C273.046 323.186 275.04 323.78 276.97 324.544C277.908 324.894 278.833 325.309 279.739 325.779C279.767 325.792 279.793 325.805 279.821 325.819C291.218 331.163 300.819 347.805 302.65 351.127C303.261 352.193 303.839 353.251 304.384 354.297C313.358 371.283 313.736 384.614 313.752 385.705C313.761 385.871 313.767 385.998 313.771 386.085L313.775 386.147L313.775 386.32C313.775 386.354 313.774 386.387 313.774 386.419C313.768 387.682 313.445 388.216 313.224 388.37L313.202 388.385C312.834 388.671 312.423 388.446 312.423 388.446C312.423 388.446 287.848 374.699 262.868 350.202C237.897 374.685 213.343 388.422 213.343 388.422C213.343 388.422 212.003 389.156 212.003 386.297L212.003 386.124L212.008 386.053C212.089 384.351 212.86 368.194 224.018 349.599L224.099 349.457L224.113 349.437C224.686 348.428 227.711 343.126 232.342 337.559Z" fill="#DDE3F0"/>
<path d="M421.66 533.308L421.44 533.556C420.046 535.218 418.51 536.897 416.857 538.489C416.256 539.084 415.942 539.364 415.855 539.441L415.828 539.463C412.97 542.25 409.942 544.273 406.9 545.72C405.272 546.524 403.597 547.14 401.92 547.607C395.146 549.567 388.749 549.114 384.54 548.37C383.856 548.264 383.329 548.165 382.989 548.097C380.956 547.68 378.962 547.086 377.032 546.323C376.093 545.973 375.169 545.558 374.263 545.088C374.235 545.075 374.209 545.061 374.181 545.048C362.783 539.703 353.183 523.062 351.352 519.74C350.741 518.673 350.163 517.616 349.617 516.569C340.644 499.584 340.266 486.252 340.25 485.161C340.241 484.996 340.235 484.869 340.231 484.782L340.227 484.719L340.227 484.546C340.227 484.513 340.228 484.48 340.228 484.447C340.234 483.185 340.557 482.651 340.778 482.496L340.8 482.482C341.168 482.196 341.579 482.421 341.579 482.421C341.579 482.421 366.154 496.167 391.134 520.665C416.105 496.182 440.658 482.444 440.658 482.444C440.658 482.444 441.999 481.711 441.999 484.569L441.999 484.742L441.994 484.814C441.913 486.516 441.142 502.672 429.984 521.267L429.902 521.409L429.889 521.429C429.316 522.438 426.29 527.74 421.66 533.308Z" fill="#DDE3F0"/>
<path d="M421.66 613.864L421.44 614.113C420.046 615.774 418.51 617.454 416.857 619.045C416.256 619.641 415.942 619.921 415.855 619.998L415.828 620.02C412.97 622.806 409.942 624.83 406.9 626.276C405.272 627.08 403.597 627.696 401.92 628.163C395.146 630.123 388.749 629.67 384.54 628.927C383.856 628.821 383.329 628.722 382.989 628.653C380.956 628.237 378.962 627.643 377.032 626.879C376.093 626.529 375.169 626.115 374.263 625.645C374.235 625.631 374.209 625.618 374.181 625.604C362.783 620.26 353.183 603.618 351.352 600.297C350.741 599.23 350.163 598.172 349.617 597.126C340.644 580.14 340.266 566.809 340.25 565.718C340.241 565.552 340.235 565.425 340.231 565.338L340.227 565.276L340.227 565.103C340.227 565.069 340.228 565.036 340.228 565.004C340.234 563.741 340.557 563.208 340.778 563.053L340.8 563.038C341.168 562.752 341.579 562.978 341.579 562.978C341.579 562.978 366.154 576.724 391.134 601.221C416.105 576.738 440.658 563.001 440.658 563.001C440.658 563.001 441.999 562.267 441.999 565.126L441.999 565.299L441.994 565.37C441.913 567.073 441.142 583.229 429.984 601.824L429.902 601.966L429.889 601.986C429.316 602.995 426.29 608.297 421.66 613.864Z" fill="#DDE3F0"/>
<path d="M421.654 50.4055L421.434 50.6544C420.04 52.3157 418.505 53.9951 416.852 55.5866C416.251 56.1821 415.936 56.4621 415.849 56.5393L415.823 56.5613C412.965 59.3476 409.936 61.3711 406.895 62.8174C405.266 63.6218 403.591 64.2377 401.915 64.7045C395.14 66.6644 388.743 66.2116 384.534 65.4684C383.85 65.3622 383.323 65.2629 382.983 65.1945C380.95 64.7784 378.956 64.1841 377.026 63.4206C376.088 63.0709 375.164 62.6559 374.257 62.186C374.229 62.1726 374.203 62.159 374.176 62.1455C362.778 56.8011 353.177 40.1599 351.347 36.838C350.735 35.7711 350.158 34.7135 349.612 33.6673C340.639 16.6816 340.26 3.35018 340.244 2.25918C340.235 2.0936 340.23 1.96641 340.225 1.87945L340.221 1.81729L340.221 1.64412C340.221 1.61064 340.222 1.5777 340.222 1.54514C340.228 0.282647 340.551 -0.251009 340.772 -0.405861L340.794 -0.420476C341.162 -0.706222 341.573 -0.480974 341.573 -0.480974C341.573 -0.480974 366.148 13.2653 391.128 37.7628C416.099 13.2798 440.653 -0.457958 440.653 -0.457958C440.653 -0.457958 441.993 -1.19133 441.993 1.66714L441.993 1.8404L441.989 1.91144C441.907 3.61389 441.136 19.7703 429.978 38.3653L429.897 38.5073L429.884 38.5273C429.31 39.5361 426.285 44.8383 421.654 50.4055Z" fill="#DDE3F0"/>
<path d="M421.654 372.639L421.434 372.888C420.04 374.549 418.505 376.229 416.852 377.82C416.251 378.416 415.936 378.696 415.849 378.773L415.823 378.795C412.965 381.581 409.936 383.605 406.895 385.051C405.266 385.855 403.591 386.471 401.915 386.938C395.14 388.898 388.743 388.445 384.534 387.702C383.85 387.596 383.323 387.496 382.983 387.428C380.95 387.012 378.956 386.418 377.026 385.654C376.088 385.304 375.164 384.889 374.257 384.419C374.229 384.406 374.203 384.393 374.175 384.379C362.778 379.035 353.177 362.393 351.346 359.071C350.735 358.005 350.157 356.947 349.612 355.901C340.638 338.915 340.26 325.584 340.244 324.493C340.235 324.327 340.23 324.2 340.225 324.113L340.221 324.051L340.221 323.878C340.221 323.844 340.222 323.811 340.222 323.779C340.228 322.516 340.551 321.982 340.772 321.828L340.794 321.813C341.162 321.527 341.573 321.752 341.573 321.752C341.573 321.752 366.148 335.499 391.128 359.996C416.099 335.513 440.653 321.776 440.653 321.776C440.653 321.776 441.993 321.042 441.993 323.901L441.993 324.074L441.989 324.145C441.907 325.847 441.136 342.004 429.978 360.599L429.897 360.741L429.884 360.761C429.31 361.77 426.285 367.072 421.654 372.639Z" fill="#DDE3F0"/>
<path d="M421.654 211.522L421.434 211.771C420.04 213.432 418.505 215.112 416.852 216.703C416.251 217.299 415.936 217.579 415.849 217.656L415.823 217.678C412.965 220.464 409.936 222.488 406.895 223.934C405.266 224.739 403.591 225.354 401.915 225.821C395.14 227.781 388.743 227.328 384.534 226.585C383.85 226.479 383.323 226.38 382.983 226.311C380.95 225.895 378.956 225.301 377.026 224.537C376.088 224.188 375.164 223.773 374.257 223.303C374.229 223.289 374.203 223.276 374.175 223.262C362.778 217.918 353.177 201.277 351.346 197.955C350.735 196.888 350.157 195.83 349.612 194.784C340.638 177.798 340.26 164.467 340.244 163.376C340.235 163.21 340.23 163.083 340.225 162.996L340.221 162.934L340.221 162.761C340.221 162.727 340.222 162.694 340.222 162.662C340.228 161.399 340.551 160.866 340.772 160.711L340.794 160.696C341.162 160.411 341.573 160.636 341.573 160.636C341.573 160.636 366.148 174.382 391.128 198.88C416.099 174.397 440.653 160.659 440.653 160.659C440.653 160.659 441.993 159.925 441.993 162.784L441.993 162.957L441.989 163.028C441.907 164.731 441.136 180.887 429.978 199.482L429.897 199.624L429.884 199.644C429.31 200.653 426.285 205.955 421.654 211.522Z" fill="#DDE3F0"/>
<path d="M421.654 130.964L421.434 131.213C420.04 132.874 418.505 134.553 416.851 136.145C416.25 136.74 415.936 137.02 415.849 137.098L415.823 137.12C412.964 139.906 409.936 141.929 406.894 143.376C405.266 144.18 403.591 144.796 401.914 145.263C395.14 147.223 388.743 146.77 384.534 146.027C383.85 145.921 383.323 145.821 382.983 145.753C380.95 145.337 378.956 144.742 377.026 143.979C376.088 143.629 375.164 143.214 374.257 142.744C374.229 142.731 374.203 142.717 374.175 142.704C362.778 137.359 353.177 120.718 351.346 117.396C350.735 116.329 350.157 115.272 349.612 114.226C340.638 97.2399 340.26 83.9085 340.244 82.8175C340.235 82.6519 340.229 82.5247 340.225 82.4378L340.221 82.3756L340.221 82.2024C340.221 82.1689 340.222 82.136 340.222 82.1034C340.228 80.841 340.551 80.3073 340.772 80.1524L340.794 80.1378C341.162 79.8521 341.573 80.0773 341.573 80.0773C341.573 80.0773 366.148 93.8236 391.128 118.321C416.099 93.8381 440.653 80.1003 440.653 80.1003C440.653 80.1003 441.993 79.367 441.993 82.2254L441.993 82.3987L441.989 82.4697C441.907 84.1722 441.136 100.329 429.978 118.924L429.897 119.066L429.884 119.086C429.31 120.094 426.285 125.397 421.654 130.964Z" fill="#DDE3F0"/>
<path d="M421.654 453.197L421.434 453.446C420.04 455.107 418.505 456.787 416.851 458.378C416.25 458.974 415.936 459.254 415.849 459.331L415.823 459.353C412.964 462.139 409.936 464.163 406.894 465.609C405.266 466.413 403.591 467.029 401.914 467.496C395.14 469.456 388.743 469.003 384.534 468.26C383.85 468.154 383.323 468.054 382.983 467.986C380.95 467.57 378.956 466.976 377.026 466.212C376.088 465.862 375.164 465.447 374.257 464.978C374.229 464.964 374.203 464.951 374.175 464.937C362.778 459.593 353.177 442.951 351.346 439.63C350.735 438.563 350.157 437.505 349.612 436.459C340.638 419.473 340.26 406.142 340.244 405.051C340.235 404.885 340.229 404.758 340.225 404.671L340.221 404.609L340.221 404.436C340.221 404.402 340.222 404.369 340.222 404.337C340.228 403.074 340.551 402.541 340.772 402.386L340.794 402.371C341.162 402.085 341.573 402.311 341.573 402.311C341.573 402.311 366.148 416.057 391.128 440.554C416.099 416.071 440.653 402.334 440.653 402.334C440.653 402.334 441.993 401.6 441.993 404.459L441.993 404.632L441.989 404.703C441.907 406.405 441.136 422.562 429.978 441.157L429.897 441.299L429.884 441.319C429.31 442.328 426.285 447.63 421.654 453.197Z" fill="#DDE3F0"/>
<path d="M421.654 292.08L421.434 292.329C420.04 293.991 418.505 295.67 416.851 297.262C416.25 297.857 415.936 298.137 415.849 298.214L415.823 298.236C412.964 301.022 409.936 303.046 406.894 304.492C405.266 305.297 403.591 305.913 401.914 306.379C395.14 308.339 388.743 307.887 384.534 307.143C383.85 307.037 383.323 306.938 382.983 306.869C380.95 306.453 378.956 305.859 377.026 305.095C376.088 304.746 375.164 304.331 374.257 303.861C374.229 303.847 374.203 303.834 374.175 303.82C362.778 298.476 353.177 281.835 351.346 278.513C350.735 277.446 350.157 276.388 349.612 275.342C340.638 258.357 340.26 245.025 340.244 243.934C340.235 243.769 340.229 243.641 340.225 243.554L340.221 243.492L340.221 243.319C340.221 243.286 340.222 243.253 340.222 243.22C340.228 241.958 340.551 241.424 340.772 241.269L340.794 241.254C341.162 240.969 341.573 241.194 341.573 241.194C341.573 241.194 366.148 254.94 391.128 279.438C416.099 254.955 440.653 241.217 440.653 241.217C440.653 241.217 441.993 240.484 441.993 243.342L441.993 243.515L441.989 243.586C441.907 245.289 441.136 261.445 429.978 280.04L429.897 280.182L429.884 280.202C429.31 281.211 426.285 286.513 421.654 292.08Z" fill="#DDE3F0"/>
</g>
<g clip-path="url(#clip1_5_175)">
<path d="M220.014 377.895C226.989 377.895 232.644 371.954 232.644 364.624C232.644 357.294 226.989 351.353 220.014 351.353C213.039 351.353 207.384 357.294 207.384 364.624C207.384 371.954 213.039 377.895 220.014 377.895Z" fill="#DAADAC"/>
<path d="M134.875 377.895C141.851 377.895 147.505 371.954 147.505 364.624C147.505 357.294 141.851 351.353 134.875 351.353C127.9 351.353 122.245 357.294 122.245 364.624C122.245 371.954 127.9 377.895 134.875 377.895Z" fill="#DAADAC"/>
<path d="M308.36 372.237C306.852 375.57 304.913 378.574 302.838 381.517C301.095 384.006 299.333 386.455 297.669 389.006C293.733 395.014 291.696 401.64 291.814 408.985C291.872 412.298 291.579 415.59 291.168 418.882C290.561 423.573 288.779 427.627 285.567 430.981C283.707 432.915 281.69 434.623 279.439 436.063C276.932 437.668 274.289 439.026 271.567 440.157C265.771 442.524 259.74 443.985 253.611 444.993C248.638 445.836 243.625 445.857 238.651 445.343C229.683 444.376 221.263 441.433 213.196 437.297C212.706 437.03 212.217 436.783 211.727 436.557C211.59 436.495 211.434 436.454 211.296 436.433C211.414 434.479 211.512 432.503 211.59 430.528C211.688 428.368 212.236 426.66 213.822 425.096C214.273 424.643 214.704 424.191 215.095 423.738C215.546 423.306 215.957 422.853 216.368 422.401C221.968 416.146 226.413 408.985 229.996 401.208C230.173 400.817 230.368 400.426 230.525 400.014C230.74 399.541 230.956 399.068 231.152 398.595C234.226 391.558 236.576 384.274 237.966 376.64C238.279 375.035 238.73 373.842 240.551 373.225C249.362 370.262 254.571 363.595 257.116 354.48C258.271 350.344 258.252 346.147 256.862 342.011C254.845 336.044 250.811 332.67 244.878 331.847C242.704 331.559 240.59 331.929 238.553 332.608C238.416 329.851 238.357 327.053 238.553 324.275C238.749 321.662 238.945 319.049 238.984 316.415C239.004 314.049 238.397 313.493 236.106 313.205C235.89 313.164 235.675 313.185 235.459 313.164C228.978 312.382 222.516 311.456 216.192 309.749C206.636 307.177 197.511 303.72 189.855 296.827C185.802 293.185 181.572 289.728 180.123 283.926C180.006 283.412 179.242 283.309 178.753 283.597C178.107 283.947 177.852 284.543 177.578 285.161C176.912 286.601 176.246 288.041 175.522 289.44C173.74 292.774 171.547 295.695 168.453 297.815C163.225 301.395 157.723 304.275 151.594 305.736C145.817 307.094 139.963 307.259 134.088 307.197C128.234 307.115 128.586 306.888 126.217 312.197C122.771 319.913 118.424 326.97 112.04 332.444C111.805 332.629 111.59 332.896 111.413 333.143C103.738 330.88 96.0815 334.604 93.4968 342.937C92.3611 346.6 92.2436 350.386 93.1248 354.11C95.4158 363.904 100.859 370.838 110.141 374.048C111.472 374.5 112.118 375.22 112.314 376.62C112.823 380.015 113.744 383.307 114.723 386.578C116.798 393.615 119.422 400.302 122.751 406.537C123.064 407.133 123.378 407.73 123.71 408.327C127.509 415.117 132.13 421.372 137.75 426.989C137.907 427.154 138.044 427.318 138.22 427.462C138.847 428.018 139.14 428.717 139.101 429.561C139.042 430.816 139.082 432.092 138.944 433.326C138.494 437.647 137.965 441.948 137.456 446.248C137.417 446.536 137.398 446.803 137.358 447.092C137.163 447.03 136.967 447.092 136.81 447.236C134.97 448.84 132.698 449.19 130.525 449.869C127.039 450.96 123.456 451.063 119.892 451.392C113.097 452.03 106.381 451.371 99.7824 449.931C89.3261 447.668 79.281 444.067 69.7059 438.964C64.6931 436.289 60.209 433.038 56.1949 428.944C51.9654 424.602 48.9891 419.52 47.1093 413.697C44.3875 405.199 44.6225 396.846 48.4408 388.739C49.4982 386.496 50.7318 384.315 51.9654 382.175C53.7669 379.048 55.3921 375.817 56.8019 372.463C59.0146 367.114 59.6216 361.496 59.3083 355.715C58.9559 349.069 57.8985 342.567 56.4886 336.106C54.7851 328.308 54.3739 320.53 56.3712 312.711C58.016 306.23 60.6202 300.243 64.5952 294.975C69.6275 288.309 76.4417 284.749 84.2546 283.144C86.9176 282.609 89.6002 282.218 92.2828 281.704C96.6102 280.84 100.194 278.597 103.013 275.037C104.031 273.72 105.069 272.362 105.872 270.881C107.38 268.103 108.79 265.264 110.121 262.404C112.158 257.959 114.703 253.844 117.523 249.914C121.752 243.988 127.431 240.408 134.108 238.515C139.982 236.849 145.935 236.828 151.907 237.919C157.39 238.927 162.657 240.614 167.65 243.289C171.214 245.202 174.112 247.857 176.305 251.396C176.658 251.972 176.99 252.569 177.382 253.104C177.852 253.721 178.596 253.762 179.066 253.206C179.497 252.692 179.888 252.136 180.221 251.56C182.414 247.816 185.587 245.367 189.327 243.515C196.062 240.182 203.17 238.207 210.474 236.828C216.29 235.717 222.105 235.326 227.96 236.519C232.561 237.445 237.143 238.577 241.197 241.149C252.769 248.474 260.837 258.68 263.774 272.836C264.596 276.827 265.144 280.922 265.712 284.975C266.985 293.864 270.549 301.477 276.697 307.794C280.907 312.115 285.489 315.962 290.404 319.357C293.674 321.641 296.866 324.008 299.822 326.703C305.168 331.559 308.732 337.567 310.494 344.748C311.179 347.546 311.512 350.365 311.669 353.225C312.002 359.83 311.062 366.188 308.36 372.237Z" fill="white"/>
<path d="M340 544.5L343 562.5L1 563V559L5 541.5L10 528L16 516L24.5 505.5L35 496.5L51.5 487.5L89 473.5L120 463.5L136.5 455L138.5 446.5L140 428L150.5 438.5L209.5 455L215.5 460.5L237.5 467.5L281 480L298 487.5L310 496.5L323.5 511.5L331.5 523L340 544.5Z" fill="#EEF1F8"/>
<path d="M123.5 406.5L139.5 427.5L149.5 436L186.5 444.5L210.5 427.5L222.5 413.5L234 389.5L238 373L245 370.5L251.5 365.5L255.5 357L257 349.5L255.5 341L253.5 337.5L248.5 334L242.5 333H238V315.5L194.5 302L149 307.5L112 333V374L123.5 406.5Z" fill="#EEF1F8"/>
<path d="M181.359 488.408C180.889 489.19 181.535 489.725 181.751 490.301C182.632 492.503 183.631 494.663 184.531 496.865C185.824 500.034 186.685 503.326 187.253 506.721C187.723 509.519 187.292 512.173 186.45 514.807C186.352 515.136 186.235 515.466 186.078 515.754C184.492 518.963 181.888 519.313 179.538 516.638C178.03 514.931 177.188 512.811 176.444 510.651C176.17 509.828 176.229 508.82 175.25 508.264C175.25 516.535 175.269 524.766 175.25 532.975C175.23 537.77 175.152 542.584 175.093 547.378C175.074 548.16 174.995 548.963 174.839 549.745C174.78 549.992 174.427 550.28 174.153 550.341C173.801 550.424 173.527 550.053 173.507 549.745C173.468 549.066 173.527 548.387 173.546 547.708C173.605 537.07 173.683 526.453 173.723 515.815C173.723 515.136 173.644 514.457 173.39 513.778C173.116 516.33 172.822 518.881 172.567 521.453C171.764 529.745 170.59 537.975 169.317 546.206C169.199 546.967 169.238 547.852 168.475 548.325C168.318 548.428 168.044 548.469 167.887 548.407C167.711 548.346 167.476 548.119 167.457 547.955C167.417 547.625 167.535 547.276 167.574 546.946C168.671 538.922 169.787 530.897 170.844 522.873C171.177 520.28 171.334 517.667 171.569 514.91C170.648 515.136 170.492 515.98 170.12 516.556C169.434 517.585 168.749 518.634 167.789 519.416C165.792 521.062 163.599 520.753 162.15 518.511C160.956 516.659 160.505 514.54 160.799 512.297C161.014 510.713 161.308 509.149 161.641 507.585C162.914 501.906 164.735 496.412 166.791 491.001C167.065 490.301 167.339 489.581 167.241 488.655C166.184 489.766 165.126 490.878 164.089 491.968C160.995 495.24 157.47 497.873 153.515 499.869C146.857 503.223 140.2 503.017 133.777 499.416C122.949 493.367 116.037 481.392 118.289 466.742C118.406 465.96 118.641 465.178 118.837 464.417C119.091 463.429 119.561 462.73 120.697 463.162C121.539 463.471 122.166 462.874 122.812 462.524C125.455 461.166 128.06 459.746 130.664 458.368C131.251 458.059 131.819 457.73 132.446 457.504C135.03 456.516 134.972 455.796 137.008 458.635C140.2 463.1 144.273 466.475 149.07 468.882C154.69 471.701 160.466 473.964 166.693 474.767C169.415 475.116 172.117 475.178 174.819 474.87C179.675 474.293 184.512 473.409 189.27 472.277C194.694 470.981 199.844 468.82 204.778 466.145C207.343 464.767 209.478 462.812 211.299 460.528C212.297 459.273 213.257 458.985 214.686 459.602C217.192 460.693 219.738 461.722 222.303 462.648C226.728 464.232 231.154 465.775 235.618 467.215C236.911 467.627 237.674 468.285 237.988 469.664C238.614 472.442 239.28 475.219 238.849 478.121C238.477 480.61 238.418 483.12 237.831 485.569C236.127 492.77 231.878 497.667 225.495 500.466C222.166 501.927 218.642 502.647 214.999 502.647C212.278 502.647 209.575 502.709 206.854 502.359C197.749 501.207 190.171 496.844 183.533 490.384C182.847 489.705 182.319 488.799 181.359 488.408ZM174.545 479.643C174.271 484.252 174.78 488.758 175.269 493.285C175.759 497.709 176.425 502.091 177.149 506.474C177.58 509.066 178.305 511.577 179.656 513.84C180.223 514.807 180.83 515.754 181.81 516.371C182.593 516.844 183.278 516.803 183.866 516.103C184.747 515.033 185.217 513.758 185.452 512.4C185.961 509.54 185.765 506.721 185.06 503.923C182.828 495.24 178.579 487.544 174.545 479.643ZM172.078 482.4C170.609 486.145 169.376 489.149 168.22 492.215C166.125 497.729 164.343 503.326 163.07 509.108C162.679 510.898 162.62 512.708 162.659 514.54C162.679 515.466 162.933 516.33 163.384 517.132C164.265 518.655 165.714 518.984 166.928 517.791C167.711 517.029 168.377 516.103 168.945 515.136C170.315 512.791 171.177 510.219 171.784 507.544C173.174 501.495 173.174 495.342 172.978 489.19C172.92 487.153 172.9 485.096 172.078 482.4Z" fill="#FAA942"/>
<path d="M115.423 453.264C107.199 453.491 99.2103 451.989 91.3191 449.684C82.8014 447.194 74.6361 443.799 66.8428 439.437C56.9152 433.861 49.3178 426.022 45.5778 414.582C42.4252 404.911 42.9343 395.488 47.575 386.414C48.4954 384.603 49.5332 382.854 50.5318 381.085C52.2745 378.039 53.841 374.912 55.1921 371.661C56.739 367.957 57.4831 364.069 57.581 360.015C57.7572 352.649 56.5823 345.468 55.1725 338.287C54.448 334.604 53.6452 330.942 53.4102 327.156C52.6661 314.625 56.1124 303.452 63.4357 293.617C68.331 287.033 75.0668 283.453 82.7035 281.663C85.1315 281.087 87.6183 280.634 90.0855 280.305C96.1165 279.502 100.581 276.272 103.831 270.963C105.535 268.165 106.984 265.223 108.315 262.219C110.391 257.527 112.995 253.206 115.972 249.112C121.866 240.985 129.815 236.725 139.332 235.779C148.711 234.832 157.718 236.643 166.334 240.717C170.681 242.775 174.441 245.552 177.202 249.729C178.142 251.169 178.514 251.19 179.316 249.914C181.823 245.943 185.426 243.577 189.44 241.602C196.313 238.248 203.558 236.376 210.959 234.997C214.171 234.4 217.421 233.927 220.672 234.009C225.019 234.112 229.307 234.894 233.536 236.067C242.289 238.495 249.103 243.968 255.017 250.881C260.774 257.589 264.259 265.47 265.826 274.317C266.53 278.35 267.098 282.424 267.744 286.477C268.958 294.049 272.229 300.469 277.378 305.901C281.373 310.14 285.739 313.905 290.458 317.197C293.631 319.419 296.744 321.683 299.72 324.213C307.357 330.695 311.743 339.007 313.055 349.254C314.524 360.694 312.193 371.023 305.79 380.365C304.772 381.846 303.715 383.307 302.677 384.768C301.894 385.879 301.15 386.99 300.347 388.08C295.471 394.788 293.298 402.401 293.396 410.796C293.435 414.006 293.18 417.174 292.671 420.343C291.966 424.767 290.145 428.573 287.228 431.804C284.897 434.396 282.195 436.495 279.258 438.285C273.266 441.927 266.746 444.046 260.03 445.631C254.703 446.886 249.319 447.668 243.875 447.524C237.785 447.359 231.754 446.454 225.919 444.458C222.199 443.182 218.459 441.968 214.915 440.199C213.544 439.52 212.193 438.779 210.861 437.997C210.47 437.771 210.235 437.277 210.529 436.824C210.783 436.413 211.253 436.351 211.684 436.557C212.173 436.783 212.663 437.03 213.152 437.298C221.22 441.433 229.659 444.396 238.608 445.343C243.581 445.878 248.594 445.836 253.568 445.013C259.697 444.005 265.728 442.544 271.524 440.158C274.265 439.026 276.889 437.688 279.415 436.084C281.647 434.643 283.683 432.936 285.544 431.001C288.755 427.648 290.537 423.594 291.144 418.903C291.575 415.611 291.849 412.319 291.79 409.006C291.672 401.66 293.709 395.035 297.645 389.027C299.309 386.496 301.071 384.027 302.814 381.537C304.89 378.595 306.828 375.57 308.316 372.237C311.019 366.188 311.958 359.83 311.626 353.225C311.489 350.365 311.156 347.546 310.47 344.768C308.708 337.588 305.144 331.579 299.799 326.724C296.822 324.028 293.65 321.641 290.38 319.378C285.465 315.962 280.903 312.115 276.673 307.794C270.525 301.498 266.961 293.864 265.688 284.996C265.121 280.943 264.572 276.848 263.75 272.836C260.813 258.68 252.745 248.495 241.173 241.149C237.12 238.577 232.538 237.445 227.936 236.52C222.081 235.326 216.266 235.738 210.45 236.828C203.147 238.207 196.039 240.182 189.303 243.515C185.582 245.367 182.391 247.816 180.217 251.56C179.884 252.137 179.473 252.692 179.062 253.206C178.592 253.783 177.848 253.721 177.378 253.104C176.986 252.569 176.653 251.972 176.281 251.396C174.108 247.857 171.19 245.203 167.626 243.289C162.633 240.614 157.366 238.927 151.883 237.919C145.911 236.828 139.958 236.849 134.104 238.515C127.427 240.408 121.729 243.989 117.499 249.914C114.679 253.865 112.153 257.959 110.097 262.404C108.766 265.284 107.356 268.103 105.848 270.881C105.045 272.362 104.027 273.72 102.989 275.037C100.189 278.597 96.5864 280.84 92.259 281.704C89.596 282.239 86.8938 282.609 84.2308 283.165C76.4179 284.77 69.6233 288.329 64.5714 294.996C60.5964 300.263 57.9922 306.251 56.3474 312.732C54.3501 320.551 54.7613 328.328 56.4648 336.127C57.8747 342.587 58.9321 349.11 59.3041 355.735C59.6174 361.517 59.0104 367.134 56.7781 372.484C55.3879 375.838 53.7431 379.068 51.9416 382.196C50.708 384.336 49.4744 386.517 48.417 388.759C44.5987 396.866 44.3638 405.22 47.0855 413.718C48.9653 419.541 51.9416 424.623 56.1711 428.964C60.1852 433.08 64.6693 436.31 69.6821 438.985C79.2572 444.088 89.3023 447.688 99.7586 449.972C106.357 451.413 113.074 452.05 119.868 451.433C123.452 451.104 127.035 451.001 130.501 449.91C132.674 449.231 134.946 448.861 136.786 447.256C137.119 446.968 137.628 447.092 137.883 447.565C138.118 447.997 138.157 448.45 137.844 448.841C137.178 449.684 136.179 449.91 135.279 450.26C130.246 452.215 124.999 453.141 119.653 453.264C118.263 453.285 116.853 453.264 115.423 453.264Z" fill="#001F55"/>
<path d="M258.177 421.722C253.027 420.693 248.445 422.298 244.177 425.528C242.434 426.866 240.495 427.956 238.537 428.944C234.132 431.166 229.51 431.29 224.87 429.973C222.226 429.232 219.837 427.874 217.742 425.96C216.842 425.137 216.058 424.17 214.923 423.656C214.629 423.512 214.413 423.203 214.551 422.833C214.707 422.36 215.079 422.092 215.549 422.154C215.96 422.216 216.411 422.36 216.744 422.627C217.351 423.1 217.879 423.676 218.447 424.211C223.225 428.718 230.92 431.104 238.479 426.969C240.495 425.858 242.473 424.644 244.353 423.286C248.073 420.57 252.107 419.253 256.65 419.664C258.158 419.808 259.685 419.849 261.212 419.973C264.678 420.24 267.615 419.15 270.024 416.454C271.923 414.335 273.313 411.928 274.41 409.294C276.055 405.302 277.112 401.105 278.13 396.907C278.189 396.681 278.209 396.455 278.248 396.228C279.716 387.319 283.358 379.562 289.233 372.916C290.858 371.085 292.268 369.027 293.678 367.011C294.911 365.262 295.949 363.39 296.654 361.332C297.457 358.966 297.457 356.661 296.419 354.336C295.127 351.415 293.443 348.76 291.23 346.497C289.605 344.83 287.94 343.164 286.198 341.62C281.518 337.444 278.111 332.403 276.622 326.065C275.076 319.419 271.708 313.967 267.028 309.275C263.875 306.107 260.586 303.144 256.924 300.634C255.475 299.625 254.026 298.597 252.597 297.568C246.37 293 242.454 286.704 240.339 279.111C239.634 276.601 239.027 274.05 238.381 271.519C236.795 265.49 233.388 260.984 228.277 257.795C222.383 254.112 216.117 251.725 209.185 251.684C205.994 251.663 202.88 252.239 199.904 253.33C194.637 255.244 189.683 257.836 185.59 261.951C184.572 262.98 183.515 263.968 182.418 264.894C181.067 266.066 180.401 266.066 178.933 264.955C177.17 263.618 175.486 262.178 173.704 260.84C168.868 257.198 163.581 254.544 157.746 253.351C149.992 251.766 142.825 253.063 136.814 258.947C134.699 261.005 133.074 263.392 132.056 266.231C131.39 268.042 130.783 269.873 130.156 271.704C129.569 273.432 128.786 275.058 127.885 276.622C125.946 279.934 123.283 282.362 119.857 283.844C116.117 285.449 112.259 286.622 108.265 287.259C103.448 288.021 99.0419 289.934 94.8124 292.239C89.3689 295.181 86.7254 300.325 85.7464 306.498C85.2765 309.543 85.1394 312.629 84.4932 315.633C83.5925 319.851 81.8889 323.596 78.8539 326.621C77.8161 327.629 76.8762 328.74 75.9363 329.851C71.9809 334.46 70.6494 339.995 71.0019 346.024C71.2172 349.439 71.8243 352.814 72.2355 356.209C72.4313 357.793 72.6075 359.377 72.7642 360.962C73.2145 365.139 72.5488 369.151 71.0606 373.019C70.0032 375.776 69.0046 378.554 68.0451 381.332C66.1849 386.681 65.5779 392.257 66.1653 397.875C66.9094 404.891 70.062 410.385 76.4258 413.43C77.0132 413.718 77.6203 413.985 78.2273 414.212C84.2974 416.413 89.0164 420.487 92.8935 425.755C94.8907 428.471 96.9076 431.166 99.2965 433.512C101.039 435.24 102.899 436.804 104.995 438.08C108.03 439.931 111.202 440.507 114.707 439.705C118.055 438.944 121.11 437.586 123.949 435.61C127.591 433.08 130.881 430.096 134.033 426.927C134.582 426.392 135.012 425.672 135.835 425.549C136.011 425.528 136.266 425.631 136.403 425.775C136.54 425.919 136.657 426.207 136.598 426.372C136.442 426.783 136.246 427.216 135.952 427.524C131.742 431.845 127.337 435.898 122.128 438.882C119.328 440.487 116.332 441.392 113.14 441.721C109.89 442.071 106.894 441.392 104.074 439.623C100.785 437.545 97.9062 434.952 95.3998 431.886C93.6963 429.808 92.1102 427.627 90.4654 425.508C87.1758 421.249 83.1617 418.039 78.2077 416.187C77.4832 415.919 76.7979 415.611 76.0929 415.282C69.4354 412.216 65.8325 406.702 64.6184 399.356C63.4827 392.525 64.6968 385.941 66.8115 379.5C67.6535 376.908 68.6521 374.377 69.6508 371.846C71.3152 367.587 71.511 363.246 70.904 358.739C70.2774 354.007 69.2787 349.316 69.2591 344.48C69.2396 337.608 71.3935 331.744 76.1517 326.971C76.23 326.888 76.3083 326.806 76.3866 326.724C81.3407 322.382 83.1225 316.518 83.6512 310.078C83.9645 306.313 84.552 302.629 86.1968 299.173C88.3898 294.543 91.934 291.519 96.3006 289.399C100.765 287.239 105.465 285.963 110.301 285.058C113.179 284.523 115.98 283.556 118.74 282.465C122.5 280.984 125.202 278.33 127.082 274.688C127.709 273.494 128.218 272.219 128.707 270.943C129.197 269.667 129.608 268.371 130.019 267.075C132.819 257.877 141.376 251.293 151.421 250.984C154.711 250.881 157.922 251.437 161.055 252.425C165.872 253.947 170.376 256.211 174.468 259.318C176.23 260.655 177.954 262.034 179.677 263.433C180.401 264.009 180.989 264.091 181.674 263.412C182.868 262.239 184.082 261.108 185.296 259.976C190.035 255.573 195.596 252.692 201.627 251.046C207.286 249.482 213.023 249.688 218.702 251.437C223.44 252.918 227.807 255.141 231.782 258.227C235.287 260.943 237.852 264.441 239.242 268.803C240.143 271.622 240.946 274.461 241.631 277.342C243.687 285.943 248.171 292.691 255.338 297.424C260.899 301.086 265.97 305.345 270.415 310.428C273.803 314.275 276.348 318.576 277.68 323.637C277.699 323.74 277.739 323.864 277.778 323.966C279.305 331.189 283.163 336.847 288.547 341.476C290.231 342.917 291.759 344.563 293.286 346.188C295.44 348.493 296.987 351.25 298.24 354.192C299.219 356.497 299.337 358.801 298.573 361.188C297.985 363.04 297.241 364.809 296.164 366.414C294.735 368.554 293.227 370.673 291.7 372.752C290.564 374.295 289.35 375.756 288.175 377.237C284.553 381.784 282.125 386.949 280.852 392.751C279.912 397.093 278.953 401.434 277.602 405.652C276.877 407.936 276.074 410.179 275.017 412.298C273.901 414.541 272.53 416.598 270.787 418.347C268.477 420.631 265.814 421.969 262.563 421.825C261.114 421.66 259.704 421.722 258.177 421.722Z" fill="#001F55"/>
<path d="M110.042 410.817C97.9602 411.846 89.6383 404.932 85.8983 396.043C83.4898 390.303 82.4912 384.274 83.3527 377.978C83.6465 375.838 83.8814 373.678 84.0968 371.517C84.3905 368.739 83.901 366.065 83.2744 363.39C82.4129 359.727 81.2772 356.168 80.7485 352.423C80.3177 349.46 80.2981 346.538 80.8464 343.575C81.4142 340.53 82.2562 337.608 83.3919 334.748C84.8409 331.148 87.1515 328.349 90.2844 326.292C91.5768 325.448 92.8691 324.563 94.2594 323.946C100.192 321.312 103.619 316.374 105.871 310.304C106.263 309.234 106.654 308.164 106.948 307.074C108.632 300.942 112.529 297.198 118.246 295.325C123.044 293.741 127.939 292.733 132.971 292.609C135.262 292.547 137.514 292.239 139.785 291.91C143.545 291.375 146.541 289.502 148.753 286.272C149.576 285.058 150.32 283.803 151.103 282.568C152.533 280.264 154.06 278.062 155.979 276.149C159.053 273.083 162.656 272.013 166.788 272.959C170.723 273.865 174.62 274.935 178.184 276.951C179.045 277.424 179.476 277.28 180.064 276.519C184.332 271.025 190.128 268.371 196.629 268.289C204.05 268.186 209.709 271.972 213.195 279.009C213.743 280.12 214.174 281.313 214.565 282.486C217.483 291.087 223.494 296.313 231.327 299.543C233.246 300.325 235.263 300.819 237.26 301.416C239.884 302.197 242.39 303.267 244.701 304.811C248.343 307.259 250.888 310.51 251.554 315.14C251.711 316.148 251.946 317.156 252.161 318.144C253.062 322.465 255.196 325.942 258.603 328.514C260.013 329.584 261.462 330.613 262.95 331.538C270.822 336.518 274.405 344.357 276.167 353.41C276.422 354.727 276.324 356.147 276.265 357.505C276.128 360.489 275.051 363.06 272.897 365.056C271.683 366.188 270.43 367.299 269.099 368.287C265.476 370.982 263.224 374.603 262.108 379.11C261.54 381.435 260.796 383.698 260.131 385.982C259.543 387.957 258.701 389.809 257.702 391.578C254.237 397.71 249.028 400.755 242.351 400.879C238.67 400.94 234.988 400.488 231.288 400.241C230.974 400.22 230.661 400.056 230.406 399.87C230.25 399.768 230.113 399.5 230.132 399.315C230.152 399.13 230.309 398.862 230.465 398.78C231.601 398.204 232.795 398.512 233.99 398.574C236.594 398.718 239.198 398.945 241.803 398.986C248.989 399.109 253.982 395.488 257.135 388.842C258.349 386.27 259.289 383.574 259.856 380.797C261.168 374.336 264.301 369.254 269.588 365.591C274.131 362.443 275.502 357.978 274.268 352.464C272.408 344.151 268.766 337.114 261.521 332.629C260.111 331.765 258.779 330.777 257.467 329.769C253.923 327.012 251.593 323.39 250.653 318.843C250.399 317.609 250.144 316.395 249.929 315.16C249.243 311.477 247.305 308.699 244.407 306.621C242.136 304.996 239.629 303.926 237.025 303.082C235.889 302.712 234.714 302.444 233.559 302.115C228.625 300.757 224.336 298.165 220.498 294.646C217.326 291.724 214.918 288.268 213.449 284.111C212.999 282.836 212.549 281.539 212.02 280.284C208.358 271.889 199.468 268.268 192.223 270.593C190.128 271.272 188.072 271.972 186.212 273.165C184.078 274.544 182.041 276.025 180.827 278.494C180.279 279.626 179.711 279.77 178.693 279.132C174.914 276.725 170.704 275.675 166.474 274.585C162.813 273.638 159.856 274.791 157.193 277.321C155.254 279.194 153.747 281.437 152.337 283.741C151.632 284.893 150.966 286.066 150.183 287.177C147.833 290.531 144.759 292.63 140.804 293.453C137.357 294.152 133.891 294.194 130.426 294.502C126.274 294.873 122.28 295.757 118.325 297.115C113.429 298.802 110.12 302.115 108.632 307.341C108.319 308.432 107.947 309.502 107.594 310.592C106.615 313.535 105.146 316.189 103.384 318.679C101.602 321.209 99.3896 323.164 96.707 324.584C94.7685 325.592 92.8496 326.703 90.9894 327.876C88.3068 329.584 86.3682 332.012 85.115 335.016C82.3541 341.559 81.238 348.308 83.059 355.365C83.666 357.67 84.1947 360.015 84.8409 362.299C85.9962 366.435 85.9766 370.612 85.4088 374.85C84.6255 380.653 84.5276 386.455 86.3486 392.134C86.4857 392.566 86.6228 392.998 86.7794 393.43C90.7935 404.541 100.016 410.385 111.217 408.924C114.682 408.471 118.09 407.792 121.438 406.784C122.162 406.558 122.906 406.393 123.651 406.249C124.218 406.146 124.747 406.372 125.041 406.907C125.178 407.154 125.237 407.525 125.217 407.833C125.197 407.998 124.904 408.265 124.767 408.245C122.202 407.998 119.911 409.232 117.502 409.726C114.839 410.385 112.156 410.92 110.042 410.817Z" fill="#001F55"/>
<path d="M236.924 324.296C237.042 322.012 237.159 319.728 237.257 317.444C237.336 315.49 236.944 314.934 235.123 314.79C231.54 314.502 227.995 313.967 224.471 313.329C216.619 311.93 209.002 309.749 201.659 306.498C194.414 303.288 188.403 298.268 182.959 292.445C182.058 291.478 181.373 290.284 180.531 289.235C179.944 288.494 179.924 287.26 178.827 286.93C178.377 287.692 177.868 288.433 177.496 289.235C174.97 294.667 170.975 298.556 166.021 301.498C159.109 305.593 151.786 308.144 143.797 308.679C140.331 308.905 136.865 309.049 133.38 309.029C132.518 309.029 131.637 309.049 130.775 309.049C129.934 309.049 129.326 309.461 128.954 310.243C128.622 310.963 128.347 311.704 128.034 312.424C124.98 319.152 121.377 325.51 116.305 330.839C115.071 332.135 113.877 333.452 112.291 334.296C111.978 334.46 111.645 334.399 111.429 334.09C111.214 333.802 111.155 333.473 111.41 333.185C111.625 332.917 111.841 332.65 112.076 332.444C118.459 326.971 122.826 319.913 126.272 312.197C128.641 306.889 128.269 307.136 134.124 307.198C139.998 307.259 145.853 307.095 151.629 305.737C157.778 304.296 163.26 301.395 168.489 297.815C171.582 295.696 173.795 292.774 175.557 289.441C176.301 288.042 176.967 286.601 177.613 285.161C177.907 284.544 178.162 283.947 178.788 283.597C179.278 283.33 180.041 283.412 180.178 283.926C181.627 289.749 185.857 293.186 189.91 296.827C197.566 303.72 206.691 307.177 216.247 309.749C222.571 311.457 229.033 312.383 235.515 313.165C235.73 313.185 235.945 313.185 236.161 313.206C238.452 313.494 239.059 314.07 239.039 316.436C239 319.049 238.804 321.683 238.608 324.296C238.413 327.156 238.471 329.995 238.608 332.856C238.628 333.308 238.53 333.864 238.06 333.946C237.394 334.049 237.101 333.493 237.081 332.876C237.003 330.592 236.964 328.308 236.924 326.024C236.905 325.448 236.924 324.893 236.924 324.317C236.885 324.296 236.905 324.296 236.924 324.296Z" fill="#001F55"/>
<path d="M91.0682 484.396C91.1661 483.964 91.264 483.038 91.5577 482.215C92.4976 479.54 95.3369 478.12 97.902 479.046C100.095 479.828 101.622 481.392 102.131 483.799C102.66 486.33 101.936 488.552 100.134 490.301C97.1383 493.202 92.4389 491.721 91.3227 487.585C91.2053 487.153 91.1073 486.7 91.0682 486.248C91.029 485.774 91.0682 485.322 91.0682 484.396Z" fill="#FAA942"/>
<path d="M86.9287 516.7C86.8308 517.132 86.6742 518.016 86.4392 518.901C85.793 521.206 84.3244 522.667 82.0726 522.934C79.9579 523.202 78.2935 522.111 77.0795 520.321C75.4934 517.934 75.4542 515.403 76.7662 512.893C77.941 510.63 80.6432 509.519 82.9146 510.218C85.3427 510.98 86.9679 513.407 86.9287 516.7Z" fill="#FAA942"/>
<path d="M48.2274 526.431C44.135 526.349 41.5307 522.007 43.1755 518.345C44.4874 515.423 48.0708 513.777 50.8317 514.847C54.1213 516.102 55.4528 520.258 53.5143 523.304C52.2024 525.361 50.2247 526.164 48.2274 526.431Z" fill="#FAA942"/>
<path d="M130.874 542.933C130.854 546.677 128.778 549.146 125.822 549.332C122.689 549.517 120.3 547.253 119.987 543.797C119.889 542.645 119.947 541.513 120.359 540.443C121.181 538.303 123.335 536.842 125.489 536.904C127.78 536.966 129.914 538.632 130.58 540.998C130.795 541.739 130.815 542.542 130.874 542.933Z" fill="#FAA942"/>
<path d="M227.918 520.115C227.859 523.345 224.902 526.144 221.593 526.102C218.578 526.061 216.189 523.51 216.326 520.424C216.463 517.234 219.635 514.168 222.631 514.292C225.549 514.436 227.977 517.131 227.918 520.115Z" fill="#FAA942"/>
<path d="M92.7673 540.423C95.7632 540.587 98.9744 542.48 99.0332 546.452C99.0724 549.558 96.6639 552.069 93.6876 552.089C90.4959 552.11 87.5391 549.106 87.5587 545.875C87.5783 542.954 89.9476 540.464 92.7673 540.423Z" fill="#FAA942"/>
<path d="M324.197 528.797C321.279 528.756 319.125 526.37 319.165 523.242C319.204 519.744 321.691 516.905 324.765 516.864C327.702 516.822 330.228 519.394 330.287 522.46C330.326 525.752 327.349 528.859 324.197 528.797Z" fill="#FAA942"/>
<path d="M293.554 483.964C296.452 483.923 298.978 486.454 299.056 489.499C299.154 492.626 296.412 495.486 293.24 495.63C290.44 495.754 288.051 493.326 288.012 490.301C287.973 486.886 290.479 484.005 293.554 483.964Z" fill="#FAA942"/>
<path d="M153.095 530.711C153.017 533.942 150.295 536.514 146.966 536.514C144.049 536.514 141.719 534.127 141.719 531.123C141.719 527.81 144.675 524.806 147.887 524.888C150.883 524.991 153.174 527.522 153.095 530.711Z" fill="#FAA942"/>
<path d="M255.135 557.214C255.095 560.444 252.374 563.099 249.143 563.078C246.225 563.057 244.11 560.732 244.169 557.605C244.228 554.148 246.813 551.35 249.848 551.432C252.726 551.514 255.174 554.189 255.135 557.214Z" fill="#FAA942"/>
<path d="M214.604 556.679C211.686 556.637 209.199 553.963 209.219 550.917C209.258 547.852 211.823 545.218 214.702 545.259C217.58 545.3 220.126 548.016 220.086 551.041C220.067 554.045 217.482 556.72 214.604 556.679Z" fill="#FAA942"/>
<path d="M61.4419 550.793C61.481 553.797 58.9355 556.513 56.0375 556.555C53.1395 556.596 50.5744 553.941 50.5548 550.896C50.5352 547.851 53.0416 545.156 55.9396 545.135C58.8376 545.094 61.4027 547.748 61.4419 550.793Z" fill="#FAA942"/>
<path d="M316.389 541.699C319.248 541.637 321.813 544.168 321.93 547.213C322.048 550.341 319.424 553.201 316.467 553.139C313.589 553.098 311.102 550.464 311.082 547.439C311.043 544.415 313.511 541.781 316.389 541.699Z" fill="#FAA942"/>
<path d="M66.2618 488.223C69.199 488.49 71.5096 491.33 71.2746 494.334C71.0396 497.4 68.2983 499.869 65.459 499.601C62.5023 499.313 60.2113 496.535 60.4463 493.511C60.7204 490.383 63.3834 487.955 66.2618 488.223Z" fill="#FAA942"/>
<path d="M153.553 550.854C156.529 550.813 158.957 553.303 159.016 556.451C159.055 559.599 156.706 562.171 153.729 562.233C150.792 562.294 148.286 559.743 148.247 556.657C148.207 553.529 150.616 550.896 153.553 550.854Z" fill="#FAA942"/>
<path d="M190.758 548.777C190.758 551.823 188.252 554.477 185.334 554.497C182.436 554.497 179.91 551.843 179.91 548.798C179.91 545.732 182.417 543.098 185.334 543.098C188.252 543.078 190.738 545.712 190.758 548.777Z" fill="#FAA942"/>
<path d="M289.887 544.229C289.907 547.295 287.44 549.908 284.483 549.949C281.546 549.991 279.02 547.419 278.981 544.353C278.961 541.246 281.369 538.695 284.365 538.674C287.4 538.633 289.868 541.143 289.887 544.229Z" fill="#FAA942"/>
<path d="M255.395 523.325C255.414 526.432 252.986 529.025 250.03 529.066C247.092 529.107 244.625 526.515 244.606 523.408C244.586 520.28 247.014 517.688 249.951 517.667C252.908 517.667 255.375 520.239 255.395 523.325Z" fill="#FAA942"/>
<path d="M133.673 507.276C133.732 510.424 131.363 512.975 128.367 513.017C125.371 513.058 122.904 510.589 122.845 507.482C122.786 504.395 125.195 501.803 128.171 501.741C131.186 501.679 133.614 504.128 133.673 507.276Z" fill="#FAA942"/>
<path d="M114.603 519.457C114.661 522.605 112.312 525.157 109.335 525.219C106.379 525.28 103.911 522.77 103.853 519.663C103.794 516.515 106.124 513.984 109.14 513.943C112.194 513.881 114.563 516.268 114.603 519.457Z" fill="#FAA942"/>
<path d="M294.885 521.453C291.909 521.37 289.539 518.798 289.579 515.671C289.618 512.584 292.163 510.033 295.081 510.095C297.998 510.177 300.446 512.831 300.407 515.897C300.348 518.984 297.822 521.535 294.885 521.453Z" fill="#FAA942"/>
<path d="M35.2845 544.806C35.3824 547.789 32.8956 550.526 29.978 550.608C27.0605 550.691 24.4953 548.16 24.3974 545.094C24.2995 542.008 26.6884 539.395 29.6843 539.333C32.7194 539.251 35.167 541.658 35.2845 544.806Z" fill="#FAA942"/>
<path d="M265.201 494.189C268.236 494.169 270.566 496.617 270.586 499.786C270.606 502.934 268.236 505.444 265.24 505.444C262.225 505.444 259.856 502.975 259.836 499.827C259.836 496.658 262.166 494.21 265.201 494.189Z" fill="#FAA942"/>
<path d="M183.336 333.39C183.433 332.711 183.473 332.135 183.59 331.6C185.901 320.036 195.358 311.929 206.617 311.641C213.334 311.477 219.286 313.349 224.397 317.938C235.069 327.505 234.599 344.46 223.633 353.472C214.626 360.879 201.859 361.105 192.656 354.048C187.487 350.077 184.334 344.768 183.531 338.081C183.316 336.229 182.454 335.242 180.986 334.46C178.127 332.937 175.581 333.472 173.075 335.406C171.861 336.332 171.156 337.279 171.156 339.007C171.156 355.653 155.06 367.402 139.239 361.023C129.977 357.278 123.966 347.896 124.064 337.587C124.162 326.785 131.407 317.217 141.412 314.645C154.042 311.394 166.613 318.966 170.334 332.073C170.49 332.629 170.569 333.184 170.725 333.74C170.902 334.357 171.411 334.501 171.998 334.131C172.272 333.966 172.527 333.74 172.801 333.555C175.542 331.62 178.401 331.229 181.417 332.814C181.808 333.02 182.219 333.164 182.631 333.308C182.768 333.349 182.866 333.349 183.336 333.39ZM133.306 321.456C132.64 321.621 132.17 322.135 131.739 322.629C126.335 328.74 124.671 335.88 126.629 343.884C129.546 355.776 141.53 363.184 153.004 360.426C165.536 357.402 172.664 343.493 168.121 330.839C164.792 321.579 156.177 315.468 146.797 315.798C142.02 315.962 137.575 317.238 133.972 320.798C133.756 321.003 133.541 321.23 133.306 321.456ZM209.241 357.299C212.785 357.361 217.289 355.879 221.342 352.978C232.504 344.954 233.561 329.213 223.594 319.645C214.567 310.983 199.627 311.374 191.031 320.489C183.218 328.76 183.003 341.291 190.62 349.768C195.28 354.912 201.115 357.299 209.241 357.299Z" fill="#001F55"/>
<path d="M189.465 366.578C189.465 373.944 186.645 378.389 179.537 380.693C175.288 382.072 171.215 381.969 167.26 379.726C166.79 379.459 166.261 379.232 166.046 378.656C165.968 378.471 165.987 378.183 166.066 378.039C166.163 377.874 166.457 377.689 166.594 377.73C167.319 377.957 168.024 378.183 168.709 378.512C174.113 381.022 179.107 379.829 183.806 376.599C185.784 375.241 186.88 373.162 187.409 370.714C188.153 367.381 187.82 364.171 186.939 360.94C185.47 355.57 183.649 350.323 181.495 345.221C181.26 344.665 180.693 344.068 181.339 343.369C181.77 342.916 182.474 343.369 182.944 344.48C185.431 350.426 187.644 356.496 189.054 362.854C189.347 364.109 189.445 365.344 189.465 366.578Z" fill="#001F55"/>
<path d="M172.333 401.228C169.18 401.146 166.067 400.755 163.032 399.87C162.64 399.747 162.248 399.52 161.896 399.294C161.759 399.191 161.661 398.882 161.7 398.697C161.739 398.533 161.955 398.327 162.111 398.265C162.875 398.039 163.599 398.327 164.344 398.45C166.478 398.8 168.612 399.273 170.747 399.438C177.678 399.973 184.003 397.895 189.995 394.418C190.837 393.924 191.542 393.121 192.56 393.08C192.736 393.08 192.971 393.245 193.069 393.409C193.167 393.574 193.206 393.862 193.128 394.027C192.971 394.315 192.775 394.603 192.501 394.767C186.372 398.862 179.695 401.228 172.333 401.228Z" fill="#001F55"/>
<path d="M110.022 344.831C106.223 344.707 103.815 346.415 103.364 349.543C103.032 351.847 103.227 354.069 104.657 356.024C105.303 356.929 105.93 357.855 106.517 358.802C106.674 359.069 106.654 359.46 106.321 359.707C106.028 359.913 105.695 359.892 105.44 359.645C102.757 356.929 101.034 353.822 101.641 349.666C101.974 347.382 103.11 345.654 104.735 344.255C106.243 342.938 108.005 342.691 109.924 343.123C111.51 343.473 112.509 343.926 112.176 344.399C111.53 345.386 110.59 344.646 110.022 344.831Z" fill="#001F55"/>
<path d="M240.741 344.81C239.899 344.851 239.351 344.913 238.822 344.892C238.43 344.872 237.862 344.851 237.96 344.193C238 343.925 238.293 343.534 238.509 343.493C239.977 343.205 241.446 342.691 242.973 343.061C245.264 343.596 246.733 345.263 247.77 347.32C249.729 351.189 248.064 357.361 244.481 359.769C244.324 359.872 243.972 359.892 243.893 359.789C243.717 359.542 243.482 359.11 243.58 358.946C244.07 358.061 244.618 357.217 245.225 356.415C246.576 354.625 247.007 352.588 246.85 350.345C246.713 348.082 245.538 346.559 243.893 345.324C242.856 344.543 241.622 344.81 240.741 344.81Z" fill="#001F55"/>
<path d="M154.942 388.266C154.903 388.821 154.609 389.809 154.315 390.776C153.062 394.974 150.693 398.471 147.893 401.661C147.755 401.825 147.579 401.969 147.403 402.093C147.129 402.299 146.835 402.36 146.522 402.154C146.189 401.928 146.169 401.578 146.306 401.27C146.483 400.858 146.737 400.467 147.011 400.138C150.242 396.496 152.533 392.34 153.532 387.443C153.63 386.949 153.963 386.599 154.433 386.723C154.922 386.846 155.02 387.361 154.942 388.266Z" fill="#001F55"/>
<path d="M195.842 381.557C196.038 381.681 196.332 381.825 196.567 382.051C197.507 382.977 198.408 383.965 199.367 384.87C201.149 386.557 203.166 387.833 205.418 388.718C206.22 389.047 207.043 389.335 207.806 389.726C208.022 389.849 208.257 390.261 208.237 390.508C208.178 391.063 207.709 391.125 207.258 391.105C207.16 391.105 207.043 391.063 206.945 391.022C202.285 389.767 198.603 386.907 195.49 383.183C195.294 382.957 195.235 382.566 195.216 382.236C195.177 381.887 195.372 381.64 195.842 381.557Z" fill="#001F55"/>
<path d="M133.985 320.777C136.785 319.522 139.683 318.658 142.777 318.699C143.639 318.699 144.5 318.761 145.264 319.296C146.047 319.851 146.302 320.818 145.851 321.662C145.636 322.053 145.401 322.465 145.068 322.732C142.464 325.016 139.507 326.209 136.061 325.674C133.515 325.263 132.986 324.44 133.3 321.436C133.535 321.23 133.75 321.004 133.985 320.777Z" fill="#001F55"/>
<path d="M204.325 348.328C201.78 348.287 198.745 348.061 195.847 346.991C194.515 346.497 193.242 345.859 192.067 345.057C188.151 342.443 187.25 336.312 191.323 332.814C192.772 331.579 194.319 330.551 196.062 329.872C201.682 327.711 207.419 326.991 213.313 328.328C217.425 329.254 220.401 331.538 221.674 335.962C222.614 339.192 221.733 341.785 219.52 344.007C218.091 345.447 216.309 346.332 214.429 346.95C211.276 347.917 208.085 348.493 204.325 348.328ZM208.183 346.435C210.571 346.209 212.882 345.756 215.095 344.81C216.211 344.336 217.229 343.699 218.169 342.896C219.618 341.662 220.382 340.057 220.284 338.123C220.147 335.612 219.148 333.452 217.209 331.95C214.644 329.975 211.629 329.563 208.535 329.625C208.261 329.625 207.889 329.872 208.026 330.324C208.241 331.086 208.515 331.826 208.711 332.608C209.612 336.065 210.043 339.522 209.162 343.081C208.888 344.131 208.104 345.036 208.183 346.435Z" fill="#001F55"/>
<path d="M218.038 325.613C215.316 325.201 212.301 324.399 209.618 322.547C208.6 321.848 207.66 320.922 208.032 319.481C208.404 318.041 209.462 317.218 210.891 317.095C211.753 317.012 212.634 317.033 213.476 317.177C216.061 317.671 218.449 318.72 220.642 320.243C221.093 320.551 221.504 320.922 221.876 321.354C223.11 322.794 222.738 324.317 221.015 325.16C220.173 325.551 219.331 325.613 218.038 325.613Z" fill="#001F55"/>
<path d="M145.911 348.308C141.995 348.473 138.901 347.917 135.886 346.971C134.104 346.415 132.459 345.572 131.01 344.337C128.308 342.033 127.485 338.946 128.621 335.469C129.678 332.259 131.715 330.058 134.809 328.947C137.942 327.815 141.172 327.465 144.423 327.692C147.889 327.938 151.296 328.617 154.527 330.037C156.25 330.798 157.758 331.827 159.167 333.124C162.614 336.292 162.046 342.033 158.482 344.728C156.524 346.21 154.311 347.136 151.962 347.671C149.729 348.164 147.458 348.329 145.911 348.308ZM159.833 338.453C159.735 336.477 158.756 335.037 157.346 333.844C154.644 331.58 151.413 330.634 148.104 329.955C147.517 329.831 147.223 330.284 147.478 331.045C148.515 334.132 148.535 337.28 148.3 340.49C148.182 342.197 147.81 343.843 147.34 345.49C147.145 346.169 147.497 346.559 148.163 346.477C148.692 346.415 149.22 346.251 149.769 346.21C152.314 346.025 154.625 345.099 156.798 343.761C158.737 342.588 159.696 340.757 159.833 338.453Z" fill="#001F55"/>
<path d="M343.898 563.139C343.467 559.353 342.978 555.567 342.175 551.843C338.513 534.703 331.797 519.168 320.303 506.164C318.384 503.983 316.348 501.905 314.39 499.765C307.321 492.07 298.94 486.515 289.522 482.564C282.433 479.581 275.149 477.42 267.767 475.383C256.743 472.317 245.778 468.964 234.812 465.713C229.995 464.293 225.198 462.853 220.4 461.351C217.777 460.528 215.309 459.355 213.116 457.606C211.334 456.207 210.257 454.519 210.492 452.071C210.59 450.939 210.532 449.787 210.59 448.655C210.923 442.606 211.315 436.577 211.589 430.528C211.687 428.368 212.235 426.66 213.802 425.096C220.655 418.244 225.864 410.117 229.976 401.208C233.598 393.368 236.379 385.22 237.965 376.64C238.258 375.035 238.709 373.842 240.549 373.225C249.361 370.262 254.569 363.595 257.115 354.48C258.27 350.344 258.251 346.147 256.86 342.011C254.844 336.044 250.81 332.67 244.877 331.847C242.116 331.477 239.472 332.156 236.907 333.225C236.418 333.431 235.83 333.781 236.026 334.439C236.3 335.324 237.005 335.098 237.651 334.871C238.376 334.625 239.081 334.316 239.825 334.151C248.636 332.238 254.276 337.135 255.783 344.995C256.253 347.464 256.273 350.036 255.705 352.505C253.434 362.361 248.127 369.356 238.415 371.846C237.162 372.175 236.809 372.813 236.653 373.863C236.144 377.36 235.341 380.797 234.362 384.192C230.915 396.249 225.785 407.38 218.247 417.216C215.505 420.796 212.509 424.088 209.181 427.051C201.387 433.985 192.537 438.347 182.413 440.363C171.624 442.524 161.696 440.672 152.121 435.507C146.051 432.236 140.843 427.792 136.124 422.648C132.188 418.347 128.8 413.594 125.883 408.471C119.852 397.874 115.701 386.537 113.742 374.336C113.566 373.286 113.214 372.751 112.156 372.546C109.435 372.052 106.948 370.941 104.696 369.274C99.6832 365.57 96.4719 360.529 94.9446 354.336C94.1418 351.085 94.0243 347.793 94.8467 344.501C96.609 337.464 101.974 334.069 107.144 334.398C108.906 334.501 110.59 334.727 112.254 335.304C112.763 335.489 113.292 335.571 113.821 335.633C113.958 335.653 114.193 335.386 114.252 335.201C114.33 335.016 114.33 334.727 114.232 334.563C114.056 334.295 113.821 334.007 113.547 333.884C105.186 330.139 96.2761 333.74 93.4369 342.875C92.3012 346.538 92.1837 350.324 93.0648 354.048C95.3558 363.842 100.799 370.776 110.081 373.986C111.412 374.439 112.058 375.159 112.254 376.558C112.744 379.953 113.684 383.224 114.643 386.496C119.206 401.928 126.431 415.693 137.671 426.907C137.827 427.071 137.984 427.236 138.14 427.38C138.767 427.936 139.061 428.635 139.022 429.479C138.963 430.734 139.002 431.989 138.865 433.244C138.395 437.565 137.886 441.865 137.377 446.166C137.201 447.75 136.985 449.334 136.77 450.919C136.456 453.223 135.242 454.91 133.382 456.104C132.638 456.577 131.855 456.988 131.072 457.379C124.336 460.877 117.385 463.84 110.179 466.042C104.344 467.832 98.4496 469.478 92.5949 471.206C82.8631 474.108 73.4446 478.017 63.8891 481.453C57.0945 483.902 50.4956 486.844 44.0535 490.177C39.8435 492.358 35.8686 494.93 31.9524 497.626C21.0261 505.136 13.507 515.444 8.49427 528.037C4.30393 538.551 1.85629 549.518 0.152742 560.711C0.0352559 561.472 0.0156748 562.275 -0.00390625 563.056H0.093999V563.756C0.093999 563.777 0.093999 563.797 0.093999 563.818V564.579H343.996V563.036H343.898V563.139ZM2.32624 558.468C4.02979 548.448 6.26203 538.592 10.0803 529.168C14.2707 518.798 19.8709 509.56 28.5453 502.646C32.4419 499.539 36.4756 496.638 40.7834 494.148C46.5011 490.836 52.4146 487.934 58.5435 485.568C68.8431 481.576 79.1036 477.523 89.599 474.128C94.5726 472.523 99.6245 471.083 104.657 469.663C113.821 467.091 122.671 463.676 131.228 459.355C132.795 458.573 134.322 457.709 135.732 456.598C137.318 455.342 138.18 453.738 138.473 451.721C138.689 450.137 139.002 448.573 139.12 446.968C139.511 441.495 140.588 436.125 140.745 430.384C141.998 430.96 142.35 431.845 142.899 432.524C146.502 437.112 150.124 441.66 154.451 445.528C158.642 449.273 163.283 452.133 168.471 454.046C178.967 457.894 189.815 459.272 200.878 458.984C203.385 458.923 205.871 458.573 208.28 457.791C209.553 457.379 210.649 457.585 211.628 458.449C214.722 461.124 218.384 462.523 222.182 463.655C235.772 467.708 249.361 471.741 262.95 475.754C266.083 476.679 269.236 477.585 272.388 478.387C278.85 480.013 285.038 482.482 291.166 485.157C298.783 488.49 305.598 493.119 311.492 499.189C314.742 502.543 317.973 505.959 320.988 509.559C329.604 519.868 335.145 531.946 338.827 545.011C340.491 550.937 341.509 556.966 342.234 563.056H172.035H1.83671C1.9542 561.575 2.07169 560.011 2.32624 558.468Z" fill="#001F55"/>
</g>
<defs>
<clipPath id="clip0_5_175">
<rect width="192" height="563" fill="white" transform="translate(212)"/>
</clipPath>
<clipPath id="clip1_5_175">
<rect width="344" height="329" fill="white" transform="translate(0 234)"/>
</clipPath>
</defs>
</svg>
