<svg width="60" height="60" viewBox="0 0 60 60" fill="none" xmlns="http://www.w3.org/2000/svg">
<rect x="8.5" y="4.5" width="51" height="51" rx="25.5" stroke="#DDE3F0"/>
<path d="M40.0076 46.4652L39.8996 46.5847C39.2147 47.3821 38.4604 48.1882 37.6482 48.9521C37.3529 49.2379 37.1985 49.3723 37.1556 49.4093L37.1427 49.4199C35.7385 50.7572 34.2506 51.7285 32.7564 52.4227C31.9563 52.8088 31.1334 53.1044 30.3097 53.3285C26.9815 54.2692 23.8385 54.0519 21.7708 53.6951C21.4348 53.6442 21.176 53.5965 21.0087 53.5637C20.0099 53.364 19.0304 53.0787 18.0823 52.7122C17.6212 52.5444 17.1672 52.3452 16.7217 52.1197C16.7081 52.1132 16.6953 52.1067 16.6817 52.1002C11.082 49.535 6.36538 41.5474 5.46595 39.953C5.16566 39.4409 4.88182 38.9333 4.6137 38.4311C0.205198 30.2782 0.0193045 23.8794 0.0114398 23.3557C0.00714992 23.2762 0.00429003 23.2152 0.00214512 23.1734L1.99955e-07 23.1436L1.85422e-07 23.0605C1.82612e-07 23.0444 0.00071515 23.0286 0.000715147 23.013C0.00357492 22.407 0.162298 22.1509 0.270974 22.0765L0.281698 22.0695C0.462586 21.9324 0.664207 22.0405 0.664207 22.0405C0.664207 22.0405 12.7379 28.6385 25.0104 40.3969C37.2785 28.6455 49.3415 22.0515 49.3415 22.0515C49.3415 22.0515 50 21.6995 50 23.0715L50 23.1547L49.9979 23.1888C49.9578 24.0059 49.5789 31.7608 44.0972 40.6861L44.0572 40.7543L44.0507 40.7639C43.769 41.2481 42.2826 43.793 40.0076 46.4652Z" fill="#DDE3F0"/>
<ellipse cx="34" cy="13" rx="3" ry="3" transform="rotate(-180 34 13)" fill="#FAA942"/>
</svg>
