<svg width="425" height="387" viewBox="0 0 425 387" fill="none" xmlns="http://www.w3.org/2000/svg">
<path d="M5.6874 190.775C6.1854 190.775 6.6234 190.709 7.0014 190.577C7.3854 190.445 7.7064 190.262 7.9644 190.028C8.2284 189.788 8.4264 189.503 8.5584 189.173C8.6904 188.843 8.7564 188.48 8.7564 188.084C8.7564 187.262 8.5014 186.62 7.9914 186.158C7.4874 185.696 6.7194 185.465 5.6874 185.465H3.6174V190.775H5.6874ZM5.6874 184.088C6.5034 184.088 7.2114 184.184 7.8114 184.376C8.4174 184.562 8.9184 184.829 9.3144 185.177C9.7104 185.525 10.0044 185.945 10.1964 186.437C10.3944 186.929 10.4934 187.478 10.4934 188.084C10.4934 188.684 10.3884 189.233 10.1784 189.731C9.9684 190.229 9.6594 190.658 9.2514 191.018C8.8494 191.378 8.3484 191.66 7.7484 191.864C7.1544 192.062 6.4674 192.161 5.6874 192.161H3.6174V196.985H1.8804V184.088H5.6874ZM13.9162 183.728V196.985H12.3142V183.728H13.9162ZM21.4551 192.881C20.7171 192.905 20.0871 192.965 19.5651 193.061C19.0491 193.151 18.6261 193.271 18.2961 193.421C17.9721 193.571 17.7351 193.748 17.5851 193.952C17.4411 194.156 17.3691 194.384 17.3691 194.636C17.3691 194.876 17.4081 195.083 17.4861 195.257C17.5641 195.431 17.6691 195.575 17.8011 195.689C17.9391 195.797 18.0981 195.878 18.2781 195.932C18.4641 195.98 18.6621 196.004 18.8721 196.004C19.1541 196.004 19.4121 195.977 19.6461 195.923C19.8801 195.863 20.0991 195.779 20.3031 195.671C20.5131 195.563 20.7111 195.434 20.8971 195.284C21.0891 195.134 21.2751 194.963 21.4551 194.771V192.881ZM16.2801 189.155C16.7841 188.669 17.3271 188.306 17.9091 188.066C18.4911 187.826 19.1361 187.706 19.8441 187.706C20.3541 187.706 20.8071 187.79 21.2031 187.958C21.5991 188.126 21.9321 188.36 22.2021 188.66C22.4721 188.96 22.6761 189.323 22.8141 189.749C22.9521 190.175 23.0211 190.643 23.0211 191.153V196.985H22.3101C22.1541 196.985 22.0341 196.961 21.9501 196.913C21.8661 196.859 21.8001 196.757 21.7521 196.607L21.5721 195.743C21.3321 195.965 21.0981 196.163 20.8701 196.337C20.6421 196.505 20.4021 196.649 20.1501 196.769C19.8981 196.883 19.6281 196.97 19.3401 197.03C19.0581 197.096 18.7431 197.129 18.3951 197.129C18.0411 197.129 17.7081 197.081 17.3961 196.985C17.0841 196.883 16.8111 196.733 16.5771 196.535C16.3491 196.337 16.1661 196.088 16.0281 195.788C15.8961 195.482 15.8301 195.122 15.8301 194.708C15.8301 194.348 15.9291 194.003 16.1271 193.673C16.3251 193.337 16.6461 193.04 17.0901 192.782C17.5341 192.524 18.1131 192.314 18.8271 192.152C19.5411 191.984 20.4171 191.888 21.4551 191.864V191.153C21.4551 190.445 21.3021 189.911 20.9961 189.551C20.6901 189.185 20.2431 189.002 19.6551 189.002C19.2591 189.002 18.9261 189.053 18.6561 189.155C18.3921 189.251 18.1611 189.362 17.9631 189.488C17.7711 189.608 17.6031 189.719 17.4591 189.821C17.3211 189.917 17.1831 189.965 17.0451 189.965C16.9371 189.965 16.8441 189.938 16.7661 189.884C16.6881 189.824 16.6221 189.752 16.5681 189.668L16.2801 189.155ZM26.9734 189.191C27.1714 188.969 27.3814 188.768 27.6034 188.588C27.8254 188.408 28.0594 188.255 28.3054 188.129C28.5574 187.997 28.8214 187.898 29.0974 187.832C29.3794 187.76 29.6824 187.724 30.0064 187.724C30.5044 187.724 30.9424 187.808 31.3204 187.976C31.7044 188.138 32.0224 188.372 32.2744 188.678C32.5324 188.978 32.7274 189.341 32.8594 189.767C32.9914 190.193 33.0574 190.664 33.0574 191.18V196.985H31.4464V191.18C31.4464 190.49 31.2874 189.956 30.9694 189.578C30.6574 189.194 30.1804 189.002 29.5384 189.002C29.0644 189.002 28.6204 189.116 28.2064 189.344C27.7984 189.572 27.4204 189.881 27.0724 190.271V196.985H25.4614V187.868H26.4244C26.6524 187.868 26.7934 187.979 26.8474 188.201L26.9734 189.191ZM37.0105 189.191C37.2085 188.969 37.4185 188.768 37.6405 188.588C37.8625 188.408 38.0965 188.255 38.3425 188.129C38.5945 187.997 38.8585 187.898 39.1345 187.832C39.4165 187.76 39.7195 187.724 40.0435 187.724C40.5415 187.724 40.9795 187.808 41.3575 187.976C41.7415 188.138 42.0595 188.372 42.3115 188.678C42.5695 188.978 42.7645 189.341 42.8965 189.767C43.0285 190.193 43.0945 190.664 43.0945 191.18V196.985H41.4835V191.18C41.4835 190.49 41.3245 189.956 41.0065 189.578C40.6945 189.194 40.2175 189.002 39.5755 189.002C39.1015 189.002 38.6575 189.116 38.2435 189.344C37.8355 189.572 37.4575 189.881 37.1095 190.271V196.985H35.4985V187.868H36.4615C36.6895 187.868 36.8305 187.979 36.8845 188.201L37.0105 189.191ZM47.2276 187.868V196.985H45.6256V187.868H47.2276ZM47.5696 185.006C47.5696 185.162 47.5366 185.309 47.4706 185.447C47.4106 185.579 47.3266 185.699 47.2186 185.807C47.1166 185.909 46.9936 185.99 46.8496 186.05C46.7116 186.11 46.5646 186.14 46.4086 186.14C46.2526 186.14 46.1056 186.11 45.9676 186.05C45.8356 185.99 45.7186 185.909 45.6166 185.807C45.5146 185.699 45.4336 185.579 45.3736 185.447C45.3136 185.309 45.2836 185.162 45.2836 185.006C45.2836 184.85 45.3136 184.703 45.3736 184.565C45.4336 184.421 45.5146 184.298 45.6166 184.196C45.7186 184.088 45.8356 184.004 45.9676 183.944C46.1056 183.884 46.2526 183.854 46.4086 183.854C46.5646 183.854 46.7116 183.884 46.8496 183.944C46.9936 184.004 47.1166 184.088 47.2186 184.196C47.3266 184.298 47.4106 184.421 47.4706 184.565C47.5366 184.703 47.5696 184.85 47.5696 185.006ZM51.3718 189.191C51.5698 188.969 51.7798 188.768 52.0018 188.588C52.2238 188.408 52.4578 188.255 52.7038 188.129C52.9558 187.997 53.2198 187.898 53.4958 187.832C53.7778 187.76 54.0808 187.724 54.4048 187.724C54.9028 187.724 55.3408 187.808 55.7188 187.976C56.1028 188.138 56.4208 188.372 56.6728 188.678C56.9308 188.978 57.1258 189.341 57.2578 189.767C57.3898 190.193 57.4558 190.664 57.4558 191.18V196.985H55.8448V191.18C55.8448 190.49 55.6858 189.956 55.3678 189.578C55.0558 189.194 54.5788 189.002 53.9368 189.002C53.4628 189.002 53.0188 189.116 52.6048 189.344C52.1968 189.572 51.8188 189.881 51.4708 190.271V196.985H49.8598V187.868H50.8228C51.0508 187.868 51.1918 187.979 51.2458 188.201L51.3718 189.191ZM63.0739 192.53C63.3979 192.53 63.6829 192.485 63.9289 192.395C64.1749 192.305 64.3819 192.179 64.5499 192.017C64.7179 191.855 64.8439 191.663 64.9279 191.441C65.0119 191.213 65.0539 190.964 65.0539 190.694C65.0539 190.136 64.8829 189.692 64.5409 189.362C64.2049 189.032 63.7159 188.867 63.0739 188.867C62.4259 188.867 61.9309 189.032 61.5889 189.362C61.2529 189.692 61.0849 190.136 61.0849 190.694C61.0849 190.964 61.1269 191.213 61.2109 191.441C61.3009 191.663 61.4299 191.855 61.5979 192.017C61.7659 192.179 61.9729 192.305 62.2189 192.395C62.4649 192.485 62.7499 192.53 63.0739 192.53ZM65.9629 197.48C65.9629 197.258 65.8999 197.078 65.7739 196.94C65.6479 196.802 65.4769 196.694 65.2609 196.616C65.0509 196.538 64.8049 196.484 64.5229 196.454C64.2409 196.418 63.9409 196.391 63.6229 196.373C63.3109 196.355 62.9929 196.337 62.6689 196.319C62.3449 196.301 62.0329 196.271 61.7329 196.229C61.3969 196.385 61.1209 196.583 60.9049 196.823C60.6949 197.057 60.5899 197.333 60.5899 197.651C60.5899 197.855 60.6409 198.044 60.7429 198.218C60.8509 198.398 61.0129 198.551 61.2289 198.677C61.4449 198.809 61.7149 198.911 62.0389 198.983C62.3689 199.061 62.7559 199.1 63.1999 199.1C63.6319 199.1 64.0189 199.061 64.3609 198.983C64.7029 198.905 64.9909 198.794 65.2249 198.65C65.4649 198.506 65.6479 198.335 65.7739 198.137C65.8999 197.939 65.9629 197.72 65.9629 197.48ZM67.5919 188.228V188.822C67.5919 189.02 67.4659 189.146 67.2139 189.2L66.1789 189.335C66.3829 189.731 66.4849 190.169 66.4849 190.649C66.4849 191.093 66.3979 191.498 66.2239 191.864C66.0559 192.224 65.8219 192.533 65.5219 192.791C65.2219 193.049 64.8619 193.247 64.4419 193.385C64.0219 193.523 63.5659 193.592 63.0739 193.592C62.6479 193.592 62.2459 193.541 61.8679 193.439C61.6759 193.559 61.5289 193.688 61.4269 193.826C61.3249 193.958 61.2739 194.093 61.2739 194.231C61.2739 194.447 61.3609 194.612 61.5349 194.726C61.7149 194.834 61.9489 194.912 62.2369 194.96C62.5249 195.008 62.8519 195.038 63.2179 195.05C63.5899 195.062 63.9679 195.083 64.3519 195.113C64.7419 195.137 65.1199 195.182 65.4859 195.248C65.8579 195.314 66.1879 195.422 66.4759 195.572C66.7639 195.722 66.9949 195.929 67.1689 196.193C67.3489 196.457 67.4389 196.799 67.4389 197.219C67.4389 197.609 67.3399 197.987 67.1419 198.353C66.9499 198.719 66.6709 199.043 66.3049 199.325C65.9389 199.613 65.4889 199.841 64.9549 200.009C64.4269 200.183 63.8299 200.27 63.1639 200.27C62.4979 200.27 61.9159 200.204 61.4179 200.072C60.9199 199.94 60.5059 199.763 60.1759 199.541C59.8459 199.319 59.5969 199.061 59.4289 198.767C59.2669 198.479 59.1859 198.176 59.1859 197.858C59.1859 197.408 59.3269 197.027 59.6089 196.715C59.8909 196.403 60.2779 196.154 60.7699 195.968C60.4999 195.848 60.2839 195.689 60.1219 195.491C59.9659 195.287 59.8879 195.014 59.8879 194.672C59.8879 194.54 59.9119 194.405 59.9599 194.267C60.0079 194.123 60.0799 193.982 60.1759 193.844C60.2779 193.7 60.4009 193.565 60.5449 193.439C60.6889 193.313 60.8569 193.202 61.0489 193.106C60.5989 192.854 60.2479 192.521 59.9959 192.107C59.7439 191.687 59.6179 191.201 59.6179 190.649C59.6179 190.205 59.7019 189.803 59.8699 189.443C60.0439 189.077 60.2839 188.768 60.5899 188.516C60.8959 188.258 61.2589 188.06 61.6789 187.922C62.1049 187.784 62.5699 187.715 63.0739 187.715C63.4699 187.715 63.8389 187.76 64.1809 187.85C64.5229 187.934 64.8349 188.06 65.1169 188.228H67.5919ZM77.805 190.334C78.309 190.334 78.753 190.274 79.137 190.154C79.527 190.028 79.851 189.854 80.109 189.632C80.373 189.404 80.571 189.134 80.703 188.822C80.835 188.51 80.901 188.165 80.901 187.787C80.901 187.019 80.649 186.44 80.145 186.05C79.641 185.66 78.885 185.465 77.877 185.465H75.969V190.334H77.805ZM83.763 196.985H82.215C81.897 196.985 81.663 196.862 81.513 196.616L78.165 192.008C78.063 191.864 77.952 191.762 77.832 191.702C77.718 191.636 77.538 191.603 77.292 191.603H75.969V196.985H74.232V184.088H77.877C78.693 184.088 79.398 184.172 79.992 184.34C80.586 184.502 81.075 184.739 81.459 185.051C81.849 185.363 82.137 185.741 82.323 186.185C82.509 186.623 82.602 187.115 82.602 187.661C82.602 188.117 82.53 188.543 82.386 188.939C82.242 189.335 82.032 189.692 81.756 190.01C81.486 190.322 81.153 190.589 80.757 190.811C80.367 191.033 79.923 191.201 79.425 191.315C79.647 191.441 79.839 191.624 80.001 191.864L83.763 196.985ZM90.661 191.432C90.661 191.06 90.607 190.721 90.499 190.415C90.397 190.103 90.244 189.836 90.04 189.614C89.842 189.386 89.599 189.212 89.311 189.092C89.023 188.966 88.696 188.903 88.33 188.903C87.562 188.903 86.953 189.128 86.503 189.578C86.059 190.022 85.783 190.64 85.675 191.432H90.661ZM91.957 195.707C91.759 195.947 91.522 196.157 91.246 196.337C90.97 196.511 90.673 196.655 90.355 196.769C90.043 196.883 89.719 196.967 89.383 197.021C89.047 197.081 88.714 197.111 88.384 197.111C87.754 197.111 87.172 197.006 86.638 196.796C86.11 196.58 85.651 196.268 85.261 195.86C84.877 195.446 84.577 194.936 84.361 194.33C84.145 193.724 84.037 193.028 84.037 192.242C84.037 191.606 84.133 191.012 84.325 190.46C84.523 189.908 84.805 189.431 85.171 189.029C85.537 188.621 85.984 188.303 86.512 188.075C87.04 187.841 87.634 187.724 88.294 187.724C88.84 187.724 89.344 187.817 89.806 188.003C90.274 188.183 90.676 188.447 91.012 188.795C91.354 189.137 91.621 189.563 91.813 190.073C92.005 190.577 92.101 191.153 92.101 191.801C92.101 192.053 92.074 192.221 92.02 192.305C91.966 192.389 91.864 192.431 91.714 192.431H85.621C85.639 193.007 85.717 193.508 85.855 193.934C85.999 194.36 86.197 194.717 86.449 195.005C86.701 195.287 87.001 195.5 87.349 195.644C87.697 195.782 88.087 195.851 88.519 195.851C88.921 195.851 89.266 195.806 89.554 195.716C89.848 195.62 90.1 195.518 90.31 195.41C90.52 195.302 90.694 195.203 90.832 195.113C90.976 195.017 91.099 194.969 91.201 194.969C91.333 194.969 91.435 195.02 91.507 195.122L91.957 195.707ZM101.687 187.868L97.9704 196.985H96.5304L92.8134 187.868H94.1184C94.2504 187.868 94.3584 187.901 94.4424 187.967C94.5264 188.033 94.5834 188.111 94.6134 188.201L96.9264 194.069C96.9984 194.291 97.0614 194.507 97.1154 194.717C97.1694 194.927 97.2204 195.137 97.2684 195.347C97.3164 195.137 97.3674 194.927 97.4214 194.717C97.4754 194.507 97.5414 194.291 97.6194 194.069L99.9594 188.201C99.9954 188.105 100.055 188.027 100.139 187.967C100.223 187.901 100.322 187.868 100.436 187.868H101.687ZM104.849 187.868V196.985H103.247V187.868H104.849ZM105.191 185.006C105.191 185.162 105.158 185.309 105.092 185.447C105.032 185.579 104.948 185.699 104.84 185.807C104.738 185.909 104.615 185.99 104.471 186.05C104.333 186.11 104.186 186.14 104.03 186.14C103.874 186.14 103.727 186.11 103.589 186.05C103.457 185.99 103.34 185.909 103.238 185.807C103.136 185.699 103.055 185.579 102.995 185.447C102.935 185.309 102.905 185.162 102.905 185.006C102.905 184.85 102.935 184.703 102.995 184.565C103.055 184.421 103.136 184.298 103.238 184.196C103.34 184.088 103.457 184.004 103.589 183.944C103.727 183.884 103.874 183.854 104.03 183.854C104.186 183.854 104.333 183.884 104.471 183.944C104.615 184.004 104.738 184.088 104.84 184.196C104.948 184.298 105.032 184.421 105.092 184.565C105.158 184.703 105.191 184.85 105.191 185.006ZM113.583 191.432C113.583 191.06 113.529 190.721 113.421 190.415C113.319 190.103 113.166 189.836 112.962 189.614C112.764 189.386 112.521 189.212 112.233 189.092C111.945 188.966 111.618 188.903 111.252 188.903C110.484 188.903 109.875 189.128 109.425 189.578C108.981 190.022 108.705 190.64 108.597 191.432H113.583ZM114.879 195.707C114.681 195.947 114.444 196.157 114.168 196.337C113.892 196.511 113.595 196.655 113.277 196.769C112.965 196.883 112.641 196.967 112.305 197.021C111.969 197.081 111.636 197.111 111.306 197.111C110.676 197.111 110.094 197.006 109.56 196.796C109.032 196.58 108.573 196.268 108.183 195.86C107.799 195.446 107.499 194.936 107.283 194.33C107.067 193.724 106.959 193.028 106.959 192.242C106.959 191.606 107.055 191.012 107.247 190.46C107.445 189.908 107.727 189.431 108.093 189.029C108.459 188.621 108.906 188.303 109.434 188.075C109.962 187.841 110.556 187.724 111.216 187.724C111.762 187.724 112.266 187.817 112.728 188.003C113.196 188.183 113.598 188.447 113.934 188.795C114.276 189.137 114.543 189.563 114.735 190.073C114.927 190.577 115.023 191.153 115.023 191.801C115.023 192.053 114.996 192.221 114.942 192.305C114.888 192.389 114.786 192.431 114.636 192.431H108.543C108.561 193.007 108.639 193.508 108.777 193.934C108.921 194.36 109.119 194.717 109.371 195.005C109.623 195.287 109.923 195.5 110.271 195.644C110.619 195.782 111.009 195.851 111.441 195.851C111.843 195.851 112.188 195.806 112.476 195.716C112.77 195.62 113.022 195.518 113.232 195.41C113.442 195.302 113.616 195.203 113.754 195.113C113.898 195.017 114.021 194.969 114.123 194.969C114.255 194.969 114.357 195.02 114.429 195.122L114.879 195.707ZM129.476 187.868L126.524 196.985H125.255C125.099 196.985 124.991 196.883 124.931 196.679L122.915 190.496C122.867 190.358 122.828 190.22 122.798 190.082C122.768 189.938 122.738 189.797 122.708 189.659C122.678 189.797 122.648 189.938 122.618 190.082C122.588 190.22 122.549 190.361 122.501 190.505L120.449 196.679C120.395 196.883 120.275 196.985 120.089 196.985H118.883L115.931 187.868H117.191C117.317 187.868 117.422 187.901 117.506 187.967C117.596 188.033 117.656 188.111 117.686 188.201L119.432 194.069C119.534 194.501 119.615 194.909 119.675 195.293C119.729 195.095 119.783 194.894 119.837 194.69C119.897 194.486 119.96 194.279 120.026 194.069L121.952 188.165C121.982 188.075 122.033 188 122.105 187.94C122.183 187.88 122.276 187.85 122.384 187.85H123.086C123.206 187.85 123.305 187.88 123.383 187.94C123.461 188 123.515 188.075 123.545 188.165L125.426 194.069C125.492 194.279 125.552 194.486 125.606 194.69C125.66 194.894 125.711 195.095 125.759 195.293C125.789 195.095 125.825 194.897 125.867 194.699C125.915 194.495 125.966 194.285 126.02 194.069L127.802 188.201C127.832 188.105 127.889 188.027 127.973 187.967C128.057 187.901 128.156 187.868 128.27 187.868H129.476Z" fill="#173A78"/>
<path d="M300.687 190.775C301.185 190.775 301.623 190.709 302.001 190.577C302.385 190.445 302.706 190.262 302.964 190.028C303.228 189.788 303.426 189.503 303.558 189.173C303.69 188.843 303.756 188.48 303.756 188.084C303.756 187.262 303.501 186.62 302.991 186.158C302.487 185.696 301.719 185.465 300.687 185.465H298.617V190.775H300.687ZM300.687 184.088C301.503 184.088 302.211 184.184 302.811 184.376C303.417 184.562 303.918 184.829 304.314 185.177C304.71 185.525 305.004 185.945 305.196 186.437C305.394 186.929 305.493 187.478 305.493 188.084C305.493 188.684 305.388 189.233 305.178 189.731C304.968 190.229 304.659 190.658 304.251 191.018C303.849 191.378 303.348 191.66 302.748 191.864C302.154 192.062 301.467 192.161 300.687 192.161H298.617V196.985H296.88V184.088H300.687ZM308.916 183.728V196.985H307.314V183.728H308.916ZM316.455 192.881C315.717 192.905 315.087 192.965 314.565 193.061C314.049 193.151 313.626 193.271 313.296 193.421C312.972 193.571 312.735 193.748 312.585 193.952C312.441 194.156 312.369 194.384 312.369 194.636C312.369 194.876 312.408 195.083 312.486 195.257C312.564 195.431 312.669 195.575 312.801 195.689C312.939 195.797 313.098 195.878 313.278 195.932C313.464 195.98 313.662 196.004 313.872 196.004C314.154 196.004 314.412 195.977 314.646 195.923C314.88 195.863 315.099 195.779 315.303 195.671C315.513 195.563 315.711 195.434 315.897 195.284C316.089 195.134 316.275 194.963 316.455 194.771V192.881ZM311.28 189.155C311.784 188.669 312.327 188.306 312.909 188.066C313.491 187.826 314.136 187.706 314.844 187.706C315.354 187.706 315.807 187.79 316.203 187.958C316.599 188.126 316.932 188.36 317.202 188.66C317.472 188.96 317.676 189.323 317.814 189.749C317.952 190.175 318.021 190.643 318.021 191.153V196.985H317.31C317.154 196.985 317.034 196.961 316.95 196.913C316.866 196.859 316.8 196.757 316.752 196.607L316.572 195.743C316.332 195.965 316.098 196.163 315.87 196.337C315.642 196.505 315.402 196.649 315.15 196.769C314.898 196.883 314.628 196.97 314.34 197.03C314.058 197.096 313.743 197.129 313.395 197.129C313.041 197.129 312.708 197.081 312.396 196.985C312.084 196.883 311.811 196.733 311.577 196.535C311.349 196.337 311.166 196.088 311.028 195.788C310.896 195.482 310.83 195.122 310.83 194.708C310.83 194.348 310.929 194.003 311.127 193.673C311.325 193.337 311.646 193.04 312.09 192.782C312.534 192.524 313.113 192.314 313.827 192.152C314.541 191.984 315.417 191.888 316.455 191.864V191.153C316.455 190.445 316.302 189.911 315.996 189.551C315.69 189.185 315.243 189.002 314.655 189.002C314.259 189.002 313.926 189.053 313.656 189.155C313.392 189.251 313.161 189.362 312.963 189.488C312.771 189.608 312.603 189.719 312.459 189.821C312.321 189.917 312.183 189.965 312.045 189.965C311.937 189.965 311.844 189.938 311.766 189.884C311.688 189.824 311.622 189.752 311.568 189.668L311.28 189.155ZM321.973 189.191C322.171 188.969 322.381 188.768 322.603 188.588C322.825 188.408 323.059 188.255 323.305 188.129C323.557 187.997 323.821 187.898 324.097 187.832C324.379 187.76 324.682 187.724 325.006 187.724C325.504 187.724 325.942 187.808 326.32 187.976C326.704 188.138 327.022 188.372 327.274 188.678C327.532 188.978 327.727 189.341 327.859 189.767C327.991 190.193 328.057 190.664 328.057 191.18V196.985H326.446V191.18C326.446 190.49 326.287 189.956 325.969 189.578C325.657 189.194 325.18 189.002 324.538 189.002C324.064 189.002 323.62 189.116 323.206 189.344C322.798 189.572 322.42 189.881 322.072 190.271V196.985H320.461V187.868H321.424C321.652 187.868 321.793 187.979 321.847 188.201L321.973 189.191ZM332.01 189.191C332.208 188.969 332.418 188.768 332.64 188.588C332.862 188.408 333.096 188.255 333.342 188.129C333.594 187.997 333.858 187.898 334.134 187.832C334.416 187.76 334.719 187.724 335.043 187.724C335.541 187.724 335.979 187.808 336.357 187.976C336.741 188.138 337.059 188.372 337.311 188.678C337.569 188.978 337.764 189.341 337.896 189.767C338.028 190.193 338.094 190.664 338.094 191.18V196.985H336.483V191.18C336.483 190.49 336.324 189.956 336.006 189.578C335.694 189.194 335.217 189.002 334.575 189.002C334.101 189.002 333.657 189.116 333.243 189.344C332.835 189.572 332.457 189.881 332.109 190.271V196.985H330.498V187.868H331.461C331.689 187.868 331.83 187.979 331.884 188.201L332.01 189.191ZM342.228 187.868V196.985H340.626V187.868H342.228ZM342.57 185.006C342.57 185.162 342.537 185.309 342.471 185.447C342.411 185.579 342.327 185.699 342.219 185.807C342.117 185.909 341.994 185.99 341.85 186.05C341.712 186.11 341.565 186.14 341.409 186.14C341.253 186.14 341.106 186.11 340.968 186.05C340.836 185.99 340.719 185.909 340.617 185.807C340.515 185.699 340.434 185.579 340.374 185.447C340.314 185.309 340.284 185.162 340.284 185.006C340.284 184.85 340.314 184.703 340.374 184.565C340.434 184.421 340.515 184.298 340.617 184.196C340.719 184.088 340.836 184.004 340.968 183.944C341.106 183.884 341.253 183.854 341.409 183.854C341.565 183.854 341.712 183.884 341.85 183.944C341.994 184.004 342.117 184.088 342.219 184.196C342.327 184.298 342.411 184.421 342.471 184.565C342.537 184.703 342.57 184.85 342.57 185.006ZM346.372 189.191C346.57 188.969 346.78 188.768 347.002 188.588C347.224 188.408 347.458 188.255 347.704 188.129C347.956 187.997 348.22 187.898 348.496 187.832C348.778 187.76 349.081 187.724 349.405 187.724C349.903 187.724 350.341 187.808 350.719 187.976C351.103 188.138 351.421 188.372 351.673 188.678C351.931 188.978 352.126 189.341 352.258 189.767C352.39 190.193 352.456 190.664 352.456 191.18V196.985H350.845V191.18C350.845 190.49 350.686 189.956 350.368 189.578C350.056 189.194 349.579 189.002 348.937 189.002C348.463 189.002 348.019 189.116 347.605 189.344C347.197 189.572 346.819 189.881 346.471 190.271V196.985H344.86V187.868H345.823C346.051 187.868 346.192 187.979 346.246 188.201L346.372 189.191ZM358.074 192.53C358.398 192.53 358.683 192.485 358.929 192.395C359.175 192.305 359.382 192.179 359.55 192.017C359.718 191.855 359.844 191.663 359.928 191.441C360.012 191.213 360.054 190.964 360.054 190.694C360.054 190.136 359.883 189.692 359.541 189.362C359.205 189.032 358.716 188.867 358.074 188.867C357.426 188.867 356.931 189.032 356.589 189.362C356.253 189.692 356.085 190.136 356.085 190.694C356.085 190.964 356.127 191.213 356.211 191.441C356.301 191.663 356.43 191.855 356.598 192.017C356.766 192.179 356.973 192.305 357.219 192.395C357.465 192.485 357.75 192.53 358.074 192.53ZM360.963 197.48C360.963 197.258 360.9 197.078 360.774 196.94C360.648 196.802 360.477 196.694 360.261 196.616C360.051 196.538 359.805 196.484 359.523 196.454C359.241 196.418 358.941 196.391 358.623 196.373C358.311 196.355 357.993 196.337 357.669 196.319C357.345 196.301 357.033 196.271 356.733 196.229C356.397 196.385 356.121 196.583 355.905 196.823C355.695 197.057 355.59 197.333 355.59 197.651C355.59 197.855 355.641 198.044 355.743 198.218C355.851 198.398 356.013 198.551 356.229 198.677C356.445 198.809 356.715 198.911 357.039 198.983C357.369 199.061 357.756 199.1 358.2 199.1C358.632 199.1 359.019 199.061 359.361 198.983C359.703 198.905 359.991 198.794 360.225 198.65C360.465 198.506 360.648 198.335 360.774 198.137C360.9 197.939 360.963 197.72 360.963 197.48ZM362.592 188.228V188.822C362.592 189.02 362.466 189.146 362.214 189.2L361.179 189.335C361.383 189.731 361.485 190.169 361.485 190.649C361.485 191.093 361.398 191.498 361.224 191.864C361.056 192.224 360.822 192.533 360.522 192.791C360.222 193.049 359.862 193.247 359.442 193.385C359.022 193.523 358.566 193.592 358.074 193.592C357.648 193.592 357.246 193.541 356.868 193.439C356.676 193.559 356.529 193.688 356.427 193.826C356.325 193.958 356.274 194.093 356.274 194.231C356.274 194.447 356.361 194.612 356.535 194.726C356.715 194.834 356.949 194.912 357.237 194.96C357.525 195.008 357.852 195.038 358.218 195.05C358.59 195.062 358.968 195.083 359.352 195.113C359.742 195.137 360.12 195.182 360.486 195.248C360.858 195.314 361.188 195.422 361.476 195.572C361.764 195.722 361.995 195.929 362.169 196.193C362.349 196.457 362.439 196.799 362.439 197.219C362.439 197.609 362.34 197.987 362.142 198.353C361.95 198.719 361.671 199.043 361.305 199.325C360.939 199.613 360.489 199.841 359.955 200.009C359.427 200.183 358.83 200.27 358.164 200.27C357.498 200.27 356.916 200.204 356.418 200.072C355.92 199.94 355.506 199.763 355.176 199.541C354.846 199.319 354.597 199.061 354.429 198.767C354.267 198.479 354.186 198.176 354.186 197.858C354.186 197.408 354.327 197.027 354.609 196.715C354.891 196.403 355.278 196.154 355.77 195.968C355.5 195.848 355.284 195.689 355.122 195.491C354.966 195.287 354.888 195.014 354.888 194.672C354.888 194.54 354.912 194.405 354.96 194.267C355.008 194.123 355.08 193.982 355.176 193.844C355.278 193.7 355.401 193.565 355.545 193.439C355.689 193.313 355.857 193.202 356.049 193.106C355.599 192.854 355.248 192.521 354.996 192.107C354.744 191.687 354.618 191.201 354.618 190.649C354.618 190.205 354.702 189.803 354.87 189.443C355.044 189.077 355.284 188.768 355.59 188.516C355.896 188.258 356.259 188.06 356.679 187.922C357.105 187.784 357.57 187.715 358.074 187.715C358.47 187.715 358.839 187.76 359.181 187.85C359.523 187.934 359.835 188.06 360.117 188.228H362.592ZM372.805 190.334C373.309 190.334 373.753 190.274 374.137 190.154C374.527 190.028 374.851 189.854 375.109 189.632C375.373 189.404 375.571 189.134 375.703 188.822C375.835 188.51 375.901 188.165 375.901 187.787C375.901 187.019 375.649 186.44 375.145 186.05C374.641 185.66 373.885 185.465 372.877 185.465H370.969V190.334H372.805ZM378.763 196.985H377.215C376.897 196.985 376.663 196.862 376.513 196.616L373.165 192.008C373.063 191.864 372.952 191.762 372.832 191.702C372.718 191.636 372.538 191.603 372.292 191.603H370.969V196.985H369.232V184.088H372.877C373.693 184.088 374.398 184.172 374.992 184.34C375.586 184.502 376.075 184.739 376.459 185.051C376.849 185.363 377.137 185.741 377.323 186.185C377.509 186.623 377.602 187.115 377.602 187.661C377.602 188.117 377.53 188.543 377.386 188.939C377.242 189.335 377.032 189.692 376.756 190.01C376.486 190.322 376.153 190.589 375.757 190.811C375.367 191.033 374.923 191.201 374.425 191.315C374.647 191.441 374.839 191.624 375.001 191.864L378.763 196.985ZM385.661 191.432C385.661 191.06 385.607 190.721 385.499 190.415C385.397 190.103 385.244 189.836 385.04 189.614C384.842 189.386 384.599 189.212 384.311 189.092C384.023 188.966 383.696 188.903 383.33 188.903C382.562 188.903 381.953 189.128 381.503 189.578C381.059 190.022 380.783 190.64 380.675 191.432H385.661ZM386.957 195.707C386.759 195.947 386.522 196.157 386.246 196.337C385.97 196.511 385.673 196.655 385.355 196.769C385.043 196.883 384.719 196.967 384.383 197.021C384.047 197.081 383.714 197.111 383.384 197.111C382.754 197.111 382.172 197.006 381.638 196.796C381.11 196.58 380.651 196.268 380.261 195.86C379.877 195.446 379.577 194.936 379.361 194.33C379.145 193.724 379.037 193.028 379.037 192.242C379.037 191.606 379.133 191.012 379.325 190.46C379.523 189.908 379.805 189.431 380.171 189.029C380.537 188.621 380.984 188.303 381.512 188.075C382.04 187.841 382.634 187.724 383.294 187.724C383.84 187.724 384.344 187.817 384.806 188.003C385.274 188.183 385.676 188.447 386.012 188.795C386.354 189.137 386.621 189.563 386.813 190.073C387.005 190.577 387.101 191.153 387.101 191.801C387.101 192.053 387.074 192.221 387.02 192.305C386.966 192.389 386.864 192.431 386.714 192.431H380.621C380.639 193.007 380.717 193.508 380.855 193.934C380.999 194.36 381.197 194.717 381.449 195.005C381.701 195.287 382.001 195.5 382.349 195.644C382.697 195.782 383.087 195.851 383.519 195.851C383.921 195.851 384.266 195.806 384.554 195.716C384.848 195.62 385.1 195.518 385.31 195.41C385.52 195.302 385.694 195.203 385.832 195.113C385.976 195.017 386.099 194.969 386.201 194.969C386.333 194.969 386.435 195.02 386.507 195.122L386.957 195.707ZM396.687 187.868L392.97 196.985H391.53L387.813 187.868H389.118C389.25 187.868 389.358 187.901 389.442 187.967C389.526 188.033 389.583 188.111 389.613 188.201L391.926 194.069C391.998 194.291 392.061 194.507 392.115 194.717C392.169 194.927 392.22 195.137 392.268 195.347C392.316 195.137 392.367 194.927 392.421 194.717C392.475 194.507 392.541 194.291 392.619 194.069L394.959 188.201C394.995 188.105 395.055 188.027 395.139 187.967C395.223 187.901 395.322 187.868 395.436 187.868H396.687ZM399.849 187.868V196.985H398.247V187.868H399.849ZM400.191 185.006C400.191 185.162 400.158 185.309 400.092 185.447C400.032 185.579 399.948 185.699 399.84 185.807C399.738 185.909 399.615 185.99 399.471 186.05C399.333 186.11 399.186 186.14 399.03 186.14C398.874 186.14 398.727 186.11 398.589 186.05C398.457 185.99 398.34 185.909 398.238 185.807C398.136 185.699 398.055 185.579 397.995 185.447C397.935 185.309 397.905 185.162 397.905 185.006C397.905 184.85 397.935 184.703 397.995 184.565C398.055 184.421 398.136 184.298 398.238 184.196C398.34 184.088 398.457 184.004 398.589 183.944C398.727 183.884 398.874 183.854 399.03 183.854C399.186 183.854 399.333 183.884 399.471 183.944C399.615 184.004 399.738 184.088 399.84 184.196C399.948 184.298 400.032 184.421 400.092 184.565C400.158 184.703 400.191 184.85 400.191 185.006ZM408.583 191.432C408.583 191.06 408.529 190.721 408.421 190.415C408.319 190.103 408.166 189.836 407.962 189.614C407.764 189.386 407.521 189.212 407.233 189.092C406.945 188.966 406.618 188.903 406.252 188.903C405.484 188.903 404.875 189.128 404.425 189.578C403.981 190.022 403.705 190.64 403.597 191.432H408.583ZM409.879 195.707C409.681 195.947 409.444 196.157 409.168 196.337C408.892 196.511 408.595 196.655 408.277 196.769C407.965 196.883 407.641 196.967 407.305 197.021C406.969 197.081 406.636 197.111 406.306 197.111C405.676 197.111 405.094 197.006 404.56 196.796C404.032 196.58 403.573 196.268 403.183 195.86C402.799 195.446 402.499 194.936 402.283 194.33C402.067 193.724 401.959 193.028 401.959 192.242C401.959 191.606 402.055 191.012 402.247 190.46C402.445 189.908 402.727 189.431 403.093 189.029C403.459 188.621 403.906 188.303 404.434 188.075C404.962 187.841 405.556 187.724 406.216 187.724C406.762 187.724 407.266 187.817 407.728 188.003C408.196 188.183 408.598 188.447 408.934 188.795C409.276 189.137 409.543 189.563 409.735 190.073C409.927 190.577 410.023 191.153 410.023 191.801C410.023 192.053 409.996 192.221 409.942 192.305C409.888 192.389 409.786 192.431 409.636 192.431H403.543C403.561 193.007 403.639 193.508 403.777 193.934C403.921 194.36 404.119 194.717 404.371 195.005C404.623 195.287 404.923 195.5 405.271 195.644C405.619 195.782 406.009 195.851 406.441 195.851C406.843 195.851 407.188 195.806 407.476 195.716C407.77 195.62 408.022 195.518 408.232 195.41C408.442 195.302 408.616 195.203 408.754 195.113C408.898 195.017 409.021 194.969 409.123 194.969C409.255 194.969 409.357 195.02 409.429 195.122L409.879 195.707ZM424.476 187.868L421.524 196.985H420.255C420.099 196.985 419.991 196.883 419.931 196.679L417.915 190.496C417.867 190.358 417.828 190.22 417.798 190.082C417.768 189.938 417.738 189.797 417.708 189.659C417.678 189.797 417.648 189.938 417.618 190.082C417.588 190.22 417.549 190.361 417.501 190.505L415.449 196.679C415.395 196.883 415.275 196.985 415.089 196.985H413.883L410.931 187.868H412.191C412.317 187.868 412.422 187.901 412.506 187.967C412.596 188.033 412.656 188.111 412.686 188.201L414.432 194.069C414.534 194.501 414.615 194.909 414.675 195.293C414.729 195.095 414.783 194.894 414.837 194.69C414.897 194.486 414.96 194.279 415.026 194.069L416.952 188.165C416.982 188.075 417.033 188 417.105 187.94C417.183 187.88 417.276 187.85 417.384 187.85H418.086C418.206 187.85 418.305 187.88 418.383 187.94C418.461 188 418.515 188.075 418.545 188.165L420.426 194.069C420.492 194.279 420.552 194.486 420.606 194.69C420.66 194.894 420.711 195.095 420.759 195.293C420.789 195.095 420.825 194.897 420.867 194.699C420.915 194.495 420.966 194.285 421.02 194.069L422.802 188.201C422.832 188.105 422.889 188.027 422.973 187.967C423.057 187.901 423.156 187.868 423.27 187.868H424.476Z" fill="#173A78"/>
<path fill-rule="evenodd" clip-rule="evenodd" d="M212.392 0.03125C120.943 0.03125 35.7197 68.9834 35.7197 163.281H94.0397C94.0397 107.291 146.695 58.3512 212.392 58.3512C276.266 58.3512 324.55 102.037 330.653 152.484C330.674 152.664 330.713 152.83 330.765 152.984H317.579L359.87 173.402L401.661 152.984H389.206C389.245 152.83 389.26 152.664 389.247 152.484C383.14 65.5775 303.825 0.03125 212.392 0.03125Z" fill="url(#paint0_linear_5451_8155)"/>
<path d="M318.688 152.984L360.979 173.402L402.77 152.984" stroke="#173A78" stroke-width="3" stroke-linecap="round" stroke-linejoin="round"/>
<path fill-rule="evenodd" clip-rule="evenodd" d="M213.38 386.355C304.83 386.355 390.053 317.403 390.053 223.106L331.733 223.106C331.733 279.095 279.078 328.035 213.38 328.035C149.506 328.035 101.222 284.349 95.1197 233.902C95.098 233.723 95.0599 233.557 95.007 233.402L108.193 233.402L65.9026 212.985L24.1116 233.402L36.5664 233.402C36.5271 233.557 36.5125 233.723 36.5251 233.902C42.6323 320.809 121.947 386.355 213.38 386.355Z" fill="url(#paint1_linear_5451_8155)"/>
<path d="M107.082 233.402L64.7913 212.985L23.0003 233.402" stroke="#173A78" stroke-width="3" stroke-linecap="round" stroke-linejoin="round"/>
<path d="M117.621 320.278C117.521 320.31 117.431 320.322 117.349 320.315C117.277 320.307 117.206 320.273 117.139 320.214C117.062 320.146 117.006 320.029 116.969 319.861C116.933 319.693 116.876 319.495 116.797 319.266C116.727 319.037 116.616 318.787 116.462 318.516C116.313 318.249 116.083 317.979 115.772 317.706C115.48 317.448 115.185 317.261 114.888 317.144C114.6 317.027 114.32 316.968 114.048 316.969C113.78 316.973 113.527 317.034 113.288 317.151C113.053 317.264 112.842 317.426 112.656 317.638C112.418 317.909 112.286 318.191 112.258 318.486C112.238 318.781 112.281 319.087 112.387 319.403C112.497 319.723 112.647 320.051 112.839 320.388C113.039 320.724 113.24 321.068 113.441 321.42C113.647 321.777 113.832 322.139 113.996 322.507C114.168 322.874 114.279 323.248 114.329 323.627C114.383 324.011 114.355 324.397 114.244 324.787C114.138 325.181 113.908 325.578 113.555 325.979C113.183 326.403 112.76 326.738 112.287 326.985C111.818 327.228 111.323 327.364 110.802 327.393C110.286 327.426 109.755 327.343 109.211 327.145C108.671 326.95 108.145 326.626 107.631 326.175C107 325.62 106.527 325.004 106.211 324.327C105.9 323.646 105.732 322.951 105.707 322.243L106.633 321.953C106.712 321.936 106.791 321.933 106.868 321.945C106.954 321.956 107.028 321.99 107.091 322.045C107.15 322.097 107.193 322.179 107.222 322.292C107.259 322.404 107.293 322.538 107.324 322.693C107.356 322.849 107.394 323.023 107.441 323.215C107.487 323.408 107.555 323.608 107.645 323.814C107.739 324.025 107.864 324.242 108.019 324.466C108.177 324.686 108.38 324.904 108.628 325.122C108.939 325.396 109.254 325.596 109.572 325.725C109.891 325.853 110.201 325.914 110.503 325.907C110.812 325.9 111.108 325.828 111.388 325.691C111.668 325.554 111.925 325.353 112.159 325.087C112.416 324.794 112.559 324.496 112.586 324.192C112.622 323.888 112.587 323.578 112.482 323.261C112.376 322.945 112.222 322.621 112.017 322.29C111.817 321.954 111.613 321.614 111.404 321.271C111.198 320.923 111.01 320.565 110.837 320.198C110.665 319.83 110.556 319.455 110.51 319.071C110.464 318.687 110.5 318.291 110.618 317.884C110.745 317.476 110.997 317.058 111.373 316.63C111.674 316.288 112.031 316.014 112.443 315.809C112.859 315.608 113.303 315.494 113.773 315.468C114.248 315.446 114.735 315.524 115.235 315.7C115.74 315.88 116.234 316.182 116.716 316.606C117.256 317.081 117.672 317.599 117.963 318.158C118.259 318.722 118.433 319.314 118.486 319.936L117.621 320.278Z" fill="white"/>
<path d="M114.793 332.013C114.227 331.568 113.915 331.067 113.857 330.51C113.804 329.956 114.011 329.383 114.479 328.789L117.93 324.404L117.068 323.725C116.992 323.666 116.945 323.594 116.927 323.511C116.912 323.423 116.942 323.332 117.016 323.238L117.411 322.735L118.702 323.511L120.734 321.526C120.804 321.466 120.879 321.434 120.96 321.428C121.049 321.422 121.133 321.45 121.213 321.513L121.85 322.014L119.907 324.483L121.979 326.114L121.261 327.026L119.189 325.395L115.805 329.695C115.567 329.996 115.464 330.278 115.495 330.539C115.526 330.8 115.657 331.022 115.888 331.204C116.02 331.308 116.146 331.38 116.267 331.421C116.395 331.462 116.512 331.488 116.616 331.501C116.72 331.515 116.809 331.523 116.882 331.527C116.963 331.531 117.023 331.547 117.061 331.577C117.127 331.629 117.154 331.715 117.143 331.836L117.037 332.727C116.661 332.759 116.273 332.713 115.874 332.59C115.478 332.462 115.118 332.27 114.793 332.013Z" fill="white"/>
<path d="M125.393 334.446C124.776 334.04 124.227 333.726 123.745 333.504C123.271 333.28 122.856 333.134 122.5 333.066C122.149 333.002 121.853 333.01 121.613 333.09C121.378 333.174 121.188 333.318 121.042 333.524C120.904 333.721 120.817 333.912 120.78 334.099C120.743 334.286 120.746 334.465 120.788 334.634C120.839 334.802 120.922 334.96 121.038 335.107C121.162 335.254 121.31 335.388 121.482 335.509C121.712 335.671 121.939 335.798 122.161 335.889C122.387 335.975 122.614 336.032 122.843 336.062C123.077 336.094 123.313 336.103 123.552 336.088C123.795 336.076 124.045 336.043 124.303 335.99L125.393 334.446ZM123.313 328.418C124.005 328.312 124.657 328.328 125.271 328.467C125.885 328.607 126.481 328.881 127.06 329.289C127.477 329.583 127.798 329.913 128.025 330.278C128.252 330.644 128.389 331.027 128.437 331.428C128.484 331.829 128.442 332.243 128.309 332.67C128.176 333.098 127.963 333.52 127.669 333.937L124.306 338.702L123.725 338.292C123.598 338.202 123.514 338.114 123.473 338.026C123.435 337.933 123.44 337.812 123.487 337.662L123.838 336.852C123.514 336.895 123.209 336.922 122.922 336.933C122.639 336.938 122.36 336.918 122.085 336.871C121.813 336.818 121.543 336.734 121.273 336.617C121.004 336.508 120.728 336.354 120.443 336.153C120.154 335.949 119.91 335.718 119.71 335.459C119.514 335.196 119.378 334.916 119.3 334.619C119.228 334.326 119.222 334.017 119.283 333.693C119.351 333.366 119.505 333.034 119.743 332.696C119.951 332.402 120.231 332.177 120.583 332.022C120.938 331.861 121.372 331.804 121.883 331.849C122.395 331.894 122.989 332.056 123.666 332.335C124.346 332.61 125.117 333.036 125.979 333.615L126.389 333.034C126.797 332.456 126.98 331.931 126.938 331.461C126.899 330.985 126.639 330.578 126.158 330.239C125.835 330.011 125.533 329.86 125.254 329.788C124.983 329.714 124.73 329.672 124.496 329.661C124.27 329.648 124.068 329.642 123.892 329.642C123.724 329.641 123.583 329.601 123.471 329.521C123.382 329.459 123.322 329.383 123.289 329.294C123.26 329.2 123.248 329.103 123.252 329.003L123.313 328.418Z" fill="white"/>
<path d="M131.662 338.015C131.937 338.186 132.203 338.298 132.459 338.352C132.716 338.405 132.958 338.408 133.186 338.359C133.415 338.31 133.623 338.213 133.811 338.069C134.003 337.92 134.17 337.73 134.313 337.501C134.607 337.027 134.696 336.56 134.58 336.099C134.469 335.641 134.141 335.243 133.595 334.904C133.045 334.562 132.537 334.441 132.073 334.541C131.613 334.644 131.236 334.932 130.942 335.406C130.799 335.635 130.703 335.869 130.654 336.107C130.614 336.343 130.622 336.574 130.679 336.8C130.736 337.027 130.846 337.243 131.007 337.449C131.168 337.656 131.387 337.844 131.662 338.015ZM131.503 343.744C131.62 343.556 131.662 343.37 131.627 343.186C131.593 343.002 131.505 342.82 131.363 342.64C131.226 342.463 131.045 342.287 130.821 342.113C130.601 341.934 130.36 341.752 130.1 341.569C129.844 341.389 129.584 341.206 129.318 341.02C129.052 340.833 128.803 340.643 128.571 340.449C128.203 340.404 127.864 340.427 127.554 340.517C127.252 340.605 127.017 340.784 126.849 341.054C126.741 341.227 126.685 341.414 126.68 341.616C126.677 341.826 126.733 342.041 126.85 342.262C126.964 342.489 127.14 342.718 127.377 342.95C127.616 343.19 127.924 343.428 128.301 343.662C128.668 343.89 129.017 344.061 129.349 344.175C129.681 344.29 129.984 344.347 130.259 344.349C130.538 344.353 130.784 344.304 130.996 344.203C131.207 344.101 131.376 343.948 131.503 343.744ZM137.77 336.746L137.457 337.251C137.352 337.419 137.178 337.459 136.936 337.372L135.986 336.94C135.95 337.384 135.805 337.81 135.552 338.218C135.318 338.595 135.03 338.893 134.689 339.112C134.356 339.329 133.994 339.468 133.603 339.529C133.212 339.59 132.802 339.568 132.373 339.464C131.943 339.359 131.519 339.177 131.101 338.917C130.74 338.692 130.425 338.437 130.158 338.151C129.931 338.151 129.738 338.183 129.579 338.247C129.423 338.305 129.308 338.393 129.235 338.51C129.121 338.693 129.108 338.879 129.196 339.068C129.292 339.255 129.449 339.445 129.668 339.637C129.888 339.83 130.15 340.028 130.454 340.232C130.764 340.438 131.074 340.656 131.384 340.884C131.703 341.11 132 341.348 132.276 341.597C132.557 341.849 132.78 342.115 132.946 342.395C133.111 342.674 133.198 342.972 133.207 343.288C133.22 343.607 133.116 343.945 132.894 344.302C132.689 344.633 132.405 344.902 132.044 345.108C131.687 345.318 131.279 345.446 130.82 345.492C130.357 345.543 129.854 345.5 129.312 345.36C128.772 345.229 128.219 344.988 127.653 344.637C127.087 344.285 126.628 343.922 126.275 343.547C125.921 343.172 125.663 342.803 125.5 342.44C125.337 342.078 125.262 341.727 125.274 341.389C125.288 341.059 125.38 340.758 125.547 340.488C125.785 340.106 126.106 339.857 126.51 339.741C126.914 339.625 127.374 339.617 127.89 339.719C127.724 339.475 127.625 339.226 127.592 338.972C127.567 338.716 127.645 338.443 127.825 338.153C127.895 338.041 127.987 337.939 128.1 337.847C128.217 337.75 128.353 337.668 128.507 337.602C128.67 337.533 128.845 337.483 129.034 337.452C129.223 337.421 129.424 337.416 129.638 337.436C129.389 336.984 129.266 336.516 129.271 336.031C129.279 335.542 129.428 335.062 129.719 334.593C129.954 334.216 130.237 333.919 130.57 333.702C130.911 333.483 131.278 333.347 131.671 333.295C132.067 333.237 132.48 333.261 132.909 333.365C133.344 333.473 133.775 333.66 134.203 333.926C134.54 334.135 134.829 334.368 135.072 334.625C135.319 334.876 135.517 335.148 135.668 335.44L137.77 336.746Z" fill="white"/>
<path d="M143.084 343.181C143.261 342.854 143.375 342.53 143.426 342.21C143.484 341.887 143.477 341.579 143.403 341.287C143.337 340.992 143.206 340.723 143.01 340.481C142.816 340.233 142.558 340.022 142.237 339.848C141.561 339.483 140.918 339.391 140.308 339.573C139.707 339.752 139.17 340.165 138.698 340.81L143.084 343.181ZM142.191 347.558C141.903 347.675 141.595 347.747 141.266 347.774C140.941 347.796 140.611 347.782 140.277 347.731C139.948 347.683 139.623 347.602 139.302 347.49C138.978 347.383 138.671 347.251 138.381 347.094C137.826 346.795 137.364 346.425 136.994 345.987C136.633 345.546 136.377 345.053 136.228 344.509C136.087 343.962 136.066 343.37 136.164 342.735C136.262 342.099 136.498 341.435 136.872 340.744C137.175 340.184 137.542 339.707 137.973 339.313C138.41 338.922 138.885 338.636 139.398 338.457C139.914 338.272 140.458 338.205 141.031 338.255C141.607 338.3 142.185 338.48 142.766 338.794C143.246 339.053 143.645 339.375 143.963 339.758C144.289 340.139 144.517 340.563 144.647 341.029C144.785 341.492 144.818 341.994 144.744 342.534C144.673 343.068 144.484 343.621 144.176 344.191C144.056 344.412 143.952 344.547 143.865 344.596C143.777 344.644 143.668 344.632 143.536 344.561L138.176 341.663C137.918 342.179 137.748 342.656 137.667 343.097C137.591 343.54 137.595 343.948 137.68 344.321C137.768 344.689 137.93 345.019 138.168 345.312C138.408 345.598 138.719 345.845 139.099 346.05C139.452 346.241 139.777 346.366 140.073 346.423C140.378 346.479 140.648 346.509 140.884 346.514C141.12 346.519 141.32 346.514 141.484 346.501C141.657 346.485 141.788 346.501 141.877 346.55C141.993 346.612 142.059 346.706 142.074 346.83L142.191 347.558Z" fill="white"/>
<path d="M154.704 353.338C154.865 353.405 154.973 353.505 155.028 353.638C155.083 353.771 155.08 353.913 155.018 354.062L154.646 354.96L146.697 351.666L146.907 351.159C146.951 351.054 147.018 350.955 147.108 350.863C147.199 350.77 147.31 350.696 147.444 350.641L152.848 348.39C153.298 348.199 153.713 348.011 154.095 347.825C154.48 347.634 154.826 347.426 155.133 347.203C155.44 346.979 155.706 346.736 155.932 346.472C156.161 346.203 156.347 345.894 156.492 345.545C156.637 345.196 156.708 344.868 156.705 344.561C156.704 344.249 156.642 343.967 156.52 343.715C156.402 343.465 156.231 343.245 156.005 343.053C155.781 342.857 155.519 342.696 155.22 342.572C154.915 342.446 154.617 342.374 154.325 342.357C154.033 342.341 153.754 342.371 153.488 342.449C153.23 342.524 152.99 342.642 152.767 342.803C152.544 342.964 152.351 343.163 152.188 343.401C152.041 343.567 151.896 343.66 151.752 343.678C151.615 343.693 151.451 343.644 151.257 343.531L150.539 343.078C150.842 342.567 151.19 342.149 151.584 341.826C151.986 341.498 152.414 341.264 152.87 341.121C153.33 340.981 153.81 340.929 154.307 340.967C154.807 340.998 155.312 341.12 155.822 341.331C156.326 341.54 156.767 341.81 157.142 342.142C157.518 342.473 157.807 342.849 158.009 343.27C158.214 343.686 158.322 344.137 158.335 344.623C158.348 345.109 158.247 345.613 158.031 346.134C157.847 346.577 157.609 346.963 157.318 347.29C157.029 347.612 156.699 347.897 156.33 348.147C155.96 348.396 155.558 348.623 155.123 348.826C154.693 349.031 154.244 349.231 153.773 349.426L149.3 351.333C149.547 351.364 149.791 351.409 150.032 351.47C150.276 351.526 150.503 351.597 150.713 351.684L154.704 353.338Z" fill="white"/>
<path d="M156.975 354.636C157.027 354.489 157.102 354.36 157.199 354.248C157.301 354.138 157.415 354.051 157.539 353.986C157.67 353.924 157.81 353.888 157.96 353.878C158.11 353.867 158.259 353.888 158.406 353.94C158.553 353.992 158.681 354.07 158.791 354.172C158.901 354.275 158.987 354.391 159.049 354.521C159.111 354.652 159.148 354.792 159.158 354.942C159.169 355.092 159.148 355.241 159.096 355.388C159.042 355.54 158.963 355.672 158.861 355.782C158.76 355.886 158.645 355.969 158.514 356.031C158.384 356.094 158.245 356.127 158.097 356.132C157.947 356.142 157.798 356.121 157.651 356.069C157.504 356.017 157.376 355.94 157.266 355.837C157.154 355.74 157.066 355.627 157.004 355.497C156.948 355.368 156.913 355.232 156.901 355.088C156.896 354.939 156.921 354.789 156.975 354.636ZM159.229 348.274C159.281 348.127 159.356 347.997 159.453 347.885C159.555 347.775 159.669 347.688 159.793 347.624C159.924 347.562 160.064 347.526 160.214 347.515C160.364 347.505 160.513 347.525 160.66 347.578C160.807 347.63 160.935 347.707 161.045 347.81C161.155 347.912 161.241 348.029 161.303 348.159C161.366 348.289 161.402 348.429 161.412 348.579C161.423 348.729 161.402 348.878 161.35 349.025C161.296 349.178 161.217 349.309 161.115 349.419C161.014 349.524 160.899 349.607 160.768 349.669C160.638 349.731 160.498 349.767 160.348 349.778C160.2 349.783 160.052 349.759 159.905 349.707C159.758 349.655 159.629 349.58 159.517 349.483C159.407 349.381 159.321 349.264 159.258 349.134C159.202 349.006 159.168 348.869 159.155 348.725C159.15 348.577 159.175 348.426 159.229 348.274Z" fill="white"/>
<path d="M179.24 359.273C179.333 359.296 179.405 359.354 179.456 359.447L179.948 360.339C179.288 360.806 178.55 361.114 177.734 361.263C176.923 361.414 176 361.361 174.964 361.103C174.067 360.88 173.29 360.523 172.633 360.032C171.978 359.535 171.46 358.942 171.081 358.255C170.704 357.561 170.47 356.786 170.38 355.928C170.29 355.071 170.363 354.171 170.597 353.228C170.832 352.285 171.195 351.457 171.688 350.745C172.18 350.033 172.765 349.461 173.441 349.029C174.123 348.599 174.878 348.323 175.705 348.201C176.535 348.074 177.404 348.123 178.312 348.349C179.203 348.57 179.953 348.909 180.564 349.363C181.174 349.818 181.677 350.354 182.074 350.972L181.322 351.611C181.272 351.66 181.213 351.698 181.145 351.724C181.084 351.746 181.007 351.746 180.914 351.723C180.809 351.697 180.694 351.609 180.571 351.461C180.448 351.307 180.282 351.13 180.072 350.929C179.862 350.728 179.588 350.527 179.249 350.325C178.911 350.118 178.474 349.947 177.938 349.814C177.292 349.653 176.673 349.62 176.081 349.714C175.49 349.802 174.947 350.01 174.451 350.338C173.961 350.667 173.532 351.111 173.164 351.669C172.797 352.226 172.518 352.89 172.326 353.658C172.132 354.438 172.07 355.162 172.139 355.828C172.214 356.496 172.391 357.09 172.67 357.611C172.955 358.127 173.333 358.561 173.802 358.913C174.277 359.266 174.82 359.518 175.431 359.67C175.804 359.763 176.144 359.826 176.451 359.859C176.765 359.888 177.059 359.887 177.333 359.856C177.612 359.826 177.877 359.768 178.127 359.682C178.384 359.592 178.645 359.474 178.91 359.33C179.031 359.267 179.141 359.248 179.24 359.273Z" fill="white"/>
<path d="M186.496 359.026C185.766 358.918 185.135 358.865 184.605 358.866C184.081 358.863 183.643 358.905 183.292 358.994C182.946 359.084 182.681 359.216 182.497 359.39C182.319 359.565 182.208 359.776 182.163 360.024C182.12 360.26 182.122 360.471 182.167 360.656C182.213 360.841 182.291 361.002 182.4 361.137C182.517 361.268 182.659 361.376 182.826 361.462C183.001 361.542 183.191 361.601 183.398 361.638C183.675 361.689 183.934 361.708 184.174 361.697C184.415 361.679 184.645 361.636 184.865 361.566C185.091 361.497 185.309 361.405 185.519 361.291C185.734 361.178 185.948 361.043 186.159 360.886L186.496 359.026ZM182.069 354.437C182.652 354.049 183.251 353.788 183.866 353.656C184.481 353.524 185.138 353.52 185.834 353.647C186.336 353.738 186.767 353.901 187.126 354.137C187.486 354.373 187.772 354.663 187.984 355.006C188.196 355.349 188.332 355.743 188.392 356.187C188.452 356.63 188.436 357.103 188.346 357.605L187.305 363.344L186.606 363.217C186.452 363.189 186.339 363.144 186.264 363.082C186.191 363.014 186.145 362.901 186.124 362.745L186.101 361.863C185.825 362.039 185.56 362.192 185.304 362.322C185.05 362.447 184.788 362.546 184.519 362.619C184.251 362.686 183.969 362.724 183.675 362.731C183.386 362.746 183.07 362.722 182.728 362.66C182.38 362.597 182.06 362.491 181.771 362.34C181.482 362.184 181.24 361.988 181.045 361.752C180.856 361.516 180.72 361.238 180.638 360.919C180.563 360.594 180.562 360.228 180.636 359.821C180.7 359.466 180.859 359.145 181.113 358.855C181.367 358.56 181.736 358.325 182.219 358.15C182.702 357.976 183.309 357.872 184.041 357.84C184.773 357.802 185.652 357.864 186.678 358.025L186.805 357.326C186.931 356.629 186.876 356.076 186.639 355.668C186.403 355.253 185.996 354.993 185.417 354.888C185.027 354.818 184.691 354.808 184.407 354.861C184.13 354.908 183.883 354.976 183.666 355.065C183.455 355.149 183.27 355.228 183.11 355.302C182.957 355.372 182.813 355.395 182.677 355.37C182.571 355.351 182.484 355.308 182.417 355.241C182.351 355.168 182.299 355.085 182.261 354.993L182.069 354.437Z" fill="white"/>
<path d="M196.18 356.756C196.092 356.878 195.974 356.929 195.825 356.911C195.736 356.9 195.639 356.854 195.534 356.774C195.429 356.695 195.298 356.606 195.141 356.507C194.991 356.404 194.807 356.305 194.589 356.211C194.371 356.111 194.108 356.042 193.798 356.003C193.53 355.97 193.285 355.975 193.062 356.02C192.839 356.058 192.643 356.127 192.473 356.227C192.309 356.327 192.176 356.453 192.072 356.603C191.975 356.748 191.915 356.913 191.892 357.097C191.863 357.329 191.904 357.531 192.016 357.702C192.133 357.874 192.295 358.031 192.501 358.172C192.707 358.312 192.944 358.445 193.213 358.569C193.482 358.688 193.757 358.816 194.036 358.954C194.321 359.086 194.597 359.23 194.861 359.384C195.126 359.538 195.358 359.718 195.555 359.925C195.753 360.131 195.901 360.373 195.999 360.652C196.104 360.925 196.134 361.243 196.088 361.606C196.036 362.023 195.913 362.4 195.719 362.739C195.526 363.072 195.267 363.35 194.943 363.576C194.619 363.795 194.236 363.953 193.795 364.048C193.354 364.144 192.856 364.157 192.302 364.088C191.671 364.009 191.113 363.836 190.626 363.569C190.14 363.296 189.739 362.977 189.422 362.61L189.873 362.05C189.931 361.979 189.995 361.927 190.065 361.893C190.136 361.86 190.222 361.849 190.323 361.862C190.431 361.875 190.538 361.931 190.647 362.03C190.756 362.128 190.887 362.238 191.041 362.36C191.201 362.483 191.398 362.602 191.631 362.716C191.865 362.83 192.163 362.909 192.526 362.955C192.836 362.994 193.112 362.989 193.354 362.941C193.596 362.887 193.803 362.801 193.975 362.683C194.147 362.566 194.28 362.422 194.374 362.253C194.474 362.084 194.537 361.898 194.562 361.696C194.593 361.446 194.551 361.232 194.434 361.054C194.324 360.871 194.166 360.709 193.96 360.568C193.755 360.421 193.514 360.288 193.239 360.169C192.97 360.045 192.693 359.916 192.408 359.783C192.128 359.652 191.853 359.508 191.582 359.353C191.318 359.193 191.087 359.007 190.89 358.795C190.693 358.582 190.543 358.334 190.439 358.049C190.343 357.758 190.319 357.42 190.367 357.033C190.411 356.688 190.524 356.366 190.706 356.068C190.889 355.765 191.133 355.511 191.437 355.308C191.741 355.098 192.102 354.947 192.519 354.854C192.935 354.761 193.4 354.747 193.912 354.811C194.507 354.886 195.028 355.048 195.474 355.298C195.927 355.542 196.306 355.849 196.61 356.22L196.18 356.756Z" fill="white"/>
<path d="M200.633 356.791C201.05 356.404 201.503 356.104 201.992 355.89C202.482 355.676 203.035 355.589 203.651 355.63C204.148 355.663 204.58 355.776 204.946 355.969C205.318 356.156 205.62 356.411 205.851 356.733C206.088 357.049 206.259 357.424 206.362 357.858C206.466 358.292 206.5 358.766 206.466 359.281L206.08 365.073L204.473 364.966L204.858 359.174C204.904 358.486 204.781 357.942 204.489 357.544C204.203 357.14 203.74 356.917 203.099 356.874C202.626 356.843 202.176 356.927 201.748 357.127C201.325 357.327 200.928 357.611 200.555 357.977L200.108 364.676L198.501 364.569L199.382 351.341L200.989 351.448L200.633 356.791Z" fill="white"/>
<path d="M217.248 353.488L217.42 357.993L222.717 357.79L222.772 359.211L217.475 359.414L217.687 364.954L215.942 365.021L215.449 352.134L223.39 351.829L223.444 353.25L217.248 353.488Z" fill="white"/>
<path d="M226.402 351.075L227.602 364.277L226.007 364.423L224.807 351.22L226.402 351.075Z" fill="white"/>
<path d="M235.067 353.999C235.726 353.904 236.336 353.928 236.896 354.072C237.457 354.215 237.953 354.462 238.385 354.812C238.817 355.162 239.173 355.611 239.452 356.159C239.736 356.7 239.929 357.324 240.031 358.03C240.133 358.743 240.125 359.399 240.005 359.998C239.891 360.596 239.676 361.124 239.36 361.582C239.044 362.04 238.638 362.417 238.141 362.713C237.643 363.002 237.065 363.195 236.405 363.29C235.74 363.386 235.125 363.365 234.56 363.228C234 363.085 233.503 362.838 233.071 362.488C232.639 362.138 232.281 361.692 231.997 361.151C231.718 360.61 231.528 359.982 231.425 359.27C231.324 358.563 231.33 357.91 231.444 357.312C231.563 356.707 231.78 356.175 232.096 355.718C232.412 355.26 232.818 354.883 233.315 354.587C233.818 354.291 234.402 354.094 235.067 353.999ZM236.227 362.052C237.118 361.923 237.74 361.531 238.094 360.873C238.447 360.21 238.547 359.344 238.393 358.275C238.238 357.2 237.898 356.395 237.372 355.858C236.846 355.322 236.138 355.117 235.247 355.246C234.796 355.311 234.412 355.445 234.095 355.648C233.785 355.85 233.538 356.113 233.354 356.437C233.177 356.759 233.062 357.143 233.011 357.586C232.965 358.024 232.98 358.509 233.057 359.044C233.211 360.113 233.551 360.915 234.077 361.452C234.608 361.982 235.324 362.182 236.227 362.052Z" fill="white"/>
<path d="M253.356 350.432L252.423 359.969L251.183 360.24C251.031 360.274 250.903 360.197 250.801 360.011L247.509 354.402C247.433 354.278 247.365 354.151 247.306 354.023C247.246 353.888 247.187 353.757 247.128 353.629C247.128 353.77 247.129 353.914 247.131 354.061C247.131 354.202 247.123 354.349 247.107 354.499L246.423 360.97C246.414 361.18 246.318 361.306 246.137 361.345L244.959 361.603L240.125 353.329L241.356 353.059C241.479 353.032 241.588 353.042 241.685 353.089C241.787 353.134 241.862 353.197 241.91 353.279L244.871 358.637C245.063 359.038 245.23 359.419 245.37 359.781C245.381 359.576 245.39 359.368 245.4 359.157C245.415 358.945 245.432 358.73 245.451 358.51L246.07 352.331C246.08 352.237 246.114 352.153 246.171 352.079C246.235 352.003 246.319 351.954 246.425 351.931L247.11 351.781C247.228 351.755 247.331 351.763 247.42 351.805C247.509 351.847 247.578 351.909 247.626 351.99L250.726 357.355C250.836 357.546 250.939 357.736 251.035 357.923C251.131 358.111 251.224 358.297 251.314 358.48C251.3 358.28 251.293 358.079 251.292 357.876C251.295 357.667 251.3 357.451 251.307 357.228L251.792 351.115C251.801 351.015 251.84 350.926 251.909 350.85C251.977 350.767 252.067 350.714 252.178 350.69L253.356 350.432Z" fill="white"/>
<path d="M263.97 349.83C264.441 349.67 264.835 349.466 265.15 349.219C265.471 348.97 265.716 348.694 265.884 348.389C266.057 348.077 266.152 347.743 266.171 347.388C266.189 347.033 266.135 346.668 266.007 346.293C265.742 345.515 265.293 344.99 264.662 344.717C264.036 344.442 263.234 344.471 262.257 344.804L260.298 345.472L262.011 350.498L263.97 349.83ZM261.813 343.501C262.586 343.237 263.287 343.1 263.917 343.088C264.55 343.069 265.111 343.16 265.598 343.362C266.085 343.563 266.498 343.866 266.839 344.27C267.185 344.672 267.456 345.159 267.651 345.733C267.845 346.301 267.922 346.855 267.884 347.394C267.846 347.933 267.692 348.439 267.422 348.911C267.157 349.381 266.774 349.81 266.272 350.196C265.774 350.575 265.155 350.891 264.417 351.142L262.458 351.81L264.013 356.376L262.369 356.936L258.21 344.728L261.813 343.501Z" fill="white"/>
<path d="M268.401 340.581L273.328 352.889L271.84 353.484L266.914 341.177L268.401 340.581Z" fill="white"/>
<path d="M280.691 345.144C280.03 345.473 279.482 345.789 279.048 346.094C278.616 346.39 278.281 346.675 278.043 346.949C277.811 347.22 277.669 347.48 277.618 347.728C277.572 347.973 277.601 348.211 277.706 348.44C277.806 348.658 277.927 348.83 278.071 348.956C278.214 349.081 278.37 349.169 278.537 349.217C278.707 349.258 278.886 349.266 279.072 349.24C279.261 349.206 279.451 349.146 279.642 349.058C279.898 348.941 280.122 348.809 280.312 348.663C280.5 348.511 280.664 348.343 280.805 348.16C280.951 347.975 281.077 347.775 281.184 347.561C281.296 347.345 281.394 347.112 281.478 346.862L280.691 345.144ZM274.435 343.909C274.691 343.257 275.034 342.701 275.463 342.241C275.893 341.78 276.429 341.403 277.073 341.108C277.537 340.896 277.984 340.784 278.414 340.772C278.844 340.76 279.244 340.834 279.614 340.995C279.985 341.155 280.321 341.4 280.624 341.73C280.927 342.06 281.184 342.457 281.396 342.921L283.823 348.224L283.176 348.52C283.035 348.585 282.915 348.613 282.819 348.604C282.72 348.59 282.618 348.525 282.512 348.408L281.989 347.698C281.863 347.999 281.732 348.277 281.597 348.53C281.46 348.777 281.302 349.008 281.122 349.222C280.941 349.431 280.731 349.622 280.494 349.797C280.265 349.974 279.993 350.135 279.676 350.28C279.354 350.427 279.032 350.522 278.708 350.564C278.382 350.602 278.071 350.579 277.776 350.496C277.486 350.411 277.216 350.261 276.966 350.045C276.719 349.822 276.509 349.522 276.337 349.145C276.187 348.818 276.133 348.463 276.176 348.081C276.216 347.693 276.385 347.289 276.681 346.87C276.977 346.451 277.416 346.019 277.998 345.574C278.578 345.124 279.334 344.673 280.268 344.219L279.972 343.572C279.678 342.929 279.316 342.507 278.888 342.307C278.458 342.101 277.975 342.121 277.441 342.365C277.081 342.53 276.799 342.715 276.596 342.92C276.396 343.117 276.232 343.314 276.104 343.511C275.98 343.7 275.873 343.871 275.784 344.024C275.699 344.168 275.593 344.27 275.468 344.327C275.37 344.372 275.274 344.386 275.181 344.369C275.085 344.347 274.995 344.309 274.911 344.255L274.435 343.909Z" fill="white"/>
<path d="M283.895 339.351C283.966 339.062 284.056 338.785 284.168 338.522C284.279 338.259 284.413 338.014 284.571 337.787C284.732 337.552 284.918 337.34 285.131 337.152C285.346 336.956 285.596 336.782 285.882 336.63C286.322 336.396 286.748 336.264 287.16 336.234C287.575 336.197 287.966 336.254 288.332 336.405C288.701 336.549 289.044 336.777 289.361 337.091C289.677 337.405 289.957 337.79 290.2 338.245L292.93 343.368L291.508 344.126L288.778 339.003C288.454 338.394 288.062 337.997 287.604 337.813C287.148 337.621 286.637 337.676 286.07 337.978C285.652 338.201 285.313 338.51 285.055 338.906C284.802 339.299 284.614 339.749 284.49 340.257L287.648 346.183L286.226 346.94L281.939 338.894L282.789 338.441C282.99 338.334 283.166 338.366 283.318 338.536L283.895 339.351Z" fill="white"/>
<path d="M292.589 334.4C292.641 334.107 292.713 333.825 292.808 333.555C292.902 333.285 293.02 333.032 293.163 332.796C293.308 332.551 293.48 332.328 293.68 332.126C293.882 331.917 294.121 331.727 294.397 331.556C294.82 331.294 295.237 331.135 295.647 331.079C296.058 331.015 296.452 331.047 296.827 331.174C297.204 331.294 297.561 331.5 297.898 331.793C298.234 332.085 298.538 332.451 298.809 332.89L301.863 337.827L300.493 338.674L297.439 333.738C297.076 333.151 296.66 332.78 296.191 332.626C295.724 332.464 295.217 332.552 294.671 332.889C294.268 333.139 293.95 333.469 293.718 333.881C293.491 334.29 293.332 334.751 293.241 335.266L296.774 340.976L295.404 341.823L290.607 334.07L291.426 333.563C291.62 333.443 291.798 333.464 291.961 333.624L292.589 334.4Z" fill="white"/>
<path d="M300.335 327.718L305.53 335.209L304.214 336.122L299.018 328.631L300.335 327.718ZM298.984 325.171C299.073 325.299 299.13 325.439 299.154 325.59C299.18 325.733 299.18 325.879 299.153 326.029C299.127 326.171 299.072 326.308 298.988 326.439C298.909 326.567 298.805 326.676 298.677 326.765C298.549 326.854 298.411 326.913 298.263 326.942C298.12 326.968 297.978 326.968 297.836 326.942C297.691 326.912 297.556 326.859 297.431 326.785C297.303 326.706 297.195 326.602 297.106 326.474C297.017 326.346 296.958 326.208 296.929 326.06C296.896 325.908 296.892 325.761 296.918 325.619C296.94 325.472 296.989 325.336 297.063 325.212C297.142 325.084 297.246 324.975 297.374 324.886C297.502 324.797 297.64 324.738 297.788 324.709C297.94 324.676 298.089 324.675 298.234 324.706C298.381 324.728 298.52 324.781 298.652 324.865C298.785 324.941 298.896 325.043 298.984 325.171Z" fill="white"/>
<path d="M305.982 325.193C306.003 324.896 306.046 324.608 306.111 324.33C306.176 324.052 306.268 323.788 306.385 323.538C306.503 323.279 306.652 323.039 306.829 322.818C307.008 322.588 307.226 322.374 307.482 322.176C307.876 321.871 308.274 321.669 308.675 321.571C309.078 321.464 309.473 321.454 309.86 321.542C310.247 321.621 310.624 321.789 310.989 322.045C311.354 322.301 311.694 322.633 312.01 323.041L315.564 327.631L314.29 328.617L310.736 324.027C310.314 323.482 309.861 323.157 309.379 323.052C308.897 322.94 308.402 323.08 307.894 323.473C307.52 323.763 307.238 324.125 307.051 324.559C306.867 324.989 306.758 325.465 306.721 325.986L310.831 331.295L309.557 332.281L303.976 325.072L304.738 324.483C304.918 324.343 305.098 324.344 305.276 324.487L305.982 325.193Z" fill="white"/>
<path d="M317.171 320.258C317.414 320.044 317.598 319.822 317.724 319.592C317.849 319.362 317.921 319.13 317.94 318.898C317.959 318.665 317.927 318.438 317.844 318.216C317.756 317.989 317.623 317.774 317.445 317.571C317.077 317.152 316.655 316.932 316.18 316.91C315.71 316.884 315.234 317.083 314.752 317.507C314.265 317.935 314.002 318.385 313.963 318.859C313.929 319.329 314.096 319.773 314.465 320.192C314.643 320.395 314.839 320.554 315.052 320.67C315.267 320.777 315.49 320.836 315.723 320.847C315.957 320.858 316.195 320.816 316.439 320.721C316.684 320.626 316.927 320.472 317.171 320.258ZM322.609 322.067C322.462 321.901 322.296 321.807 322.11 321.787C321.924 321.766 321.725 321.798 321.511 321.882C321.302 321.962 321.081 322.084 320.85 322.248C320.614 322.407 320.371 322.585 320.12 322.781C319.874 322.974 319.624 323.17 319.368 323.371C319.113 323.571 318.859 323.754 318.606 323.921C318.457 324.26 318.38 324.591 318.376 324.914C318.373 325.228 318.477 325.505 318.687 325.744C318.821 325.897 318.984 326.005 319.176 326.068C319.376 326.132 319.599 326.14 319.844 326.092C320.093 326.049 320.363 325.947 320.654 325.787C320.954 325.628 321.27 325.402 321.603 325.108C321.928 324.823 322.193 324.538 322.398 324.254C322.603 323.969 322.746 323.696 322.827 323.433C322.912 323.167 322.937 322.917 322.901 322.686C322.865 322.454 322.767 322.248 322.609 322.067ZM317.723 314.044L318.115 314.49C318.246 314.638 318.234 314.816 318.081 315.023L317.393 315.808C317.807 315.971 318.173 316.232 318.49 316.593C318.783 316.926 318.985 317.288 319.096 317.677C319.208 318.059 319.236 318.445 319.181 318.837C319.126 319.229 318.987 319.615 318.762 319.996C318.538 320.377 318.241 320.73 317.872 321.055C317.552 321.336 317.216 321.564 316.865 321.737C316.8 321.953 316.775 322.147 316.789 322.318C316.8 322.485 316.851 322.62 316.942 322.724C317.085 322.886 317.259 322.952 317.465 322.923C317.671 322.885 317.899 322.789 318.147 322.635C318.395 322.481 318.66 322.288 318.943 322.055C319.23 321.818 319.528 321.585 319.836 321.354C320.145 321.114 320.458 320.898 320.777 320.706C321.1 320.51 321.419 320.373 321.734 320.296C322.049 320.218 322.36 320.221 322.665 320.304C322.974 320.384 323.268 320.581 323.545 320.897C323.802 321.19 323.978 321.539 324.071 321.944C324.168 322.346 324.173 322.774 324.084 323.227C323.999 323.685 323.812 324.153 323.522 324.632C323.24 325.111 322.849 325.571 322.349 326.011C321.849 326.451 321.368 326.785 320.907 327.015C320.446 327.245 320.018 327.385 319.624 327.436C319.229 327.488 318.872 327.458 318.552 327.348C318.24 327.239 317.979 327.065 317.769 326.826C317.472 326.488 317.326 326.109 317.332 325.688C317.338 325.268 317.464 324.825 317.71 324.361C317.428 324.449 317.161 324.472 316.909 324.431C316.657 324.38 316.418 324.227 316.192 323.97C316.105 323.871 316.034 323.754 315.979 323.618C315.92 323.478 315.881 323.325 315.862 323.158C315.843 322.982 315.847 322.8 315.872 322.61C315.897 322.42 315.949 322.226 316.03 322.027C315.526 322.135 315.042 322.117 314.58 321.972C314.113 321.823 313.698 321.542 313.333 321.127C313.04 320.794 312.838 320.436 312.726 320.055C312.615 319.665 312.591 319.275 312.655 318.883C312.714 318.488 312.856 318.099 313.08 317.718C313.309 317.333 313.613 316.974 313.991 316.642C314.289 316.38 314.595 316.17 314.912 316.012C315.224 315.849 315.541 315.738 315.864 315.678L317.723 314.044Z" fill="white"/>
<path d="M122.217 57.6988C122.251 57.798 122.266 57.8883 122.26 57.9697C122.254 58.0427 122.222 58.1137 122.164 58.1826C122.098 58.2608 121.982 58.3199 121.815 58.3601C121.648 58.4003 121.451 58.4623 121.225 58.546C120.997 58.6214 120.75 58.7389 120.482 58.8986C120.219 59.0537 119.955 59.2899 119.689 59.6071C119.438 59.9059 119.258 60.2049 119.148 60.5041C119.037 60.795 118.985 61.0763 118.992 61.3483C119.002 61.6157 119.069 61.8675 119.192 62.1037C119.31 62.3361 119.478 62.5429 119.694 62.7241C119.969 62.9555 120.255 63.0816 120.551 63.1025C120.846 63.115 121.15 63.0649 121.464 62.9522C121.782 62.8349 122.106 62.6765 122.438 62.4771C122.769 62.2692 123.109 62.0606 123.456 61.8512C123.808 61.6372 124.166 61.444 124.53 61.2715C124.893 61.0906 125.264 60.9708 125.642 60.9121C126.024 60.8488 126.411 60.8681 126.803 60.97C127.199 61.0673 127.602 61.2875 128.011 61.6307C128.443 61.9931 128.788 62.4079 129.047 62.875C129.3 63.3383 129.448 63.8301 129.489 64.3503C129.534 64.8659 129.464 65.3981 129.278 65.9467C129.095 66.4908 128.784 67.0249 128.345 67.549C127.805 68.1926 127.2 68.68 126.531 69.0113C125.857 69.3387 125.166 69.5228 124.459 69.5635L124.148 68.6453C124.128 68.5661 124.124 68.4877 124.134 68.4101C124.143 68.3241 124.175 68.2489 124.229 68.1846C124.279 68.1248 124.36 68.0794 124.473 68.0482C124.584 68.0086 124.717 67.9714 124.872 67.9366C125.026 67.9017 125.199 67.8589 125.391 67.808C125.582 67.7572 125.78 67.6844 125.985 67.5898C126.193 67.4906 126.408 67.3611 126.628 67.2012C126.843 67.0375 127.057 66.8293 127.269 66.5764C127.535 66.2592 127.729 65.9399 127.85 65.6184C127.971 65.2969 128.024 64.9855 128.011 64.6843C127.996 64.3747 127.917 64.0814 127.774 63.8044C127.63 63.5273 127.423 63.2751 127.152 63.0476C126.853 62.797 126.551 62.6616 126.247 62.6414C125.942 62.6127 125.633 62.6548 125.319 62.7675C125.005 62.8802 124.685 63.0424 124.359 63.2541C124.028 63.462 123.693 63.6745 123.354 63.8916C123.011 64.1049 122.658 64.3019 122.295 64.4829C121.931 64.6638 121.558 64.7816 121.176 64.8365C120.793 64.8914 120.397 64.8644 119.987 64.7555C119.576 64.6382 119.152 64.3964 118.716 64.0301C118.366 63.737 118.084 63.387 117.87 62.9799C117.659 62.5682 117.535 62.1276 117.498 61.6581C117.465 61.184 117.531 60.6949 117.695 60.1907C117.864 59.6819 118.154 59.1815 118.567 58.6897C119.029 58.138 119.537 57.7102 120.09 57.4062C120.646 57.0976 121.234 56.9098 121.855 56.8426L122.217 57.6988Z" fill="white"/>
<path d="M135.134 61.5677C134.577 62.0234 134.02 62.2191 133.464 62.1548C132.912 62.0866 132.397 61.7599 131.918 61.1747L128.386 56.8549L127.536 57.5499C127.462 57.6107 127.382 57.6411 127.297 57.641C127.208 57.6364 127.125 57.5876 127.049 57.4947L126.645 57L127.682 55.908L126.184 53.4936C126.141 53.4126 126.126 53.3321 126.138 53.2523C126.151 53.1641 126.197 53.0877 126.276 53.0232L126.903 52.5104L128.891 54.942L130.933 53.2728L131.668 54.1716L129.626 55.8408L133.09 60.077C133.333 60.3743 133.586 60.5361 133.847 60.5623C134.109 60.5886 134.354 60.5086 134.581 60.3225C134.711 60.2162 134.81 60.1088 134.876 60.0003C134.943 59.8834 134.994 59.7756 135.03 59.6768C135.065 59.578 135.093 59.4934 135.113 59.4229C135.134 59.3439 135.163 59.2893 135.2 59.2589C135.265 59.2057 135.355 59.1977 135.471 59.2349L136.317 59.5309C136.267 59.9053 136.138 60.2741 135.931 60.637C135.72 60.9954 135.455 61.3056 135.134 61.5677Z" fill="white"/>
<path d="M140.838 52.1818C140.251 52.6298 139.773 53.0443 139.403 53.4255C139.035 53.7983 138.761 54.1416 138.579 54.4553C138.402 54.7655 138.312 55.0472 138.308 55.3004C138.309 55.5501 138.383 55.7775 138.529 55.9827C138.669 56.1781 138.821 56.3241 138.985 56.4205C139.15 56.5169 139.319 56.5732 139.492 56.5894C139.668 56.5972 139.844 56.5709 140.022 56.5104C140.201 56.4415 140.376 56.3461 140.547 56.2242C140.777 56.0605 140.971 55.8887 141.131 55.7089C141.286 55.5243 141.416 55.3287 141.519 55.1224C141.628 54.9125 141.714 54.6926 141.778 54.4624C141.848 54.2288 141.9 53.9816 141.935 53.7208L140.838 52.1818ZM134.461 52.1518C134.589 51.4635 134.821 50.8527 135.155 50.3195C135.49 49.7862 135.946 49.3141 136.522 48.9031C136.937 48.6071 137.355 48.4125 137.775 48.3194C138.195 48.2264 138.602 48.2236 138.996 48.3112C139.39 48.3987 139.767 48.5759 140.126 48.8426C140.486 49.1094 140.814 49.4505 141.11 49.8657L144.495 54.6146L143.916 55.0273C143.789 55.1179 143.678 55.168 143.581 55.1777C143.482 55.1824 143.369 55.1377 143.243 55.0434L142.594 54.4444C142.528 54.7645 142.452 55.0615 142.368 55.3355C142.279 55.6047 142.168 55.8613 142.032 56.1053C141.893 56.3444 141.724 56.5719 141.524 56.788C141.333 57.0054 141.095 57.2151 140.812 57.4171C140.524 57.6226 140.225 57.7768 139.915 57.8798C139.602 57.9778 139.292 58.0142 138.987 57.9888C138.686 57.9599 138.393 57.8634 138.106 57.6992C137.821 57.5266 137.558 57.2718 137.318 56.9347C137.109 56.6416 136.989 56.3032 136.959 55.9195C136.925 55.531 137.014 55.1028 137.226 54.635C137.438 54.1672 137.787 53.6601 138.275 53.1137C138.759 52.5625 139.416 51.9758 140.247 51.3537L139.835 50.7748C139.424 50.1983 138.989 49.8522 138.531 49.7367C138.069 49.6163 137.599 49.7268 137.12 50.0681C136.798 50.298 136.556 50.5328 136.396 50.7726C136.237 51.004 136.113 51.2285 136.025 51.446C135.938 51.6552 135.866 51.8431 135.808 52.0097C135.751 52.168 135.667 52.2872 135.554 52.3673C135.466 52.43 135.375 52.462 135.28 52.4633C135.182 52.4597 135.086 52.4394 134.993 52.4024L134.461 52.1518Z" fill="white"/>
<path d="M147.614 47.6003C147.891 47.4322 148.112 47.2458 148.275 47.0412C148.439 46.8366 148.55 46.6215 148.61 46.3959C148.67 46.1702 148.678 45.9407 148.634 45.7073C148.588 45.4688 148.494 45.2342 148.354 45.0034C148.065 44.5264 147.688 44.2356 147.225 44.131C146.766 44.0232 146.262 44.1359 145.714 44.4691C145.16 44.8054 144.822 45.2033 144.701 45.6628C144.585 46.1193 144.672 46.586 144.961 47.063C145.102 47.2938 145.267 47.4848 145.457 47.6362C145.649 47.7792 145.859 47.8764 146.087 47.9277C146.314 47.979 146.557 47.9793 146.814 47.9286C147.071 47.8779 147.338 47.7684 147.614 47.6003ZM152.653 50.3325C152.538 50.1427 152.39 50.0216 152.211 49.969C152.032 49.9164 151.829 49.9128 151.604 49.9582C151.384 50.0005 151.146 50.082 150.889 50.2027C150.63 50.3183 150.359 50.4509 150.078 50.6005C149.802 50.747 149.521 50.8966 149.234 51.0494C148.948 51.2021 148.666 51.3384 148.388 51.4582C148.181 51.7659 148.048 52.0784 147.988 52.3956C147.93 52.7046 147.983 52.995 148.148 53.2668C148.254 53.4412 148.396 53.5763 148.574 53.6721C148.759 53.77 148.977 53.8167 149.227 53.8123C149.48 53.8131 149.764 53.7601 150.078 53.6536C150.401 53.549 150.752 53.3815 151.131 53.1511C151.501 52.9269 151.811 52.6928 152.063 52.4486C152.315 52.2045 152.504 51.9601 152.629 51.7156C152.759 51.468 152.827 51.2268 152.832 50.9922C152.837 50.7576 152.777 50.5377 152.653 50.3325ZM149.244 41.5784L149.552 42.0861C149.655 42.2554 149.613 42.4285 149.425 42.6054L148.611 43.2579C148.991 43.4905 149.305 43.812 149.554 44.2223C149.785 44.6019 149.92 44.9932 149.962 45.3964C150.005 45.7913 149.965 46.1769 149.843 46.5531C149.72 46.9293 149.515 47.2854 149.228 47.6213C148.94 47.9572 148.586 48.2528 148.166 48.5081C147.801 48.7292 147.431 48.8942 147.055 49.0032C146.953 49.2054 146.895 49.3919 146.879 49.5628C146.86 49.7286 146.887 49.8704 146.958 49.9884C147.071 50.1731 147.231 50.269 147.438 50.2761C147.648 50.275 147.889 50.2203 148.16 50.1119C148.431 50.0034 148.726 49.8594 149.045 49.6797C149.369 49.497 149.703 49.3188 150.047 49.1451C150.393 48.9633 150.74 48.8056 151.087 48.6721C151.439 48.5355 151.777 48.4565 152.101 48.4353C152.425 48.4141 152.73 48.4712 153.016 48.6065C153.307 48.7388 153.561 48.9845 153.779 49.3435C153.981 49.6769 154.093 50.0514 154.114 50.467C154.139 50.8795 154.069 51.3012 153.902 51.7322C153.739 52.1683 153.473 52.5967 153.103 53.0174C152.742 53.4402 152.277 53.8243 151.708 54.1699C151.139 54.5155 150.607 54.7611 150.113 54.9067C149.618 55.0523 149.173 55.1158 148.775 55.0973C148.378 55.0788 148.031 54.9874 147.735 54.8233C147.447 54.6612 147.221 54.4442 147.056 54.1724C146.822 53.7877 146.745 53.3888 146.824 52.9758C146.903 52.5628 147.105 52.1491 147.429 51.7348C147.136 51.7723 146.869 51.7485 146.628 51.6633C146.388 51.5699 146.18 51.377 146.003 51.0846C145.934 50.9718 145.885 50.8439 145.854 50.7011C145.82 50.553 145.809 50.3952 145.819 50.2274C145.832 50.0513 145.867 49.8721 145.924 49.6897C145.982 49.5073 146.068 49.3252 146.182 49.1435C145.667 49.1616 145.194 49.0591 144.764 48.836C144.33 48.6077 143.971 48.2576 143.684 47.7858C143.454 47.4062 143.317 47.019 143.274 46.6241C143.233 46.2209 143.277 45.8323 143.408 45.458C143.536 45.0787 143.743 44.7211 144.031 44.3852C144.323 44.0462 144.685 43.7459 145.116 43.4843C145.454 43.2788 145.793 43.1258 146.132 43.0253C146.468 42.9196 146.8 42.8654 147.128 42.8627L149.244 41.5784Z" fill="white"/>
<path d="M158.602 40.9303C158.434 40.5985 158.232 40.3206 157.998 40.0965C157.765 39.8644 157.508 39.6955 157.226 39.5897C156.946 39.4759 156.651 39.4307 156.34 39.4539C156.026 39.4718 155.706 39.5635 155.379 39.729C154.694 40.0764 154.253 40.5525 154.055 41.1573C153.86 41.7541 153.893 42.4301 154.155 43.1854L158.602 40.9303ZM161.691 44.1569C161.623 44.4605 161.507 44.755 161.342 45.0404C161.175 45.3204 160.975 45.5832 160.743 45.8287C160.516 46.0714 160.265 46.2929 159.99 46.493C159.717 46.6985 159.434 46.8759 159.14 47.0251C158.578 47.31 158.011 47.4796 157.44 47.5338C156.871 47.58 156.321 47.5093 155.789 47.3218C155.259 47.1263 154.761 46.8071 154.294 46.3643C153.827 45.9215 153.416 45.3496 153.061 44.6486C152.773 44.0814 152.59 43.5082 152.511 42.929C152.438 42.3472 152.474 41.7942 152.619 41.2701C152.761 40.7407 153.015 40.2549 153.383 39.8128C153.748 39.3653 154.225 38.9923 154.814 38.6938C155.301 38.4468 155.792 38.3018 156.289 38.2588C156.787 38.2076 157.265 38.2613 157.722 38.4197C158.182 38.57 158.613 38.8292 159.015 39.1972C159.414 39.5599 159.76 40.0302 160.053 40.6081C160.167 40.8329 160.219 40.9949 160.209 41.0943C160.199 41.1936 160.127 41.2772 159.993 41.345L154.559 44.1008C154.835 44.6063 155.131 45.0179 155.447 45.3354C155.768 45.6502 156.106 45.8791 156.461 46.022C156.814 46.1595 157.178 46.2138 157.553 46.1848C157.926 46.1505 158.305 46.0357 158.69 45.8403C159.049 45.6585 159.336 45.4623 159.552 45.2518C159.771 45.0332 159.95 44.8282 160.088 44.6369C160.227 44.4456 160.337 44.2787 160.419 44.136C160.504 43.9852 160.592 43.8868 160.683 43.8406C160.801 43.7809 160.915 43.7803 161.025 43.8387L161.691 44.1569Z" fill="white"/>
<path d="M173 40.0061L173.371 41.1726L166.783 43.2656L166.413 42.099L169.046 41.2624L166.383 32.8822C166.303 32.6306 166.231 32.3734 166.167 32.1106L164.576 34.684C164.522 34.7705 164.46 34.8342 164.391 34.8749C164.321 34.91 164.252 34.9318 164.185 34.9403C164.119 34.9489 164.052 34.9451 163.983 34.929C163.921 34.911 163.869 34.8865 163.828 34.8556L163.138 34.3477L165.795 30.019L167.039 29.6238L170.581 40.7746L173 40.0061Z" fill="white"/>
<path d="M177.006 39.2601C176.968 39.1087 176.959 38.9595 176.979 38.8126C177.004 38.6642 177.051 38.529 177.12 38.407C177.195 38.2836 177.292 38.1762 177.411 38.085C177.531 37.9937 177.666 37.9294 177.818 37.8921C177.969 37.8548 178.119 37.8488 178.268 37.874C178.416 37.8993 178.552 37.9492 178.675 38.0239C178.799 38.0985 178.906 38.1956 178.997 38.3153C179.089 38.4349 179.153 38.5705 179.19 38.722C179.229 38.8793 179.236 39.0321 179.211 39.1804C179.184 39.323 179.133 39.4559 179.059 39.5794C178.984 39.7028 178.886 39.8072 178.765 39.8927C178.645 39.9839 178.51 40.0482 178.358 40.0855C178.207 40.1229 178.057 40.1289 177.909 40.1036C177.762 40.0842 177.626 40.0372 177.503 39.9625C177.385 39.8865 177.282 39.7915 177.192 39.6777C177.106 39.5566 177.044 39.4174 177.006 39.2601ZM175.391 32.7061C175.354 32.5546 175.345 32.4054 175.364 32.2585C175.39 32.1101 175.437 31.975 175.505 31.853C175.58 31.7295 175.677 31.6222 175.797 31.5309C175.916 31.4396 176.052 31.3754 176.203 31.338C176.355 31.3007 176.505 31.2947 176.653 31.3199C176.802 31.3452 176.937 31.3951 177.061 31.4698C177.184 31.5444 177.292 31.6416 177.383 31.7612C177.474 31.8809 177.538 32.0164 177.576 32.1679C177.615 32.3252 177.621 32.478 177.596 32.6264C177.569 32.7689 177.519 32.9019 177.444 33.0253C177.369 33.1487 177.272 33.2561 177.153 33.3473C177.032 33.4328 176.895 33.4942 176.744 33.5315C176.592 33.5688 176.443 33.5777 176.296 33.5583C176.148 33.5331 176.012 33.4831 175.889 33.4085C175.771 33.3324 175.667 33.2374 175.577 33.1236C175.492 33.0025 175.43 32.8634 175.391 32.7061Z" fill="white"/>
<path d="M201.912 29.8343L202.49 34.7504C201.901 35.2909 201.253 35.7203 200.548 36.0388C199.847 36.3507 199.062 36.5577 198.192 36.6599C197.161 36.7811 196.213 36.7324 195.348 36.5138C194.481 36.2894 193.72 35.9258 193.063 35.423C192.411 34.9136 191.88 34.2752 191.469 33.5078C191.059 32.7405 190.797 31.8741 190.684 30.9087C190.569 29.9315 190.616 29.0227 190.826 28.1826C191.041 27.3417 191.398 26.602 191.897 25.9634C192.395 25.3189 193.031 24.7911 193.804 24.38C194.578 23.969 195.465 23.7047 196.466 23.5871C196.972 23.5275 197.448 23.511 197.892 23.5373C198.335 23.5577 198.75 23.6177 199.136 23.7173C199.522 23.811 199.885 23.9406 200.224 24.1061C200.563 24.2656 200.884 24.4544 201.188 24.6725L200.789 25.5168C200.725 25.6451 200.633 25.7345 200.512 25.785C200.396 25.8288 200.259 25.8147 200.099 25.7428C199.946 25.6762 199.771 25.5942 199.572 25.4967C199.373 25.3992 199.133 25.3126 198.853 25.2368C198.577 25.1544 198.253 25.0958 197.881 25.0611C197.514 25.0256 197.083 25.0369 196.589 25.095C195.868 25.1797 195.229 25.3756 194.673 25.6825C194.116 25.9836 193.658 26.3787 193.299 26.868C192.939 27.3513 192.686 27.9187 192.539 28.5703C192.391 29.216 192.363 29.9261 192.454 30.7008C192.548 31.5053 192.746 32.213 193.047 32.824C193.354 33.4284 193.745 33.9292 194.221 34.3264C194.702 34.717 195.26 34.9927 195.895 35.1537C196.53 35.3147 197.226 35.3508 197.983 35.2618C198.578 35.1918 199.098 35.0643 199.542 34.8793C199.99 34.6877 200.421 34.4467 200.834 34.1566L200.503 31.3409L198.51 31.5751C198.397 31.5884 198.301 31.5665 198.221 31.5093C198.148 31.4515 198.106 31.3749 198.095 31.2796L197.979 30.2963L201.912 29.8343Z" fill="white"/>
<path d="M208.794 26.5423C209.46 26.5237 210.062 26.6179 210.602 26.8249C211.142 27.0319 211.607 27.334 211.996 27.7313C212.386 28.1285 212.687 28.6153 212.902 29.1915C213.122 29.7616 213.242 30.4035 213.261 31.1172C213.282 31.8369 213.198 32.4875 213.01 33.069C212.828 33.6503 212.554 34.1502 212.188 34.5686C211.821 34.987 211.374 35.3146 210.847 35.5515C210.319 35.7823 209.722 35.9071 209.056 35.9257C208.385 35.9445 207.776 35.8535 207.23 35.6526C206.69 35.4457 206.225 35.1435 205.836 34.7463C205.447 34.349 205.142 33.8653 204.922 33.2952C204.708 32.725 204.591 32.08 204.571 31.3603C204.551 30.6466 204.632 29.9991 204.814 29.4178C205.001 28.8303 205.278 28.3273 205.645 27.9089C206.011 27.4905 206.458 27.1629 206.986 26.9261C207.519 26.689 208.122 26.5611 208.794 26.5423ZM209.021 34.6752C209.921 34.65 210.584 34.3313 211.011 33.7191C211.438 33.101 211.637 32.2521 211.606 31.1725C211.576 30.0869 211.33 29.2475 210.87 28.6541C210.409 28.0608 209.729 27.7767 208.829 27.8019C208.373 27.8146 207.977 27.9037 207.639 28.0692C207.308 28.2346 207.032 28.4674 206.812 28.7676C206.599 29.0677 206.441 29.4353 206.339 29.8703C206.243 30.2991 206.202 30.7835 206.217 31.3233C206.248 32.4028 206.493 33.2393 206.954 33.8326C207.421 34.4198 208.11 34.7007 209.021 34.6752Z" fill="white"/>
<path d="M220.624 31.9707C219.885 31.959 219.253 31.9885 218.727 32.0592C218.207 32.1242 217.779 32.2236 217.442 32.3575C217.111 32.4917 216.866 32.657 216.706 32.8535C216.553 33.0504 216.47 33.2746 216.458 33.5263C216.446 33.766 216.475 33.9747 216.544 34.1522C216.614 34.3298 216.712 34.4787 216.838 34.599C216.971 34.7135 217.126 34.8021 217.303 34.8647C217.486 34.9216 217.683 34.9552 217.893 34.9653C218.174 34.9789 218.433 34.9644 218.67 34.9218C218.906 34.8731 219.129 34.7998 219.338 34.7018C219.553 34.6041 219.757 34.4848 219.95 34.3439C220.149 34.2034 220.343 34.0415 220.532 33.8585L220.624 31.9707ZM215.635 27.9991C216.161 27.538 216.721 27.2017 217.314 26.9901C217.907 26.7784 218.557 26.6897 219.264 26.7239C219.774 26.7485 220.222 26.8543 220.61 27.0412C220.997 27.2282 221.318 27.478 221.574 27.7907C221.829 28.1033 222.015 28.4758 222.132 28.9079C222.249 29.3401 222.296 29.8109 222.271 30.3203L221.99 36.1455L221.279 36.1112C221.124 36.1036 221.005 36.0739 220.923 36.0219C220.842 35.9639 220.781 35.8588 220.74 35.7067L220.602 34.835C220.352 35.0451 220.109 35.2316 219.872 35.3944C219.637 35.5512 219.39 35.6834 219.132 35.7911C218.875 35.8928 218.601 35.9667 218.311 36.0127C218.026 36.065 217.71 36.0828 217.362 36.066C217.008 36.0489 216.678 35.9848 216.371 35.8739C216.064 35.7569 215.799 35.5939 215.575 35.3849C215.357 35.1761 215.186 34.9185 215.063 34.6122C214.945 34.3002 214.897 33.9374 214.917 33.5239C214.934 33.1643 215.05 32.8245 215.264 32.5045C215.478 32.1784 215.812 31.8973 216.268 31.661C216.724 31.4247 217.313 31.243 218.034 31.1156C218.755 30.9823 219.635 30.9287 220.673 30.9549L220.707 30.2447C220.741 29.5375 220.614 28.9967 220.326 28.6224C220.038 28.242 219.6 28.0377 219.013 28.0093C218.617 27.9902 218.282 28.025 218.008 28.1139C217.739 28.197 217.503 28.2967 217.299 28.413C217.102 28.5236 216.929 28.6264 216.78 28.7213C216.638 28.8105 216.497 28.8518 216.36 28.8451C216.252 28.8399 216.16 28.8084 216.085 28.7507C216.01 28.687 215.947 28.6119 215.897 28.5254L215.635 27.9991Z" fill="white"/>
<path d="M228.14 23.5709L226.694 36.7488L225.101 36.574L226.548 23.3961L228.14 23.5709Z" fill="white"/>
<path d="M243.215 33.82C243.703 33.9211 244.145 33.9454 244.542 33.893C244.945 33.8417 245.296 33.7277 245.597 33.551C245.904 33.3696 246.156 33.1308 246.352 32.8345C246.548 32.5381 246.686 32.1961 246.767 31.8084C246.934 31.0035 246.815 30.3231 246.409 29.7671C246.009 29.2124 245.304 28.8302 244.294 28.6206L242.267 28.2002L241.188 33.3995L243.215 33.82ZM244.573 27.2723C245.372 27.4381 246.046 27.6759 246.595 27.9857C247.15 28.2909 247.587 28.6541 247.904 29.0753C248.221 29.4965 248.423 29.9674 248.511 30.4882C248.605 31.0101 248.591 31.5678 248.468 32.1612C248.346 32.7487 248.131 33.2649 247.825 33.7099C247.518 34.1548 247.128 34.5121 246.656 34.7818C246.189 35.0526 245.641 35.227 245.012 35.3049C244.39 35.3781 243.698 35.3355 242.934 35.1771L240.907 34.7566L239.927 39.4801L238.226 39.1273L240.846 26.4991L244.573 27.2723Z" fill="white"/>
<path d="M253.701 29.45L250.157 42.2245L248.613 41.7962L252.157 29.0217L253.701 29.45Z" fill="white"/>
<path d="M259.561 41.1191C258.855 40.9015 258.24 40.7531 257.715 40.6739C257.198 40.591 256.759 40.5668 256.398 40.6011C256.043 40.6375 255.761 40.7276 255.553 40.8717C255.351 41.0177 255.208 41.2098 255.126 41.4481C255.048 41.675 255.018 41.8834 255.035 42.0733C255.052 42.2633 255.104 42.4336 255.192 42.5844C255.287 42.7314 255.411 42.8598 255.564 42.9694C255.724 43.0754 255.903 43.1625 256.102 43.2309C256.368 43.3227 256.621 43.3812 256.86 43.4063C257.101 43.4258 257.335 43.4177 257.563 43.382C257.797 43.3483 258.026 43.2908 258.251 43.2095C258.481 43.1302 258.713 43.0291 258.946 42.9061L259.561 41.1191ZM255.881 35.9112C256.516 35.6158 257.148 35.4494 257.776 35.4119C258.404 35.3745 259.053 35.4711 259.723 35.7016C260.205 35.8676 260.606 36.0946 260.926 36.3823C261.245 36.6701 261.484 36.9998 261.642 37.3714C261.799 37.7429 261.874 38.1526 261.866 38.6003C261.857 39.048 261.77 39.513 261.604 39.9952L259.705 45.5094L259.033 45.2779C258.886 45.2271 258.78 45.1653 258.716 45.0926C258.654 45.0142 258.625 44.8962 258.629 44.7388L258.74 43.8633C258.441 43.995 258.155 44.106 257.883 44.1963C257.612 44.2809 257.338 44.3389 257.061 44.3704C256.786 44.3961 256.502 44.3904 256.21 44.3534C255.922 44.324 255.614 44.2526 255.285 44.1393C254.95 44.024 254.651 43.8702 254.387 43.6779C254.125 43.4799 253.916 43.2491 253.759 42.9857C253.608 42.7243 253.516 42.4293 253.483 42.1007C253.458 41.7684 253.513 41.4065 253.648 41.0151C253.765 40.6747 253.971 40.3807 254.265 40.1332C254.562 39.88 254.962 39.7037 255.466 39.6043C255.97 39.5049 256.586 39.4949 257.314 39.5742C258.043 39.6478 258.903 39.8423 259.892 40.1575L260.124 39.4853C260.354 38.8159 260.383 38.2611 260.211 37.8211C260.041 37.3754 259.678 37.0569 259.122 36.8654C258.748 36.7365 258.416 36.6763 258.128 36.6848C257.847 36.6896 257.592 36.7194 257.364 36.774C257.143 36.825 256.948 36.8752 256.779 36.9248C256.617 36.9706 256.471 36.9711 256.341 36.9261C256.239 36.891 256.159 36.8352 256.103 36.7587C256.049 36.6766 256.01 36.587 255.986 36.49L255.881 35.9112Z" fill="white"/>
<path d="M267.077 39.4569C267.347 39.3317 267.62 39.2305 267.895 39.1533C268.17 39.0761 268.446 39.0285 268.721 39.0105C269.005 38.9893 269.287 39.0031 269.566 39.052C269.854 39.0978 270.146 39.1849 270.443 39.3135C270.901 39.511 271.269 39.7619 271.55 40.0661C271.838 40.3671 272.037 40.708 272.147 41.0889C272.265 41.4666 272.3 41.8772 272.252 42.3206C272.204 42.764 272.078 43.2226 271.873 43.6962L269.57 49.0249L268.091 48.3858L270.394 43.0571C270.668 42.4238 270.734 41.8705 270.592 41.3974C270.458 40.9211 270.096 40.5556 269.507 40.301C269.072 40.1129 268.619 40.0414 268.148 40.0865C267.684 40.1339 267.214 40.2676 266.74 40.4876L264.076 46.6507L262.598 46.0116L266.214 37.6427L267.098 38.0247C267.308 38.1151 267.393 38.273 267.354 38.4982L267.077 39.4569Z" fill="white"/>
<path d="M277.672 43.9909C277.951 43.888 278.231 43.8093 278.511 43.7547C278.792 43.7002 279.07 43.6751 279.347 43.6795C279.631 43.6814 279.911 43.7181 280.185 43.7896C280.468 43.8586 280.752 43.9692 281.038 44.1215C281.478 44.3555 281.825 44.6355 282.08 44.9615C282.343 45.2849 282.513 45.6409 282.592 46.0295C282.679 46.4155 282.68 46.8276 282.596 47.2656C282.513 47.7037 282.35 48.1505 282.107 48.6059L279.379 53.7298L277.957 52.9727L280.685 47.8488C281.009 47.2397 281.12 46.6937 281.017 46.2105C280.922 45.725 280.591 45.3313 280.025 45.0296C279.606 44.8068 279.161 44.6988 278.688 44.7054C278.221 44.7149 277.742 44.81 277.252 44.9907L274.096 50.917L272.674 50.1599L276.959 42.1125L277.809 42.5651C278.01 42.6723 278.082 42.8365 278.026 43.0578L277.672 43.9909Z" fill="white"/>
<path d="M288.658 48.4911L283.85 56.2378L282.489 55.3932L287.296 47.6464L288.658 48.4911ZM290.457 46.2396C290.375 46.3721 290.269 46.4796 290.14 46.5621C290.02 46.6426 289.885 46.7003 289.737 46.7351C289.596 46.768 289.449 46.772 289.295 46.747C289.146 46.7252 289.005 46.6732 288.873 46.591C288.74 46.5087 288.631 46.4057 288.545 46.282C288.465 46.1614 288.408 46.0309 288.375 45.8904C288.346 45.7449 288.34 45.6002 288.359 45.4564C288.38 45.3075 288.432 45.1668 288.515 45.0342C288.597 44.9017 288.7 44.7926 288.824 44.707C288.951 44.6163 289.084 44.5545 289.225 44.5216C289.368 44.4836 289.512 44.4739 289.656 44.4925C289.805 44.5143 289.945 44.5663 290.078 44.6486C290.211 44.7308 290.32 44.8338 290.405 44.9576C290.496 45.0845 290.556 45.2207 290.586 45.3662C290.624 45.5099 290.63 45.6587 290.606 45.8126C290.589 45.9647 290.539 46.107 290.457 46.2396Z" fill="white"/>
<path d="M293.443 53.1356C293.733 53.0704 294.021 53.0293 294.306 53.0122C294.591 52.9951 294.871 53.007 295.144 53.0477C295.426 53.0871 295.698 53.1604 295.961 53.2674C296.232 53.3731 296.499 53.5202 296.763 53.7089C297.168 53.9988 297.475 54.3221 297.684 54.6788C297.902 55.0341 298.025 55.4095 298.051 55.805C298.086 56.1991 298.034 56.6078 297.893 57.031C297.752 57.4542 297.532 57.8755 297.231 58.295L293.851 63.0146L292.541 62.0766L295.921 57.3571C296.323 56.7961 296.505 56.2694 296.466 55.7769C296.436 55.283 296.16 54.8492 295.638 54.4754C295.253 54.1994 294.825 54.0336 294.356 53.9779C293.892 53.9257 293.404 53.9569 292.894 54.0713L288.985 59.5299L287.676 58.592L292.984 51.1797L293.767 51.7404C293.952 51.8731 294.002 52.0454 293.917 52.2574L293.443 53.1356Z" fill="white"/>
<path d="M301.27 64.8299C301.518 65.0387 301.765 65.1879 302.011 65.2776C302.257 65.3673 302.497 65.4044 302.73 65.3888C302.962 65.3732 303.183 65.3076 303.39 65.1919C303.601 65.0717 303.794 64.9084 303.968 64.7019C304.327 64.2753 304.483 63.8256 304.434 63.3528C304.389 62.884 304.122 62.4427 303.631 62.0289C303.135 61.6113 302.651 61.4185 302.176 61.4504C301.707 61.4862 301.292 61.7175 300.933 62.1442C300.759 62.3506 300.63 62.5681 300.548 62.7966C300.473 63.0243 300.448 63.2543 300.472 63.4864C300.496 63.7185 300.573 63.9483 300.704 64.1756C300.834 64.403 301.023 64.6211 301.27 64.8299ZM300.289 70.4767C300.433 70.3069 300.5 70.1287 300.493 69.942C300.486 69.7553 300.424 69.5625 300.309 69.3636C300.199 69.1687 300.046 68.9688 299.85 68.7642C299.657 68.5549 299.445 68.3409 299.214 68.1222C298.987 67.9074 298.755 67.6887 298.519 67.4661C298.283 67.2436 298.063 67.0196 297.861 66.7941C297.504 66.6969 297.165 66.6704 296.845 66.7147C296.534 66.7583 296.276 66.9017 296.071 67.1449C295.939 67.3009 295.856 67.4783 295.822 67.677C295.789 67.8843 295.814 68.1057 295.898 68.3412C295.978 68.5813 296.119 68.8333 296.32 69.0972C296.522 69.3695 296.793 69.6487 297.133 69.9348C297.463 70.2132 297.784 70.4328 298.096 70.5936C298.408 70.7543 298.699 70.8551 298.971 70.8957C299.247 70.9403 299.498 70.9275 299.722 70.8573C299.945 70.7871 300.135 70.6602 300.289 70.4767ZM307.497 64.4519L307.115 64.9061C306.987 65.0575 306.809 65.0726 306.582 64.9515L305.704 64.3878C305.604 64.822 305.4 65.2227 305.091 65.5897C304.805 65.9292 304.477 66.1828 304.108 66.3506C303.748 66.5176 303.37 66.6031 302.974 66.607C302.578 66.611 302.175 66.5304 301.765 66.3652C301.355 66.2001 300.962 65.959 300.586 65.6419C300.26 65.3674 299.986 65.0693 299.762 64.7477C299.538 64.7158 299.343 64.7197 299.176 64.7595C299.013 64.7947 298.887 64.865 298.798 64.9705C298.659 65.1357 298.619 65.3179 298.678 65.5173C298.746 65.7158 298.875 65.9263 299.064 66.1486C299.254 66.3709 299.484 66.6046 299.756 66.8496C300.033 67.0985 300.309 67.3582 300.583 67.6286C300.866 67.8982 301.126 68.1762 301.363 68.4626C301.605 68.7528 301.788 69.048 301.911 69.3483C302.035 69.6486 302.078 69.9558 302.041 70.2698C302.009 70.5876 301.857 70.9072 301.586 71.2283C301.335 71.5265 301.016 71.7518 300.628 71.904C300.246 72.0602 299.824 72.1281 299.362 72.1079C298.897 72.0922 298.405 71.9766 297.889 71.7609C297.373 71.5537 296.86 71.2355 296.351 70.8063C295.842 70.3771 295.439 69.9516 295.144 69.5297C294.848 69.1078 294.645 68.7057 294.536 68.3233C294.427 67.9409 294.403 67.5831 294.464 67.25C294.526 66.9254 294.659 66.6415 294.864 66.3984C295.154 66.0543 295.507 65.8538 295.924 65.797C296.341 65.7401 296.797 65.7991 297.293 65.974C297.164 65.7082 297.101 65.4474 297.105 65.1916C297.117 64.9351 297.233 64.6761 297.454 64.4146C297.539 64.3136 297.644 64.2259 297.77 64.1513C297.899 64.0721 298.045 64.0107 298.208 63.967C298.378 63.9227 298.559 63.8987 298.751 63.8951C298.942 63.8916 299.142 63.915 299.351 63.9653C299.169 63.4826 299.115 63.0018 299.189 62.5228C299.267 62.0393 299.484 61.5865 299.84 61.1644C300.126 60.8249 300.449 60.5716 300.81 60.4046C301.179 60.2369 301.561 60.1552 301.958 60.1597C302.358 60.1597 302.763 60.2422 303.173 60.4073C303.588 60.5763 303.988 60.8232 304.373 61.148C304.676 61.4032 304.929 61.6754 305.133 61.9647C305.34 62.2493 305.498 62.5467 305.605 62.8569L307.497 64.4519Z" fill="white"/>
<defs>
<linearGradient id="paint0_linear_5451_8155" x1="-54.6172" y1="86.7146" x2="486.639" y2="86.7146" gradientUnits="userSpaceOnUse">
<stop stop-color="#4D7EF2"/>
<stop offset="1" stop-color="#5FD4F4"/>
</linearGradient>
<linearGradient id="paint1_linear_5451_8155" x1="480.39" y1="299.672" x2="-60.8664" y2="299.672" gradientUnits="userSpaceOnUse">
<stop stop-color="#4D7EF2"/>
<stop offset="1" stop-color="#5FD4F4"/>
</linearGradient>
</defs>
</svg>
