<svg width="100" height="114" viewBox="0 0 100 114" fill="none" xmlns="http://www.w3.org/2000/svg">
<rect y="23.9043" width="99.6023" height="89.6421" rx="16" fill="url(#paint0_linear_4942_6761)"/>
<g filter="url(#filter0_d_4942_6761)">
<path d="M30.5151 92.2227H25.4243C25.1817 92.2227 25 92.1521 25 92.0579V86.3874C25 86.2933 25.1817 86.2227 25.4243 86.2227H30.5757C30.818 86.2227 31 86.2932 31 86.3874V92.0579C30.9394 92.1521 30.7577 92.2227 30.5151 92.2227H30.5151Z" fill="white"/>
</g>
<g filter="url(#filter1_d_4942_6761)">
<path d="M43.5757 92.2227H38.4243C38.182 92.2227 38 92.1082 38 91.9553V76.49C38 76.3373 38.1817 76.2227 38.4243 76.2227H43.5757C43.818 76.2227 44 76.3371 44 76.49V91.9553C44 92.1082 43.8183 92.2227 43.5757 92.2227Z" fill="white"/>
</g>
<g filter="url(#filter2_d_4942_6761)">
<path d="M57.5757 92.2227H52.4243C52.182 92.2227 52 92.0523 52 91.8249V62.6204C52 62.3933 52.1817 62.2227 52.4243 62.2227H57.5757C57.818 62.2227 58 62.393 58 62.6204V91.8249C58 92.0523 57.818 92.2227 57.5757 92.2227Z" fill="white"/>
</g>
<path d="M74.8828 53.3238L69.7011 48.1421C69.5116 47.9526 69.2587 47.9526 69.0692 48.1421L63.8875 53.3238C63.6349 53.5764 63.8243 54.082 64.2036 54.082H65.8466C66.0993 54.082 66.2891 54.2715 66.2891 54.5244V91.8079C66.2891 92.0606 66.4785 92.2504 66.7315 92.2504H72.1026C72.3553 92.2504 72.5451 92.0609 72.5451 91.8079V54.5244C72.5451 54.2718 72.7345 54.082 72.9875 54.082H74.6305C74.946 54.0823 75.1355 53.6399 74.8829 53.3238H74.8828Z" fill="#EEF1F8"/>
<circle cx="49.7953" cy="21.9125" r="21.9125" fill="url(#paint1_linear_4942_6761)"/>
<circle cx="50" cy="22" r="22" fill="#FAA942"/>
<path fill-rule="evenodd" clip-rule="evenodd" d="M59.8897 15.2128C60.2896 15.5905 60.3076 16.2209 59.9299 16.6208L48.6416 28.5731C48.4535 28.7723 48.1915 28.8852 47.9175 28.8852C47.6435 28.8852 47.3815 28.7723 47.1934 28.5731L41.5492 22.597C41.1715 22.1971 41.1896 21.5667 41.5895 21.189C41.9894 20.8113 42.6198 20.8293 42.9975 21.2292L47.9175 26.4386L58.4816 15.2531C58.8593 14.8531 59.4897 14.8351 59.8897 15.2128Z" fill="white"/>
<defs>
<filter id="filter0_d_4942_6761" x="21" y="84.2227" width="14" height="14" filterUnits="userSpaceOnUse" color-interpolation-filters="sRGB">
<feFlood flood-opacity="0" result="BackgroundImageFix"/>
<feColorMatrix in="SourceAlpha" type="matrix" values="0 0 0 0 0 0 0 0 0 0 0 0 0 0 0 0 0 0 127 0" result="hardAlpha"/>
<feOffset dy="2"/>
<feGaussianBlur stdDeviation="2"/>
<feComposite in2="hardAlpha" operator="out"/>
<feColorMatrix type="matrix" values="0 0 0 0 0.0510417 0 0 0 0 0.170625 0 0 0 0 0.35 0 0 0 0.1 0"/>
<feBlend mode="normal" in2="BackgroundImageFix" result="effect1_dropShadow_4942_6761"/>
<feBlend mode="normal" in="SourceGraphic" in2="effect1_dropShadow_4942_6761" result="shape"/>
</filter>
<filter id="filter1_d_4942_6761" x="34" y="74.2227" width="14" height="24" filterUnits="userSpaceOnUse" color-interpolation-filters="sRGB">
<feFlood flood-opacity="0" result="BackgroundImageFix"/>
<feColorMatrix in="SourceAlpha" type="matrix" values="0 0 0 0 0 0 0 0 0 0 0 0 0 0 0 0 0 0 127 0" result="hardAlpha"/>
<feOffset dy="2"/>
<feGaussianBlur stdDeviation="2"/>
<feComposite in2="hardAlpha" operator="out"/>
<feColorMatrix type="matrix" values="0 0 0 0 0.0510417 0 0 0 0 0.170625 0 0 0 0 0.35 0 0 0 0.1 0"/>
<feBlend mode="normal" in2="BackgroundImageFix" result="effect1_dropShadow_4942_6761"/>
<feBlend mode="normal" in="SourceGraphic" in2="effect1_dropShadow_4942_6761" result="shape"/>
</filter>
<filter id="filter2_d_4942_6761" x="48" y="60.2227" width="14" height="38" filterUnits="userSpaceOnUse" color-interpolation-filters="sRGB">
<feFlood flood-opacity="0" result="BackgroundImageFix"/>
<feColorMatrix in="SourceAlpha" type="matrix" values="0 0 0 0 0 0 0 0 0 0 0 0 0 0 0 0 0 0 127 0" result="hardAlpha"/>
<feOffset dy="2"/>
<feGaussianBlur stdDeviation="2"/>
<feComposite in2="hardAlpha" operator="out"/>
<feColorMatrix type="matrix" values="0 0 0 0 0.0510417 0 0 0 0 0.170625 0 0 0 0 0.35 0 0 0 0.1 0"/>
<feBlend mode="normal" in2="BackgroundImageFix" result="effect1_dropShadow_4942_6761"/>
<feBlend mode="normal" in="SourceGraphic" in2="effect1_dropShadow_4942_6761" result="shape"/>
</filter>
<linearGradient id="paint0_linear_4942_6761" x1="-24.588" y1="68.7243" x2="122.732" y2="68.7243" gradientUnits="userSpaceOnUse">
<stop stop-color="#4D7EF2"/>
<stop offset="1" stop-color="#5FD4F4"/>
</linearGradient>
<linearGradient id="paint1_linear_4942_6761" x1="17.0641" y1="21.912" x2="81.8848" y2="21.912" gradientUnits="userSpaceOnUse">
<stop stop-color="#4D7EF2"/>
<stop offset="1" stop-color="#5FD4F4"/>
</linearGradient>
</defs>
</svg>
