<svg width="100" height="114" viewBox="0 0 100 114" fill="none" xmlns="http://www.w3.org/2000/svg">
<rect y="23.9043" width="99.6023" height="89.6421" rx="16" fill="url(#paint0_linear_4942_6659)"/>
<g filter="url(#filter0_d_4942_6659)">
<path d="M59.1062 63.5H41.7666C38.1351 67.623 33 75.1838 33 84.9177C33 100.516 67.8439 100.516 67.8439 84.9177C67.8289 75.1838 62.7088 67.623 59.1069 63.5H59.1062Z" fill="white"/>
<path d="M61.3222 60.0611V58.6677H55.6067C56.0978 56.9263 56.6932 54.8721 57.1694 53.1606C57.2617 52.8586 57.2643 52.5357 57.1769 52.2318C57.0898 51.9284 56.9167 51.6563 56.6783 51.4488C56.4447 51.232 56.1539 51.0859 55.8403 51.028C55.5267 50.97 55.203 51.0026 54.907 51.1214L53.2102 51.8061C50.7729 52.7768 48.0568 52.7768 45.6195 51.8061L43.9226 51.1214C43.5279 50.9637 43.0888 50.9596 42.6915 51.1102C42.2942 51.2608 41.9675 51.555 41.7769 51.9343C41.5859 52.3141 41.5444 52.7518 41.6606 53.1602C42.1368 54.8721 42.7471 56.9409 43.2233 58.6673L37.5078 58.6676V60.061L61.3222 60.0611Z" fill="white"/>
<rect x="42" y="72" width="17" height="17" rx="8.5" fill="url(#paint1_linear_4942_6659)"/>
<path d="M50.9395 82.682C51.2267 82.6401 51.4422 82.5429 51.5858 82.3903C51.7294 82.2347 51.8012 82.0282 51.8012 81.7709C51.8012 81.6691 51.7833 81.5809 51.7474 81.506C51.7115 81.4282 51.6621 81.3594 51.5993 81.2996C51.5364 81.2397 51.4616 81.1874 51.3748 81.1425C51.2881 81.0946 51.1938 81.0527 51.0921 81.0168L50.9395 82.682ZM50.5938 78.1037C50.4412 78.1247 50.3111 78.1591 50.2033 78.207C50.0956 78.2519 50.0073 78.3072 49.9385 78.3731C49.8727 78.4389 49.8233 78.5122 49.7904 78.593C49.7605 78.6708 49.7455 78.7546 49.7455 78.8443C49.7455 78.9461 49.762 79.0374 49.7949 79.1181C49.8308 79.196 49.8802 79.2663 49.943 79.3291C50.0058 79.3919 50.0807 79.4488 50.1674 79.4997C50.2542 79.5476 50.35 79.5909 50.4547 79.6298L50.5938 78.1037ZM51.1953 79.8722C51.3389 79.9141 51.4826 79.9605 51.6262 80.0114C51.7698 80.0592 51.9075 80.1146 52.0391 80.1774C52.1708 80.2403 52.2935 80.3136 52.4072 80.3974C52.5209 80.4812 52.6197 80.5799 52.7034 80.6936C52.7902 80.8043 52.8575 80.933 52.9054 81.0796C52.9533 81.2263 52.9772 81.3938 52.9772 81.5823C52.9772 81.8606 52.9294 82.124 52.8336 82.3723C52.7408 82.6177 52.6032 82.8361 52.4207 83.0277C52.2381 83.2162 52.0152 83.3703 51.7519 83.49C51.4885 83.6097 51.1863 83.6815 50.8452 83.7054L50.7913 84.3159C50.7853 84.3937 50.7524 84.464 50.6926 84.5268C50.6327 84.5897 50.5549 84.6211 50.4592 84.6211H50.0058L50.0911 83.674C49.9206 83.6501 49.7515 83.6142 49.5839 83.5663C49.4193 83.5154 49.2607 83.4556 49.1081 83.3867C48.9555 83.3149 48.8119 83.2356 48.6772 83.1488C48.5426 83.0591 48.4214 82.9618 48.3137 82.8571L48.6952 82.296C48.7281 82.2481 48.773 82.2092 48.8298 82.1793C48.8867 82.1464 48.9451 82.1299 49.0049 82.1299C49.0737 82.1299 49.1455 82.1509 49.2204 82.1928C49.2952 82.2347 49.3774 82.2855 49.4672 82.3454C49.56 82.4023 49.6632 82.4606 49.7769 82.5204C49.8936 82.5803 50.0283 82.6267 50.1809 82.6596L50.3515 80.7969C50.2078 80.758 50.0642 80.7146 49.9206 80.6667C49.7799 80.6158 49.6438 80.5575 49.5121 80.4916C49.3804 80.4258 49.2578 80.3495 49.144 80.2627C49.0333 80.173 48.9361 80.0667 48.8523 79.944C48.7685 79.8214 48.7027 79.6807 48.6548 79.5221C48.6069 79.3605 48.583 79.175 48.583 78.9655C48.583 78.7321 48.6294 78.5062 48.7221 78.2878C48.8149 78.0663 48.9495 77.8688 49.1261 77.6953C49.3056 77.5217 49.5256 77.3796 49.7859 77.2689C50.0462 77.1552 50.3455 77.0893 50.6836 77.0714L50.733 76.5372C50.739 76.4594 50.7719 76.3906 50.8317 76.3308C50.8946 76.2679 50.9724 76.2365 51.0651 76.2365H51.523L51.4422 77.1163C51.7653 77.1731 52.0421 77.2659 52.2725 77.3946C52.503 77.5232 52.7005 77.6684 52.865 77.8299L52.5598 78.2788C52.5179 78.3476 52.473 78.3985 52.4252 78.4314C52.3773 78.4613 52.3204 78.4763 52.2546 78.4763C52.2097 78.4763 52.1558 78.4643 52.093 78.4404C52.0332 78.4135 51.9658 78.382 51.891 78.3461C51.8162 78.3072 51.7324 78.2683 51.6397 78.2294C51.5499 78.1905 51.4541 78.1576 51.3524 78.1307L51.1953 79.8722Z" fill="white"/>
</g>
<circle cx="49.7953" cy="21.9125" r="21.9125" fill="url(#paint2_linear_4942_6659)"/>
<circle cx="50" cy="22" r="22" fill="#FAA942"/>
<path d="M54.375 19.65V19.2344C54.375 17.3715 51.4219 15.9688 47.5 15.9688C43.5781 15.9688 40.625 17.3715 40.625 19.2344V22.2031C40.625 23.7543 42.6719 24.9863 45.625 25.3574V25.7656C45.625 27.6285 48.5781 29.0312 52.5 29.0312C56.4219 29.0312 59.375 27.6285 59.375 25.7656V22.7969C59.375 21.2605 57.3906 20.0285 54.375 19.65ZM45.625 24.1477V22.3887C46.2468 22.4646 46.8731 22.5018 47.5 22.5C48.1269 22.5018 48.7532 22.4646 49.375 22.3887V24.1477C48.7547 24.2395 48.1277 24.2842 47.5 24.2812C46.8723 24.2842 46.2453 24.2395 45.625 24.1477ZM53.125 21.1566V22.2031C53.125 22.8266 52.1563 23.4945 50.625 23.9027V22.166C51.6328 21.9359 52.4844 21.5871 53.125 21.1566ZM41.875 22.2031V21.1566C42.5156 21.5871 43.3672 21.9359 44.375 22.166V23.9027C42.8438 23.4945 41.875 22.8266 41.875 22.2031ZM46.875 25.7656V25.4539L47.5 25.4687C47.8073 25.4687 48.1042 25.4613 48.3906 25.4465C48.7031 25.5504 49.0313 25.6395 49.375 25.7211V27.4652C47.8438 27.057 46.875 26.3891 46.875 25.7656ZM50.625 27.7102V25.9437C51.2467 26.0212 51.873 26.0609 52.5 26.0625C53.1269 26.0643 53.7532 26.0271 54.375 25.9512V27.7102C53.132 27.8883 51.868 27.8883 50.625 27.7102ZM55.625 27.4652V25.7285C56.6328 25.4984 57.4844 25.1496 58.125 24.7191V25.7656C58.125 26.3891 57.1563 27.057 55.625 27.4652Z" fill="white"/>
<rect x="36" y="58" width="28" height="3" rx="1.5" fill="#DDE3F0"/>
<defs>
<filter id="filter0_d_4942_6659" x="29" y="49" width="42.8438" height="53.6162" filterUnits="userSpaceOnUse" color-interpolation-filters="sRGB">
<feFlood flood-opacity="0" result="BackgroundImageFix"/>
<feColorMatrix in="SourceAlpha" type="matrix" values="0 0 0 0 0 0 0 0 0 0 0 0 0 0 0 0 0 0 127 0" result="hardAlpha"/>
<feOffset dy="2"/>
<feGaussianBlur stdDeviation="2"/>
<feComposite in2="hardAlpha" operator="out"/>
<feColorMatrix type="matrix" values="0 0 0 0 0.0510417 0 0 0 0 0.170625 0 0 0 0 0.35 0 0 0 0.1 0"/>
<feBlend mode="normal" in2="BackgroundImageFix" result="effect1_dropShadow_4942_6659"/>
<feBlend mode="normal" in="SourceGraphic" in2="effect1_dropShadow_4942_6659" result="shape"/>
</filter>
<linearGradient id="paint0_linear_4942_6659" x1="-24.588" y1="68.7243" x2="122.732" y2="68.7243" gradientUnits="userSpaceOnUse">
<stop stop-color="#4D7EF2"/>
<stop offset="1" stop-color="#5FD4F4"/>
</linearGradient>
<linearGradient id="paint1_linear_4942_6659" x1="37.8033" y1="80.4998" x2="62.9477" y2="80.4998" gradientUnits="userSpaceOnUse">
<stop stop-color="#4D7EF2"/>
<stop offset="1" stop-color="#5FD4F4"/>
</linearGradient>
<linearGradient id="paint2_linear_4942_6659" x1="17.0641" y1="21.912" x2="81.8848" y2="21.912" gradientUnits="userSpaceOnUse">
<stop stop-color="#4D7EF2"/>
<stop offset="1" stop-color="#5FD4F4"/>
</linearGradient>
</defs>
</svg>
