<svg width="60" height="60" viewBox="0 0 60 60" fill="none" xmlns="http://www.w3.org/2000/svg">
<path d="M48.75 7.5H43.125V5.625C43.125 5.12772 42.9275 4.65081 42.5758 4.29917C42.2242 3.94754 41.7473 3.75 41.25 3.75C40.7527 3.75 40.2758 3.94754 39.9242 4.29917C39.5725 4.65081 39.375 5.12772 39.375 5.625V7.5H20.625V5.625C20.625 5.12772 20.4275 4.65081 20.0758 4.29917C19.7242 3.94754 19.2473 3.75 18.75 3.75C18.2527 3.75 17.7758 3.94754 17.4242 4.29917C17.0725 4.65081 16.875 5.12772 16.875 5.625V7.5H11.25C10.2554 7.5 9.30161 7.89509 8.59835 8.59835C7.89509 9.30161 7.5 10.2554 7.5 11.25V48.75C7.5 49.7446 7.89509 50.6984 8.59835 51.4016C9.30161 52.1049 10.2554 52.5 11.25 52.5H48.75C49.7446 52.5 50.6984 52.1049 51.4016 51.4016C52.1049 50.6984 52.5 49.7446 52.5 48.75V11.25C52.5 10.2554 52.1049 9.30161 51.4016 8.59835C50.6984 7.89509 49.7446 7.5 48.75 7.5ZM39.7266 31.3594L28.7812 41.6719C28.6111 41.8387 28.4095 41.9701 28.1883 42.0586C27.967 42.1471 27.7305 42.1909 27.4922 42.1875C27.0119 42.1893 26.5497 42.0044 26.2031 41.6719L20.2734 36.0469C20.083 35.8807 19.9281 35.6777 19.818 35.4502C19.708 35.2226 19.6451 34.9751 19.6332 34.7226C19.6212 34.4701 19.6605 34.2178 19.7485 33.9809C19.8366 33.7439 19.9716 33.5273 20.1455 33.3438C20.3195 33.1604 20.5287 33.0141 20.7606 32.9136C20.9926 32.8131 21.2424 32.7605 21.4952 32.759C21.748 32.7576 21.9984 32.8072 22.2315 32.905C22.4646 33.0028 22.6755 33.1467 22.8516 33.3281L27.4922 37.7344L37.1484 28.6406C37.3255 28.4687 37.5352 28.3338 37.7652 28.2441C37.9951 28.1544 38.2407 28.1115 38.4875 28.1181C38.7342 28.1246 38.9772 28.1804 39.2021 28.2822C39.4269 28.3841 39.6292 28.5298 39.7969 28.7109C40.1384 29.0717 40.3227 29.5532 40.3096 30.0497C40.2964 30.5462 40.0867 31.0173 39.7266 31.3594ZM48.75 18.75H11.25V11.25H16.875V13.125C16.875 13.6223 17.0725 14.0992 17.4242 14.4508C17.7758 14.8025 18.2527 15 18.75 15C19.2473 15 19.7242 14.8025 20.0758 14.4508C20.4275 14.0992 20.625 13.6223 20.625 13.125V11.25H39.375V13.125C39.375 13.6223 39.5725 14.0992 39.9242 14.4508C40.2758 14.8025 40.7527 15 41.25 15C41.7473 15 42.2242 14.8025 42.5758 14.4508C42.9275 14.0992 43.125 13.6223 43.125 13.125V11.25H48.75V18.75Z" fill="#001F55"/>
</svg>
