<svg width="60" height="60" viewBox="0 0 60 60" fill="none" xmlns="http://www.w3.org/2000/svg">
<path d="M50.625 9.375H31.875V5.625C31.875 5.12772 31.6775 4.65081 31.3258 4.29917C30.9742 3.94754 30.4973 3.75 30 3.75C29.5027 3.75 29.0258 3.94754 28.6742 4.29917C28.3225 4.65081 28.125 5.12772 28.125 5.625V9.375H9.375C8.38044 9.375 7.42661 9.77009 6.72335 10.4733C6.02009 11.1766 5.625 12.1304 5.625 13.125V41.25C5.625 42.2446 6.02009 43.1984 6.72335 43.9016C7.42661 44.6049 8.38044 45 9.375 45H18.6094L13.5469 51.3281C13.3266 51.6032 13.1884 51.9347 13.1479 52.2848C13.1075 52.6348 13.1665 52.9891 13.3181 53.3072C13.4698 53.6252 13.708 53.8941 14.0055 54.0829C14.303 54.2718 14.6476 54.373 15 54.375C15.2799 54.3769 15.5564 54.3144 15.8084 54.1925C16.0603 54.0706 16.2809 53.8925 16.4531 53.6719L23.3906 45H36.6094L43.5469 53.6719C43.7191 53.8925 43.9397 54.0706 44.1916 54.1925C44.4436 54.3144 44.7201 54.3769 45 54.375C45.3524 54.373 45.697 54.2718 45.9945 54.0829C46.292 53.8941 46.5302 53.6252 46.6819 53.3072C46.8335 52.9891 46.8925 52.6348 46.8521 52.2848C46.8116 51.9347 46.6734 51.6032 46.4531 51.3281L41.3906 45H50.625C51.6196 45 52.5734 44.6049 53.2766 43.9016C53.9799 43.1984 54.375 42.2446 54.375 41.25V13.125C54.375 12.1304 53.9799 11.1766 53.2766 10.4733C52.5734 9.77009 51.6196 9.375 50.625 9.375ZM24.375 33.75C24.375 34.2473 24.1775 34.7242 23.8258 35.0758C23.4742 35.4275 22.9973 35.625 22.5 35.625C22.0027 35.625 21.5258 35.4275 21.1742 35.0758C20.8225 34.7242 20.625 34.2473 20.625 33.75V28.125C20.625 27.6277 20.8225 27.1508 21.1742 26.7992C21.5258 26.4475 22.0027 26.25 22.5 26.25C22.9973 26.25 23.4742 26.4475 23.8258 26.7992C24.1775 27.1508 24.375 27.6277 24.375 28.125V33.75ZM31.875 33.75C31.875 34.2473 31.6775 34.7242 31.3258 35.0758C30.9742 35.4275 30.4973 35.625 30 35.625C29.5027 35.625 29.0258 35.4275 28.6742 35.0758C28.3225 34.7242 28.125 34.2473 28.125 33.75V24.375C28.125 23.8777 28.3225 23.4008 28.6742 23.0492C29.0258 22.6975 29.5027 22.5 30 22.5C30.4973 22.5 30.9742 22.6975 31.3258 23.0492C31.6775 23.4008 31.875 23.8777 31.875 24.375V33.75ZM39.375 33.75C39.375 34.2473 39.1775 34.7242 38.8258 35.0758C38.4742 35.4275 37.9973 35.625 37.5 35.625C37.0027 35.625 36.5258 35.4275 36.1742 35.0758C35.8225 34.7242 35.625 34.2473 35.625 33.75V20.625C35.625 20.1277 35.8225 19.6508 36.1742 19.2992C36.5258 18.9475 37.0027 18.75 37.5 18.75C37.9973 18.75 38.4742 18.9475 38.8258 19.2992C39.1775 19.6508 39.375 20.1277 39.375 20.625V33.75Z" fill="#001F55"/>
</svg>
