<svg width="60" height="60" viewBox="0 0 60 60" fill="none" xmlns="http://www.w3.org/2000/svg">
<path d="M45.375 20.7188C45.8394 20.3682 46.2164 19.915 46.4766 19.3946C46.7369 18.8741 46.8732 18.3006 46.875 17.7188V9.375C46.875 8.38044 46.4799 7.42661 45.7766 6.72335C45.0734 6.02009 44.1196 5.625 43.125 5.625H16.875C15.8804 5.625 14.9266 6.02009 14.2233 6.72335C13.5201 7.42661 13.125 8.38044 13.125 9.375V17.8125C13.1268 18.3943 13.2631 18.9679 13.5234 19.4883C13.7836 20.0087 14.1606 20.4619 14.625 20.8125L18.8672 24L26.8828 30L14.625 39.1875C14.1606 39.5381 13.7836 39.9913 13.5234 40.5117C13.2631 41.0321 13.1268 41.6057 13.125 42.1875V50.625C13.125 51.6196 13.5201 52.5734 14.2233 53.2766C14.9266 53.9799 15.8804 54.375 16.875 54.375H43.125C44.1196 54.375 45.0734 53.9799 45.7766 53.2766C46.4799 52.5734 46.875 51.6196 46.875 50.625V42.2812C46.8732 41.6994 46.7369 41.1259 46.4766 40.6054C46.2164 40.085 45.8394 39.6318 45.375 39.2812L33.1172 30L38.4375 25.9688L45.375 20.7188ZM16.875 9.375H43.125V17.7188L41.7656 18.75H18.1172L16.875 17.8125V9.375ZM43.125 42.2812V50.625H16.875V42.1875L28.125 33.75V39.375C28.125 39.8723 28.3225 40.3492 28.6742 40.7008C29.0258 41.0525 29.5027 41.25 30 41.25C30.4973 41.25 30.9742 41.0525 31.3258 40.7008C31.6775 40.3492 31.875 39.8723 31.875 39.375V33.7734L43.125 42.2812Z" fill="#001F55"/>
</svg>
