<svg width="60" height="60" viewBox="0 0 60 60" fill="none" xmlns="http://www.w3.org/2000/svg">
<path d="M38.9807 7.56797C36.7002 5.10586 33.5151 3.75 29.9994 3.75C26.4651 3.75 23.2694 5.09766 20.9994 7.54453C18.7049 10.0184 17.5869 13.3805 17.8494 17.0109C18.3698 24.1734 23.8201 30 29.9994 30C36.1787 30 41.6197 24.1746 42.1482 17.0133C42.4143 13.4156 41.2893 10.0605 38.9807 7.56797ZM50.6244 56.25H9.37445C8.83452 56.257 8.29982 56.1436 7.80925 55.918C7.31868 55.6923 6.88457 55.3602 6.53851 54.9457C5.77679 54.0352 5.46976 52.7918 5.69711 51.5344C6.68617 46.0477 9.77288 41.4387 14.6244 38.2031C18.9346 35.3309 24.3944 33.75 29.9994 33.75C35.6045 33.75 41.0643 35.332 45.3744 38.2031C50.226 41.4375 53.3127 46.0465 54.3018 51.5332C54.5291 52.7906 54.2221 54.034 53.4603 54.9445C53.1144 55.3592 52.6803 55.6916 52.1898 55.9174C51.6992 56.1433 51.1644 56.2569 50.6244 56.25Z" fill="#001F55"/>
</svg>
