<svg width="16" height="16" viewBox="0 0 16 16" fill="none" xmlns="http://www.w3.org/2000/svg">
<path fill-rule="evenodd" clip-rule="evenodd" d="M1.91768 3.56547C3.1137 3.56547 3.85817 2.77309 3.85817 1.7829C3.83588 0.770372 3.11374 0 1.94038 0C0.767184 0 0 0.770384 0 1.7829C0 2.77314 0.744284 3.56547 1.89531 3.56547H1.9176H1.91768ZM3.6324 15.2941V4.97522H0.202613V15.2941H3.6324ZM8.96052 15.2923H5.53076L5.53084 15.2922C5.53084 15.2922 5.57584 5.94152 5.53084 4.97328H8.9606V6.43434C9.41642 5.73124 10.2323 4.7312 12.0516 4.7312C14.3082 4.7312 16.0003 6.20596 16.0003 9.37552V15.2923H12.5707V9.77188C12.5707 8.38472 12.0742 7.43844 10.8331 7.43844C9.88568 7.43844 9.32132 8.07664 9.0734 8.6928C8.98284 8.91328 8.96052 9.22136 8.96052 9.52976V15.2923Z" fill="#FAA942"/>
</svg>
