<svg width="100" height="100" viewBox="0 0 100 100" fill="none" xmlns="http://www.w3.org/2000/svg">
<path fill-rule="evenodd" clip-rule="evenodd" d="M44.7917 4.6875C22.6427 4.6875 4.6875 22.6427 4.6875 44.7917C4.6875 66.9406 22.6427 84.8958 44.7917 84.8958C66.9406 84.8958 84.8958 66.9406 84.8958 44.7917C84.8958 22.6427 66.9406 4.6875 44.7917 4.6875ZM1.5625 44.7917C1.5625 20.9169 20.9169 1.5625 44.7917 1.5625C68.6665 1.5625 88.0208 20.9169 88.0208 44.7917C88.0208 68.6665 68.6665 88.0208 44.7917 88.0208C20.9169 88.0208 1.5625 68.6665 1.5625 44.7917Z" fill="url(#paint0_linear_5044_7032)"/>
<path fill-rule="evenodd" clip-rule="evenodd" d="M73.1139 73.1139C73.7241 72.5037 74.7134 72.5037 75.3236 73.1139L97.9799 95.7701C98.59 96.3803 98.59 97.3697 97.9799 97.9799C97.3697 98.59 96.3803 98.59 95.7701 97.9799L73.1139 75.3236C72.5037 74.7134 72.5037 73.7241 73.1139 73.1139Z" fill="url(#paint1_linear_5044_7032)"/>
<path fill-rule="evenodd" clip-rule="evenodd" d="M48.1631 31.7926C47.5441 31.4998 46.2817 31.2323 44.7073 31.2509C43.0268 31.2733 41.334 31.6357 39.9712 32.7268M48.1631 31.7926C49.6548 32.5025 51.875 33.9238 51.875 36.7715C51.875 39.8869 49.9876 41.2966 46.8867 43.368C45.2328 44.4727 44.0806 45.6427 43.3558 46.9515C42.6239 48.2732 42.3959 49.614 42.3959 50.9375C42.3959 51.8004 43.0954 52.5 43.9584 52.5C44.8213 52.5 45.5209 51.8004 45.5209 50.9375C45.5209 49.9909 45.6793 49.2064 46.0896 48.4654C46.5072 47.7114 47.253 46.8813 48.6225 45.9666L48.6868 45.9236C51.6179 43.9659 55 41.707 55 36.7715C55 31.9351 51.1314 29.7441 49.5041 28.9699L49.5016 28.9687C48.2956 28.3976 46.5074 28.1042 44.6689 28.1261L44.6668 28.1262C42.6089 28.1535 40.1294 28.5969 38.018 30.2874C36.3064 31.6579 35.3938 33.216 34.9129 34.4508C34.6735 35.0654 34.5411 35.5992 34.4678 35.9914C34.4311 36.1878 34.409 36.3499 34.3958 36.4703C34.3891 36.5306 34.3847 36.5806 34.3817 36.6193L34.3783 36.669L34.3773 36.6874L34.3769 36.695L34.3767 36.6983L34.3767 36.6999C34.3766 36.7007 34.3766 36.7014 35.9375 36.7715L34.3766 36.7014C34.3379 37.5635 35.0053 38.2937 35.8674 38.3324C36.7244 38.3709 37.4511 37.7116 37.4977 36.857C37.4981 36.8518 37.4993 36.8367 37.502 36.8125C37.5073 36.7639 37.5184 36.6795 37.5397 36.5654C37.5824 36.3365 37.6657 35.9935 37.8248 35.5849C38.141 34.7731 38.757 33.699 39.9712 32.7268M37.4984 36.8431L37.4983 36.8445L37.4982 36.847L37.498 36.8514L37.4977 36.857" fill="url(#paint2_linear_5044_7032)"/>
<path d="M43.75 60.9375C44.6129 60.9375 45.3125 60.2379 45.3125 59.375C45.3125 58.5121 44.6129 57.8125 43.75 57.8125C42.8871 57.8125 42.1875 58.5121 42.1875 59.375C42.1875 60.2379 42.8871 60.9375 43.75 60.9375Z" fill="url(#paint3_linear_5044_7032)"/>
<defs>
<linearGradient id="paint0_linear_5044_7032" x1="-22.3523" y1="49.9988" x2="120.934" y2="49.9988" gradientUnits="userSpaceOnUse">
<stop stop-color="#4D7EF2"/>
<stop offset="1" stop-color="#5FD4F4"/>
</linearGradient>
<linearGradient id="paint1_linear_5044_7032" x1="-22.3523" y1="49.9988" x2="120.934" y2="49.9988" gradientUnits="userSpaceOnUse">
<stop stop-color="#4D7EF2"/>
<stop offset="1" stop-color="#5FD4F4"/>
</linearGradient>
<linearGradient id="paint2_linear_5044_7032" x1="-22.3523" y1="49.9988" x2="120.934" y2="49.9988" gradientUnits="userSpaceOnUse">
<stop stop-color="#4D7EF2"/>
<stop offset="1" stop-color="#5FD4F4"/>
</linearGradient>
<linearGradient id="paint3_linear_5044_7032" x1="-22.3523" y1="49.9988" x2="120.934" y2="49.9988" gradientUnits="userSpaceOnUse">
<stop stop-color="#4D7EF2"/>
<stop offset="1" stop-color="#5FD4F4"/>
</linearGradient>
</defs>
</svg>
