<svg width="16" height="16" viewBox="0 0 16 16" fill="none" xmlns="http://www.w3.org/2000/svg">
<path fill-rule="evenodd" clip-rule="evenodd" d="M16 3.29998C15.4088 3.56024 14.8198 3.57705 14.1543 3.65585C14.8341 3.24993 15.3559 2.60523 15.6001 1.83875C14.9634 2.21602 14.2596 2.48823 13.5104 2.63627C12.9095 1.99873 12.055 1.59998 11.1071 1.59998C9.29018 1.59998 7.81563 3.07084 7.81563 4.88317C7.81563 5.14104 7.84434 5.39176 7.90181 5.63055C5.16573 5.49443 2.74085 4.18593 1.11789 2.19931C0.83542 2.68403 0.672646 3.24754 0.672646 3.84926C0.672646 4.98822 1.25433 5.99349 2.13763 6.58086C1.59903 6.56417 1.09156 6.41612 0.646314 6.17019C0.646314 6.18451 0.646314 6.19643 0.646314 6.21075C0.646314 7.80102 1.78096 9.12864 3.28663 9.4295C3.01135 9.50351 2.71931 9.54411 2.42009 9.54411C2.20704 9.54411 2.00118 9.52259 1.80011 9.48439C2.21901 10.7881 3.43504 11.7385 4.8737 11.7647C3.74623 12.6458 2.32913 13.1711 0.785151 13.1711C0.519444 13.1711 0.258526 13.1544 0 13.1258C1.4554 14.057 3.18609 14.6014 5.04603 14.6014C11.0998 14.6014 14.4104 9.59903 14.4104 5.26043C14.4104 5.11717 14.408 4.97629 14.4008 4.83541C15.0448 4.37218 15.5571 3.95422 15.9976 3.2952L16 3.29998Z" fill="#FAA942"/>
</svg>
