<svg width="32" height="32" viewBox="0 0 32 32" fill="none" xmlns="http://www.w3.org/2000/svg">
<path fill-rule="evenodd" clip-rule="evenodd" d="M3.66667 16C3.66667 15.2636 4.26363 14.6667 5.00001 14.6667H27C27.7364 14.6667 28.3333 15.2636 28.3333 16C28.3333 16.7364 27.7364 17.3333 27 17.3333H5.00001C4.26363 17.3333 3.66667 16.7364 3.66667 16Z" fill="#000714"/>
<path fill-rule="evenodd" clip-rule="evenodd" d="M14.9428 6.0572C15.4635 6.5779 15.4635 7.42212 14.9428 7.94281L6.88562 16L14.9428 24.0572C15.4635 24.5779 15.4635 25.4221 14.9428 25.9428C14.4221 26.4635 13.5779 26.4635 13.0572 25.9428L4.0572 16.9428C3.5365 16.4221 3.5365 15.5779 4.0572 15.0572L13.0572 6.0572C13.5779 5.5365 14.4221 5.5365 14.9428 6.0572Z" fill="#000714"/>
</svg>
