<svg width="32" height="32" viewBox="0 0 32 32" fill="none" xmlns="http://www.w3.org/2000/svg">
    <g clip-path="url(#clip0_1398_761)">
    <ellipse cx="16" cy="16" rx="16" ry="16" fill="#FAA942"/>
    <path fill-rule="evenodd" clip-rule="evenodd" d="M15.5955 10.3452C16.0269 9.88493 16.7263 9.88493 17.1576 10.3452L21.6765 15.1666C21.8836 15.3876 22 15.6874 22 16C22 16.3126 21.8836 16.6124 21.6765 16.8334L17.1576 21.6548C16.7263 22.1151 16.0269 22.1151 15.5955 21.6548C15.1641 21.1945 15.1641 20.4483 15.5955 19.9881L18.2287 17.1786H11.1046C10.4945 17.1786 10 16.6509 10 16C10 15.3491 10.4945 14.8214 11.1046 14.8214H18.2287L15.5955 12.0119C15.1641 11.5517 15.1641 10.8055 15.5955 10.3452Z" fill="white"/>
    </g>
    <defs>
    <clipPath id="clip0_1398_761">
    <rect width="32" height="32" fill="white"/>
    </clipPath>
    </defs>
</svg>
