<svg width="24" height="24" viewBox="0 0 24 24" fill="none" xmlns="http://www.w3.org/2000/svg">
<g clip-path="url(#clip0_769_4056)">
<ellipse cx="12" cy="12" rx="12" ry="12" fill="#FAA942"/>
<path fill-rule="evenodd" clip-rule="evenodd" d="M11.6966 7.7589C12.0202 7.4137 12.5447 7.4137 12.8682 7.7589L16.2574 11.375C16.4127 11.5407 16.5 11.7656 16.5 12C16.5 12.2344 16.4127 12.4593 16.2574 12.625L12.8682 16.2411C12.5447 16.5863 12.0202 16.5863 11.6966 16.2411C11.3731 15.8959 11.3731 15.3362 11.6966 14.991L13.6715 12.8839H8.32845C7.87091 12.8839 7.5 12.4882 7.5 12C7.5 11.5118 7.87091 11.1161 8.32845 11.1161H13.6715L11.6966 9.00896C11.3731 8.66377 11.3731 8.10409 11.6966 7.7589Z" fill="white"/>
</g>
<defs>
<clipPath id="clip0_769_4056">
<rect width="24" height="24" fill="white"/>
</clipPath>
</defs>
</svg>
