<svg width="406" height="345" viewBox="0 0 406 345" fill="none" xmlns="http://www.w3.org/2000/svg">
    <g clip-path="url(#clip0_2824_10659)">
    <path d="M191.38 152H208.08V295.67H191.38V152Z" fill="#767778"/>
    <path d="M172.51 152H191.63V295.67H172.51V152Z" fill="#767778"/>
    <path d="M191.63 295.43H215.34V314.3H191.63V295.43Z" fill="#767778"/>
    <path d="M164.53 295.43H191.63V314.3H164.53V295.43Z" fill="#767778"/>
    <path d="M104.52 295.43H128.23V314.3H104.52V295.43Z" fill="#767778"/>
    <path d="M77.4199 295.43H104.52V314.3H77.4199V295.43Z" fill="#767778"/>
    <path d="M173.48 144H209.77V158H173.48V144Z" fill="#767778"/>
    <path d="M203 151C203 153.249 203.667 155.447 204.916 157.317C206.166 159.187 207.941 160.644 210.019 161.505C212.096 162.365 214.383 162.59 216.588 162.152C218.794 161.713 220.82 160.63 222.41 159.04C224 157.45 225.083 155.424 225.522 153.218C225.96 151.013 225.735 148.726 224.875 146.649C224.014 144.571 222.557 142.796 220.687 141.546C218.817 140.297 216.619 139.63 214.37 139.63C212.877 139.629 211.397 139.922 210.017 140.493C208.637 141.064 207.383 141.901 206.327 142.957C205.271 144.013 204.434 145.267 203.863 146.647C203.292 148.027 202.999 149.507 203 151Z" fill="#767778"/>
    <path d="M207.6 151C207.6 152.291 207.983 153.554 208.701 154.628C209.418 155.702 210.438 156.539 211.631 157.033C212.824 157.527 214.137 157.656 215.404 157.404C216.671 157.153 217.834 156.531 218.747 155.617C219.661 154.704 220.283 153.541 220.535 152.274C220.787 151.007 220.657 149.694 220.163 148.501C219.669 147.308 218.832 146.288 217.758 145.57C216.684 144.853 215.422 144.47 214.13 144.47C212.409 144.503 210.767 145.202 209.55 146.419C208.332 147.637 207.633 149.279 207.6 151Z" fill="#767778"/>
    <path d="M155.09 151C155.088 153.252 155.754 155.453 157.004 157.326C158.253 159.199 160.03 160.659 162.11 161.522C164.19 162.384 166.479 162.611 168.688 162.172C170.896 161.733 172.925 160.649 174.517 159.057C176.109 157.465 177.193 155.436 177.632 153.228C178.07 151.019 177.844 148.73 176.982 146.65C176.119 144.571 174.659 142.793 172.786 141.544C170.913 140.294 168.711 139.628 166.46 139.63C164.966 139.629 163.487 139.922 162.107 140.493C160.727 141.064 159.473 141.901 158.417 142.957C157.361 144.013 156.524 145.267 155.953 146.647C155.382 148.027 155.089 149.507 155.09 151Z" fill="#767778"/>
    <path d="M159.93 151C159.928 152.294 160.31 153.56 161.028 154.637C161.746 155.714 162.767 156.554 163.962 157.05C165.158 157.547 166.474 157.677 167.743 157.425C169.013 157.173 170.179 156.55 171.094 155.635C172.009 154.719 172.633 153.553 172.885 152.283C173.137 151.014 173.006 149.698 172.51 148.503C172.014 147.307 171.174 146.286 170.097 145.568C169.02 144.85 167.754 144.468 166.46 144.47C165.601 144.466 164.75 144.632 163.956 144.959C163.162 145.286 162.441 145.767 161.834 146.374C161.226 146.981 160.745 147.702 160.419 148.496C160.092 149.29 159.926 150.141 159.93 151Z" fill="#767778"/>
    <path d="M104.52 152H121.22V295.67H104.52V152Z" fill="#767778"/>
    <path d="M85.4102 152H104.52V295.67H85.4102V152Z" fill="#767778"/>
    <path d="M86.6201 144H122.91V158H86.6201V144Z" fill="#767778"/>
    <path d="M115.89 151C115.888 153.251 116.554 155.452 117.803 157.325C119.052 159.198 120.829 160.658 122.908 161.521C124.988 162.384 127.276 162.611 129.484 162.173C131.692 161.735 133.721 160.652 135.313 159.06C136.906 157.469 137.991 155.442 138.431 153.234C138.871 151.026 138.646 148.737 137.785 146.657C136.924 144.577 135.465 142.799 133.594 141.549C131.722 140.298 129.521 139.63 127.27 139.63C125.776 139.629 124.297 139.922 122.916 140.493C121.535 141.063 120.281 141.901 119.224 142.957C118.167 144.013 117.329 145.266 116.757 146.647C116.185 148.027 115.89 149.506 115.89 151Z" fill="#767778"/>
    <path d="M120.73 151C120.728 152.294 121.11 153.559 121.827 154.636C122.545 155.713 123.565 156.553 124.76 157.049C125.955 157.546 127.27 157.677 128.54 157.426C129.809 157.174 130.975 156.552 131.891 155.638C132.807 154.724 133.43 153.559 133.684 152.29C133.937 151.021 133.808 149.705 133.313 148.51C132.818 147.314 131.98 146.292 130.904 145.573C129.829 144.854 128.564 144.47 127.27 144.47C126.411 144.466 125.559 144.632 124.765 144.959C123.97 145.285 123.248 145.766 122.64 146.373C122.032 146.98 121.55 147.702 121.223 148.496C120.895 149.29 120.727 150.141 120.73 151Z" fill="#767778"/>
    <path d="M68.23 151C68.234 153.248 68.9042 155.444 70.1559 157.311C71.4077 159.179 73.1848 160.633 75.2628 161.49C77.3407 162.348 79.6262 162.57 81.8304 162.129C84.0347 161.688 86.0587 160.604 87.6469 159.013C89.235 157.422 90.3159 155.396 90.753 153.191C91.1901 150.986 90.9638 148.701 90.1026 146.624C89.2414 144.548 87.7841 142.773 85.9148 141.525C84.0454 140.276 81.8479 139.61 79.6 139.61C78.1048 139.609 76.6241 139.903 75.2427 140.475C73.8614 141.047 72.6065 141.886 71.5502 142.944C70.4939 144.002 69.6568 145.259 69.0871 146.641C68.5173 148.024 68.2261 149.505 68.23 151Z" fill="#767778"/>
    <path d="M72.8301 151C72.8301 152.292 73.2131 153.554 73.9306 154.628C74.6482 155.702 75.668 156.539 76.8612 157.033C78.0544 157.527 79.3674 157.657 80.6341 157.405C81.9008 157.153 83.0643 156.531 83.9776 155.617C84.8908 154.704 85.5127 153.541 85.7647 152.274C86.0166 151.007 85.8873 149.694 85.3931 148.501C84.8988 147.308 84.0619 146.288 82.988 145.571C81.9142 144.853 80.6517 144.47 79.3601 144.47C78.5015 144.466 77.6506 144.632 76.8565 144.959C76.0625 145.286 75.341 145.767 74.7339 146.374C74.1267 146.981 73.6459 147.702 73.3191 148.496C72.9924 149.29 72.8262 150.141 72.8301 151Z" fill="#767778"/>
    <path d="M55 145H350.3V315.25H55V145Z" fill="#001F55"/>
    <path d="M31.4502 135.74L203 0L377 137.67V144H31.4502V135.74Z" fill="#EEF1F8"/>
    <path d="M69.6802 125.09L203.24 19.6L338.74 126.54V131.62H69.6802V125.09Z" fill="url(#paint0_linear_2824_10659)"/>
    <path d="M334.62 152H351.32V295.67H334.62V152Z" fill="#EEF1F8"/>
    <path d="M315.75 152H334.87V295.67H315.75V152Z" fill="#EEF1F8"/>
    <path d="M334.87 295.43H358.58V314.3H334.87V295.43Z" fill="#DDE3F0"/>
    <path d="M307.77 295.43H334.87V314.3H307.77V295.43Z" fill="#DDE3F0"/>
    <path d="M247.76 295.43H271.47V314.3H247.76V295.43Z" fill="#DDE3F0"/>
    <path d="M220.66 295.43H247.76V314.3H220.66V295.43Z" fill="#DDE3F0"/>
    <path d="M160.66 295.43H184.37V314.3H160.66V295.43Z" fill="#DDE3F0"/>
    <path d="M133.56 295.43H160.66V314.3H133.56V295.43Z" fill="#DDE3F0"/>
    <path d="M73.5601 295.43H97.2701V314.3H73.5601V295.43Z" fill="#DDE3F0"/>
    <path d="M46.46 295.43H73.56V314.3H46.46V295.43Z" fill="#DDE3F0"/>
    <path d="M316.72 144H353V158H316.72V144Z" fill="#DDE3F0"/>
    <path d="M247.76 152H264.46V295.67H247.76V152Z" fill="#EEF1F8"/>
    <path d="M228.65 152H247.76V295.67H228.65V152Z" fill="#EEF1F8"/>
    <path d="M160.66 152H177.35V295.67H160.66V152Z" fill="#EEF1F8"/>
    <path d="M141.54 152H160.66V295.67H141.54V152Z" fill="#EEF1F8"/>
    <path d="M73.5498 152H90.2498V295.67H73.5498V152Z" fill="#EEF1F8"/>
    <path d="M54.6802 152H73.8002V295.67H54.6802V152Z" fill="#EEF1F8"/>
    <path d="M379.39 313.06V323.47H26.6099V313.06H379.39Z" fill="#EEF1F8"/>
    <path d="M393.66 323.47V334.11H12.3398V323.47H393.66Z" fill="#DDE3F0"/>
    <path d="M406 334.11V344.52H0V334.11H406Z" fill="#EEF1F8"/>
    <path d="M335.11 144.2H358.82V163.08H335.11V144.2Z" fill="#DDE3F0"/>
    <path d="M308 144.2H335.1V163.08H308V144.2Z" fill="#DDE3F0"/>
    <path d="M248.49 144.2H272.2V163.08H248.49V144.2Z" fill="#DDE3F0"/>
    <path d="M221.39 144.2H248.49V163.08H221.39V144.2Z" fill="#DDE3F0"/>
    <path d="M162.83 143.24H186.55V162.11H162.83V143.24Z" fill="#DDE3F0"/>
    <path d="M135.74 143.24H162.83V162.11H135.74V143.24Z" fill="#DDE3F0"/>
    <path d="M74.3599 143H98.0799V161.87H74.3599V143Z" fill="#DDE3F0"/>
    <path d="M47.27 143H74.36V161.87H47.27V143Z" fill="#DDE3F0"/>
    </g>
    <defs>
    <linearGradient id="paint0_linear_2824_10659" x1="405.16" y1="75.61" x2="7.21018" y2="75.61" gradientUnits="userSpaceOnUse">
    <stop stop-color="#4D7EF2"/>
    <stop offset="1" stop-color="#5FD4F4"/>
    </linearGradient>
    <clipPath id="clip0_2824_10659">
    <rect width="406" height="344.52" fill="white"/>
    </clipPath>
    </defs>
</svg>
