<svg width="414" height="395" viewBox="0 0 414 395" fill="none" xmlns="http://www.w3.org/2000/svg">
    <g opacity="0.3" clip-path="url(#clip0_1763_9773)">
    <path d="M-145.445 387.348C-67.7159 367.717 59.2677 318.905 198.012 197.669C589.929 -182.575 978.131 -396.13 978.131 -396.13C978.131 -396.13 999 -407.361 999 -363.589C999 -362.704 999 -361.82 999 -360.936C998.027 -341.747 988.477 -90.9627 811.885 198.376C806.933 206.423 622.559 537.5 388.753 593.299C387.692 593.299 386.808 594.183 385.747 594.537C363.286 602.761 110.822 687.476 -161.627 459.241L-163.661 457.384C-169.062 452.317 -172.998 445.889 -175.055 438.775C-177.111 431.661 -177.213 424.124 -175.349 416.957C-173.485 409.79 -169.724 403.258 -164.461 398.048C-159.199 392.837 -152.63 389.141 -145.445 387.348Z" fill="url(#paint0_linear_1763_9773)"/>
    <path fill-rule="evenodd" clip-rule="evenodd" d="M-564.954 -396.484C-564.954 -396.484 -176.663 -182.928 215.253 197.315C353.998 318.905 682.245 383.016 682.245 382.75C621.17 451.016 595.471 473.477 591.866 476.628C591.614 476.849 591.469 476.975 591.429 477.015C546.738 519.849 499.369 550.91 451.817 573.075C426.77 585.196 400.984 594.518 375.204 601.601C269.551 631.744 169.76 624.806 104.134 613.411C93.4853 611.785 85.2614 610.263 79.958 609.216C48.1332 602.819 16.9551 593.673 -13.2291 581.894C-27.6843 576.578 -41.913 570.286 -55.8819 563.171C-56.3199 562.956 -56.7576 562.741 -57.1951 562.526C-234.669 480.7 -384.166 225.948 -412.719 175.015C-422.261 158.644 -431.277 142.415 -439.795 126.363C-578.859 -132.489 -585.329 -335.908 -585.631 -354.278C-585.786 -356.938 -585.886 -358.97 -585.953 -360.344C-585.971 -360.705 -585.986 -361.02 -586 -361.289V-363.942C-585.998 -364.328 -585.994 -364.71 -585.988 -365.088C-585.967 -384.716 -580.889 -392.946 -577.421 -395.334L-577.064 -395.564C-571.331 -399.93 -564.954 -396.484 -564.954 -396.484Z" fill="url(#paint1_linear_1763_9773)"/>
    </g>
    <defs>
    <linearGradient id="paint0_linear_1763_9773" x1="-212.253" y1="114.626" x2="970.983" y2="102.615" gradientUnits="userSpaceOnUse">
    <stop offset="0.07" stop-color="#5FD4F4"/>
    <stop offset="0.24" stop-color="#5BBFF4"/>
    <stop offset="0.56" stop-color="#539CF3"/>
    <stop offset="0.83" stop-color="#4F86F2"/>
    <stop offset="1" stop-color="#4D7EF2"/>
    </linearGradient>
    <linearGradient id="paint1_linear_1763_9773" x1="-624.378" y1="117.729" x2="652.002" y2="103.846" gradientUnits="userSpaceOnUse">
    <stop offset="0.07" stop-color="#5FD4F4"/>
    <stop offset="0.24" stop-color="#5BBFF4"/>
    <stop offset="0.56" stop-color="#539CF3"/>
    <stop offset="0.83" stop-color="#4F86F2"/>
    <stop offset="1" stop-color="#4D7EF2"/>
    </linearGradient>
    <clipPath id="clip0_1763_9773">
    <rect width="414" height="395" fill="white"/>
    </clipPath>
    </defs>
</svg>
