<svg width="48" height="48" viewBox="0 0 48 48" fill="none" xmlns="http://www.w3.org/2000/svg">
<circle r="24" transform="matrix(-1 0 0 1 24 24)" fill="#FAA942"/>
<path fill-rule="evenodd" clip-rule="evenodd" d="M23.9376 17.7358C23.7033 17.5015 23.3234 17.5015 23.0891 17.7358L17.2498 23.575C17.0155 23.8094 17.0155 24.1893 17.2498 24.4236L23.0891 30.2628C23.3234 30.4971 23.7033 30.4971 23.9376 30.2628C24.1719 30.0285 24.1719 29.6486 23.9376 29.4143L19.1226 24.5993L30.3258 24.5993C30.6572 24.5993 30.9258 24.3307 30.9258 23.9993C30.9258 23.6679 30.6572 23.3993 30.3258 23.3993L19.1226 23.3993L23.9376 18.5843C24.1719 18.35 24.1719 17.9701 23.9376 17.7358Z" fill="white"/>
</svg>
