<svg width="48" height="48" viewBox="0 0 48 48" fill="none" xmlns="http://www.w3.org/2000/svg">
<circle cx="24" cy="24" r="24" fill="#FAA942"/>
<path fill-rule="evenodd" clip-rule="evenodd" d="M24.0624 17.7358C24.2967 17.5015 24.6766 17.5015 24.9109 17.7358L30.7502 23.575C30.9845 23.8094 30.9845 24.1893 30.7502 24.4236L24.9109 30.2628C24.6766 30.4971 24.2967 30.4971 24.0624 30.2628C23.8281 30.0285 23.8281 29.6486 24.0624 29.4143L28.8774 24.5993L17.6742 24.5993C17.3428 24.5993 17.0742 24.3307 17.0742 23.9993C17.0742 23.6679 17.3428 23.3993 17.6742 23.3993L28.8774 23.3993L24.0624 18.5843C23.8281 18.35 23.8281 17.9701 24.0624 17.7358Z" fill="white"/>
</svg>
