<svg width="156" height="113" viewBox="0 0 156 113" fill="none" xmlns="http://www.w3.org/2000/svg">
    <path d="M144.353 106C147.989 97.3929 150 87.9313 150 78C150 38.2355 117.765 6 78 6C38.2355 6 6 38.2355 6 78C6 87.9313 8.01072 97.3929 11.6473 106" stroke="#DDE3F0" stroke-width="12" stroke-linecap="round"/>
    <path d="M11.6592 106C8.01495 97.3929 6 87.9313 6 78C6 38.2355 38.3034 6 78.1516 6C89.1885 6 99.6467 8.47296 109 12.8939" stroke="url(#paint0_linear_513_371)" stroke-width="12" stroke-linecap="round"/>
    <path d="M57.5951 95.106L56.8951 95.974C57.2871 95.778 57.7071 95.6287 58.1551 95.526C58.6124 95.414 59.1024 95.358 59.6251 95.358C60.3904 95.358 61.1324 95.484 61.8511 95.736C62.5791 95.988 63.2184 96.3707 63.7691 96.884C64.3198 97.388 64.7631 98.018 65.0991 98.774C65.4351 99.53 65.6031 100.412 65.6031 101.42C65.6031 102.363 65.4304 103.249 65.0851 104.08C64.7398 104.901 64.2544 105.62 63.6291 106.236C63.0038 106.852 62.2478 107.337 61.3611 107.692C60.4838 108.047 59.5131 108.224 58.4491 108.224C57.3664 108.224 56.3958 108.051 55.5371 107.706C54.6784 107.361 53.9458 106.88 53.3391 106.264C52.7324 105.639 52.2658 104.892 51.9391 104.024C51.6218 103.147 51.4631 102.176 51.4631 101.112C51.4631 100.16 51.6544 99.1847 52.0371 98.186C52.4291 97.178 53.0311 96.1327 53.8431 95.05L58.6731 88.568C58.8411 88.344 59.0838 88.1527 59.4011 87.994C59.7278 87.8353 60.1011 87.756 60.5211 87.756H63.6011L57.5951 95.106ZM58.3791 105.396C58.9298 105.396 59.4338 105.303 59.8911 105.116C60.3578 104.929 60.7544 104.668 61.0811 104.332C61.4171 103.996 61.6784 103.604 61.8651 103.156C62.0518 102.699 62.1451 102.204 62.1451 101.672C62.1451 101.093 62.0564 100.575 61.8791 100.118C61.7018 99.6513 61.4498 99.2593 61.1231 98.942C60.7964 98.6153 60.4044 98.368 59.9471 98.2C59.4898 98.032 58.9858 97.948 58.4351 97.948C57.8844 97.948 57.3851 98.0413 56.9371 98.228C56.4891 98.4147 56.1064 98.676 55.7891 99.012C55.4718 99.3387 55.2244 99.7307 55.0471 100.188C54.8698 100.636 54.7811 101.121 54.7811 101.644C54.7811 102.204 54.8558 102.717 55.0051 103.184C55.1638 103.641 55.3924 104.033 55.6911 104.36C55.9991 104.687 56.3771 104.943 56.8251 105.13C57.2731 105.307 57.7911 105.396 58.3791 105.396ZM82.0693 97.878C82.0693 99.642 81.878 101.177 81.4953 102.484C81.122 103.781 80.5993 104.855 79.9273 105.704C79.2646 106.553 78.476 107.188 77.5613 107.608C76.656 108.019 75.676 108.224 74.6213 108.224C73.5666 108.224 72.5866 108.019 71.6813 107.608C70.7853 107.188 70.006 106.553 69.3433 105.704C68.6806 104.855 68.1626 103.781 67.7893 102.484C67.416 101.177 67.2293 99.642 67.2293 97.878C67.2293 96.1047 67.416 94.5693 67.7893 93.272C68.1626 91.9747 68.6806 90.9013 69.3433 90.052C70.006 89.2027 70.7853 88.5727 71.6813 88.162C72.5866 87.742 73.5666 87.532 74.6213 87.532C75.676 87.532 76.656 87.742 77.5613 88.162C78.476 88.5727 79.2646 89.2027 79.9273 90.052C80.5993 90.9013 81.122 91.9747 81.4953 93.272C81.878 94.5693 82.0693 96.1047 82.0693 97.878ZM78.4993 97.878C78.4993 96.4127 78.392 95.1993 78.1773 94.238C77.9626 93.2767 77.6733 92.5113 77.3093 91.942C76.9546 91.3727 76.544 90.976 76.0773 90.752C75.6106 90.5187 75.1253 90.402 74.6213 90.402C74.1266 90.402 73.646 90.5187 73.1793 90.752C72.722 90.976 72.316 91.3727 71.9613 91.942C71.6066 92.5113 71.322 93.2767 71.1073 94.238C70.902 95.1993 70.7993 96.4127 70.7993 97.878C70.7993 99.3433 70.902 100.557 71.1073 101.518C71.322 102.479 71.6066 103.245 71.9613 103.814C72.316 104.383 72.722 104.785 73.1793 105.018C73.646 105.242 74.1266 105.354 74.6213 105.354C75.1253 105.354 75.6106 105.242 76.0773 105.018C76.544 104.785 76.9546 104.383 77.3093 103.814C77.6733 103.245 77.9626 102.479 78.1773 101.518C78.392 100.557 78.4993 99.3433 78.4993 97.878ZM93.2015 92.656C93.2015 93.4213 93.0708 94.112 92.8095 94.728C92.5575 95.344 92.2168 95.8713 91.7875 96.31C91.3582 96.7393 90.8588 97.0707 90.2895 97.304C89.7202 97.5373 89.1275 97.654 88.5115 97.654C87.8395 97.654 87.2188 97.5373 86.6495 97.304C86.0802 97.0707 85.5855 96.7393 85.1655 96.31C84.7548 95.8713 84.4328 95.344 84.1995 94.728C83.9662 94.112 83.8495 93.4213 83.8495 92.656C83.8495 91.872 83.9662 91.1627 84.1995 90.528C84.4328 89.8933 84.7548 89.3567 85.1655 88.918C85.5855 88.4793 86.0802 88.1433 86.6495 87.91C87.2188 87.6673 87.8395 87.546 88.5115 87.546C89.1835 87.546 89.8042 87.6673 90.3735 87.91C90.9522 88.1433 91.4515 88.4793 91.8715 88.918C92.2915 89.3567 92.6182 89.8933 92.8515 90.528C93.0848 91.1627 93.2015 91.872 93.2015 92.656ZM90.5415 92.656C90.5415 92.1147 90.4855 91.662 90.3735 91.298C90.2708 90.934 90.1262 90.64 89.9395 90.416C89.7622 90.192 89.5475 90.0333 89.2955 89.94C89.0528 89.8373 88.7915 89.786 88.5115 89.786C88.2315 89.786 87.9702 89.8373 87.7275 89.94C87.4848 90.0333 87.2748 90.192 87.0975 90.416C86.9295 90.64 86.7942 90.934 86.6915 91.298C86.5888 91.662 86.5375 92.1147 86.5375 92.656C86.5375 93.1787 86.5888 93.6173 86.6915 93.972C86.7942 94.3173 86.9295 94.5973 87.0975 94.812C87.2748 95.0267 87.4848 95.1807 87.7275 95.274C87.9702 95.3673 88.2315 95.414 88.5115 95.414C88.7915 95.414 89.0528 95.3673 89.2955 95.274C89.5475 95.1807 89.7622 95.0267 89.9395 94.812C90.1262 94.5973 90.2708 94.3173 90.3735 93.972C90.4855 93.6173 90.5415 93.1787 90.5415 92.656ZM99.9355 88.302C100.057 88.162 100.197 88.036 100.355 87.924C100.523 87.812 100.757 87.756 101.055 87.756H103.575L88.5395 107.482C88.4182 107.631 88.2735 107.757 88.1055 107.86C87.9375 107.953 87.7322 108 87.4895 108H84.9135L99.9355 88.302ZM104.639 103.24C104.639 104.005 104.509 104.696 104.247 105.312C103.995 105.928 103.655 106.455 103.225 106.894C102.796 107.323 102.297 107.659 101.727 107.902C101.158 108.135 100.565 108.252 99.9495 108.252C99.2775 108.252 98.6568 108.135 98.0875 107.902C97.5182 107.659 97.0235 107.323 96.6035 106.894C96.1928 106.455 95.8708 105.928 95.6375 105.312C95.4042 104.696 95.2875 104.005 95.2875 103.24C95.2875 102.456 95.4042 101.747 95.6375 101.112C95.8708 100.477 96.1928 99.9407 96.6035 99.502C97.0235 99.0633 97.5182 98.7273 98.0875 98.494C98.6568 98.2513 99.2775 98.13 99.9495 98.13C100.621 98.13 101.242 98.2513 101.811 98.494C102.39 98.7273 102.885 99.0633 103.295 99.502C103.715 99.9407 104.042 100.477 104.275 101.112C104.518 101.747 104.639 102.456 104.639 103.24ZM101.965 103.24C101.965 102.699 101.914 102.246 101.811 101.882C101.709 101.518 101.564 101.224 101.377 101C101.2 100.776 100.985 100.617 100.733 100.524C100.491 100.421 100.229 100.37 99.9495 100.37C99.6695 100.37 99.4082 100.421 99.1655 100.524C98.9228 100.617 98.7128 100.776 98.5355 101C98.3582 101.224 98.2182 101.518 98.1155 101.882C98.0222 102.246 97.9755 102.699 97.9755 103.24C97.9755 103.763 98.0222 104.201 98.1155 104.556C98.2182 104.911 98.3582 105.195 98.5355 105.41C98.7128 105.625 98.9228 105.779 99.1655 105.872C99.4082 105.965 99.6695 106.012 99.9495 106.012C100.229 106.012 100.491 105.965 100.733 105.872C100.985 105.779 101.2 105.625 101.377 105.41C101.564 105.195 101.709 104.911 101.811 104.556C101.914 104.201 101.965 103.763 101.965 103.24Z" fill="url(#paint1_linear_513_371)"/>
    <defs>
    <linearGradient id="paint0_linear_513_371" x1="-19.4268" y1="55.9988" x2="132.918" y2="55.9988" gradientUnits="userSpaceOnUse">
    <stop stop-color="#4D7EF2"/>
    <stop offset="1" stop-color="#5FD4F4"/>
    </linearGradient>
    <linearGradient id="paint1_linear_513_371" x1="36.1757" y1="96.9996" x2="119.004" y2="96.9996" gradientUnits="userSpaceOnUse">
    <stop stop-color="#4D7EF2"/>
    <stop offset="1" stop-color="#5FD4F4"/>
    </linearGradient>
    </defs>
</svg>
