<svg width="180" height="130" viewBox="0 0 180 130" fill="none" xmlns="http://www.w3.org/2000/svg">
<g clip-path="url(#clip0_4329_10234)">
<path d="M156.353 123C159.989 114.393 162 104.931 162 95C162 55.2355 129.765 23 90 23C50.2355 23 18 55.2355 18 95C18 104.931 20.0107 114.393 23.6473 123" stroke="#DDE3F0" stroke-width="12" stroke-linecap="round"/>
<path d="M23.6592 124C20.015 115.393 18 105.931 18 96C18 87.9572 19.3215 80.2224 21.7597 73" stroke="url(#paint0_linear_4329_10234)" stroke-width="12" stroke-linecap="round"/>
<path d="M76.7771 122.41V125H65.5771V122.41H69.6791V110.608C69.6791 110.141 69.6931 109.661 69.7211 109.166L66.8091 111.602C66.6411 111.733 66.4731 111.817 66.3051 111.854C66.1464 111.882 65.9924 111.882 65.8431 111.854C65.7031 111.826 65.5771 111.779 65.4651 111.714C65.3531 111.639 65.2691 111.56 65.2131 111.476L64.1211 109.978L70.2951 104.728H73.1371V122.41H76.7771ZM93.8173 104.756V106.254C93.8173 106.702 93.7706 107.066 93.6773 107.346C93.584 107.617 93.4906 107.845 93.3973 108.032L85.7253 123.824C85.5666 124.151 85.3426 124.431 85.0533 124.664C84.764 124.888 84.3766 125 83.8913 125H81.3853L89.2113 109.53C89.3886 109.213 89.5613 108.923 89.7293 108.662C89.9066 108.391 90.1026 108.135 90.3173 107.892H80.6293C80.4146 107.892 80.228 107.813 80.0693 107.654C79.9106 107.495 79.8313 107.309 79.8313 107.094V104.756H93.8173ZM105.201 109.656C105.201 110.421 105.071 111.112 104.809 111.728C104.557 112.344 104.217 112.871 103.787 113.31C103.358 113.739 102.859 114.071 102.289 114.304C101.72 114.537 101.127 114.654 100.511 114.654C99.8395 114.654 99.2188 114.537 98.6495 114.304C98.0802 114.071 97.5855 113.739 97.1655 113.31C96.7548 112.871 96.4328 112.344 96.1995 111.728C95.9662 111.112 95.8495 110.421 95.8495 109.656C95.8495 108.872 95.9662 108.163 96.1995 107.528C96.4328 106.893 96.7548 106.357 97.1655 105.918C97.5855 105.479 98.0802 105.143 98.6495 104.91C99.2188 104.667 99.8395 104.546 100.511 104.546C101.183 104.546 101.804 104.667 102.373 104.91C102.952 105.143 103.451 105.479 103.871 105.918C104.291 106.357 104.618 106.893 104.851 107.528C105.085 108.163 105.201 108.872 105.201 109.656ZM102.541 109.656C102.541 109.115 102.485 108.662 102.373 108.298C102.271 107.934 102.126 107.64 101.939 107.416C101.762 107.192 101.547 107.033 101.295 106.94C101.053 106.837 100.791 106.786 100.511 106.786C100.231 106.786 99.9702 106.837 99.7275 106.94C99.4848 107.033 99.2748 107.192 99.0975 107.416C98.9295 107.64 98.7942 107.934 98.6915 108.298C98.5888 108.662 98.5375 109.115 98.5375 109.656C98.5375 110.179 98.5888 110.617 98.6915 110.972C98.7942 111.317 98.9295 111.597 99.0975 111.812C99.2748 112.027 99.4848 112.181 99.7275 112.274C99.9702 112.367 100.231 112.414 100.511 112.414C100.791 112.414 101.053 112.367 101.295 112.274C101.547 112.181 101.762 112.027 101.939 111.812C102.126 111.597 102.271 111.317 102.373 110.972C102.485 110.617 102.541 110.179 102.541 109.656ZM111.935 105.302C112.057 105.162 112.197 105.036 112.355 104.924C112.523 104.812 112.757 104.756 113.055 104.756H115.575L100.539 124.482C100.418 124.631 100.273 124.757 100.105 124.86C99.9375 124.953 99.7322 125 99.4895 125H96.9135L111.935 105.302ZM116.639 120.24C116.639 121.005 116.509 121.696 116.247 122.312C115.995 122.928 115.655 123.455 115.225 123.894C114.796 124.323 114.297 124.659 113.727 124.902C113.158 125.135 112.565 125.252 111.949 125.252C111.277 125.252 110.657 125.135 110.087 124.902C109.518 124.659 109.023 124.323 108.603 123.894C108.193 123.455 107.871 122.928 107.637 122.312C107.404 121.696 107.287 121.005 107.287 120.24C107.287 119.456 107.404 118.747 107.637 118.112C107.871 117.477 108.193 116.941 108.603 116.502C109.023 116.063 109.518 115.727 110.087 115.494C110.657 115.251 111.277 115.13 111.949 115.13C112.621 115.13 113.242 115.251 113.811 115.494C114.39 115.727 114.885 116.063 115.295 116.502C115.715 116.941 116.042 117.477 116.275 118.112C116.518 118.747 116.639 119.456 116.639 120.24ZM113.965 120.24C113.965 119.699 113.914 119.246 113.811 118.882C113.709 118.518 113.564 118.224 113.377 118C113.2 117.776 112.985 117.617 112.733 117.524C112.491 117.421 112.229 117.37 111.949 117.37C111.669 117.37 111.408 117.421 111.165 117.524C110.923 117.617 110.713 117.776 110.535 118C110.358 118.224 110.218 118.518 110.115 118.882C110.022 119.246 109.975 119.699 109.975 120.24C109.975 120.763 110.022 121.201 110.115 121.556C110.218 121.911 110.358 122.195 110.535 122.41C110.713 122.625 110.923 122.779 111.165 122.872C111.408 122.965 111.669 123.012 111.949 123.012C112.229 123.012 112.491 122.965 112.733 122.872C112.985 122.779 113.2 122.625 113.377 122.41C113.564 122.195 113.709 121.911 113.811 121.556C113.914 121.201 113.965 120.763 113.965 120.24Z" fill="url(#paint1_linear_4329_10234)"/>
</g>
<defs>
<linearGradient id="paint0_linear_4329_10234" x1="21" y1="125.5" x2="21" y2="74.5" gradientUnits="userSpaceOnUse">
<stop stop-color="#4D7EF2"/>
<stop offset="1" stop-color="#5FD4F4"/>
</linearGradient>
<linearGradient id="paint1_linear_4329_10234" x1="48.1757" y1="114" x2="131.004" y2="114" gradientUnits="userSpaceOnUse">
<stop stop-color="#4D7EF2"/>
<stop offset="1" stop-color="#5FD4F4"/>
</linearGradient>
<clipPath id="clip0_4329_10234">
<rect width="180" height="130" fill="white"/>
</clipPath>
</defs>
</svg>
