<svg width="180" height="114" viewBox="0 0 180 114" fill="none" xmlns="http://www.w3.org/2000/svg">
    <path d="M156.353 107C159.989 98.3929 162 88.9313 162 79C162 39.2355 129.765 7 90 7C50.2355 7 18 39.2355 18 79C18 88.9313 20.0107 98.3929 23.6473 107" stroke="#DDE3F0" stroke-width="12" stroke-linecap="round"/>
    <path d="M23.6592 107C20.015 98.3929 18 88.9313 18 79C18 39.2355 50.3034 7 90.1516 7C122.458 7 149.806 28.1888 159 57.4" stroke="url(#paint0_linear_605_843)" stroke-width="12" stroke-linecap="round"/>
    <path d="M70.4071 106.522C70.9764 106.522 71.4758 106.443 71.9051 106.284C72.3344 106.116 72.6938 105.887 72.9831 105.598C73.2818 105.309 73.5058 104.963 73.6551 104.562C73.8044 104.161 73.8791 103.727 73.8791 103.26C73.8791 102.149 73.5711 101.309 72.9551 100.74C72.3391 100.171 71.4898 99.886 70.4071 99.886C69.3244 99.886 68.4751 100.171 67.8591 100.74C67.2431 101.309 66.9351 102.149 66.9351 103.26C66.9351 103.727 67.0098 104.161 67.1591 104.562C67.3084 104.963 67.5278 105.309 67.8171 105.598C68.1158 105.887 68.4798 106.116 68.9091 106.284C69.3384 106.443 69.8378 106.522 70.4071 106.522ZM70.4071 91.136C69.8938 91.136 69.4504 91.2153 69.0771 91.374C68.7038 91.5327 68.3911 91.7473 68.1391 92.018C67.8964 92.2793 67.7144 92.5827 67.5931 92.928C67.4811 93.2733 67.4251 93.6373 67.4251 94.02C67.4251 94.4213 67.4718 94.8133 67.5651 95.196C67.6678 95.5693 67.8358 95.9053 68.0691 96.204C68.3024 96.4933 68.6104 96.7267 68.9931 96.904C69.3758 97.0813 69.8471 97.17 70.4071 97.17C70.9671 97.17 71.4384 97.0813 71.8211 96.904C72.2038 96.7267 72.5118 96.4933 72.7451 96.204C72.9784 95.9053 73.1418 95.5693 73.2351 95.196C73.3378 94.8133 73.3891 94.4213 73.3891 94.02C73.3891 93.6373 73.3284 93.2733 73.2071 92.928C73.0858 92.5827 72.9038 92.2793 72.6611 92.018C72.4184 91.7473 72.1104 91.5327 71.7371 91.374C71.3638 91.2153 70.9204 91.136 70.4071 91.136ZM73.8231 98.444C75.0551 98.8453 75.9651 99.4613 76.5531 100.292C77.1411 101.113 77.4351 102.121 77.4351 103.316C77.4351 104.212 77.2624 105.024 76.9171 105.752C76.5811 106.48 76.1051 107.101 75.4891 107.614C74.8731 108.127 74.1311 108.524 73.2631 108.804C72.4044 109.084 71.4524 109.224 70.4071 109.224C69.3618 109.224 68.4051 109.084 67.5371 108.804C66.6784 108.524 65.9411 108.127 65.3251 107.614C64.7091 107.101 64.2284 106.48 63.8831 105.752C63.5471 105.024 63.3791 104.212 63.3791 103.316C63.3791 102.121 63.6731 101.113 64.2611 100.292C64.8491 99.4613 65.7591 98.8453 66.9911 98.444C66.0111 98.0333 65.2738 97.45 64.7791 96.694C64.2938 95.938 64.0511 95.028 64.0511 93.964C64.0511 93.1987 64.2051 92.4847 64.5131 91.822C64.8304 91.1593 65.2691 90.5853 65.8291 90.1C66.3891 89.6053 67.0564 89.2227 67.8311 88.952C68.6151 88.672 69.4738 88.532 70.4071 88.532C71.3404 88.532 72.1944 88.672 72.9691 88.952C73.7531 89.2227 74.4251 89.6053 74.9851 90.1C75.5451 90.5853 75.9791 91.1593 76.2871 91.822C76.6044 92.4847 76.7631 93.1987 76.7631 93.964C76.7631 95.028 76.5158 95.938 76.0211 96.694C75.5358 97.45 74.8031 98.0333 73.8231 98.444ZM93.0193 106.41V109H81.8193V106.41H85.9213V94.608C85.9213 94.1413 85.9353 93.6607 85.9633 93.166L83.0513 95.602C82.8833 95.7327 82.7153 95.8167 82.5473 95.854C82.3886 95.882 82.2346 95.882 82.0853 95.854C81.9453 95.826 81.8193 95.7793 81.7073 95.714C81.5953 95.6393 81.5113 95.56 81.4553 95.476L80.3633 93.978L86.5373 88.728H89.3793V106.41H93.0193ZM105.201 93.656C105.201 94.4213 105.071 95.112 104.809 95.728C104.557 96.344 104.217 96.8713 103.787 97.31C103.358 97.7393 102.859 98.0707 102.289 98.304C101.72 98.5373 101.127 98.654 100.511 98.654C99.8395 98.654 99.2188 98.5373 98.6495 98.304C98.0802 98.0707 97.5855 97.7393 97.1655 97.31C96.7548 96.8713 96.4328 96.344 96.1995 95.728C95.9662 95.112 95.8495 94.4213 95.8495 93.656C95.8495 92.872 95.9662 92.1627 96.1995 91.528C96.4328 90.8933 96.7548 90.3567 97.1655 89.918C97.5855 89.4793 98.0802 89.1433 98.6495 88.91C99.2188 88.6673 99.8395 88.546 100.511 88.546C101.183 88.546 101.804 88.6673 102.373 88.91C102.952 89.1433 103.451 89.4793 103.871 89.918C104.291 90.3567 104.618 90.8933 104.851 91.528C105.085 92.1627 105.201 92.872 105.201 93.656ZM102.541 93.656C102.541 93.1147 102.485 92.662 102.373 92.298C102.271 91.934 102.126 91.64 101.939 91.416C101.762 91.192 101.547 91.0333 101.295 90.94C101.053 90.8373 100.791 90.786 100.511 90.786C100.231 90.786 99.9702 90.8373 99.7275 90.94C99.4848 91.0333 99.2748 91.192 99.0975 91.416C98.9295 91.64 98.7942 91.934 98.6915 92.298C98.5888 92.662 98.5375 93.1147 98.5375 93.656C98.5375 94.1787 98.5888 94.6173 98.6915 94.972C98.7942 95.3173 98.9295 95.5973 99.0975 95.812C99.2748 96.0267 99.4848 96.1807 99.7275 96.274C99.9702 96.3673 100.231 96.414 100.511 96.414C100.791 96.414 101.053 96.3673 101.295 96.274C101.547 96.1807 101.762 96.0267 101.939 95.812C102.126 95.5973 102.271 95.3173 102.373 94.972C102.485 94.6173 102.541 94.1787 102.541 93.656ZM111.935 89.302C112.057 89.162 112.197 89.036 112.355 88.924C112.523 88.812 112.757 88.756 113.055 88.756H115.575L100.539 108.482C100.418 108.631 100.273 108.757 100.105 108.86C99.9375 108.953 99.7322 109 99.4895 109H96.9135L111.935 89.302ZM116.639 104.24C116.639 105.005 116.509 105.696 116.247 106.312C115.995 106.928 115.655 107.455 115.225 107.894C114.796 108.323 114.297 108.659 113.727 108.902C113.158 109.135 112.565 109.252 111.949 109.252C111.277 109.252 110.657 109.135 110.087 108.902C109.518 108.659 109.023 108.323 108.603 107.894C108.193 107.455 107.871 106.928 107.637 106.312C107.404 105.696 107.287 105.005 107.287 104.24C107.287 103.456 107.404 102.747 107.637 102.112C107.871 101.477 108.193 100.941 108.603 100.502C109.023 100.063 109.518 99.7273 110.087 99.494C110.657 99.2513 111.277 99.13 111.949 99.13C112.621 99.13 113.242 99.2513 113.811 99.494C114.39 99.7273 114.885 100.063 115.295 100.502C115.715 100.941 116.042 101.477 116.275 102.112C116.518 102.747 116.639 103.456 116.639 104.24ZM113.965 104.24C113.965 103.699 113.914 103.246 113.811 102.882C113.709 102.518 113.564 102.224 113.377 102C113.2 101.776 112.985 101.617 112.733 101.524C112.491 101.421 112.229 101.37 111.949 101.37C111.669 101.37 111.408 101.421 111.165 101.524C110.923 101.617 110.713 101.776 110.535 102C110.358 102.224 110.218 102.518 110.115 102.882C110.022 103.246 109.975 103.699 109.975 104.24C109.975 104.763 110.022 105.201 110.115 105.556C110.218 105.911 110.358 106.195 110.535 106.41C110.713 106.625 110.923 106.779 111.165 106.872C111.408 106.965 111.669 107.012 111.949 107.012C112.229 107.012 112.491 106.965 112.733 106.872C112.985 106.779 113.2 106.625 113.377 106.41C113.564 106.195 113.709 105.911 113.811 105.556C113.914 105.201 113.965 104.763 113.965 104.24Z" fill="url(#paint1_linear_605_843)"/>
    <defs>
    <linearGradient id="paint0_linear_605_843" x1="-16.8075" y1="56.9988" x2="191.743" y2="56.9988" gradientUnits="userSpaceOnUse">
    <stop stop-color="#4D7EF2"/>
    <stop offset="1" stop-color="#5FD4F4"/>
    </linearGradient>
    <linearGradient id="paint1_linear_605_843" x1="48.1757" y1="97.9996" x2="131.004" y2="97.9996" gradientUnits="userSpaceOnUse">
    <stop stop-color="#4D7EF2"/>
    <stop offset="1" stop-color="#5FD4F4"/>
    </linearGradient>
    </defs>
</svg>
