<svg width="840" height="531" viewBox="0 0 840 531" fill="none" xmlns="http://www.w3.org/2000/svg">
<path d="M0 218.166C0 -12.84 116.5 0.132263 322.897 0.132263C702.5 0.132263 840 -10.2179 840 265.454C840 466.683 594.089 439.81 386.072 445.536C0 456.162 0 525.536 0 218.166Z" fill="white"/>
<path d="M795.027 447.774C805.587 471.438 817.932 478.657 790.471 490.911C763.011 503.165 736.238 502.384 725.678 478.719C715.118 455.055 759.165 437.004 759.165 437.004C759.165 437.004 784.468 424.109 795.027 447.774Z" fill="white"/>
<path d="M798.468 520.347C798.468 509.062 794.789 504 808.067 504C821.345 504 832 509.062 832 520.347C832 531.632 810.991 530.993 810.991 530.993C810.991 530.993 798.468 531.632 798.468 520.347Z" fill="white"/>
</svg>
