<svg width="381" height="482" viewBox="0 0 381 482" fill="none" xmlns="http://www.w3.org/2000/svg">
<path d="M4.9502 132.594C-4.5576 399.692 -15.0524 374.087 125.215 376.046C409.782 380.02 371.25 453.83 371.25 119.216C371.25 1.42792 340.605 7.03865 175.312 1.4279C4.95009 -4.35492 9.6119 1.63446 4.9502 132.594Z" fill="white"/>
<path d="M365.264 407.745C374.885 429.304 386.132 435.882 361.114 447.046C336.095 458.209 311.703 457.498 302.082 435.938C292.462 414.378 332.592 397.933 332.592 397.933C332.592 397.933 355.644 386.185 365.264 407.745Z" fill="white"/>
<path d="M374.523 471.864C374.523 461.583 377.874 456.971 365.777 456.971C353.681 456.971 343.973 461.583 343.973 471.864C343.973 482.146 363.114 481.564 363.114 481.564C363.114 481.564 374.523 482.146 374.523 471.864Z" fill="white"/>
</svg>
