<svg width="16" height="20" viewBox="0 0 16 20" fill="none" xmlns="http://www.w3.org/2000/svg">
<path d="M2.31111 20H13.6889C14.9689 20 16 19 16 17.7586V3.96552C16 2.91379 15.5733 1.91379 14.8089 1.15517C14.0444 0.396552 12.9956 0 11.9111 0H2.31111C1.03111 0 0 1 0 2.24138V17.7586C0 19 1.03111 20 2.31111 20ZM11.9289 14.8276H4.10667C3.80444 14.8276 3.57333 14.6034 3.57333 14.3103C3.57333 14.0172 3.80444 13.7931 4.10667 13.7931H11.9289C12.2311 13.7931 12.4622 14.0172 12.4622 14.3103C12.4622 14.6034 12.2311 14.8276 11.9289 14.8276ZM14.0444 1.89655C14.4889 2.32759 14.7733 2.86207 14.88 3.44828H13.6889C12.9956 3.44828 12.4444 2.91379 12.4444 2.24138V1.08621C13.0489 1.18966 13.6 1.46552 14.0444 1.89655ZM4.07111 8.62069H11.8933C12.1956 8.62069 12.4267 8.84483 12.4267 9.13793C12.4267 9.43104 12.1956 9.65517 11.8933 9.65517H4.07111C3.76889 9.65517 3.53778 9.43104 3.53778 9.13793C3.53778 8.84483 3.76889 8.62069 4.07111 8.62069ZM4.07111 11.2069H11.8933C12.1956 11.2069 12.4267 11.431 12.4267 11.7241C12.4267 12.0172 12.1956 12.2414 11.8933 12.2414H4.07111C3.76889 12.2414 3.53778 12.0172 3.53778 11.7241C3.53778 11.431 3.76889 11.2069 4.07111 11.2069Z" fill="url(#paint0_linear_1595_6534)"/>
<defs>
<linearGradient id="paint0_linear_1595_6534" x1="-3.94979" y1="9.99976" x2="19.7155" y2="9.99976" gradientUnits="userSpaceOnUse">
<stop stop-color="#4D7EF2"/>
<stop offset="1" stop-color="#5FD4F4"/>
</linearGradient>
</defs>
</svg>
