<svg width="17" height="24" viewBox="0 0 17 24" fill="none" xmlns="http://www.w3.org/2000/svg">
<path d="M8.5 0C3.81742 0 0 3.85767 0 8.58962C0 12.9792 3.28668 16.6108 7.5 17.1141V19.2003H5C4.86749 19.1984 4.73593 19.2232 4.61296 19.2731C4.48999 19.323 4.37807 19.3972 4.2837 19.4912C4.18933 19.5852 4.11439 19.6973 4.06324 19.8208C4.0121 19.9444 3.98576 20.077 3.98576 20.2109C3.98576 20.3448 4.0121 20.4774 4.06324 20.6009C4.11439 20.7245 4.18933 20.8365 4.2837 20.9305C4.37807 21.0246 4.48999 21.0987 4.61296 21.1486C4.73593 21.1986 4.86749 21.2233 5 21.2214H7.5V22.9751C7.49813 23.109 7.52261 23.2419 7.57202 23.3662C7.62143 23.4905 7.6948 23.6036 7.78784 23.6989C7.88088 23.7943 7.99176 23.87 8.11401 23.9217C8.23627 23.9734 8.36747 24 8.5 24C8.63253 24 8.76373 23.9734 8.88599 23.9217C9.00824 23.87 9.11912 23.7943 9.21216 23.6989C9.3052 23.6036 9.37857 23.4905 9.42798 23.3662C9.47739 23.2419 9.50187 23.109 9.5 22.9751V21.2214H12C12.1325 21.2233 12.2641 21.1986 12.387 21.1486C12.51 21.0987 12.6219 21.0246 12.7163 20.9305C12.8107 20.8365 12.8856 20.7245 12.9368 20.6009C12.9879 20.4774 13.0142 20.3448 13.0142 20.2109C13.0142 20.077 12.9879 19.9444 12.9368 19.8208C12.8856 19.6973 12.8107 19.5852 12.7163 19.4912C12.6219 19.3972 12.51 19.323 12.387 19.2731C12.2641 19.2232 12.1325 19.1984 12 19.2003H9.5V17.1141C13.7133 16.6108 17 12.9792 17 8.58962C17 3.85767 13.1826 0 8.5 0ZM8.5 2.02109C12.1017 2.02109 15 4.94995 15 8.58962C15 12.2293 12.1017 15.1582 8.5 15.1582C4.8983 15.1582 2 12.2293 2 8.58962C2 4.94995 4.8983 2.02109 8.5 2.02109Z" fill="#FAA942"/>
</svg>
