<svg width="592" height="381" viewBox="0 0 592 381" fill="none" xmlns="http://www.w3.org/2000/svg">
<path d="M473.69 291.289L472.411 292.711C464.302 302.205 455.371 311.803 445.754 320.898C442.258 324.301 440.43 325.901 439.922 326.342L439.769 326.468C423.144 342.391 405.528 353.955 387.835 362.221C378.363 366.817 368.619 370.337 358.867 373.005C319.461 384.205 282.248 381.618 257.767 377.37C253.788 376.764 250.724 376.196 248.743 375.805C236.917 373.427 225.319 370.031 214.095 365.667C208.634 363.669 203.259 361.297 197.985 358.612C197.824 358.535 197.672 358.458 197.511 358.381C131.211 327.838 75.3661 232.737 64.7168 213.753C61.1614 207.656 57.8007 201.612 54.6263 195.633C2.42954 98.5628 0.228566 22.3763 0.135447 16.1414C0.0846551 15.1952 0.050794 14.4683 0.0253982 13.9714L2.38072e-06 13.6161L2.20768e-06 12.6265C2.17422e-06 12.4351 0.00846739 12.2469 0.00846735 12.0608C0.0423271 4.84591 1.92161 1.79616 3.20833 0.911209L3.33531 0.827684C5.47701 -0.805297 7.86421 0.48195 7.86421 0.48195C7.86421 0.48195 150.817 79.0394 296.123 219.038C441.378 79.1224 584.203 0.613481 584.203 0.613481C584.203 0.613481 592 -3.57761 592 12.758L592 13.7482L591.975 14.1542C591.5 23.8833 587.014 116.214 522.111 222.481L521.637 223.293L521.561 223.407C518.225 229.172 500.626 259.473 473.69 291.289Z" fill="#F7F9FC"/>
<ellipse cx="535.5" cy="274.5" rx="12.5" ry="12.5" transform="rotate(-180 535.5 274.5)" fill="#FAA942"/>
</svg>
