<svg width="410" height="456" viewBox="0 0 410 456" fill="none" xmlns="http://www.w3.org/2000/svg">
    <g clip-path="url(#clip0_1933_11950)">
    <g opacity="0.2">
    <path d="M301.927 157.417C311.805 157.417 319.813 151.572 319.813 144.363C319.813 137.154 311.805 131.31 301.927 131.31C292.049 131.31 284.041 137.154 284.041 144.363C284.041 151.572 292.049 157.417 301.927 157.417Z" fill="#DAADAC"/>
    <path d="M175.81 157.417C185.688 157.417 193.696 151.572 193.696 144.363C193.696 137.154 185.688 131.31 175.81 131.31C165.932 131.31 157.924 137.154 157.924 144.363C157.924 151.572 165.932 157.417 175.81 157.417Z" fill="#DAADAC"/>
    </g>
    <path d="M473.077 456C469.472 441.638 465.008 427.528 459.295 413.834C454.47 402.256 448.758 391.179 441.382 380.965C429.652 364.711 415.814 350.516 400.424 337.742C373.776 315.587 343.744 299.639 311.355 287.867C309.469 287.171 307.611 286.447 305.698 285.89C303.008 285.139 302.121 285.473 300.873 287.95C296.103 297.413 288.588 304.065 279.465 309.047C268.262 315.17 256.144 317.869 243.555 318.315C229.717 318.816 216.24 316.422 203.429 311.051C191.283 305.957 180.718 298.693 172.815 287.922C172.454 287.421 172.094 286.892 171.65 286.475C170.07 285 168.406 284.554 166.215 285.334C146.721 292.208 127.837 300.53 109.951 310.939C87.1841 324.187 66.5251 340.274 48.5837 359.701C38.379 370.722 29.1725 382.495 22.0736 395.827C11.9521 414.864 5.29685 435.209 -0.0273438 456.028H473.077V456Z" fill="#56C3F3"/>
    <path d="M358.495 456.001C357.774 453.857 356.998 451.714 356.027 449.683C348.152 432.928 340.166 416.201 332.152 399.502C331.098 397.275 329.767 395.188 328.519 393.045C328.048 392.237 327.521 391.486 326.911 390.79C325.829 389.538 324.47 389.538 323.306 390.679C322.169 391.764 321.476 393.156 320.81 394.547C318.065 400.253 315.236 405.931 312.63 411.692C306.307 425.608 298.959 439.023 292.913 453.078C292.747 453.496 292.498 453.913 292.193 454.247C291.804 454.665 291.361 454.609 291.111 454.08C290.806 453.384 290.556 452.661 290.279 451.937C284.345 435.349 277.634 419.095 270.591 402.981C269.232 399.891 267.624 396.858 265.904 393.963C264.379 391.347 262.799 391.263 260.802 393.434C260.164 394.102 259.61 394.854 259.083 395.605C257.031 398.5 254.979 401.394 253.01 404.344C246.965 413.501 242.14 423.354 237.231 433.178C234.015 439.663 230.826 446.176 227.553 452.828C226.25 452.021 226.056 451.046 225.696 450.211C218.319 432.705 208.974 416.117 201.127 398.834C200.433 397.303 199.574 395.8 198.742 394.325C198.381 393.657 197.938 392.989 197.438 392.404C196.302 391.068 195.054 390.929 193.889 392.182C192.752 393.406 191.698 394.77 190.755 396.19C186.125 402.953 182.131 410.078 178.748 417.565C174.117 427.835 169.486 438.105 165.493 448.653C164.966 450.017 164.745 451.575 163.497 452.577C163.219 452.327 162.914 452.16 162.803 451.909C157.923 441.751 153.042 431.592 148.19 421.433C144.529 413.752 140.675 406.209 136.266 398.945C134.824 396.579 133.271 394.269 131.524 392.098C129.888 390.094 128.03 390.178 126.56 392.237C125.035 394.353 123.704 396.635 122.345 398.889C110.948 417.592 100.937 437.13 90.0117 456.112H358.495V456.001Z" fill="#001F55"/>
    <path d="M236.703 0.0275609C243.885 -0.250759 252.398 0.946018 260.8 3.03342C268.62 4.98166 275.885 8.37717 282.846 12.3572C287.976 15.3073 291.941 19.7048 296.018 23.9074C296.766 24.6867 297.515 25.4939 298.18 26.3288C299.206 27.6091 300.399 28.4441 302.118 28.2214C302.257 28.1936 302.423 28.1936 302.59 28.2214C312.378 30.3366 322.084 32.7859 331.041 37.4338C339.027 41.5808 342.798 48.3161 342.826 57.3894C342.826 65.1823 341.495 72.7526 340.303 80.3786C339.193 87.3923 337.474 94.2946 335.616 101.141C335.256 102.505 335.672 103.145 336.92 103.535C338.084 103.925 339.221 104.398 340.358 104.899C351.228 109.797 357.828 118.035 358.882 130.031C359.603 137.907 356.802 144.949 351.478 150.822C346.57 156.277 340.441 159.644 333.287 161.064C331.651 161.398 329.682 161.398 328.49 162.344C327.186 163.374 327.796 165.517 327.574 167.187C326.382 177.318 325.301 187.421 324.025 197.524C323.138 204.565 322.167 211.607 320.697 218.565C318.368 229.475 312.988 238.325 303.616 244.504C302.59 245.172 302.201 245.924 302.285 247.176C303.061 257.947 303.782 268.746 304.475 279.545C304.614 281.688 304.531 283.859 304.475 286.002C304.448 286.67 303.865 287.115 303.283 287.254C303.089 287.31 302.673 286.67 302.479 286.28C302.285 285.863 302.257 285.389 302.174 284.944C301.924 283.831 301.259 283.525 300.149 283.719C296.212 284.387 292.274 285.111 288.309 285.612C264.987 288.534 242.249 286.447 220.286 277.652C207.115 272.364 195.468 264.682 185.18 254.913C182.601 252.464 180.161 249.904 178.192 246.925C177.998 246.619 177.416 246.508 177 246.48C176.334 246.425 176.334 247.065 176.279 247.454C176.001 250.683 175.724 253.911 175.53 257.168C175.086 264.738 174.698 272.28 174.254 279.851C174.088 282.634 173.783 285.389 173.478 288.145C173.45 288.395 173.173 288.785 172.979 288.813C172.757 288.841 172.452 288.562 172.258 288.367C171.287 287.393 171.343 286.141 171.426 284.888C171.703 280.268 172.008 275.648 172.285 271.028C172.785 263.179 173.256 255.303 173.783 247.454C173.866 246.174 173.478 245.478 172.175 245.116C169.346 244.365 166.573 243.391 163.772 242.612C159.641 241.47 156.812 238.882 154.76 235.18C153.179 232.314 152.07 229.28 151.294 226.135C150.24 221.932 149.574 217.674 149.214 213.36C148.271 201.476 148.243 189.592 148.438 177.679C148.493 175.063 148.826 172.447 149.048 169.831C149.131 168.745 149.242 167.66 149.242 166.602C149.242 162.288 149.242 162.205 144.805 161.481C136.957 160.173 130.163 156.889 124.728 150.961C119.82 145.617 117.186 139.216 117.102 132.035C117.047 124.687 119.681 118.119 124.728 112.664C127.806 109.324 131.411 106.763 135.571 104.926C137.65 104.008 137.65 103.925 137.345 101.475C135.709 87.8098 134.572 74.1164 134.351 60.3674C134.267 55.2741 134.267 50.1809 135.182 45.1154C136.375 38.3523 140.229 34.0105 146.718 32.0066C155.841 29.1677 165.103 26.802 174.698 26.3845C177.582 26.2732 179.551 25.3269 181.298 23.0168C184.376 18.9533 188.064 15.4465 192.085 12.2737C200.487 5.67746 210.193 2.61594 220.536 1.00168C225.361 0.305881 230.269 0.138889 236.703 0.0275609Z" fill="white"/>
    <path d="M236.707 0.0275609C243.889 -0.250759 252.402 0.946018 260.804 3.03342C268.624 4.98166 275.889 8.37717 282.85 12.3571C287.98 15.3073 291.945 19.7048 296.021 23.9074C296.77 24.6867 297.519 25.4939 298.184 26.3288C299.21 27.6091 300.403 28.4441 302.122 28.2214C302.261 28.1936 302.427 28.1936 302.593 28.2214C312.382 30.3366 322.088 32.7859 331.045 37.4338C339.031 41.5808 342.802 48.3161 342.83 57.3894C342.83 65.1823 341.499 72.7526 340.307 80.3786C339.197 87.3923 337.478 94.2946 335.62 101.141C335.26 102.505 335.676 103.145 336.923 103.535C338.088 103.925 339.225 104.398 340.362 104.899C351.232 109.797 357.832 118.035 358.886 130.031C359.607 137.907 356.806 144.949 351.482 150.821C346.574 156.277 340.445 159.644 333.291 161.064C331.655 161.398 329.686 161.398 328.493 162.344C327.19 163.374 327.8 165.517 327.578 167.187C326.386 177.318 325.304 187.421 324.029 197.524C323.142 204.565 322.171 211.607 320.701 218.565C318.372 229.475 312.992 238.325 303.619 244.504C302.593 245.172 302.205 245.924 302.288 247.176C303.065 257.947 303.786 268.746 304.479 279.545C304.618 281.688 304.535 283.859 304.479 286.002C304.451 286.67 303.869 287.115 303.287 287.254C303.093 287.31 302.677 286.67 302.483 286.28C302.288 285.862 302.261 285.389 302.178 284.944C301.928 283.831 301.262 283.525 300.153 283.719C296.216 284.387 292.278 285.111 288.312 285.612C264.991 288.534 242.253 286.447 220.29 277.652C207.118 272.364 195.472 264.682 185.184 254.913C182.605 252.464 180.165 249.904 178.196 246.925C178.002 246.619 177.419 246.508 177.004 246.48C176.338 246.424 176.338 247.065 176.283 247.454C176.005 250.683 175.728 253.911 175.534 257.168C175.09 264.738 174.702 272.28 174.258 279.851C174.092 282.634 173.787 285.389 173.482 288.145C173.454 288.395 173.177 288.785 172.983 288.813C172.761 288.84 172.456 288.562 172.262 288.367C171.291 287.393 171.347 286.141 171.43 284.888C171.707 280.268 172.012 275.648 172.289 271.028C172.789 263.179 173.26 255.303 173.787 247.454C173.87 246.174 173.482 245.478 172.178 245.116C169.35 244.365 166.577 243.391 163.776 242.611C159.644 241.47 156.816 238.882 154.764 235.18C153.183 232.314 152.074 229.28 151.298 226.135C150.244 221.932 149.578 217.674 149.218 213.36C148.275 201.476 148.247 189.591 148.441 177.679C148.497 175.063 148.83 172.447 149.051 169.831C149.135 168.745 149.246 167.66 149.246 166.602C149.246 162.288 149.246 162.205 144.809 161.481C136.961 160.173 130.167 156.889 124.732 150.961C119.824 145.617 117.19 139.216 117.106 132.035C117.051 124.687 119.685 118.119 124.732 112.664C127.81 109.324 131.415 106.763 135.575 104.926C137.654 104.008 137.654 103.925 137.349 101.475C135.713 87.8098 134.576 74.1164 134.354 60.3674C134.271 55.2741 134.271 50.1809 135.186 45.1154C136.379 38.3523 140.233 34.0105 146.722 32.0066C155.845 29.1677 165.107 26.802 174.702 26.3845C177.586 26.2732 179.555 25.3269 181.302 23.0168C184.38 18.9533 188.068 15.4465 192.089 12.2737C200.491 5.67746 210.197 2.61594 220.54 1.00168C225.365 0.305881 230.273 0.138889 236.707 0.0275609ZM150.41 186.14C150.66 198.971 150.882 208.851 152.157 218.676C152.851 223.908 154.126 228.974 156.622 233.705C158.341 236.989 160.809 239.383 164.469 240.413C168.324 241.498 172.095 242.862 176.033 243.558C180.109 244.281 184.186 245.172 188.262 245.896C189.787 246.174 190.813 246.87 191.34 248.317C192.532 251.629 194.917 254.05 197.468 256.333C205.122 263.179 213.801 267.855 224.117 269.08C230.107 269.776 236.041 270.082 242.003 268.69C250.988 266.575 258.364 261.76 265.13 255.72C267.432 253.661 269.761 251.546 271.175 248.762C272.257 246.675 273.754 246.118 276.028 246.174C282.988 246.313 289.838 245.283 296.687 244.17C299.876 243.641 302.899 242.612 305.477 240.385C312.244 234.512 316.542 227.22 318.4 218.453C319.98 211.05 320.951 203.535 321.977 196.049C322.975 188.701 323.918 181.353 324.556 173.978C324.889 170.053 326.136 166.101 324.805 162.093C324.445 160.98 325.166 160.062 326.469 159.728C327.8 159.394 329.187 159.199 330.545 159.032C338.338 158.002 344.937 154.662 350.095 148.678C358.775 138.575 358.525 124.27 349.513 114.473C344.022 108.489 337.09 105.567 329.159 104.648C327.218 104.425 324.694 105.483 323.502 103.785C322.448 102.31 322.587 99.9724 322.226 98.0241C322.116 97.4118 322.143 96.7995 322.06 96.1872C320.84 87.1696 319.564 78.1521 317.346 69.2736C312.382 49.4016 302.732 32.3127 287.231 18.7863C284.902 16.7546 282.434 14.9177 279.716 13.4148C268.069 6.95774 255.563 3.33957 242.336 2.58811C231.382 1.94797 220.512 2.8386 209.892 5.98361C201.711 8.405 194.668 12.6355 188.622 18.5359C180.775 26.1618 174.924 35.2072 170.736 45.3103C165.773 57.3059 161.475 69.5241 157.62 81.9372C155.651 88.2551 153.433 94.5451 152.74 101.197C152.684 101.809 152.462 102.394 152.351 103.006C152.157 104.119 151.409 104.537 150.41 104.592C149.495 104.648 148.552 104.592 147.637 104.676C141.675 105.149 136.185 106.93 131.276 110.382C116.746 120.624 115.72 140.273 129.141 151.851C133.939 155.998 139.512 158.475 145.835 159.088C151.131 159.616 151.908 160.145 151.575 165.572C151.02 173.338 150.05 181.186 150.41 186.14Z" fill="#001F55"/>
    <path d="M194.61 84.9992C202.929 84.4425 211.221 85.1383 219.512 85.6115C220.593 85.6671 221.647 85.862 222.701 86.0568C225.89 86.6134 227.526 88.6452 227.831 91.7624C228.164 95.13 228.302 98.5534 228.58 101.921C228.746 103.758 229.079 104.064 230.964 103.758C234.347 103.229 237.731 103.368 241.114 103.396C244.025 103.424 244.136 103.313 244.192 100.223C244.247 97.1339 244.192 94.0446 244.247 90.9552C244.33 87.1144 245.495 85.5837 249.183 84.86C251.901 84.3312 254.674 83.9694 257.419 83.8302C270.203 83.2736 282.959 83.6076 295.742 83.8859C299.43 83.9694 303.118 84.3869 306.779 84.7209C307.832 84.8044 308.886 85.1105 309.94 85.361C312.713 86.029 314.127 87.8937 314.127 90.7047C314.127 93.9333 314.072 97.1896 313.85 100.418C313.184 109.965 312.436 119.511 310.106 128.862C309.385 131.701 308.72 134.568 307.444 137.24C305.725 140.858 303.035 143.001 298.931 143.419C285.704 144.727 272.504 144.894 259.388 142.361C256.504 141.804 253.675 141.109 251.013 139.856C247.547 138.242 245.523 135.681 244.968 131.757C244.219 126.218 244.524 120.652 244.247 115.113C244.164 113.722 244.247 112.33 244.164 110.939C244.053 109.157 243.637 108.573 242.056 108.462C238.063 108.183 234.07 108.044 230.105 108.879C228.302 109.269 228.136 109.38 227.997 111.356C227.637 116.449 226.999 121.487 226.195 126.525C225.779 129.141 224.975 131.618 224.032 134.067C222.507 137.964 219.678 140.357 215.63 141.276C213.827 141.665 211.997 142.138 210.167 142.222C199.407 142.667 188.62 142.89 177.917 141.47C174.839 141.053 171.955 139.995 169.182 138.576C166.159 137.017 164.051 134.596 163.136 131.312C160.169 120.736 158.062 109.992 158.145 98.9152C158.173 96.6051 158.311 94.2951 159.088 92.0685C160.252 88.7287 162.166 86.4743 165.993 86.2238C171.372 85.8898 176.724 85.3053 182.104 85.0548C186.291 84.86 190.451 84.9992 194.61 84.9992ZM276.83 88.5895C270.979 88.5895 265.128 88.5617 259.277 88.5895C256.504 88.5895 253.759 88.9513 251.013 89.4801C249.738 89.7306 249.155 90.4264 249.155 91.6789C249.155 92.152 249.128 92.5973 249.128 93.0705C249.183 103.257 249.183 113.471 249.322 123.658C249.35 126.107 249.793 128.584 249.96 131.033C250.098 133.121 251.263 134.429 253.065 135.264C254.036 135.709 255.034 136.154 256.088 136.433C259.804 137.407 263.575 138.158 267.402 138.576C277.08 139.633 286.73 139.383 296.435 138.687C300.484 138.381 302.619 136.6 303.728 132.926C304.838 129.224 305.67 125.467 306.418 121.682C307.943 113.917 308.221 106.04 308.886 98.1916C309.053 96.3546 309.108 94.4899 309.108 92.6252C309.108 90.6769 308.609 90.1481 306.806 89.8141C305.891 89.6471 304.976 89.6193 304.061 89.5358C294.993 88.7008 285.898 88.506 276.83 88.5895ZM195.359 89.842C193.057 89.842 190.728 89.7585 188.426 89.8698C181.965 90.1759 175.504 90.4264 169.071 90.9552C164.44 91.3171 163.663 92.2912 163.275 96.967C163.192 98.0524 163.192 99.1379 163.164 100.195C163.053 104.231 163.58 108.211 164.19 112.191C165.05 117.841 166.187 123.435 167.74 128.918C168.572 131.868 170.346 133.705 173.119 134.791C175.56 135.737 178.083 136.433 180.69 136.711C189.12 137.546 197.605 137.574 206.063 137.351C208.808 137.268 211.553 136.711 214.271 136.238C216.739 135.82 218.403 134.318 219.29 131.952C220.205 129.475 221.009 126.998 221.287 124.354C221.841 119.455 222.451 114.557 222.923 109.631C223.422 104.398 223.311 99.1379 222.756 93.9054C222.479 91.2336 221.869 90.6491 219.318 90.5099C211.359 90.0924 203.373 89.3966 195.359 89.842Z" fill="#FAA942"/>
    <path d="M288.228 78.9594C284.373 78.7367 280.546 78.5697 276.692 78.2914C274.695 78.1522 272.699 77.8739 270.758 77.4564C267.596 76.7606 266.57 75.536 266.487 72.3632C266.432 70.3593 266.543 68.3554 266.681 66.3515C266.792 64.7094 267.68 63.7631 269.205 63.5404C270.259 63.4013 271.368 63.3734 272.422 63.4291C278.106 63.7353 283.791 64.2084 289.392 65.2382C295.077 66.268 299.708 69.1347 303.618 73.3095C304.145 73.8661 304.616 74.4784 305.032 75.1464C306.197 76.9833 305.615 78.3749 303.424 78.9037C302.537 79.1264 301.594 79.2377 300.679 79.2377C296.519 79.2655 292.36 79.2655 288.2 79.2655C288.228 79.1264 288.228 79.0429 288.228 78.9594ZM287.257 76.4545C289.476 76.5101 289.697 76.1483 288.921 74.1166C288.366 72.6972 287.812 71.2499 287.229 69.8305C286.093 67.0473 285.122 66.435 282.016 66.5741C281.267 66.6019 280.879 67.0751 281.184 67.7987C282.155 70.0531 283.264 72.2518 284.151 74.5341C284.761 76.0927 285.843 76.5936 287.257 76.4545ZM268.733 69.8861C268.733 70.9716 268.65 71.9179 268.761 72.8363C268.9 74.2836 269.954 74.9516 271.229 75.2299C272.394 75.5082 273.891 76.0927 274.695 75.035C275.361 74.2001 274.279 73.0311 273.863 72.057C273.448 71.0551 273.004 70.0809 272.422 69.1625C271.728 68.0492 271.562 65.934 270.037 66.1566C267.957 66.4906 269.205 68.745 268.733 69.8861ZM282.072 75.8978C280.907 73.1981 279.742 70.5819 278.661 67.9101C278.106 66.5463 277.108 66.1845 275.805 66.101C274.39 65.9896 273.891 66.6854 274.474 68.0492C275.333 69.9975 276.331 71.89 277.163 73.8383C278.134 76.037 279.631 76.7885 282.072 75.8978ZM294.828 76.7606C296.63 76.7885 297.046 76.1762 296.353 74.5062C295.826 73.226 295.105 72.0292 294.689 70.7489C294.217 69.2182 293.136 68.5502 291.749 68.244C291.028 68.077 290.086 67.7987 289.587 68.1049C288.727 68.6337 289.559 69.4686 289.808 70.1088C290.391 71.6952 291.084 73.1981 291.722 74.7567C292.332 76.2318 293.358 76.9276 294.828 76.7606ZM298.46 72.0849C298.238 73.8104 299.098 74.9237 299.763 76.037C300.096 76.5936 300.734 76.705 301.372 76.5658C301.649 76.4823 302.01 76.3988 302.176 76.204C302.315 76.037 302.342 75.5917 302.204 75.4247C301.261 74.0888 300.096 72.9755 298.46 72.0849Z" fill="#001F55"/>
    <path d="M191.782 78.375C186.486 78.3471 182.049 78.7925 177.612 78.4028C176.392 78.2915 175.033 78.4028 174.423 77.0669C173.73 75.5639 174.728 74.4228 175.616 73.3652C178.999 69.4131 182.881 66.6577 188.344 65.8784C194.888 64.9321 201.432 64.3476 207.977 63.5962C208.726 63.5127 209.502 63.5683 210.278 63.6518C211.776 63.8467 212.525 64.5425 212.469 66.0454C212.358 68.6616 212.164 71.2778 211.859 73.8662C211.637 75.6753 210.556 76.8721 208.781 77.54C207.311 78.0688 205.842 78.3193 204.289 78.4306C199.824 78.7925 195.387 78.4585 191.782 78.375ZM198.826 76.3432C199.796 76.2876 201.044 76.6494 201.682 75.5639C203.207 72.9477 204.621 70.248 205.537 67.3257C205.703 66.7969 205.259 66.4629 204.843 66.3794C202.375 65.9341 201.1 66.5464 200.046 68.6894C199.103 70.6098 198.216 72.5303 197.384 74.5063C196.774 75.9536 197.079 76.3432 198.826 76.3432ZM191.893 76.1206C193.113 76.2319 194.167 75.8979 194.75 74.5342C195.665 72.4189 196.663 70.3315 197.578 68.2441C197.8 67.7153 197.467 67.3813 196.996 67.27C195.082 66.8804 194.029 67.2978 193.197 68.9399C192.282 70.7212 191.477 72.5581 190.673 74.3672C190.174 75.5639 190.562 76.1206 191.893 76.1206ZM185.349 76.1763C186.347 76.3432 187.401 75.9258 188.011 74.5898C188.704 73.0591 189.453 71.5283 190.119 69.9975C190.34 69.4966 190.978 68.8564 190.174 68.4389C189.703 68.1885 189.009 68.2441 188.427 68.2998C187.623 68.3833 186.93 68.7729 186.569 69.4687C185.626 71.2221 184.683 72.9756 183.824 74.7847C183.436 75.5918 183.99 76.1763 185.349 76.1763ZM210.167 68.9121C210.167 68.4111 210.223 67.938 210.14 67.4927C210.084 67.103 210.14 66.4907 209.447 66.5464C209.169 66.5742 208.781 66.7134 208.67 66.9082C207.367 69.5244 206.119 72.1684 204.899 74.8125C204.649 75.3413 205.342 76.0371 205.953 75.8979C208.67 75.397 209.28 74.7846 209.779 72.0849C209.973 71.0552 210.057 69.9697 210.167 68.9121ZM182.742 70.3037C182.465 70.3872 182.105 70.3594 181.938 70.5263C180.468 71.8901 179.054 73.2539 177.64 74.6733C177.474 74.8403 177.39 75.2578 177.446 75.5083C177.557 76.0371 178.028 76.0928 178.5 76.1484C179.47 76.2319 180.358 76.1206 180.857 75.1465C181.578 73.7827 182.299 72.4468 182.992 71.083C183.158 70.749 183.075 70.4985 182.742 70.3037Z" fill="#001F55"/>
    <path d="M222.229 172.641C224.364 172.391 227.303 172.279 230.159 171.723C235.65 170.637 241.168 170.888 246.714 171.222C248.101 171.305 249.46 171.389 250.846 171.11C252.427 170.804 253.259 169.802 253.481 168.299C253.73 166.769 253.481 165.238 253.148 163.707C252.066 158.53 250.264 153.632 247.879 148.956C247.408 148.01 246.992 147.008 246.631 146.006C246.576 145.839 246.825 145.421 247.047 145.282C247.269 145.143 247.713 145.087 247.879 145.199C248.35 145.561 248.822 146.006 249.127 146.507C252.288 152.045 254.423 157.946 255.588 164.236C255.754 165.154 255.81 166.073 255.838 166.991C255.893 171.027 254.257 173.059 250.347 173.671C249.155 173.866 247.851 173.921 246.687 173.699C240.364 172.558 234.125 173.365 227.886 174.395C224.807 174.896 221.757 174.979 218.707 174.868C214.52 174.729 212.301 172.307 212.135 168.105C212.052 166.24 212.357 164.431 212.8 162.622C214.104 157.501 216.461 152.825 218.624 148.038C218.818 147.62 219.095 147.258 219.372 146.869C219.761 146.34 220.398 145.922 220.953 146.201C221.813 146.618 221.619 147.425 221.258 148.177C219.899 151.099 218.513 154.049 217.209 157C215.962 159.838 215.102 162.789 214.52 165.822C213.688 170.081 215.767 173.003 220.121 172.669C220.537 172.613 221.008 172.641 222.229 172.641Z" fill="#001F55"/>
    <path d="M200.213 180.991C199.576 185.416 198.439 190.175 196.636 194.795C193.447 202.895 188.761 210.103 183.492 216.95C183.132 217.423 182.633 217.84 182.161 218.202C181.801 218.453 181.357 218.564 180.941 218.147C180.553 217.757 180.608 217.256 180.83 216.894C181.496 215.864 182.189 214.862 182.938 213.86C186.154 209.546 189.094 205.038 191.617 200.251C194.418 194.907 196.47 189.285 197.496 183.301C197.718 181.937 198.023 180.573 198.411 179.237C198.522 178.876 198.91 178.43 199.492 178.597C199.992 178.709 200.186 179.126 200.241 179.571C200.241 179.905 200.213 180.211 200.213 180.991Z" fill="#001F55"/>
    <path d="M272.892 172.975C273.142 173.115 273.503 173.17 273.641 173.393C273.863 173.782 274.002 174.228 274.085 174.673C275.86 184.247 279.853 192.875 285.343 200.807C287.007 203.229 288.81 205.539 290.473 207.932C290.889 208.545 291.194 209.268 291.444 209.992C291.499 210.187 291.278 210.576 291.056 210.743C290.862 210.91 290.473 210.966 290.224 210.91C289.947 210.855 289.669 210.632 289.475 210.409C281.794 200.807 275.499 190.482 272.421 178.403C272.033 176.9 271.7 175.397 271.95 173.838C272.005 173.365 272.338 173.031 272.892 172.975Z" fill="#001F55"/>
    <path d="M130.527 132.342C130.527 124.911 135.713 118.231 142.895 116.394C143.616 116.199 144.392 116.004 145.113 116.422C145.335 116.561 145.557 116.839 145.613 117.09C145.64 117.34 145.557 117.813 145.363 117.897C144.282 118.426 143.145 118.843 142.008 119.316C137.82 121.125 134.881 124.103 133.55 128.501C132.025 133.566 133.245 137.908 137.155 141.471C137.488 141.777 137.904 141.999 138.264 142.306C139.762 143.53 140.122 144.282 139.429 144.755C138.458 145.451 137.682 144.866 136.905 144.393C132.746 141.749 130.527 137.546 130.527 132.342Z" fill="#001F55"/>
    <path d="M345.572 132.23C345.6 137.601 343.409 141.748 338.861 144.615C338.39 144.921 337.724 144.977 337.142 145.032C336.92 145.06 336.56 144.782 336.421 144.559C336.31 144.337 336.31 143.891 336.449 143.724C336.809 143.251 337.225 142.75 337.724 142.444C345.822 137.434 344.796 124.966 335.423 120.039C334.203 119.399 332.844 119.037 331.596 118.481C331.208 118.314 330.792 118.008 330.57 117.674C330.348 117.312 330.348 116.811 330.875 116.505C331.624 116.059 332.372 116.226 333.093 116.393C340.248 118.091 345.517 124.799 345.572 132.23Z" fill="#001F55"/>
    <path d="M265.961 188.534C265.795 189.035 265.684 189.647 265.407 190.176C264.381 192.097 262.939 193.711 261.386 195.214C257.088 199.333 252.124 202.367 246.606 204.482C243.028 205.846 239.34 207.015 235.708 208.239C235.098 208.434 234.321 208.351 234.072 207.766C233.822 207.209 234.183 206.542 234.848 206.291C236.29 205.734 237.704 205.15 239.174 204.677C242.862 203.536 246.439 202.172 249.906 200.446C255.368 197.719 260.083 194.128 263.549 188.979C263.882 188.506 264.381 188.145 264.852 187.755C264.935 187.671 265.213 187.671 265.296 187.755C265.49 187.95 265.656 188.2 265.961 188.534Z" fill="#001F55"/>
    <path d="M264.908 205.79C264.797 206.096 264.769 206.625 264.464 206.903C263.577 207.738 262.634 208.545 261.636 209.213C258.28 211.384 254.592 212.943 250.96 214.557C250.433 214.808 249.767 214.835 249.185 214.863C248.935 214.863 248.547 214.668 248.436 214.446C248.214 214.028 248.297 213.499 248.713 213.249C249.767 212.664 250.876 212.163 251.986 211.607C255.84 209.742 259.861 208.156 263.133 205.261C263.355 205.066 263.66 204.983 263.965 204.899C264.547 204.732 264.686 205.205 264.908 205.79Z" fill="#001F55"/>
    <path d="M278.247 123.574C274.504 122.934 270.261 123.323 266.268 121.959C264.216 121.264 262.275 120.401 260.389 119.343C254.233 115.864 252.846 106.93 259.03 102.199C260.25 101.252 261.498 100.278 262.857 99.6381C272.091 95.2128 281.769 94.4335 291.641 96.8271C295.523 97.7734 298.546 100.028 300.515 103.674C303.204 108.684 303.01 115.085 296.743 118.981C295.579 119.705 294.331 120.373 293.055 120.902C289.672 122.377 282.213 123.685 278.247 123.574ZM265.547 101.058C263.412 101.865 261.554 103.145 259.834 104.704C256.035 108.155 257.061 113.972 260.417 116.393C261.526 117.2 262.746 117.812 263.966 118.48C264.327 118.675 264.937 118.842 265.186 118.647C265.436 118.48 265.547 117.812 265.436 117.451C264.022 112.747 264.354 108.071 265.575 103.395C265.741 102.672 266.185 101.948 265.547 101.058ZM293.638 117.701C295.8 117.061 296.854 116.17 297.769 115.141C299.489 113.192 300.32 110.882 299.71 108.294C299.1 105.678 297.908 103.368 295.828 101.614C295.606 101.419 295.218 101.252 294.996 101.308C294.497 101.447 294.469 101.948 294.58 102.393C295.884 107.375 296.216 112.357 293.638 117.701Z" fill="#001F55"/>
    <path d="M255.229 121.905C255.561 122.016 256.088 122.044 256.393 122.322C259.804 125.384 263.908 127.081 268.095 128.696C269.51 129.252 271.035 129.642 272.199 130.727C272.532 131.034 272.837 131.562 272.477 131.952C272.227 132.23 271.617 132.509 271.284 132.37C266.237 130.477 261.107 128.779 256.726 125.523C255.866 124.883 254.951 124.243 254.619 123.129C254.48 122.684 254.702 122.239 255.229 121.905Z" fill="#001F55"/>
    <path d="M190.423 95.6304C195.775 95.4634 201.016 96.4931 206.119 98.4692C208.725 99.4712 211.027 100.946 213.162 102.783C218.015 106.958 217.294 114.918 212.275 118.536C209.335 120.651 206.063 122.071 202.569 122.627C195.387 123.769 188.177 123.963 181.078 121.848C178.388 121.041 175.865 119.956 173.647 118.23C169.515 115.001 168.239 110.326 170.208 105.399C171.65 101.781 174.035 99.1094 177.667 97.6064C180.829 96.2983 184.156 95.686 187.567 95.6304C188.454 95.6304 189.37 95.6304 190.423 95.6304ZM171.567 109.741C171.733 113.693 174.007 116.031 177.168 117.729C177.529 117.924 178.194 118.007 178.416 117.812C178.666 117.562 178.749 116.95 178.666 116.532C177.723 112.107 177.557 107.682 178.527 103.201C178.721 102.254 179.498 100.863 178.278 100.334C177.335 99.9443 176.281 100.974 175.504 101.698C173.175 103.896 171.816 106.596 171.567 109.741ZM207.034 101.809C206.978 102.421 206.812 102.867 206.923 103.284C207.949 108.183 207.893 112.998 206.119 117.757C206.035 117.979 206.146 118.397 206.313 118.564C206.479 118.731 206.867 118.787 207.089 118.675C208.781 117.952 210.389 117.089 211.748 115.836C214.354 113.415 215.186 108.183 211.997 105.065C210.555 103.674 209.086 102.366 207.034 101.809Z" fill="#001F55"/>
    <path d="M199.632 130.505C198.217 130.505 197.746 130.254 197.718 129.809C197.69 129.447 198.079 129.057 198.301 128.696C198.384 128.584 198.578 128.556 198.716 128.529C203.347 127.387 207.951 126.218 212.11 123.714C212.498 123.491 213.025 123.602 213.358 124.02C213.663 124.437 213.497 124.855 213.219 125.244C213.136 125.356 213.025 125.495 212.914 125.578C208.672 128.668 203.736 129.67 199.632 130.505Z" fill="#001F55"/>
    </g>
    <defs>
    <clipPath id="clip0_1933_11950">
    <rect width="410" height="456" fill="white"/>
    </clipPath>
    </defs>
</svg>
