<svg width="384" height="396" viewBox="0 0 384 396" fill="none" xmlns="http://www.w3.org/2000/svg">
<path d="M266.325 174.114C274.769 174.114 281.613 166.924 281.613 158.055C281.613 149.187 274.769 141.997 266.325 141.997C257.882 141.997 251.037 149.187 251.037 158.055C251.037 166.924 257.882 174.114 266.325 174.114Z" fill="#DAADAC"/>
<path d="M163.269 174.114C171.712 174.114 178.557 166.924 178.557 158.055C178.557 149.187 171.712 141.997 163.269 141.997C154.825 141.997 147.98 149.187 147.98 158.055C147.98 166.924 154.825 174.114 163.269 174.114Z" fill="#DAADAC"/>
<path d="M373.263 167.268C371.438 171.301 369.092 174.936 366.579 178.496C364.47 181.508 362.336 184.471 360.322 187.558C355.558 194.828 353.092 202.845 353.235 211.733C353.306 215.741 352.95 219.725 352.453 223.708C351.718 229.385 349.561 234.289 345.674 238.347C343.422 240.688 340.981 242.754 338.255 244.497C335.221 246.439 332.021 248.082 328.726 249.451C321.711 252.314 314.41 254.082 306.991 255.302C300.971 256.323 294.903 256.348 288.883 255.725C278.027 254.555 267.835 250.995 258.07 245.991C257.477 245.667 256.884 245.368 256.292 245.094C256.126 245.02 255.936 244.97 255.77 244.945C255.913 242.58 256.031 240.19 256.126 237.8C256.245 235.186 256.908 233.119 258.828 231.227C259.373 230.679 259.895 230.132 260.369 229.584C260.914 229.061 261.412 228.513 261.909 227.966C268.688 220.397 274.069 211.733 278.406 202.322C278.62 201.849 278.857 201.376 279.046 200.878C279.307 200.305 279.568 199.733 279.805 199.16C283.526 190.646 286.37 181.832 288.053 172.595C288.432 170.654 288.978 169.21 291.182 168.463C301.848 164.878 308.153 156.811 311.234 145.782C312.633 140.778 312.609 135.699 310.926 130.694C308.485 123.474 303.602 119.391 296.42 118.396C293.789 118.047 291.229 118.495 288.764 119.317C288.598 115.981 288.527 112.595 288.764 109.234C289.001 106.072 289.238 102.91 289.286 99.7231C289.309 96.86 288.575 96.1878 285.801 95.8392C285.541 95.7895 285.28 95.8143 285.019 95.7895C277.174 94.8434 269.352 93.723 261.696 91.6566C250.129 88.5445 239.084 84.3619 229.816 76.0215C224.91 71.6148 219.79 67.4322 218.036 60.4114C217.894 59.789 216.97 59.6645 216.377 60.013C215.595 60.4363 215.287 61.1583 214.955 61.9052C214.149 63.6479 213.343 65.3907 212.466 67.0837C210.309 71.1169 207.655 74.6522 203.91 77.2166C197.581 81.5486 190.921 85.0341 183.502 86.8018C176.51 88.4449 169.423 88.6441 162.312 88.5694C155.225 88.4698 155.652 88.196 152.784 94.6193C148.612 103.956 143.35 112.495 135.623 119.118C135.339 119.342 135.078 119.665 134.865 119.964C125.573 117.225 116.306 121.732 113.177 131.815C111.802 136.246 111.66 140.827 112.727 145.334C115.5 157.184 122.089 165.575 133.324 169.459C134.936 170.006 135.718 170.878 135.955 172.571C136.571 176.679 137.685 180.662 138.87 184.621C141.383 193.135 144.559 201.227 148.588 208.77C148.967 209.492 149.347 210.214 149.75 210.936C154.348 219.152 159.942 226.721 166.744 233.517C166.934 233.717 167.1 233.916 167.313 234.09C168.072 234.762 168.427 235.609 168.38 236.63C168.309 238.148 168.356 239.692 168.19 241.186C167.645 246.414 167.005 251.617 166.389 256.821C166.341 257.169 166.318 257.493 166.27 257.841C166.033 257.767 165.796 257.841 165.607 258.016C163.379 259.958 160.629 260.381 157.998 261.203C153.779 262.522 149.442 262.647 145.128 263.045C136.903 263.817 128.773 263.02 120.785 261.277C108.128 258.539 95.9689 254.182 84.3785 248.007C78.3106 244.771 72.8828 240.837 68.0238 235.883C62.9041 230.629 59.3013 224.48 57.0259 217.434C53.7313 207.152 54.0157 197.044 58.6377 187.235C59.9176 184.521 61.4108 181.882 62.9041 179.293C65.0847 175.508 67.052 171.6 68.7586 167.541C71.437 161.068 72.1717 154.272 71.7925 147.276C71.3658 139.234 70.0859 131.367 68.3793 123.549C66.3172 114.113 65.8195 104.702 68.2371 95.2417C70.2281 87.3993 73.3805 80.1544 78.1921 73.7808C84.2836 65.7143 92.5321 61.4072 101.989 59.4653C105.213 58.818 108.46 58.3449 111.707 57.7225C116.946 56.6769 121.283 53.9631 124.696 49.656C125.929 48.0626 127.185 46.4195 128.157 44.6269C129.982 41.2659 131.688 37.8301 133.3 34.3695C135.765 28.9918 138.847 24.0125 142.26 19.2573C147.379 12.087 154.253 7.75504 162.336 5.46455C169.446 3.44792 176.652 3.42303 183.881 4.74255C190.518 5.96248 196.894 8.004 202.938 11.2406C207.252 13.5559 210.76 16.7676 213.414 21.0498C213.841 21.7469 214.244 22.4689 214.718 23.1162C215.287 23.8631 216.187 23.9129 216.756 23.2407C217.278 22.6183 217.752 21.9461 218.155 21.249C220.809 16.7178 224.649 13.7551 229.176 11.5144C237.33 7.48117 245.934 5.0911 254.775 3.42303C261.815 2.07861 268.854 1.60557 275.941 3.04958C281.511 4.16992 287.058 5.53924 291.964 8.65131C305.972 17.5145 315.738 29.8632 319.293 46.9921C320.288 51.822 320.952 56.7765 321.639 61.6811C323.18 72.4364 327.494 81.6482 334.936 89.2914C340.032 94.5197 345.579 99.1754 351.528 103.283C355.486 106.047 359.35 108.91 362.929 112.171C369.4 118.047 373.714 125.317 375.847 134.006C376.676 137.392 377.079 140.803 377.269 144.263C377.672 152.255 376.534 159.948 373.263 167.268Z" fill="#F6F6F6"/>
<path d="M219.534 307.835C218.965 308.781 219.747 309.428 220.008 310.125C221.075 312.789 222.284 315.403 223.374 318.067C224.938 321.901 225.981 325.885 226.668 329.992C227.237 333.378 226.716 336.59 225.697 339.777C225.578 340.175 225.436 340.574 225.246 340.922C223.326 344.806 220.174 345.229 217.33 341.993C215.505 339.926 214.485 337.362 213.585 334.748C213.253 333.752 213.324 332.532 212.139 331.86C212.139 341.868 212.163 351.827 212.139 361.761C212.115 367.561 212.02 373.387 211.949 379.188C211.926 380.134 211.831 381.105 211.641 382.051C211.57 382.35 211.143 382.699 210.812 382.773C210.385 382.873 210.053 382.425 210.029 382.051C209.982 381.23 210.053 380.408 210.077 379.587C210.148 366.715 210.243 353.868 210.29 340.997C210.29 340.175 210.195 339.354 209.887 338.532C209.555 341.619 209.2 344.706 208.892 347.818C207.92 357.852 206.498 367.81 204.957 377.769C204.815 378.69 204.862 379.761 203.938 380.333C203.748 380.458 203.416 380.508 203.227 380.433C203.013 380.358 202.729 380.084 202.705 379.885C202.658 379.487 202.8 379.064 202.848 378.665C204.175 368.956 205.526 359.246 206.806 349.536C207.209 346.399 207.398 343.237 207.683 339.901C206.569 340.175 206.379 341.196 205.929 341.893C205.099 343.138 204.27 344.408 203.108 345.354C200.691 347.345 198.036 346.972 196.282 344.258C194.836 342.018 194.291 339.453 194.647 336.739C194.907 334.822 195.263 332.93 195.666 331.038C197.206 324.167 199.411 317.519 201.899 310.971C202.231 310.125 202.563 309.254 202.445 308.133C201.165 309.478 199.885 310.822 198.629 312.142C194.884 316.1 190.617 319.287 185.829 321.702C177.77 325.76 169.712 325.511 161.937 321.154C148.83 313.835 140.463 299.345 143.189 281.618C143.331 280.672 143.615 279.726 143.852 278.805C144.16 277.61 144.729 276.764 146.104 277.286C147.123 277.66 147.882 276.938 148.664 276.515C151.864 274.871 155.016 273.154 158.169 271.485C158.88 271.112 159.567 270.714 160.325 270.44C163.454 269.245 163.383 268.373 165.848 271.809C169.712 277.212 174.642 281.295 180.449 284.208C187.251 287.618 194.244 290.357 201.781 291.328C205.076 291.751 208.347 291.826 211.617 291.453C217.496 290.755 223.35 289.685 229.11 288.316C235.675 286.747 241.909 284.133 247.882 280.896C250.987 279.228 253.571 276.863 255.775 274.1C256.984 272.581 258.145 272.232 259.876 272.979C262.909 274.299 265.991 275.544 269.096 276.664C274.453 278.581 279.809 280.448 285.213 282.191C286.778 282.689 287.702 283.486 288.081 285.154C288.84 288.515 289.646 291.876 289.124 295.386C288.674 298.399 288.603 301.436 287.892 304.399C285.83 313.113 280.686 319.038 272.959 322.424C268.93 324.192 264.663 325.063 260.255 325.063C256.96 325.063 253.689 325.138 250.395 324.714C239.373 323.32 230.2 318.042 222.165 310.225C221.335 309.403 220.695 308.308 219.534 307.835ZM211.286 297.229C210.954 302.805 211.57 308.258 212.163 313.735C212.755 319.088 213.561 324.391 214.438 329.694C214.959 332.831 215.836 335.868 217.472 338.607C218.159 339.777 218.894 340.922 220.079 341.669C221.027 342.242 221.857 342.192 222.568 341.345C223.635 340.051 224.203 338.507 224.488 336.864C225.104 333.403 224.867 329.992 224.014 326.607C221.312 316.1 216.168 306.789 211.286 297.229ZM208.299 300.565C206.521 305.096 205.028 308.731 203.63 312.44C201.094 319.113 198.937 325.885 197.396 332.881C196.922 335.047 196.851 337.237 196.898 339.453C196.922 340.574 197.23 341.619 197.775 342.59C198.842 344.433 200.596 344.831 202.065 343.387C203.013 342.466 203.819 341.345 204.507 340.175C206.166 337.337 207.209 334.225 207.944 330.988C209.626 323.669 209.626 316.225 209.389 308.781C209.318 306.316 209.295 303.826 208.299 300.565Z" fill="#FAA942"/>
<path d="M139.725 265.31C129.77 265.583 120.099 263.766 110.547 260.978C100.237 257.965 90.3527 253.857 80.9191 248.579C68.902 241.832 59.7055 232.346 55.1783 218.504C51.3623 206.803 51.9785 195.4 57.596 184.42C58.71 182.23 59.9662 180.113 61.1751 177.972C63.2846 174.288 65.1808 170.503 66.8162 166.57C68.6887 162.088 69.5894 157.383 69.7079 152.478C69.9212 143.565 68.4991 134.876 66.7925 126.187C65.9155 121.731 64.9437 117.299 64.6593 112.718C63.7586 97.5562 67.9302 84.0373 76.7949 72.1368C82.7205 64.1698 90.8741 59.8378 100.118 57.6718C103.057 56.9747 106.067 56.427 109.054 56.0287C116.354 55.0577 121.758 51.1489 125.693 44.7256C127.755 41.3397 129.509 37.7794 131.121 34.1445C133.633 28.4681 136.786 23.2398 140.388 18.2854C147.523 8.45124 157.146 3.29764 168.665 2.1524C180.019 1.00715 190.922 3.19805 201.351 8.12758C206.613 10.6172 211.164 13.9783 214.506 19.0323C215.644 20.7751 216.094 20.8 217.066 19.2564C220.1 14.4513 224.461 11.5882 229.32 9.19814C237.639 5.13999 246.409 2.8744 255.369 1.20632C259.256 0.484323 263.191 -0.088299 267.125 0.0112874C272.387 0.13577 277.578 1.08184 282.698 2.50095C293.293 5.43875 301.541 12.0612 308.699 20.4265C315.668 28.5428 319.887 38.0782 321.783 48.7837C322.636 53.6635 323.324 58.593 324.106 63.4976C325.575 72.6596 329.534 80.4273 335.767 87C340.603 92.1287 345.888 96.6848 351.6 100.668C355.44 103.357 359.209 106.096 362.812 109.158C372.056 117 377.365 127.059 378.953 139.457C380.731 153.3 377.91 165.798 370.159 177.101C368.927 178.893 367.647 180.661 366.391 182.429C365.443 183.773 364.542 185.118 363.57 186.437C357.668 194.553 355.037 203.765 355.156 213.923C355.203 217.807 354.895 221.641 354.279 225.475C353.426 230.828 351.221 235.434 347.69 239.342C344.869 242.479 341.598 245.019 338.043 247.185C330.79 251.592 322.897 254.156 314.767 256.073C308.32 257.592 301.802 258.538 295.213 258.363C287.841 258.164 280.541 257.069 273.477 254.654C268.974 253.11 264.447 251.641 260.157 249.5C258.497 248.679 256.862 247.782 255.25 246.836C254.776 246.562 254.492 245.965 254.847 245.417C255.155 244.919 255.724 244.845 256.246 245.093C256.838 245.367 257.431 245.666 258.023 245.99C267.789 250.994 278.005 254.579 288.837 255.724C294.857 256.372 300.925 256.322 306.945 255.326C314.364 254.106 321.664 252.338 328.68 249.45C331.999 248.081 335.175 246.463 338.232 244.521C340.934 242.778 343.399 240.712 345.651 238.371C349.538 234.313 351.695 229.409 352.43 223.732C352.952 219.749 353.283 215.765 353.212 211.757C353.07 202.869 355.535 194.852 360.299 187.582C362.314 184.52 364.447 181.532 366.557 178.52C369.069 174.96 371.416 171.3 373.217 167.267C376.488 159.947 377.626 152.254 377.223 144.262C377.057 140.802 376.654 137.391 375.824 134.03C373.691 125.341 369.377 118.071 362.907 112.195C359.304 108.934 355.464 106.046 351.506 103.307C345.556 99.1745 340.034 94.5188 334.914 89.2905C327.471 81.6722 323.158 72.4355 321.617 61.7051C320.93 56.8004 320.266 51.846 319.27 46.9912C315.715 29.8623 305.95 17.5385 291.942 8.65041C287.035 5.53833 281.489 4.16902 275.919 3.04867C268.832 1.60467 261.792 2.1026 254.753 3.42212C245.912 5.0902 237.308 7.48027 229.154 11.5135C224.65 13.7542 220.787 16.7169 218.156 21.2481C217.753 21.9452 217.255 22.6174 216.758 23.2398C216.189 23.9369 215.288 23.8622 214.719 23.1153C214.245 22.468 213.842 21.746 213.392 21.0489C210.761 16.7667 207.229 13.555 202.915 11.2397C196.871 8.0031 190.495 5.96158 183.859 4.74164C176.629 3.42212 169.424 3.44702 162.337 5.46364C154.254 7.75413 147.357 12.0861 142.237 19.2564C138.824 24.0365 135.766 28.9909 133.278 34.3686C131.666 37.8541 129.959 41.265 128.134 44.626C127.163 46.4186 125.93 48.0617 124.674 49.6551C121.284 53.9622 116.923 56.676 111.685 57.7216C108.461 58.3689 105.19 58.8171 101.967 59.4893C92.5096 61.4312 84.2849 65.7383 78.1697 73.8048C73.3581 80.1784 70.2057 87.4233 68.2147 95.2657C65.797 104.726 66.2948 114.137 68.3569 123.573C70.0635 131.391 71.3434 139.283 71.7937 147.3C72.173 154.296 71.4382 161.092 68.7361 167.565C67.0532 171.624 65.0622 175.532 62.8816 179.317C61.3884 181.906 59.8951 184.545 58.6152 187.259C53.9932 197.068 53.7088 207.176 57.0034 217.458C59.2789 224.504 62.8816 230.653 68.0013 235.907C72.8603 240.886 78.2882 244.795 84.356 248.031C95.9465 254.206 108.106 258.563 120.763 261.326C128.751 263.069 136.88 263.841 145.105 263.094C149.443 262.695 153.78 262.571 157.976 261.251C160.607 260.43 163.356 259.982 165.584 258.04C165.987 257.691 166.603 257.841 166.911 258.413C167.196 258.936 167.243 259.484 166.864 259.957C166.058 260.978 164.849 261.251 163.759 261.675C157.668 264.04 151.315 265.16 144.845 265.31C143.162 265.334 141.455 265.31 139.725 265.31Z" fill="#001F55"/>
<path d="M312.52 227.143C306.286 225.898 300.74 227.84 295.573 231.749C293.463 233.367 291.117 234.687 288.746 235.882C283.413 238.57 277.82 238.72 272.202 237.126C269.002 236.23 266.111 234.587 263.574 232.272C262.484 231.276 261.536 230.106 260.161 229.483C259.806 229.309 259.545 228.935 259.711 228.487C259.901 227.915 260.351 227.591 260.92 227.666C261.417 227.74 261.963 227.915 262.366 228.238C263.1 228.811 263.74 229.508 264.428 230.155C270.211 235.608 279.526 238.496 288.675 233.491C291.117 232.147 293.511 230.678 295.786 229.035C300.289 225.749 305.172 224.155 310.671 224.653C312.496 224.827 314.345 224.877 316.194 225.027C320.389 225.35 323.944 224.031 326.86 220.769C329.159 218.205 330.842 215.292 332.169 212.105C334.16 207.275 335.44 202.196 336.673 197.118C336.744 196.844 336.767 196.57 336.815 196.296C338.592 185.516 343.001 176.13 350.112 168.088C352.079 165.872 353.786 163.383 355.492 160.943C356.986 158.827 358.242 156.561 359.095 154.071C360.067 151.208 360.067 148.42 358.811 145.606C357.246 142.071 355.208 138.859 352.529 136.121C350.562 134.104 348.547 132.088 346.438 130.22C340.773 125.166 336.649 119.067 334.848 111.398C332.975 103.357 328.898 96.7593 323.233 91.0829C319.417 87.2488 315.435 83.6637 311.003 80.6263C309.249 79.4064 307.495 78.1615 305.765 76.9167C298.227 71.3896 293.487 63.7713 290.927 54.5844C290.074 51.5471 289.339 48.4599 288.557 45.3976C286.637 38.1029 282.513 32.6505 276.326 28.7915C269.192 24.3351 261.607 21.4471 253.216 21.3973C249.353 21.3724 245.584 22.0695 241.982 23.389C235.606 25.7044 229.609 28.8413 224.655 33.8207C223.423 35.0655 222.143 36.2605 220.815 37.3809C219.18 38.8 218.374 38.8 216.596 37.4556C214.463 35.8373 212.425 34.0945 210.268 32.4762C204.413 28.0695 198.014 24.8579 190.95 23.4139C181.564 21.4968 172.889 23.0653 165.612 30.1858C163.053 32.6754 161.085 35.5634 159.853 38.9992C159.047 41.1901 158.312 43.4059 157.554 45.6217C156.843 47.713 155.894 49.6798 154.804 51.5719C152.458 55.5803 149.234 58.5181 145.086 60.3107C140.559 62.2526 135.89 63.6717 131.054 64.4435C125.224 65.3647 119.89 67.6801 114.771 70.4685C108.182 74.0287 104.982 80.2528 103.797 87.7218C103.228 91.4065 103.062 95.141 102.28 98.7759C101.189 103.88 99.1272 108.411 95.4533 112.071C94.1971 113.291 93.0594 114.635 91.9217 115.979C87.1338 121.556 85.522 128.254 85.9487 135.548C86.2094 139.681 86.9442 143.764 87.4419 147.872C87.6789 149.789 87.8923 151.706 88.0819 153.623C88.627 158.677 87.8212 163.532 86.0198 168.213C84.7398 171.549 83.531 174.91 82.3696 178.271C80.1179 184.744 79.3831 191.491 80.0942 198.288C80.9949 206.777 84.8109 213.425 92.5142 217.11C93.2253 217.458 93.9601 217.782 94.6948 218.056C102.043 220.72 107.755 225.649 112.448 232.023C114.866 235.309 117.307 238.57 120.199 241.409C122.308 243.5 124.56 245.392 127.096 246.936C130.77 249.176 134.61 249.873 138.852 248.902C142.906 247.981 146.603 246.338 150.04 243.948C154.449 240.886 158.431 237.276 162.247 233.442C162.91 232.794 163.432 231.923 164.427 231.774C164.641 231.749 164.949 231.873 165.115 232.047C165.281 232.222 165.423 232.57 165.352 232.769C165.162 233.267 164.925 233.79 164.569 234.164C159.473 239.392 154.14 244.297 147.836 247.907C144.446 249.849 140.82 250.944 136.956 251.342C133.022 251.766 129.395 250.944 125.982 248.803C122 246.288 118.516 243.151 115.482 239.442C113.42 236.927 111.5 234.288 109.509 231.724C105.527 226.57 100.668 222.686 94.6711 220.446C93.7941 220.122 92.9646 219.749 92.1113 219.35C84.0525 215.641 79.6912 208.968 78.2217 200.08C76.8469 191.815 78.3165 183.848 80.8763 176.055C81.8955 172.918 83.1044 169.856 84.3132 166.793C86.3279 161.64 86.5649 156.387 85.8301 150.934C85.0717 145.208 83.8628 139.532 83.8391 133.681C83.8154 125.366 86.4227 118.27 92.1824 112.494C92.2772 112.394 92.372 112.295 92.4668 112.195C98.4635 106.942 100.62 99.8465 101.26 92.0538C101.64 87.4978 102.351 83.0413 104.342 78.8586C106.996 73.2569 111.287 69.5971 116.572 67.0327C121.976 64.4186 127.665 62.875 133.519 61.7796C137.004 61.1322 140.393 59.9621 143.735 58.6426C148.286 56.85 151.557 53.6384 153.832 49.2317C154.591 47.7877 155.207 46.2441 155.8 44.7005C156.392 43.1569 156.89 41.5884 157.388 40.0199C160.777 28.8911 171.135 20.9242 183.294 20.5508C187.276 20.4263 191.164 21.0985 194.956 22.2935C200.787 24.1359 206.238 26.8745 211.192 30.6339C213.325 32.2522 215.411 33.9203 217.497 35.6132C218.374 36.3103 219.085 36.4099 219.915 35.5883C221.36 34.1692 222.83 32.7999 224.3 31.4306C230.036 26.1027 236.767 22.6172 244.067 20.6255C250.917 18.7333 257.862 18.9823 264.736 21.0985C270.472 22.8911 275.757 25.5799 280.569 29.3144C284.812 32.6007 287.917 36.8332 289.6 42.1112C290.69 45.5221 291.662 48.9578 292.491 52.4433C294.98 62.8501 300.408 71.0162 309.083 76.7424C315.814 81.174 321.953 86.3276 327.334 92.4771C331.434 97.1327 334.516 102.336 336.127 108.461C336.151 108.585 336.199 108.735 336.246 108.859C338.095 117.598 342.764 124.444 349.282 130.046C351.321 131.789 353.169 133.781 355.018 135.747C357.625 138.536 359.498 141.872 361.015 145.432C362.2 148.221 362.342 151.009 361.418 153.897C360.707 156.138 359.806 158.279 358.503 160.221C356.772 162.81 354.947 165.374 353.098 167.889C351.724 169.756 350.254 171.524 348.832 173.316C344.447 178.819 341.508 185.068 339.967 192.088C338.83 197.342 337.668 202.595 336.033 207.699C335.156 210.462 334.184 213.176 332.904 215.74C331.553 218.454 329.894 220.944 327.784 223.06C324.987 225.823 321.764 227.442 317.829 227.267C316.075 227.068 314.369 227.143 312.52 227.143Z" fill="#001F55"/>
<path d="M133.208 213.948C118.584 215.192 108.51 206.827 103.983 196.072C101.067 189.126 99.8587 181.831 100.902 174.213C101.257 171.623 101.542 169.009 101.802 166.395C102.158 163.034 101.565 159.797 100.807 156.561C99.7639 152.129 98.3891 147.822 97.7492 143.291C97.2277 139.706 97.204 136.171 97.8677 132.585C98.555 128.901 99.5742 125.365 100.949 121.905C102.703 117.548 105.5 114.162 109.292 111.672C110.857 110.652 112.421 109.581 114.104 108.834C121.286 105.647 125.434 99.6722 128.159 92.3277C128.633 91.0331 129.107 89.7384 129.463 88.4189C131.501 80.9997 136.218 76.4685 143.139 74.2029C148.946 72.2859 154.872 71.066 160.963 70.9166C163.737 70.8419 166.462 70.4685 169.212 70.0701C173.763 69.4228 177.389 67.1572 180.068 63.2484C181.063 61.7795 181.964 60.2608 182.912 58.767C184.642 55.9786 186.491 53.3147 188.814 50.9993C192.535 47.2897 196.896 45.9951 201.897 47.1403C206.662 48.2358 211.378 49.5304 215.692 51.9703C216.735 52.5429 217.257 52.3686 217.968 51.4474C223.135 44.8 230.151 41.5884 238.02 41.4888C247.003 41.3643 253.853 45.9453 258.072 54.4599C258.736 55.8043 259.257 57.2484 259.731 58.6675C263.263 69.0742 270.54 75.398 280.021 79.3067C282.343 80.2528 284.785 80.8503 287.202 81.5723C290.379 82.5184 293.412 83.813 296.209 85.6803C300.618 88.643 303.699 92.5766 304.505 98.1784C304.695 99.3983 304.979 100.618 305.24 101.813C306.33 107.042 308.914 111.249 313.038 114.361C314.745 115.656 316.499 116.901 318.3 118.021C327.828 124.046 332.166 133.532 334.299 144.486C334.607 146.079 334.489 147.797 334.418 149.44C334.252 153.05 332.948 156.163 330.341 158.578C328.871 159.947 327.354 161.291 325.743 162.486C321.358 165.748 318.632 170.13 317.281 175.582C316.593 178.395 315.693 181.134 314.887 183.897C314.176 186.287 313.157 188.528 311.948 190.669C307.752 198.088 301.448 201.773 293.365 201.923C288.909 201.997 284.453 201.45 279.973 201.151C279.594 201.126 279.215 200.927 278.907 200.703C278.717 200.578 278.551 200.254 278.575 200.03C278.598 199.806 278.788 199.483 278.978 199.383C280.352 198.686 281.798 199.059 283.244 199.134C286.397 199.308 289.549 199.582 292.701 199.632C301.4 199.781 307.444 195.4 311.26 187.358C312.73 184.246 313.868 180.984 314.555 177.623C316.143 169.806 319.935 163.656 326.335 159.225C331.834 155.416 333.493 150.013 332 143.341C329.748 133.283 325.34 124.768 316.57 119.34C314.863 118.295 313.251 117.1 311.663 115.88C307.373 112.544 304.553 108.162 303.415 102.66C303.107 101.166 302.799 99.6971 302.538 98.2033C301.708 93.7468 299.362 90.3857 295.854 87.8712C293.104 85.9043 290.07 84.6097 286.918 83.589C285.543 83.1408 284.121 82.8172 282.723 82.4188C276.75 80.7757 271.559 77.6387 266.913 73.3814C263.073 69.846 260.158 65.6634 258.38 60.6343C257.835 59.0907 257.29 57.5222 256.65 56.0035C252.218 45.8457 241.457 41.4639 232.687 44.2772C230.151 45.0988 227.662 45.9453 225.41 47.3893C222.827 49.0574 220.362 50.8499 218.892 53.8375C218.228 55.2068 217.541 55.3811 216.309 54.6093C211.734 51.6964 206.638 50.4267 201.518 49.1072C197.086 47.9619 193.507 49.3561 190.283 52.4184C187.937 54.684 186.112 57.3977 184.405 60.1862C183.552 61.5804 182.746 62.9995 181.798 64.3439C178.954 68.402 175.232 70.9415 170.444 71.9373C166.273 72.7838 162.077 72.8336 157.882 73.2071C152.857 73.6552 148.022 74.7258 143.234 76.3689C137.308 78.4105 133.303 82.4188 131.501 88.7426C131.122 90.0621 130.672 91.3567 130.245 92.6762C129.06 96.2364 127.282 99.4481 125.149 102.461C122.992 105.523 120.314 107.888 117.067 109.606C114.72 110.826 112.397 112.17 110.146 113.589C106.898 115.656 104.552 118.594 103.035 122.228C99.6927 130.146 98.3417 138.312 100.546 146.851C101.281 149.64 101.921 152.478 102.703 155.241C104.101 160.246 104.078 165.3 103.39 170.428C102.442 177.449 102.324 184.47 104.528 191.341C104.694 191.864 104.86 192.387 105.049 192.91C109.908 206.354 121.072 213.425 134.63 211.657C138.825 211.109 142.95 210.288 147.003 209.068C147.88 208.794 148.78 208.595 149.681 208.421C150.368 208.296 151.008 208.57 151.364 209.217C151.53 209.516 151.601 209.964 151.577 210.338C151.554 210.537 151.198 210.86 151.032 210.836C147.927 210.537 145.154 212.031 142.239 212.628C139.015 213.425 135.768 214.072 133.208 213.948Z" fill="#001F55"/>
<path d="M286.799 109.258C286.942 106.494 287.084 103.731 287.202 100.967C287.297 98.6022 286.823 97.93 284.619 97.7557C280.281 97.4071 275.991 96.7598 271.725 95.988C262.22 94.2951 253 91.656 244.111 87.7224C235.341 83.8385 228.065 77.7637 221.476 70.718C220.385 69.5478 219.556 68.1038 218.536 66.8341C217.825 65.9378 217.802 64.444 216.474 64.0457C215.929 64.9669 215.313 65.8631 214.863 66.8341C211.805 73.4068 206.97 78.1123 200.973 81.6725C192.606 86.6269 183.741 89.7141 174.071 90.3614C169.875 90.6353 165.68 90.8095 161.461 90.7846C160.418 90.7846 159.352 90.8095 158.309 90.8095C157.289 90.8095 156.555 91.3075 156.104 92.2535C155.701 93.1249 155.37 94.0212 154.99 94.8926C151.293 103.034 146.932 110.727 140.793 117.175C139.299 118.744 137.854 120.337 135.934 121.358C135.554 121.557 135.151 121.482 134.891 121.109C134.63 120.76 134.559 120.362 134.867 120.013C135.128 119.69 135.388 119.366 135.673 119.117C143.4 112.494 148.686 103.955 152.857 94.6187C155.725 88.1954 155.275 88.4942 162.362 88.5688C169.472 88.6435 176.56 88.4444 183.552 86.8012C190.994 85.0584 197.631 81.548 203.959 77.216C207.704 74.6516 210.383 71.1163 212.516 67.0831C213.417 65.3901 214.223 63.6473 215.005 61.9046C215.36 61.1577 215.668 60.4357 216.427 60.0124C217.019 59.6888 217.944 59.7884 218.11 60.4108C219.864 67.4565 224.984 71.6143 229.89 76.021C239.158 84.3613 250.203 88.5439 261.77 91.656C269.425 93.7224 277.247 94.8428 285.093 95.7889C285.354 95.8138 285.614 95.8138 285.875 95.8386C288.648 96.1872 289.383 96.8843 289.359 99.7474C289.312 102.909 289.075 106.096 288.838 109.258C288.601 112.719 288.672 116.154 288.838 119.615C288.861 120.163 288.743 120.835 288.174 120.934C287.368 121.059 287.013 120.387 286.989 119.64C286.894 116.876 286.847 114.113 286.799 111.349C286.776 110.652 286.799 109.98 286.799 109.283C286.752 109.258 286.776 109.258 286.799 109.258Z" fill="#001F55"/>
<path d="M110.24 302.978C110.358 302.455 110.477 301.335 110.832 300.339C111.97 297.102 115.407 295.384 118.512 296.505C121.167 297.451 123.015 299.343 123.632 302.256C124.272 305.318 123.395 308.007 121.214 310.123C117.588 313.634 111.899 311.841 110.548 306.837C110.406 306.314 110.287 305.766 110.24 305.219C110.192 304.646 110.24 304.098 110.24 302.978Z" fill="#FAA942"/>
<path d="M105.237 342.065C105.118 342.588 104.929 343.659 104.644 344.729C103.862 347.518 102.085 349.285 99.3588 349.609C96.7989 349.933 94.7842 348.613 93.3147 346.447C91.3948 343.559 91.3474 340.497 92.9354 337.46C94.3576 334.721 97.6285 333.377 100.378 334.223C103.317 335.144 105.284 338.082 105.237 342.065Z" fill="#FAA942"/>
<path d="M58.3783 353.841C53.4245 353.741 50.2721 348.488 52.2631 344.056C53.8512 340.521 58.1887 338.529 61.5307 339.824C65.5127 341.342 67.1245 346.372 64.778 350.056C63.1899 352.546 60.796 353.517 58.3783 353.841Z" fill="#FAA942"/>
<path d="M158.428 373.809C158.404 378.34 155.891 381.327 152.312 381.552C148.52 381.776 145.628 379.037 145.249 374.854C145.131 373.46 145.202 372.091 145.699 370.796C146.695 368.207 149.302 366.439 151.909 366.514C154.683 366.589 157.266 368.605 158.072 371.468C158.333 372.365 158.357 373.336 158.428 373.809Z" fill="#FAA942"/>
<path d="M275.892 346.198C275.821 350.106 272.242 353.492 268.236 353.442C264.586 353.393 261.694 350.306 261.86 346.571C262.026 342.712 265.866 339.002 269.492 339.152C273.024 339.326 275.963 342.588 275.892 346.198Z" fill="#FAA942"/>
<path d="M112.301 370.771C115.928 370.97 119.815 373.26 119.886 378.065C119.933 381.825 117.018 384.862 113.415 384.887C109.552 384.912 105.973 381.277 105.996 377.368C106.02 373.833 108.888 370.82 112.301 370.771Z" fill="#FAA942"/>
<path d="M355.347 302.455C358.855 302.405 361.913 305.467 362.007 309.152C362.126 312.936 358.808 316.397 354.968 316.571C351.578 316.72 348.687 313.783 348.639 310.123C348.592 305.99 351.626 302.504 355.347 302.455Z" fill="#FAA942"/>
<path d="M185.328 359.02C185.233 362.929 181.938 366.041 177.909 366.041C174.377 366.041 171.557 363.153 171.557 359.518C171.557 355.51 175.136 351.875 179.023 351.975C182.649 352.099 185.423 355.161 185.328 359.02Z" fill="#FAA942"/>
<path d="M308.839 391.089C308.792 394.998 305.497 398.209 301.586 398.184C298.055 398.16 295.495 395.346 295.566 391.562C295.637 387.379 298.766 383.993 302.44 384.093C305.924 384.193 308.887 387.429 308.839 391.089Z" fill="#FAA942"/>
<path d="M259.782 390.44C256.25 390.39 253.24 387.154 253.264 383.469C253.311 379.76 256.416 376.573 259.9 376.623C263.385 376.672 266.466 379.959 266.419 383.619C266.395 387.253 263.266 390.49 259.782 390.44Z" fill="#FAA942"/>
<path d="M74.374 383.319C74.4214 386.954 71.3401 390.24 67.8321 390.29C64.3242 390.34 61.2192 387.128 61.1955 383.443C61.1717 379.759 64.2057 376.497 67.7136 376.472C71.2216 376.422 74.3266 379.634 74.374 383.319Z" fill="#FAA942"/>
<path d="M382.984 372.315C386.445 372.24 389.55 375.302 389.692 378.987C389.834 382.771 386.658 386.232 383.079 386.157C379.595 386.108 376.585 382.921 376.561 379.261C376.514 375.601 379.5 372.414 382.984 372.315Z" fill="#FAA942"/>
<path d="M80.2081 307.608C83.7635 307.932 86.5604 311.368 86.2759 315.003C85.9915 318.712 82.6732 321.7 79.2363 321.376C75.6573 321.028 72.8841 317.667 73.1685 314.007C73.5003 310.223 76.7239 307.285 80.2081 307.608Z" fill="#FAA942"/>
<path d="M185.873 383.393C189.476 383.343 192.415 386.356 192.486 390.165C192.534 393.974 189.689 397.086 186.086 397.161C182.531 397.236 179.497 394.149 179.45 390.414C179.402 386.63 182.318 383.443 185.873 383.393Z" fill="#FAA942"/>
<path d="M230.907 380.879C230.907 384.564 227.873 387.776 224.341 387.801C220.833 387.801 217.775 384.589 217.775 380.904C217.775 377.195 220.809 374.008 224.341 374.008C227.873 373.983 230.883 377.17 230.907 380.879Z" fill="#FAA942"/>
<path d="M350.913 375.377C350.937 379.087 347.951 382.248 344.371 382.298C340.816 382.348 337.758 379.236 337.711 375.526C337.687 371.767 340.603 368.68 344.229 368.655C347.903 368.605 350.89 371.642 350.913 375.377Z" fill="#FAA942"/>
<path d="M309.15 350.082C309.174 353.841 306.235 356.978 302.656 357.028C299.1 357.078 296.114 353.941 296.09 350.182C296.066 346.397 299.005 343.26 302.561 343.235C306.14 343.235 309.126 346.347 309.15 350.082Z" fill="#FAA942"/>
<path d="M161.818 330.662C161.889 334.472 159.021 337.559 155.394 337.609C151.768 337.658 148.781 334.671 148.71 330.911C148.639 327.177 151.555 324.04 155.157 323.965C158.807 323.891 161.747 326.853 161.818 330.662Z" fill="#FAA942"/>
<path d="M138.729 345.402C138.8 349.211 135.956 352.299 132.353 352.373C128.774 352.448 125.787 349.411 125.716 345.651C125.645 341.842 128.466 338.78 132.116 338.73C135.813 338.655 138.681 341.543 138.729 345.402Z" fill="#FAA942"/>
<path d="M356.953 347.817C353.35 347.717 350.482 344.605 350.53 340.821C350.577 337.086 353.659 333.999 357.19 334.074C360.722 334.173 363.685 337.385 363.637 341.094C363.566 344.829 360.509 347.916 356.953 347.817Z" fill="#FAA942"/>
<path d="M42.7152 376.074C42.8338 379.684 39.8236 382.995 36.2919 383.095C32.7602 383.195 29.6552 380.132 29.5367 376.423C29.4182 372.688 32.3099 369.526 35.9364 369.452C39.6102 369.352 42.573 372.265 42.7152 376.074Z" fill="#FAA942"/>
<path d="M321.026 314.828C324.7 314.803 327.52 317.766 327.544 321.6C327.568 325.409 324.7 328.447 321.073 328.447C317.423 328.447 314.555 325.459 314.531 321.65C314.531 317.816 317.352 314.853 321.026 314.828Z" fill="#FAA942"/>
<path d="M221.928 120.261C222.047 119.44 222.094 118.743 222.236 118.095C225.033 104.103 236.482 94.2942 250.11 93.9456C258.24 93.7464 265.446 96.012 271.632 101.564C284.55 113.141 283.981 133.656 270.708 144.56C259.805 153.523 244.351 153.797 233.211 145.258C226.953 140.452 223.137 134.029 222.165 125.938C221.905 123.697 220.862 122.502 219.084 121.556C215.623 119.714 212.542 120.361 209.508 122.701C208.039 123.822 207.185 124.967 207.185 127.058C207.185 147.199 187.702 161.415 168.55 153.697C157.339 149.166 150.063 137.813 150.181 125.34C150.3 112.27 159.07 100.693 171.181 97.5805C186.469 93.6468 201.686 102.809 206.19 118.668C206.379 119.34 206.474 120.012 206.664 120.685C206.877 121.431 207.494 121.606 208.205 121.158C208.536 120.958 208.845 120.685 209.176 120.46C212.495 118.12 215.955 117.647 219.605 119.564C220.079 119.813 220.577 119.987 221.075 120.162C221.241 120.212 221.359 120.212 221.928 120.261ZM161.369 105.821C160.563 106.02 159.994 106.643 159.472 107.24C152.931 114.635 150.916 123.274 153.286 132.959C156.818 147.349 171.324 156.312 185.213 152.975C200.383 149.316 209.01 132.486 203.511 117.174C199.482 105.971 189.053 98.5764 177.7 98.9747C171.916 99.1739 166.536 100.717 162.175 105.025C161.914 105.274 161.653 105.547 161.369 105.821ZM253.287 149.191C257.577 149.266 263.028 147.473 267.935 143.963C281.445 134.253 282.725 115.207 270.66 103.63C259.734 93.1489 241.649 93.622 231.243 104.651C221.786 114.66 221.525 129.822 230.746 140.079C236.387 146.303 243.45 149.191 253.287 149.191Z" fill="#001F55"/>
<path d="M229.346 160.419C229.346 169.332 225.933 174.709 217.329 177.498C212.185 179.166 207.255 179.041 202.467 176.328C201.899 176.004 201.259 175.73 200.998 175.033C200.903 174.809 200.927 174.46 201.022 174.286C201.14 174.087 201.496 173.863 201.662 173.913C202.539 174.187 203.392 174.46 204.221 174.859C210.763 177.896 216.807 176.452 222.496 172.543C224.89 170.9 226.217 168.386 226.857 165.423C227.758 161.39 227.355 157.506 226.288 153.597C224.511 147.099 222.306 140.75 219.699 134.576C219.415 133.904 218.727 133.182 219.509 132.335C220.031 131.788 220.884 132.335 221.453 133.68C224.463 140.875 227.142 148.219 228.848 155.912C229.204 157.431 229.322 158.925 229.346 160.419Z" fill="#001F55"/>
<path d="M208.607 202.345C204.791 202.246 201.023 201.773 197.349 200.702C196.875 200.553 196.401 200.279 195.974 200.005C195.808 199.881 195.69 199.507 195.737 199.283C195.785 199.084 196.045 198.835 196.235 198.76C197.159 198.486 198.036 198.835 198.937 198.984C201.52 199.408 204.104 199.98 206.688 200.179C215.078 200.827 222.734 198.312 229.987 194.105C231.006 193.507 231.86 192.536 233.092 192.486C233.305 192.486 233.59 192.686 233.708 192.885C233.827 193.084 233.874 193.432 233.779 193.632C233.59 193.98 233.353 194.329 233.021 194.528C225.602 199.482 217.52 202.345 208.607 202.345Z" fill="#001F55"/>
<path d="M133.181 134.105C128.582 133.956 125.667 136.022 125.122 139.807C124.719 142.595 124.956 145.284 126.686 147.649C127.468 148.744 128.227 149.865 128.938 151.01C129.128 151.334 129.104 151.807 128.701 152.105C128.345 152.354 127.943 152.33 127.634 152.031C124.387 148.744 122.301 144.985 123.036 139.956C123.439 137.192 124.814 135.101 126.781 133.408C128.606 131.815 130.739 131.516 133.062 132.039C134.982 132.462 136.191 133.01 135.788 133.582C135.006 134.777 133.868 133.881 133.181 134.105Z" fill="#001F55"/>
<path d="M291.422 134.079C290.403 134.129 289.739 134.204 289.099 134.179C288.625 134.154 287.938 134.129 288.056 133.332C288.104 133.009 288.459 132.536 288.72 132.486C290.498 132.137 292.275 131.515 294.124 131.963C296.897 132.61 298.675 134.627 299.931 137.117C302.302 141.797 300.287 149.266 295.949 152.179C295.76 152.304 295.333 152.328 295.238 152.204C295.025 151.905 294.741 151.382 294.859 151.183C295.452 150.113 296.115 149.092 296.85 148.121C298.486 145.955 299.007 143.49 298.817 140.776C298.651 138.038 297.229 136.195 295.238 134.702C293.982 133.756 292.489 134.079 291.422 134.079Z" fill="#001F55"/>
<path d="M187.555 186.66C187.508 187.332 187.152 188.527 186.797 189.697C185.28 194.776 182.412 199.009 179.022 202.868C178.857 203.067 178.643 203.241 178.43 203.391C178.098 203.64 177.743 203.714 177.363 203.465C176.96 203.191 176.937 202.768 177.103 202.395C177.316 201.897 177.624 201.424 177.956 201.025C181.867 196.619 184.64 191.59 185.849 185.664C185.967 185.067 186.37 184.643 186.939 184.793C187.532 184.942 187.65 185.565 187.555 186.66Z" fill="#001F55"/>
<path d="M237.071 178.545C237.308 178.694 237.664 178.869 237.948 179.142C239.086 180.263 240.176 181.458 241.337 182.553C243.494 184.595 245.936 186.138 248.661 187.209C249.633 187.607 250.629 187.956 251.553 188.429C251.814 188.578 252.098 189.076 252.075 189.375C252.004 190.047 251.435 190.122 250.89 190.097C250.771 190.097 250.629 190.047 250.51 189.997C244.869 188.479 240.413 185.018 236.644 180.512C236.407 180.238 236.336 179.765 236.313 179.367C236.265 178.943 236.502 178.645 237.071 178.545Z" fill="#001F55"/>
<path d="M162.195 105.002C165.585 103.483 169.093 102.437 172.838 102.487C173.881 102.487 174.923 102.562 175.848 103.209C176.796 103.881 177.104 105.051 176.559 106.072C176.298 106.545 176.014 107.043 175.611 107.367C172.458 110.13 168.879 111.574 164.708 110.927C161.626 110.429 160.986 109.433 161.366 105.798C161.65 105.549 161.911 105.275 162.195 105.002Z" fill="#001F55"/>
<path d="M247.333 138.336C244.252 138.287 240.578 138.013 237.07 136.718C235.459 136.121 233.918 135.349 232.496 134.378C227.755 131.216 226.665 123.797 231.595 119.564C233.349 118.071 235.222 116.826 237.331 116.004C244.134 113.39 251.078 112.519 258.213 114.137C263.19 115.257 266.793 118.021 268.334 123.374C269.472 127.282 268.405 130.419 265.727 133.108C263.996 134.851 261.839 135.921 259.564 136.668C255.748 137.839 251.884 138.536 247.333 138.336ZM252.003 136.046C254.895 135.772 257.691 135.224 260.37 134.079C261.721 133.507 262.953 132.735 264.091 131.764C265.845 130.27 266.769 128.328 266.651 125.988C266.485 122.95 265.276 120.336 262.93 118.519C259.825 116.129 256.174 115.631 252.429 115.705C252.098 115.705 251.647 116.004 251.813 116.552C252.074 117.473 252.406 118.369 252.643 119.315C253.733 123.498 254.255 127.681 253.188 131.988C252.856 133.258 251.908 134.353 252.003 136.046Z" fill="#001F55"/>
<path d="M263.933 110.851C260.639 110.353 256.988 109.382 253.741 107.141C252.509 106.295 251.371 105.174 251.821 103.432C252.272 101.689 253.552 100.693 255.282 100.544C256.325 100.444 257.391 100.469 258.41 100.643C261.539 101.241 264.431 102.51 267.086 104.353C267.631 104.726 268.128 105.174 268.579 105.697C270.072 107.44 269.622 109.282 267.536 110.303C266.517 110.776 265.498 110.851 263.933 110.851Z" fill="#001F55"/>
<path d="M176.631 138.312C171.891 138.512 168.146 137.839 164.495 136.694C162.339 136.022 160.348 135.001 158.594 133.507C155.323 130.719 154.327 126.984 155.702 122.777C156.982 118.893 159.447 116.229 163.192 114.885C166.984 113.515 170.895 113.092 174.83 113.366C179.025 113.665 183.149 114.486 187.06 116.204C189.146 117.125 190.971 118.37 192.678 119.939C196.849 123.773 196.162 130.719 191.848 133.98C189.478 135.773 186.799 136.893 183.955 137.541C181.253 138.138 178.504 138.337 176.631 138.312ZM193.484 126.387C193.365 123.997 192.18 122.254 190.473 120.81C187.202 118.071 183.291 116.926 179.286 116.105C178.575 115.955 178.219 116.503 178.527 117.424C179.784 121.159 179.807 124.968 179.523 128.852C179.381 130.918 178.93 132.91 178.361 134.902C178.124 135.723 178.551 136.196 179.357 136.097C179.997 136.022 180.637 135.823 181.3 135.773C184.382 135.549 187.179 134.429 189.81 132.81C192.156 131.391 193.318 129.175 193.484 126.387Z" fill="#001F55"/>
<path d="M416.285 398.257C415.764 393.676 415.171 389.095 414.199 384.588C409.767 363.85 401.637 345.053 387.724 329.318C385.401 326.679 382.936 324.164 380.566 321.575C372.009 312.264 361.864 305.542 350.464 300.762C341.883 297.152 333.066 294.537 324.13 292.073C310.786 288.363 297.512 284.305 284.239 280.371C278.408 278.653 272.601 276.911 266.794 275.093C263.618 274.097 260.632 272.678 257.977 270.562C255.82 268.869 254.516 266.827 254.801 263.865C254.919 262.495 254.848 261.101 254.919 259.732C255.322 252.412 255.796 245.118 256.128 237.798C256.247 235.184 256.91 233.117 258.806 231.225C267.102 222.935 273.407 213.101 278.385 202.32C282.77 192.835 286.135 182.976 288.055 172.594C288.411 170.652 288.956 169.208 291.184 168.461C301.85 164.876 308.155 156.809 311.236 145.78C312.635 140.776 312.611 135.697 310.928 130.693C308.487 123.473 303.604 119.39 296.422 118.394C293.08 117.946 289.88 118.767 286.775 120.062C286.183 120.311 285.472 120.734 285.709 121.531C286.04 122.601 286.894 122.328 287.676 122.054C288.553 121.755 289.406 121.382 290.307 121.182C300.973 118.867 307.799 124.792 309.624 134.303C310.193 137.29 310.217 140.403 309.53 143.39C306.78 155.316 300.357 163.78 288.6 166.793C287.083 167.191 286.657 167.963 286.467 169.233C285.851 173.465 284.879 177.623 283.694 181.731C279.522 196.32 273.312 209.789 264.187 221.69C260.869 226.022 257.242 230.005 253.213 233.591C243.779 241.981 233.066 247.259 220.812 249.699C207.751 252.313 195.734 250.072 184.144 243.823C176.796 239.864 170.491 234.487 164.779 228.263C160.015 223.059 155.914 217.308 152.383 211.109C145.082 198.287 140.057 184.569 137.687 169.805C137.474 168.536 137.047 167.888 135.767 167.639C132.473 167.042 129.462 165.697 126.737 163.681C120.669 159.199 116.782 153.1 114.933 145.606C113.961 141.672 113.819 137.689 114.814 133.705C116.948 125.191 123.442 121.083 129.699 121.481C131.833 121.606 133.871 121.879 135.886 122.577C136.502 122.801 137.142 122.9 137.782 122.975C137.948 123 138.232 122.676 138.303 122.452C138.398 122.228 138.398 121.879 138.28 121.68C138.066 121.357 137.782 121.008 137.45 120.859C127.329 116.327 116.545 120.684 113.108 131.738C111.733 136.17 111.591 140.751 112.657 145.257C115.431 157.108 122.02 165.498 133.255 169.382C134.867 169.93 135.649 170.801 135.886 172.494C136.478 176.602 137.616 180.561 138.778 184.519C144.3 203.192 153.046 219.848 166.652 233.416C166.841 233.615 167.031 233.815 167.22 233.989C167.979 234.661 168.334 235.508 168.287 236.528C168.216 238.047 168.263 239.566 168.097 241.084C167.529 246.313 166.912 251.516 166.296 256.719C166.083 258.637 165.822 260.554 165.561 262.471C165.182 265.259 163.712 267.301 161.461 268.745C160.56 269.317 159.612 269.815 158.664 270.288C150.51 274.521 142.096 278.106 133.373 280.77C126.31 282.936 119.176 284.927 112.089 287.019C100.309 290.529 88.9077 295.259 77.3409 299.417C69.1162 302.38 61.1285 305.94 53.3304 309.973C48.2344 312.612 43.4228 315.724 38.6823 318.986C25.4564 328.073 16.3547 340.546 10.2868 355.783C5.21453 368.505 2.25173 381.775 0.189619 395.319C0.0474048 396.24 0.0237024 397.211 0 398.157H0.118512V399.004C0.118512 399.029 0.118512 399.053 0.118512 399.078V399.999H416.404V398.132H416.285V398.257ZM2.82058 392.605C4.88269 380.48 7.58477 368.555 12.2067 357.152C17.279 344.605 24.0579 333.426 34.5581 325.061C39.2749 321.301 44.1576 317.791 49.3721 314.778C56.2932 310.77 63.4513 307.26 70.8702 304.396C83.3376 299.567 95.7577 294.662 108.462 290.554C114.483 288.612 120.598 286.869 126.689 285.151C137.782 282.039 148.496 277.906 158.853 272.678C160.75 271.732 162.598 270.686 164.305 269.342C166.225 267.823 167.268 265.881 167.623 263.442C167.884 261.525 168.263 259.632 168.406 257.69C168.88 251.068 170.183 244.57 170.373 237.624C171.89 238.321 172.316 239.391 172.98 240.213C177.341 245.765 181.726 251.267 186.965 255.948C192.037 260.479 197.654 263.939 203.935 266.255C216.64 270.911 229.771 272.579 243.163 272.23C246.197 272.155 249.207 271.732 252.122 270.786C253.663 270.288 254.99 270.537 256.175 271.583C259.92 274.819 264.353 276.512 268.951 277.882C285.401 282.786 301.85 287.666 318.299 292.521C322.092 293.641 325.908 294.737 329.724 295.708C337.546 297.674 345.036 300.662 352.455 303.899C361.675 307.932 369.923 313.534 377.058 320.878C380.992 324.936 384.903 329.069 388.553 333.426C398.982 345.899 405.69 360.513 410.146 376.323C412.161 383.493 413.393 390.788 414.27 398.157H2.22803C2.37024 396.365 2.51245 394.472 2.82058 392.605Z" fill="#001F55"/>
</svg>
