<svg width="220" height="220" viewBox="0 0 220 220" fill="none" xmlns="http://www.w3.org/2000/svg">
<g filter="url(#filter0_b_1600_5767)">
<circle cx="110" cy="110" r="105" stroke="white" stroke-opacity="0.35" stroke-width="3.24742"/>
</g>
<path d="M5 110C5 130.767 11.1581 151.068 22.6957 168.335C34.2332 185.602 50.632 199.06 69.8182 207.007C89.0045 214.955 110.116 217.034 130.484 212.982C150.852 208.931 169.562 198.931 184.246 184.246C198.931 169.562 208.931 150.852 212.982 130.484C217.034 110.116 214.955 89.0045 207.007 69.8182C199.06 50.632 185.602 34.2332 168.335 22.6957C151.068 11.1581 130.767 5 110 5" stroke="white" stroke-width="8.65979" stroke-linecap="round"/>
<path d="M58.8014 101.526C60.0734 101.358 61.0334 100.932 61.6814 100.248C62.3414 99.5519 62.6714 98.6459 62.6714 97.5299C62.6714 97.0739 62.5874 96.6779 62.4194 96.3419C62.2634 95.9939 62.0354 95.6879 61.7354 95.4239C61.4474 95.1599 61.1054 94.9319 60.7094 94.7399C60.3134 94.5479 59.8814 94.3679 59.4134 94.1999L58.8014 101.526ZM57.6494 82.4999C56.9774 82.5839 56.4074 82.7279 55.9394 82.9319C55.4714 83.1239 55.0874 83.3639 54.7874 83.6519C54.4874 83.9399 54.2654 84.2639 54.1214 84.6239C53.9894 84.9839 53.9234 85.3619 53.9234 85.7579C53.9234 86.2139 54.0014 86.6159 54.1574 86.9639C54.3254 87.2999 54.5474 87.6059 54.8234 87.8819C55.1114 88.1459 55.4474 88.3859 55.8314 88.6019C56.2154 88.8059 56.6354 88.9979 57.0914 89.1779L57.6494 82.4999ZM59.7554 90.0419C60.6194 90.3059 61.4774 90.5999 62.3294 90.9239C63.1814 91.2359 63.9434 91.6439 64.6154 92.1479C65.2994 92.6519 65.8514 93.2819 66.2714 94.0379C66.6914 94.7819 66.9014 95.7179 66.9014 96.8459C66.9014 97.9619 66.7154 99.0119 66.3434 99.9959C65.9714 100.968 65.4254 101.832 64.7054 102.588C63.9854 103.332 63.1034 103.944 62.0594 104.424C61.0154 104.892 59.8214 105.168 58.4774 105.252L58.2614 107.898C58.2494 108.174 58.1294 108.426 57.9014 108.654C57.6854 108.894 57.4094 109.014 57.0734 109.014H55.4354L55.7594 105.162C54.3554 104.97 53.0354 104.586 51.7994 104.01C50.5634 103.434 49.5134 102.72 48.6494 101.868L50.0174 99.8339C50.1374 99.6539 50.2934 99.5099 50.4854 99.4019C50.6894 99.2819 50.9054 99.2219 51.1334 99.2219C51.3974 99.2219 51.6794 99.3179 51.9794 99.5099C52.2794 99.6899 52.6214 99.9059 53.0054 100.158C53.3894 100.398 53.8274 100.644 54.3194 100.896C54.8114 101.148 55.3934 101.334 56.0654 101.454L56.7314 93.4079C55.8794 93.1679 55.0334 92.8859 54.1934 92.5619C53.3654 92.2379 52.6154 91.8119 51.9434 91.2839C51.2834 90.7439 50.7494 90.0659 50.3414 89.2499C49.9334 88.4339 49.7294 87.4139 49.7294 86.1899C49.7294 85.2779 49.9094 84.3899 50.2694 83.5259C50.6294 82.6499 51.1574 81.8699 51.8534 81.1859C52.5614 80.5019 53.4254 79.9379 54.4454 79.4939C55.4654 79.0499 56.6354 78.7979 57.9554 78.7379L58.1534 76.4699C58.1774 76.1819 58.2974 75.9239 58.5134 75.6959C58.7294 75.4679 59.0114 75.3539 59.3594 75.3539H60.9974L60.7094 78.8819C61.9814 79.0859 63.0794 79.4519 64.0034 79.9799C64.9274 80.4959 65.7254 81.0779 66.3974 81.7259L65.3174 83.3639C65.1614 83.6039 64.9994 83.7839 64.8314 83.9039C64.6634 84.0239 64.4594 84.0839 64.2194 84.0839C64.0394 84.0839 63.8234 84.0299 63.5714 83.9219C63.3194 83.8019 63.0374 83.6639 62.7254 83.5079C62.4134 83.3399 62.0594 83.1719 61.6634 83.0039C61.2794 82.8359 60.8534 82.6979 60.3854 82.5899L59.7554 90.0419ZM86.9562 101.67V105H72.5562V101.67H77.8302V86.4959C77.8302 85.8959 77.8482 85.2779 77.8842 84.6419L74.1402 87.7739C73.9242 87.9419 73.7082 88.0499 73.4922 88.0979C73.2882 88.1339 73.0902 88.1339 72.8982 88.0979C72.7182 88.0619 72.5562 88.0019 72.4122 87.9179C72.2682 87.8219 72.1602 87.7199 72.0882 87.6119L70.6842 85.6859L78.6222 78.9359H82.2762V101.67H86.9562ZM90.757 102.552C90.757 102.18 90.823 101.826 90.955 101.49C91.099 101.154 91.291 100.866 91.531 100.626C91.771 100.386 92.059 100.194 92.395 100.05C92.731 99.9059 93.091 99.8339 93.475 99.8339C93.859 99.8339 94.213 99.9059 94.537 100.05C94.873 100.194 95.161 100.386 95.401 100.626C95.653 100.866 95.851 101.154 95.995 101.49C96.139 101.826 96.211 102.18 96.211 102.552C96.211 102.936 96.139 103.296 95.995 103.632C95.851 103.956 95.653 104.238 95.401 104.478C95.161 104.718 94.873 104.904 94.537 105.036C94.213 105.18 93.859 105.252 93.475 105.252C93.091 105.252 92.731 105.18 92.395 105.036C92.059 104.904 91.771 104.718 91.531 104.478C91.291 104.238 91.099 103.956 90.955 103.632C90.823 103.296 90.757 102.936 90.757 102.552ZM115.41 100.86C115.89 100.86 116.268 100.998 116.544 101.274C116.832 101.538 116.976 101.892 116.976 102.336V105H99.12V103.524C99.12 103.224 99.18 102.912 99.3 102.588C99.432 102.252 99.636 101.952 99.912 101.688L107.814 93.7679C108.474 93.0959 109.062 92.4539 109.578 91.8419C110.106 91.2299 110.544 90.6239 110.892 90.0239C111.24 89.4239 111.504 88.8179 111.684 88.2059C111.876 87.5819 111.972 86.9279 111.972 86.2439C111.972 85.6199 111.882 85.0739 111.702 84.6059C111.522 84.1259 111.264 83.7239 110.928 83.3999C110.604 83.0759 110.208 82.8359 109.74 82.6799C109.284 82.5119 108.768 82.4279 108.192 82.4279C107.664 82.4279 107.172 82.5059 106.716 82.6619C106.272 82.8059 105.876 83.0159 105.528 83.2919C105.18 83.5559 104.886 83.8679 104.646 84.2279C104.406 84.5879 104.226 84.9839 104.106 85.4159C103.902 85.9679 103.638 86.3339 103.314 86.5139C102.99 86.6939 102.522 86.7359 101.91 86.6399L99.57 86.2259C99.75 84.9779 100.098 83.8859 100.614 82.9499C101.13 82.0019 101.772 81.2159 102.54 80.5919C103.32 79.9559 104.208 79.4819 105.204 79.1699C106.212 78.8459 107.292 78.6839 108.444 78.6839C109.644 78.6839 110.742 78.8639 111.738 79.2239C112.734 79.5719 113.586 80.0699 114.294 80.7179C115.002 81.3659 115.554 82.1459 115.95 83.0579C116.346 83.9699 116.544 84.9839 116.544 86.0999C116.544 87.0599 116.4 87.9479 116.112 88.7639C115.836 89.5799 115.458 90.3599 114.978 91.1039C114.51 91.8479 113.958 92.5679 113.322 93.2639C112.686 93.9599 112.02 94.6679 111.324 95.3879L105.456 101.382C106.02 101.214 106.578 101.088 107.13 101.004C107.694 100.908 108.228 100.86 108.732 100.86H115.41ZM125.943 88.4219C126.519 88.3019 127.071 88.2179 127.599 88.1699C128.127 88.1099 128.637 88.0799 129.129 88.0799C130.497 88.0799 131.703 88.2839 132.747 88.6919C133.791 89.0999 134.667 89.6639 135.375 90.3839C136.083 91.1039 136.617 91.9499 136.977 92.9219C137.337 93.8819 137.517 94.9199 137.517 96.0359C137.517 97.4159 137.271 98.6759 136.779 99.8159C136.299 100.956 135.627 101.934 134.763 102.75C133.899 103.554 132.873 104.178 131.685 104.622C130.509 105.066 129.225 105.288 127.833 105.288C127.017 105.288 126.243 105.204 125.511 105.036C124.779 104.868 124.089 104.646 123.441 104.37C122.805 104.082 122.211 103.758 121.659 103.398C121.119 103.026 120.633 102.636 120.201 102.228L121.569 100.338C121.857 99.9299 122.235 99.7259 122.703 99.7259C123.003 99.7259 123.309 99.8219 123.621 100.014C123.933 100.206 124.287 100.416 124.683 100.644C125.091 100.872 125.565 101.082 126.105 101.274C126.657 101.466 127.317 101.562 128.085 101.562C128.901 101.562 129.621 101.43 130.245 101.166C130.869 100.902 131.385 100.536 131.793 100.068C132.213 99.5879 132.525 99.0239 132.729 98.3759C132.945 97.7159 133.053 97.0019 133.053 96.2339C133.053 94.8179 132.639 93.7139 131.811 92.9219C130.995 92.1179 129.783 91.7159 128.175 91.7159C126.939 91.7159 125.673 91.9439 124.377 92.3999L121.605 91.6079L123.765 78.9719H136.617V80.8619C136.617 81.4979 136.419 82.0139 136.023 82.4099C135.627 82.8059 134.955 83.0039 134.007 83.0039H126.861L125.943 88.4219ZM170.64 78.9719V105H166.374V88.1879C166.374 87.5159 166.41 86.7899 166.482 86.0099L158.616 100.788C158.244 101.496 157.674 101.85 156.906 101.85H156.222C155.454 101.85 154.884 101.496 154.512 100.788L146.556 85.9559C146.592 86.3519 146.622 86.7419 146.646 87.1259C146.67 87.5099 146.682 87.8639 146.682 88.1879V105H142.416V78.9719H146.07C146.286 78.9719 146.472 78.9779 146.628 78.9899C146.784 79.0019 146.922 79.0319 147.042 79.0799C147.174 79.1279 147.288 79.2059 147.384 79.3139C147.492 79.4219 147.594 79.5659 147.69 79.7459L155.484 94.1999C155.688 94.5839 155.874 94.9799 156.042 95.3879C156.222 95.7959 156.396 96.2159 156.564 96.6479C156.732 96.2039 156.906 95.7779 157.086 95.3699C157.266 94.9499 157.458 94.5479 157.662 94.1639L165.348 79.7459C165.444 79.5659 165.546 79.4219 165.654 79.3139C165.762 79.2059 165.876 79.1279 165.996 79.0799C166.128 79.0319 166.272 79.0019 166.428 78.9899C166.584 78.9779 166.77 78.9719 166.986 78.9719H170.64Z" fill="white"/>
<path opacity="0.8" d="M73.4104 134.475V139.74C72.7504 140.226 72.0454 140.583 71.2954 140.811C70.5514 141.033 69.7534 141.144 68.9014 141.144C67.8394 141.144 66.8764 140.979 66.0124 140.649C65.1544 140.319 64.4194 139.86 63.8074 139.272C63.2014 138.684 62.7334 137.982 62.4034 137.166C62.0734 136.35 61.9084 135.459 61.9084 134.493C61.9084 133.515 62.0674 132.618 62.3854 131.802C62.7034 130.986 63.1534 130.284 63.7354 129.696C64.3234 129.108 65.0344 128.652 65.8684 128.328C66.7024 128.004 67.6384 127.842 68.6764 127.842C69.2044 127.842 69.6964 127.884 70.1524 127.968C70.6144 128.052 71.0404 128.169 71.4304 128.319C71.8264 128.463 72.1864 128.64 72.5104 128.85C72.8344 129.06 73.1314 129.291 73.4014 129.543L72.7084 130.641C72.6004 130.815 72.4594 130.923 72.2854 130.965C72.1114 131.001 71.9224 130.956 71.7184 130.83C71.5204 130.716 71.3224 130.602 71.1244 130.488C70.9264 130.374 70.7044 130.275 70.4584 130.191C70.2184 130.107 69.9454 130.038 69.6394 129.984C69.3394 129.93 68.9914 129.903 68.5954 129.903C67.9534 129.903 67.3714 130.011 66.8494 130.227C66.3334 130.443 65.8924 130.752 65.5264 131.154C65.1604 131.556 64.8784 132.039 64.6804 132.603C64.4824 133.167 64.3834 133.797 64.3834 134.493C64.3834 135.237 64.4884 135.903 64.6984 136.491C64.9144 137.073 65.2144 137.568 65.5984 137.976C65.9884 138.378 66.4564 138.687 67.0024 138.903C67.5484 139.113 68.1574 139.218 68.8294 139.218C69.3094 139.218 69.7384 139.167 70.1164 139.065C70.4944 138.963 70.8634 138.825 71.2234 138.651V136.293H69.5854C69.4294 136.293 69.3064 136.251 69.2164 136.167C69.1324 136.077 69.0904 135.969 69.0904 135.843V134.475H73.4104ZM79.3725 131.622C80.0565 131.622 80.6775 131.733 81.2355 131.955C81.7995 132.177 82.2795 132.492 82.6755 132.9C83.0775 133.308 83.3865 133.806 83.6025 134.394C83.8185 134.982 83.9265 135.639 83.9265 136.365C83.9265 137.097 83.8185 137.757 83.6025 138.345C83.3865 138.933 83.0775 139.434 82.6755 139.848C82.2795 140.262 81.7995 140.58 81.2355 140.802C80.6775 141.024 80.0565 141.135 79.3725 141.135C78.6825 141.135 78.0555 141.024 77.4915 140.802C76.9275 140.58 76.4445 140.262 76.0425 139.848C75.6465 139.434 75.3375 138.933 75.1155 138.345C74.8995 137.757 74.7915 137.097 74.7915 136.365C74.7915 135.639 74.8995 134.982 75.1155 134.394C75.3375 133.806 75.6465 133.308 76.0425 132.9C76.4445 132.492 76.9275 132.177 77.4915 131.955C78.0555 131.733 78.6825 131.622 79.3725 131.622ZM79.3725 139.425C80.1405 139.425 80.7075 139.167 81.0735 138.651C81.4455 138.135 81.6315 137.379 81.6315 136.383C81.6315 135.387 81.4455 134.628 81.0735 134.106C80.7075 133.584 80.1405 133.323 79.3725 133.323C78.5925 133.323 78.0135 133.587 77.6355 134.115C77.2635 134.637 77.0775 135.393 77.0775 136.383C77.0775 137.373 77.2635 138.129 77.6355 138.651C78.0135 139.167 78.5925 139.425 79.3725 139.425ZM90.5004 137.058C89.8584 137.088 89.3184 137.145 88.8804 137.229C88.4424 137.307 88.0914 137.409 87.8274 137.535C87.5634 137.661 87.3744 137.808 87.2604 137.976C87.1464 138.144 87.0894 138.327 87.0894 138.525C87.0894 138.915 87.2034 139.194 87.4314 139.362C87.6654 139.53 87.9684 139.614 88.3404 139.614C88.7964 139.614 89.1894 139.533 89.5194 139.371C89.8554 139.203 90.1824 138.951 90.5004 138.615V137.058ZM85.4064 133.053C86.4684 132.081 87.7464 131.595 89.2404 131.595C89.7804 131.595 90.2634 131.685 90.6894 131.865C91.1154 132.039 91.4754 132.285 91.7694 132.603C92.0634 132.915 92.2854 133.29 92.4354 133.728C92.5914 134.166 92.6694 134.646 92.6694 135.168V141H91.6614C91.4514 141 91.2894 140.97 91.1754 140.91C91.0614 140.844 90.9714 140.715 90.9054 140.523L90.7074 139.857C90.4734 140.067 90.2454 140.253 90.0234 140.415C89.8014 140.571 89.5704 140.703 89.3304 140.811C89.0904 140.919 88.8324 141 88.5564 141.054C88.2864 141.114 87.9864 141.144 87.6564 141.144C87.2664 141.144 86.9064 141.093 86.5764 140.991C86.2464 140.883 85.9614 140.724 85.7214 140.514C85.4814 140.304 85.2954 140.043 85.1634 139.731C85.0314 139.419 84.9654 139.056 84.9654 138.642C84.9654 138.408 85.0044 138.177 85.0824 137.949C85.1604 137.715 85.2864 137.493 85.4604 137.283C85.6404 137.073 85.8714 136.875 86.1534 136.689C86.4354 136.503 86.7804 136.341 87.1884 136.203C87.6024 136.065 88.0824 135.954 88.6284 135.87C89.1744 135.78 89.7984 135.726 90.5004 135.708V135.168C90.5004 134.55 90.3684 134.094 90.1044 133.8C89.8404 133.5 89.4594 133.35 88.9614 133.35C88.6014 133.35 88.3014 133.392 88.0614 133.476C87.8274 133.56 87.6204 133.656 87.4404 133.764C87.2604 133.866 87.0954 133.959 86.9454 134.043C86.8014 134.127 86.6394 134.169 86.4594 134.169C86.3034 134.169 86.1714 134.13 86.0634 134.052C85.9554 133.968 85.8684 133.872 85.8024 133.764L85.4064 133.053ZM97.013 127.626V141H94.79V127.626H97.013ZM99.0839 139.776C99.0839 139.59 99.1169 139.413 99.1829 139.245C99.2549 139.077 99.3509 138.933 99.4709 138.813C99.5909 138.693 99.7349 138.597 99.9029 138.525C100.071 138.453 100.251 138.417 100.443 138.417C100.635 138.417 100.812 138.453 100.974 138.525C101.142 138.597 101.286 138.693 101.406 138.813C101.532 138.933 101.631 139.077 101.703 139.245C101.775 139.413 101.811 139.59 101.811 139.776C101.811 139.968 101.775 140.148 101.703 140.316C101.631 140.478 101.532 140.619 101.406 140.739C101.286 140.859 101.142 140.952 100.974 141.018C100.812 141.09 100.635 141.126 100.443 141.126C100.251 141.126 100.071 141.09 99.9029 141.018C99.7349 140.952 99.5909 140.859 99.4709 140.739C99.3509 140.619 99.2549 140.478 99.1829 140.316C99.1169 140.148 99.0839 139.968 99.0839 139.776ZM99.0839 133.359C99.0839 133.173 99.1169 132.996 99.1829 132.828C99.2549 132.66 99.3509 132.516 99.4709 132.396C99.5909 132.276 99.7349 132.18 99.9029 132.108C100.071 132.036 100.251 132 100.443 132C100.635 132 100.812 132.036 100.974 132.108C101.142 132.18 101.286 132.276 101.406 132.396C101.532 132.516 101.631 132.66 101.703 132.828C101.775 132.996 101.811 133.173 101.811 133.359C101.811 133.551 101.775 133.731 101.703 133.899C101.631 134.061 101.532 134.202 101.406 134.322C101.286 134.442 101.142 134.538 100.974 134.61C100.812 134.676 100.635 134.709 100.443 134.709C100.251 134.709 100.071 134.676 99.9029 134.61C99.7349 134.538 99.5909 134.442 99.4709 134.322C99.3509 134.202 99.2549 134.061 99.1829 133.899C99.1169 133.731 99.0839 133.551 99.0839 133.359ZM112.826 139.263C113.462 139.179 113.942 138.966 114.266 138.624C114.596 138.276 114.761 137.823 114.761 137.265C114.761 137.037 114.719 136.839 114.635 136.671C114.557 136.497 114.443 136.344 114.293 136.212C114.149 136.08 113.978 135.966 113.78 135.87C113.582 135.774 113.366 135.684 113.132 135.6L112.826 139.263ZM112.25 129.75C111.914 129.792 111.629 129.864 111.395 129.966C111.161 130.062 110.969 130.182 110.819 130.326C110.669 130.47 110.558 130.632 110.486 130.812C110.42 130.992 110.387 131.181 110.387 131.379C110.387 131.607 110.426 131.808 110.504 131.982C110.588 132.15 110.699 132.303 110.837 132.441C110.981 132.573 111.149 132.693 111.341 132.801C111.533 132.903 111.743 132.999 111.971 133.089L112.25 129.75ZM113.303 133.521C113.735 133.653 114.164 133.8 114.59 133.962C115.016 134.118 115.397 134.322 115.733 134.574C116.075 134.826 116.351 135.141 116.561 135.519C116.771 135.891 116.876 136.359 116.876 136.923C116.876 137.481 116.783 138.006 116.597 138.498C116.411 138.984 116.138 139.416 115.778 139.794C115.418 140.166 114.977 140.472 114.455 140.712C113.933 140.946 113.336 141.084 112.664 141.126L112.556 142.449C112.55 142.587 112.49 142.713 112.376 142.827C112.268 142.947 112.13 143.007 111.962 143.007H111.143L111.305 141.081C110.603 140.985 109.943 140.793 109.325 140.505C108.707 140.217 108.182 139.86 107.75 139.434L108.434 138.417C108.494 138.327 108.572 138.255 108.668 138.201C108.77 138.141 108.878 138.111 108.992 138.111C109.124 138.111 109.265 138.159 109.415 138.255C109.565 138.345 109.736 138.453 109.928 138.579C110.12 138.699 110.339 138.822 110.585 138.948C110.831 139.074 111.122 139.167 111.458 139.227L111.791 135.204C111.365 135.084 110.942 134.943 110.522 134.781C110.108 134.619 109.733 134.406 109.397 134.142C109.067 133.872 108.8 133.533 108.596 133.125C108.392 132.717 108.29 132.207 108.29 131.595C108.29 131.139 108.38 130.695 108.56 130.263C108.74 129.825 109.004 129.435 109.352 129.093C109.706 128.751 110.138 128.469 110.648 128.247C111.158 128.025 111.743 127.899 112.403 127.869L112.502 126.735C112.514 126.591 112.574 126.462 112.682 126.348C112.79 126.234 112.931 126.177 113.105 126.177H113.924L113.78 127.941C114.416 128.043 114.965 128.226 115.427 128.49C115.889 128.748 116.288 129.039 116.624 129.363L116.084 130.182C116.006 130.302 115.925 130.392 115.841 130.452C115.757 130.512 115.655 130.542 115.535 130.542C115.445 130.542 115.337 130.515 115.211 130.461C115.085 130.401 114.944 130.332 114.788 130.254C114.632 130.17 114.455 130.086 114.257 130.002C114.065 129.918 113.852 129.849 113.618 129.795L113.303 133.521ZM126.418 138.93C126.658 138.93 126.847 138.999 126.985 139.137C127.129 139.269 127.201 139.446 127.201 139.668V141H118.273V140.262C118.273 140.112 118.303 139.956 118.363 139.794C118.429 139.626 118.531 139.476 118.669 139.344L122.62 135.384C122.95 135.048 123.244 134.727 123.502 134.421C123.766 134.115 123.985 133.812 124.159 133.512C124.333 133.212 124.465 132.909 124.555 132.603C124.651 132.291 124.699 131.964 124.699 131.622C124.699 131.31 124.654 131.037 124.564 130.803C124.474 130.563 124.345 130.362 124.177 130.2C124.015 130.038 123.817 129.918 123.583 129.84C123.355 129.756 123.097 129.714 122.809 129.714C122.545 129.714 122.299 129.753 122.071 129.831C121.849 129.903 121.651 130.008 121.477 130.146C121.303 130.278 121.156 130.434 121.036 130.614C120.916 130.794 120.826 130.992 120.766 131.208C120.664 131.484 120.532 131.667 120.37 131.757C120.208 131.847 119.974 131.868 119.668 131.82L118.498 131.613C118.588 130.989 118.762 130.443 119.02 129.975C119.278 129.501 119.599 129.108 119.983 128.796C120.373 128.478 120.817 128.241 121.315 128.085C121.819 127.923 122.359 127.842 122.935 127.842C123.535 127.842 124.084 127.932 124.582 128.112C125.08 128.286 125.506 128.535 125.86 128.859C126.214 129.183 126.49 129.573 126.688 130.029C126.886 130.485 126.985 130.992 126.985 131.55C126.985 132.03 126.913 132.474 126.769 132.882C126.631 133.29 126.442 133.68 126.202 134.052C125.968 134.424 125.692 134.784 125.374 135.132C125.056 135.48 124.723 135.834 124.375 136.194L121.441 139.191C121.723 139.107 122.002 139.044 122.278 139.002C122.56 138.954 122.827 138.93 123.079 138.93H126.418ZM128.804 139.776C128.804 139.59 128.837 139.413 128.903 139.245C128.975 139.077 129.071 138.933 129.191 138.813C129.311 138.693 129.455 138.597 129.623 138.525C129.791 138.453 129.971 138.417 130.163 138.417C130.355 138.417 130.532 138.453 130.694 138.525C130.862 138.597 131.006 138.693 131.126 138.813C131.252 138.933 131.351 139.077 131.423 139.245C131.495 139.413 131.531 139.59 131.531 139.776C131.531 139.968 131.495 140.148 131.423 140.316C131.351 140.478 131.252 140.619 131.126 140.739C131.006 140.859 130.862 140.952 130.694 141.018C130.532 141.09 130.355 141.126 130.163 141.126C129.971 141.126 129.791 141.09 129.623 141.018C129.455 140.952 129.311 140.859 129.191 140.739C129.071 140.619 128.975 140.478 128.903 140.316C128.837 140.148 128.804 139.968 128.804 139.776ZM135.956 132.711C136.244 132.651 136.52 132.609 136.784 132.585C137.048 132.555 137.303 132.54 137.549 132.54C138.233 132.54 138.836 132.642 139.358 132.846C139.88 133.05 140.318 133.332 140.672 133.692C141.026 134.052 141.293 134.475 141.473 134.961C141.653 135.441 141.743 135.96 141.743 136.518C141.743 137.208 141.62 137.838 141.374 138.408C141.134 138.978 140.798 139.467 140.366 139.875C139.934 140.277 139.421 140.589 138.827 140.811C138.239 141.033 137.597 141.144 136.901 141.144C136.493 141.144 136.106 141.102 135.74 141.018C135.374 140.934 135.029 140.823 134.705 140.685C134.387 140.541 134.09 140.379 133.814 140.199C133.544 140.013 133.301 139.818 133.085 139.614L133.769 138.669C133.913 138.465 134.102 138.363 134.336 138.363C134.486 138.363 134.639 138.411 134.795 138.507C134.951 138.603 135.128 138.708 135.326 138.822C135.53 138.936 135.767 139.041 136.037 139.137C136.313 139.233 136.643 139.281 137.027 139.281C137.435 139.281 137.795 139.215 138.107 139.083C138.419 138.951 138.677 138.768 138.881 138.534C139.091 138.294 139.247 138.012 139.349 137.688C139.457 137.358 139.511 137.001 139.511 136.617C139.511 135.909 139.304 135.357 138.89 134.961C138.482 134.559 137.876 134.358 137.072 134.358C136.454 134.358 135.821 134.472 135.173 134.7L133.787 134.304L134.867 127.986H141.293V128.931C141.293 129.249 141.194 129.507 140.996 129.705C140.798 129.903 140.462 130.002 139.988 130.002H136.415L135.956 132.711ZM158.304 127.986V141H156.171V132.594C156.171 132.258 156.189 131.895 156.225 131.505L152.292 138.894C152.106 139.248 151.821 139.425 151.437 139.425H151.095C150.711 139.425 150.426 139.248 150.24 138.894L146.262 131.478C146.28 131.676 146.295 131.871 146.307 132.063C146.319 132.255 146.325 132.432 146.325 132.594V141H144.192V127.986H146.019C146.127 127.986 146.22 127.989 146.298 127.995C146.376 128.001 146.445 128.016 146.505 128.04C146.571 128.064 146.628 128.103 146.676 128.157C146.73 128.211 146.781 128.283 146.829 128.373L150.726 135.6C150.828 135.792 150.921 135.99 151.005 136.194C151.095 136.398 151.182 136.608 151.266 136.824C151.35 136.602 151.437 136.389 151.527 136.185C151.617 135.975 151.713 135.774 151.815 135.582L155.658 128.373C155.706 128.283 155.757 128.211 155.811 128.157C155.865 128.103 155.922 128.064 155.982 128.04C156.048 128.016 156.12 128.001 156.198 127.995C156.276 127.989 156.369 127.986 156.477 127.986H158.304Z" fill="white"/>
<defs>
<filter id="filter0_b_1600_5767" x="-18.2745" y="-18.2732" width="256.549" height="256.546" filterUnits="userSpaceOnUse" color-interpolation-filters="sRGB">
<feFlood flood-opacity="0" result="BackgroundImageFix"/>
<feGaussianBlur in="BackgroundImage" stdDeviation="10.8247"/>
<feComposite in2="SourceAlpha" operator="in" result="effect1_backgroundBlur_1600_5767"/>
<feBlend mode="normal" in="SourceGraphic" in2="effect1_backgroundBlur_1600_5767" result="shape"/>
</filter>
</defs>
</svg>
