<svg width="100" height="114" viewBox="0 0 100 114" fill="none" xmlns="http://www.w3.org/2000/svg">
    <rect y="23.9043" width="99.6023" height="89.6421" rx="16" fill="url(#paint0_linear_2646_9255)" shape-rendering="geometricPrecision"/>
    <path fill-rule="evenodd" clip-rule="evenodd" d="M28 54V94H30L30 85L70 85V94H72V54H70V63L30 63V54H28ZM70 83V65L30 65L30 83L70 83Z" fill="#DDE3F0"/>
    <g filter="url(#filter0_d_2646_9255)">
    <path d="M32 64C32 61.2386 34.2386 59 37 59C39.7614 59 42 61.2386 42 64C42 66.7614 39.7614 69 37 69C34.2386 69 32 66.7614 32 64Z" fill="white"/>
    </g>
    <g filter="url(#filter1_d_2646_9255)">
    <path d="M45 64C45 61.2386 47.2386 59 50 59C52.7614 59 55 61.2386 55 64C55 66.7614 52.7614 69 50 69C47.2386 69 45 66.7614 45 64Z" fill="white"/>
    </g>
    <mask id="path-5-inside-1_2646_9255" fill="white">
    <path fill-rule="evenodd" clip-rule="evenodd" d="M39 84C39 81.2386 41.2386 79 44 79C45.9791 79 47.6896 80.1499 48.5 81.8179C49.3104 80.1499 51.0209 79 53 79C54.9791 79 56.6896 80.1499 57.5 81.8179C58.3104 80.1499 60.0209 79 62 79C64.7614 79 67 81.2386 67 84C67 86.7614 64.7614 89 62 89C60.0209 89 58.3104 87.8501 57.5 86.1821C56.6896 87.8501 54.9791 89 53 89C51.0209 89 49.3104 87.8501 48.5 86.1821C47.6896 87.8501 45.9791 89 44 89C41.2386 89 39 86.7614 39 84Z"/>
    </mask>
    <path fill-rule="evenodd" clip-rule="evenodd" d="M39 84C39 81.2386 41.2386 79 44 79C45.9791 79 47.6896 80.1499 48.5 81.8179C49.3104 80.1499 51.0209 79 53 79C54.9791 79 56.6896 80.1499 57.5 81.8179C58.3104 80.1499 60.0209 79 62 79C64.7614 79 67 81.2386 67 84C67 86.7614 64.7614 89 62 89C60.0209 89 58.3104 87.8501 57.5 86.1821C56.6896 87.8501 54.9791 89 53 89C51.0209 89 49.3104 87.8501 48.5 86.1821C47.6896 87.8501 45.9791 89 44 89C41.2386 89 39 86.7614 39 84Z" fill="url(#paint1_linear_2646_9255)"/>
    <path d="M48.5 81.8179L46.701 82.6919L48.5 86.3949L50.299 82.6919L48.5 81.8179ZM57.5 81.8179L55.701 82.6919L57.5 86.3949L59.299 82.6919L57.5 81.8179ZM57.5 86.1821L59.299 85.3081L57.5 81.6051L55.701 85.3081L57.5 86.1821ZM48.5 86.1821L50.299 85.3081L48.5 81.6051L46.701 85.3081L48.5 86.1821ZM44 77C40.134 77 37 80.134 37 84H41C41 82.3431 42.3431 81 44 81V77ZM50.299 80.944C49.1668 78.6134 46.7737 77 44 77V81C45.1845 81 46.2125 81.6863 46.701 82.6919L50.299 80.944ZM53 77C50.2263 77 47.8332 78.6134 46.701 80.944L50.299 82.6919C50.7875 81.6863 51.8155 81 53 81V77ZM59.299 80.944C58.1668 78.6134 55.7737 77 53 77V81C54.1845 81 55.2125 81.6863 55.701 82.6919L59.299 80.944ZM59.299 82.6919C59.7875 81.6863 60.8155 81 62 81V77C59.2263 77 56.8332 78.6134 55.701 80.944L59.299 82.6919ZM62 81C63.6569 81 65 82.3431 65 84H69C69 80.134 65.866 77 62 77V81ZM65 84C65 85.6569 63.6569 87 62 87V91C65.866 91 69 87.866 69 84H65ZM62 87C60.8155 87 59.7875 86.3137 59.299 85.3081L55.701 87.056C56.8332 89.3866 59.2263 91 62 91V87ZM53 91C55.7737 91 58.1668 89.3866 59.299 87.056L55.701 85.3081C55.2125 86.3137 54.1845 87 53 87V91ZM46.701 87.056C47.8332 89.3866 50.2263 91 53 91V87C51.8155 87 50.7875 86.3137 50.299 85.3081L46.701 87.056ZM44 91C46.7737 91 49.1668 89.3866 50.299 87.056L46.701 85.3081C46.2125 86.3137 45.1845 87 44 87V91ZM37 84C37 87.866 40.134 91 44 91V87C42.3431 87 41 85.6569 41 84H37Z" fill="white" mask="url(#path-5-inside-1_2646_9255)"/>
    <circle cx="49.7953" cy="21.9125" r="21.9125" fill="url(#paint2_linear_2646_9255)"/>
    <path d="M54.5423 23.9212L56.4881 25.867C57.2138 26.5927 57.2138 27.7693 56.4881 28.4951C55.7624 29.2208 54.5857 29.2208 53.86 28.4951L51.9142 26.5493C50.9563 27.0787 49.855 27.3799 48.6831 27.3799C44.9883 27.3799 41.9932 24.3848 41.9932 20.69C41.9932 16.9951 44.9883 14 48.6831 14C52.3777 14 55.3731 16.9952 55.3731 20.69C55.3731 21.8618 55.0717 22.9632 54.5423 23.9212ZM48.6832 24.035C50.5304 24.035 52.028 22.5373 52.028 20.6902C52.028 18.8427 50.5304 17.345 48.6832 17.345C46.8358 17.345 45.3381 18.8427 45.3381 20.6902C45.3381 22.5373 46.8358 24.035 48.6832 24.035Z" fill="white"/>
    <circle cx="50" cy="22" r="22" fill="#FAA942"/>
    <path d="M50.2565 28.7805C51.0692 28.6732 51.6825 28.401 52.0965 27.964C52.5182 27.5193 52.729 26.9405 52.729 26.2275C52.729 25.9362 52.6753 25.6832 52.568 25.4685C52.4683 25.2462 52.3227 25.0507 52.131 24.882C51.947 24.7133 51.7285 24.5677 51.4755 24.445C51.2225 24.3223 50.9465 24.2073 50.6475 24.1L50.2565 28.7805ZM49.5205 16.625C49.0912 16.6787 48.727 16.7707 48.428 16.901C48.129 17.0237 47.8837 17.177 47.692 17.361C47.5003 17.545 47.3585 17.752 47.2665 17.982C47.1822 18.212 47.14 18.4535 47.14 18.7065C47.14 18.9978 47.1898 19.2547 47.2895 19.477C47.3968 19.6917 47.5387 19.8872 47.715 20.0635C47.899 20.2322 48.1137 20.3855 48.359 20.5235C48.6043 20.6538 48.8727 20.7765 49.164 20.8915L49.5205 16.625ZM50.866 21.4435C51.418 21.6122 51.9662 21.8 52.5105 22.007C53.0548 22.2063 53.5417 22.467 53.971 22.789C54.408 23.111 54.7607 23.5135 55.029 23.9965C55.2973 24.4718 55.4315 25.0698 55.4315 25.7905C55.4315 26.5035 55.3127 27.1743 55.075 27.803C54.8373 28.424 54.4885 28.976 54.0285 29.459C53.5685 29.9343 53.005 30.3253 52.338 30.632C51.671 30.931 50.9082 31.1073 50.0495 31.161L49.9115 32.8515C49.9038 33.0278 49.8272 33.1888 49.6815 33.3345C49.5435 33.4878 49.3672 33.5645 49.1525 33.5645H48.106L48.313 31.1035C47.416 30.9808 46.5727 30.7355 45.783 30.3675C44.9933 29.9995 44.3225 29.5433 43.7705 28.999L44.6445 27.6995C44.7212 27.5845 44.8208 27.4925 44.9435 27.4235C45.0738 27.3468 45.2118 27.3085 45.3575 27.3085C45.5262 27.3085 45.7063 27.3698 45.898 27.4925C46.0897 27.6075 46.3082 27.7455 46.5535 27.9065C46.7988 28.0598 47.0787 28.217 47.393 28.378C47.7073 28.539 48.0792 28.6578 48.5085 28.7345L48.934 23.594C48.3897 23.4407 47.8492 23.2605 47.3125 23.0535C46.7835 22.8465 46.3043 22.5743 45.875 22.237C45.4533 21.892 45.1122 21.4588 44.8515 20.9375C44.5908 20.4162 44.4605 19.7645 44.4605 18.9825C44.4605 18.3998 44.5755 17.8325 44.8055 17.2805C45.0355 16.7208 45.3728 16.2225 45.8175 15.7855C46.2698 15.3485 46.8218 14.9882 47.4735 14.7045C48.1252 14.4208 48.8727 14.2598 49.716 14.2215L49.8425 12.7725C49.8578 12.5885 49.9345 12.4237 50.0725 12.278C50.2105 12.1323 50.3907 12.0595 50.613 12.0595H51.6595L51.4755 14.3135C52.2882 14.4438 52.9897 14.6777 53.58 15.015C54.1703 15.3447 54.6802 15.7165 55.1095 16.1305L54.4195 17.177C54.3198 17.3303 54.2163 17.4453 54.109 17.522C54.0017 17.5987 53.8713 17.637 53.718 17.637C53.603 17.637 53.465 17.6025 53.304 17.5335C53.143 17.4568 52.9628 17.3687 52.7635 17.269C52.5642 17.1617 52.338 17.0543 52.085 16.947C51.8397 16.8397 51.5675 16.7515 51.2685 16.6825L50.866 21.4435Z" fill="white"/>
    <defs>
    <filter id="filter0_d_2646_9255" x="28" y="57" width="18" height="18" filterUnits="userSpaceOnUse" color-interpolation-filters="sRGB">
    <feFlood flood-opacity="0" result="BackgroundImageFix"/>
    <feColorMatrix in="SourceAlpha" type="matrix" values="0 0 0 0 0 0 0 0 0 0 0 0 0 0 0 0 0 0 127 0" result="hardAlpha"/>
    <feOffset dy="2"/>
    <feGaussianBlur stdDeviation="2"/>
    <feComposite in2="hardAlpha" operator="out"/>
    <feColorMatrix type="matrix" values="0 0 0 0 0.0510417 0 0 0 0 0.170625 0 0 0 0 0.35 0 0 0 0.1 0"/>
    <feBlend mode="normal" in2="BackgroundImageFix" result="effect1_dropShadow_2646_9255"/>
    <feBlend mode="normal" in="SourceGraphic" in2="effect1_dropShadow_2646_9255" result="shape"/>
    </filter>
    <filter id="filter1_d_2646_9255" x="41" y="57" width="18" height="18" filterUnits="userSpaceOnUse" color-interpolation-filters="sRGB">
    <feFlood flood-opacity="0" result="BackgroundImageFix"/>
    <feColorMatrix in="SourceAlpha" type="matrix" values="0 0 0 0 0 0 0 0 0 0 0 0 0 0 0 0 0 0 127 0" result="hardAlpha"/>
    <feOffset dy="2"/>
    <feGaussianBlur stdDeviation="2"/>
    <feComposite in2="hardAlpha" operator="out"/>
    <feColorMatrix type="matrix" values="0 0 0 0 0.0510417 0 0 0 0 0.170625 0 0 0 0 0.35 0 0 0 0.1 0"/>
    <feBlend mode="normal" in2="BackgroundImageFix" result="effect1_dropShadow_2646_9255"/>
    <feBlend mode="normal" in="SourceGraphic" in2="effect1_dropShadow_2646_9255" result="shape"/>
    </filter>
    <linearGradient id="paint0_linear_2646_9255" x1="-24.588" y1="68.7243" x2="122.732" y2="68.7243" gradientUnits="userSpaceOnUse">
    <stop stop-color="#4D7EF2"/>
    <stop offset="1" stop-color="#5FD4F4"/>
    </linearGradient>
    <linearGradient id="paint1_linear_2646_9255" x1="32.0879" y1="83.9999" x2="73.5021" y2="83.9999" gradientUnits="userSpaceOnUse">
    <stop stop-color="#4D7EF2"/>
    <stop offset="1" stop-color="#5FD4F4"/>
    </linearGradient>
    <linearGradient id="paint2_linear_2646_9255" x1="17.0641" y1="21.912" x2="81.8848" y2="21.912" gradientUnits="userSpaceOnUse">
    <stop stop-color="#4D7EF2"/>
    <stop offset="1" stop-color="#5FD4F4"/>
    </linearGradient>
    </defs>
</svg>
