<svg width="20" height="20" viewBox="0 0 20 20" fill="none" xmlns="http://www.w3.org/2000/svg">
    <path d="M10 1.87476C8.39303 1.87476 6.82214 2.35128 5.48599 3.24407C4.14985 4.13685 3.10844 5.4058 2.49348 6.89045C1.87852 8.3751 1.71762 10.0088 2.03112 11.5849C2.34463 13.161 3.11846 14.6087 4.25476 15.745C5.39106 16.8813 6.8388 17.6551 8.41489 17.9686C9.99099 18.2821 11.6247 18.1212 13.1093 17.5063C14.594 16.8913 15.8629 15.8499 16.7557 14.5138C17.6485 13.1776 18.125 11.6067 18.125 9.99976C18.1209 7.84614 17.2635 5.78191 15.7407 4.25907C14.2178 2.73624 12.1536 1.87889 10 1.87476ZM9.84375 5.62476C10.0292 5.62476 10.2104 5.67974 10.3646 5.78275C10.5188 5.88577 10.6389 6.03218 10.7099 6.20349C10.7808 6.3748 10.7994 6.5633 10.7632 6.74515C10.7271 6.92701 10.6378 7.09406 10.5067 7.22517C10.3756 7.35628 10.2085 7.44557 10.0266 7.48174C9.84479 7.51792 9.65629 7.49935 9.48499 7.42839C9.31368 7.35744 9.16726 7.23727 9.06425 7.0831C8.96124 6.92893 8.90625 6.74768 8.90625 6.56226C8.90625 6.31362 9.00502 6.07516 9.18084 5.89934C9.35665 5.72353 9.59511 5.62476 9.84375 5.62476ZM10.625 14.3748H10C9.83424 14.3748 9.67527 14.3089 9.55806 14.1917C9.44085 14.0745 9.375 13.9155 9.375 13.7498V9.99976C9.20924 9.99976 9.05027 9.93391 8.93306 9.8167C8.81585 9.69949 8.75 9.54052 8.75 9.37476C8.75 9.209 8.81585 9.05002 8.93306 8.93281C9.05027 8.8156 9.20924 8.74976 9.375 8.74976H10C10.1658 8.74976 10.3247 8.8156 10.4419 8.93281C10.5592 9.05002 10.625 9.209 10.625 9.37476V13.1248C10.7908 13.1248 10.9497 13.1906 11.0669 13.3078C11.1842 13.425 11.25 13.584 11.25 13.7498C11.25 13.9155 11.1842 14.0745 11.0669 14.1917C10.9497 14.3089 10.7908 14.3748 10.625 14.3748Z" fill="#A2ACBE"/>
</svg>
