<svg width="100" height="114" viewBox="0 0 100 114" fill="none" xmlns="http://www.w3.org/2000/svg">
    <rect y="24" width="100" height="90" rx="16" fill="#F7F9FC"/>
    <path opacity="0.6" d="M10 95.8375C22.8155 65.8276 28.2524 74.6305 42.233 93.0366C43.1737 94.275 44.0357 95.1964 44.8297 95.8375H49.8007C55.6081 89.5244 56.2775 59.6201 67.1863 59.0126C81.5552 58.2123 74.8544 95.8375 90 95.8375H49.8007C48.4733 97.2805 46.8775 97.491 44.8297 95.8375H10Z" fill="url(#paint0_linear_2513_10683)"/>
    <path d="M10 95.8375C22.8155 65.8276 28.2524 74.6305 42.233 93.0366C56.2136 111.443 52.8174 59.8129 67.1863 59.0126C81.5552 58.2123 74.8544 95.8375 90 95.8375" stroke="#FAA942" stroke-width="2"/>
    <g filter="url(#filter0_d_2513_10683)">
    <circle cx="37" cy="86" r="4" fill="url(#paint1_linear_2513_10683)"/>
    <circle cx="37" cy="86" r="3.5" stroke="white"/>
    </g>
    <g filter="url(#filter1_d_2513_10683)">
    <circle cx="67" cy="59" r="4" fill="url(#paint2_linear_2513_10683)"/>
    <circle cx="67" cy="59" r="3.5" stroke="white"/>
    </g>
    <circle cx="50" cy="22" r="22" fill="url(#paint3_linear_2513_10683)"/>
    <path fill-rule="evenodd" clip-rule="evenodd" d="M59.0195 13.8467C59.5718 13.8467 60.0195 14.2944 60.0195 14.8467V19.3467C60.0195 19.899 59.5718 20.3467 59.0195 20.3467H54.5195C53.9672 20.3467 53.5195 19.899 53.5195 19.3467C53.5195 18.7944 53.9672 18.3467 54.5195 18.3467H58.0195V14.8467C58.0195 14.2944 58.4672 13.8467 59.0195 13.8467Z" fill="white"/>
    <path fill-rule="evenodd" clip-rule="evenodd" d="M51.4127 14.8897C50.0062 14.6095 48.5481 14.7528 47.223 15.3013C45.8979 15.8499 44.7653 16.7791 43.9683 17.9715C43.1714 19.1639 42.7461 20.5658 42.7461 22C42.7461 23.4342 43.1714 24.8361 43.9683 26.0285C44.7653 27.2209 45.8979 28.1501 47.223 28.6987C48.5481 29.2473 50.0062 29.3905 51.4127 29.1103C52.8192 28.83 54.111 28.139 55.1247 27.1244C55.5151 26.7338 56.1482 26.7335 56.5389 27.1239C56.9296 27.5142 56.9299 28.1474 56.5395 28.5381C55.2462 29.8325 53.598 30.7142 51.8035 31.0717C50.0089 31.4292 48.1487 31.2465 46.458 30.5466C44.7674 29.8467 43.3223 28.6611 42.3055 27.1398C41.2888 25.6185 40.7461 23.8298 40.7461 22C40.7461 20.1702 41.2888 18.3815 42.3055 16.8602C43.3223 15.3389 44.7674 14.1533 46.458 13.4534C48.1487 12.7535 50.0089 12.5708 51.8035 12.9283C53.5976 13.2857 55.2455 14.1672 56.5387 15.4612C56.539 15.4614 56.5392 15.4617 56.5395 15.4619L59.7257 18.6387C60.1168 19.0287 60.1177 19.6618 59.7278 20.0529C59.3378 20.444 58.7046 20.445 58.3135 20.055L55.126 16.8769L55.1247 16.8756C54.111 15.861 52.8192 15.17 51.4127 14.8897Z" fill="white"/>
    <defs>
    <filter id="filter0_d_2513_10683" x="29" y="80" width="16" height="16" filterUnits="userSpaceOnUse" color-interpolation-filters="sRGB">
    <feFlood flood-opacity="0" result="BackgroundImageFix"/>
    <feColorMatrix in="SourceAlpha" type="matrix" values="0 0 0 0 0 0 0 0 0 0 0 0 0 0 0 0 0 0 127 0" result="hardAlpha"/>
    <feOffset dy="2"/>
    <feGaussianBlur stdDeviation="2"/>
    <feComposite in2="hardAlpha" operator="out"/>
    <feColorMatrix type="matrix" values="0 0 0 0 0.0510417 0 0 0 0 0.170625 0 0 0 0 0.35 0 0 0 0.1 0"/>
    <feBlend mode="normal" in2="BackgroundImageFix" result="effect1_dropShadow_2513_10683"/>
    <feBlend mode="normal" in="SourceGraphic" in2="effect1_dropShadow_2513_10683" result="shape"/>
    </filter>
    <filter id="filter1_d_2513_10683" x="59" y="53" width="16" height="16" filterUnits="userSpaceOnUse" color-interpolation-filters="sRGB">
    <feFlood flood-opacity="0" result="BackgroundImageFix"/>
    <feColorMatrix in="SourceAlpha" type="matrix" values="0 0 0 0 0 0 0 0 0 0 0 0 0 0 0 0 0 0 127 0" result="hardAlpha"/>
    <feOffset dy="2"/>
    <feGaussianBlur stdDeviation="2"/>
    <feComposite in2="hardAlpha" operator="out"/>
    <feColorMatrix type="matrix" values="0 0 0 0 0.0510417 0 0 0 0 0.170625 0 0 0 0 0.35 0 0 0 0.1 0"/>
    <feBlend mode="normal" in2="BackgroundImageFix" result="effect1_dropShadow_2513_10683"/>
    <feBlend mode="normal" in="SourceGraphic" in2="effect1_dropShadow_2513_10683" result="shape"/>
    </filter>
    <linearGradient id="paint0_linear_2513_10683" x1="50" y1="82" x2="50" y2="97" gradientUnits="userSpaceOnUse">
    <stop stop-color="white"/>
    <stop offset="1" stop-color="white" stop-opacity="0"/>
    </linearGradient>
    <linearGradient id="paint1_linear_2513_10683" x1="31.0251" y1="85.9999" x2="42.8577" y2="85.9999" gradientUnits="userSpaceOnUse">
    <stop stop-color="#4D7EF2"/>
    <stop offset="1" stop-color="#5FD4F4"/>
    </linearGradient>
    <linearGradient id="paint2_linear_2513_10683" x1="61.0251" y1="58.9999" x2="72.8577" y2="58.9999" gradientUnits="userSpaceOnUse">
    <stop stop-color="#4D7EF2"/>
    <stop offset="1" stop-color="#5FD4F4"/>
    </linearGradient>
    <linearGradient id="paint3_linear_2513_10683" x1="17.1381" y1="21.9995" x2="82.2176" y2="21.9995" gradientUnits="userSpaceOnUse">
    <stop stop-color="#4D7EF2"/>
    <stop offset="1" stop-color="#5FD4F4"/>
    </linearGradient>
    </defs>
</svg>
