<?xml version="1.0" encoding="utf-8"?>
<!-- Generator: Adobe Illustrator 19.0.0, SVG Export Plug-In . SVG Version: 6.00 Build 0)  -->
<svg version="1.1" id="Layer_1" xmlns="http://www.w3.org/2000/svg" xmlns:xlink="http://www.w3.org/1999/xlink" x="0px" y="0px"
	 viewBox="0 0 512 512" style="enable-background:new 0 0 512 512;" xml:space="preserve">
<g>
	<g>
		<path d="M499.677,426.489c4.427,0,8.017-3.589,8.017-8.017V84.977c0-2.1-0.863-4.184-2.348-5.668l-76.96-76.96
			C426.899,0.863,424.817,0,422.716,0H106.323C92.473,0,81.204,11.268,81.204,25.119v9.086H12.261
			c-6.987,0-10.616,8.738-5.668,13.685l62.741,62.741l-62.74,62.741c-4.947,4.947-1.32,13.685,5.668,13.685h68.944v299.825
			c0,13.851,11.268,25.119,25.119,25.119h376.251c13.851,0,25.119-11.268,25.119-25.119v-34.205c0-4.427-3.589-8.017-8.017-8.017
			s-8.017,3.589-8.017,8.017v34.205c0,5.01-4.076,9.086-9.086,9.086H106.324c-5.01,0-9.086-4.076-9.086-9.086V187.056h51.841
			c4.427,0,8.017-3.589,8.017-8.017s-3.589-8.017-8.017-8.017H31.615l54.724-54.724c3.131-3.131,3.131-8.207,0-11.337L31.615,50.238
			h348.88v120.785H183.285c-4.427,0-8.017,3.589-8.017,8.017s3.589,8.017,8.017,8.017h205.228c4.427,0,8.017-3.589,8.017-8.017
			V42.221c0-4.427-3.589-8.017-8.017-8.017H97.239v-9.086c0-5.01,4.076-9.086,9.086-9.086H414.7v51.841
			c0,13.851,11.268,25.119,25.119,25.119h51.841v325.478C491.66,422.9,495.25,426.489,499.677,426.489z M439.818,76.96
			c-5.01,0-9.086-4.076-9.086-9.086V27.37l24.795,24.795l24.795,24.795H439.818z"/>
	</g>
</g>
<g>
	<g>
		<path d="M422.717,213.779H268.796c-4.427,0-8.017,3.589-8.017,8.017s3.589,8.017,8.017,8.017H414.7v26.722H174.199v-26.722h51.841
			c4.427,0,8.017-3.589,8.017-8.017s-3.589-8.017-8.017-8.017h-59.858c-4.427,0-8.017,3.589-8.017,8.017v239.432
			c0,4.427,3.589,8.017,8.017,8.017h171.023c4.427,0,8.017-3.589,8.017-8.017v-86.046h77.495c4.427,0,8.017-3.589,8.017-8.017
			v-145.37C430.734,217.368,427.144,213.779,422.717,213.779z M243.677,453.211h-69.478v-26.722h69.478V453.211z M243.677,410.455
			h-69.478v-35.273h69.478V410.455z M243.677,359.148h-69.478v-35.273h69.478V359.148z M243.677,307.841h-69.478v-35.273h69.478
			V307.841z M329.189,453.211h-69.478v-26.722h69.478V453.211z M329.189,410.455h-69.478v-35.273h69.478V410.455z M329.189,359.148
			h-69.478v-35.273h69.478V359.148z M329.189,307.841h-69.478v-35.273h69.478V307.841z M414.7,359.148h-69.478v-35.273H414.7
			V359.148z M414.7,307.841h-69.478v-35.273H414.7V307.841z"/>
	</g>
</g>
<g>
	<g>
		<path d="M399.071,422.747l21.181-24.712c2.882-3.362,2.493-8.423-0.869-11.304c-3.363-2.882-8.423-2.493-11.304,0.869
			l-19.567,22.828l-19.567-22.828c-2.882-3.362-7.943-3.752-11.304-0.869c-3.362,2.882-3.751,7.942-0.869,11.304l21.181,24.712
			l-21.181,24.712c-2.616,3.052-2.53,7.725,0.21,10.67c3.216,3.459,8.891,3.348,11.964-0.236l19.567-22.828l19.567,22.828
			c3.072,3.584,8.747,3.695,11.964,0.236c2.74-2.946,2.825-7.619,0.21-10.67L399.071,422.747z"/>
	</g>
</g>
<g>
	<g>
		<path d="M311.552,102.614h-17.637v-9.62h17.637c4.427,0,8.017-3.589,8.017-8.017s-3.589-8.017-8.017-8.017h-25.653
			c-4.427,0-8.017,3.589-8.017,8.017v25.653c0,4.427,3.589,8.017,8.017,8.017h17.637v9.62h-17.637c-4.427,0-8.017,3.589-8.017,8.017
			s3.589,8.017,8.017,8.017h25.653c4.427,0,8.017-3.589,8.017-8.017V110.63C319.569,106.203,315.979,102.614,311.552,102.614z"/>
	</g>
</g>
<g>
	<g>
		<path d="M260.245,128.267h-17.637v-43.29c0-4.427-3.589-8.017-8.017-8.017s-8.017,3.589-8.017,8.017v51.307
			c0,4.427,3.589,8.017,8.017,8.017h25.653c4.427,0,8.017-3.589,8.017-8.017S264.672,128.267,260.245,128.267z"/>
	</g>
</g>
<g>
	<g>
		<path d="M197.996,110.63l17.101-20.522c2.835-3.401,2.375-8.456-1.026-11.291c-3.401-2.834-8.456-2.375-11.291,1.026
			l-15.219,18.263l-15.219-18.263c-2.835-3.402-7.891-3.862-11.291-1.026c-3.401,2.835-3.861,7.89-1.026,11.291l17.101,20.522
			l-17.101,20.522c-2.837,3.401-2.377,8.456,1.025,11.291c3.356,2.797,8.495,2.328,11.291-1.026l15.219-18.263l15.219,18.263
			c3.023,3.628,8.697,3.815,11.96,0.402c2.78-2.907,2.931-7.578,0.358-10.667L197.996,110.63z"/>
	</g>
</g>
<g>
</g>
<g>
</g>
<g>
</g>
<g>
</g>
<g>
</g>
<g>
</g>
<g>
</g>
<g>
</g>
<g>
</g>
<g>
</g>
<g>
</g>
<g>
</g>
<g>
</g>
<g>
</g>
<g>
</g>
</svg>
