<svg width="100" height="100" viewBox="0 0 100 100" fill="none" xmlns="http://www.w3.org/2000/svg">
    <circle cx="50" cy="50" r="49.5" transform="rotate(90 50 50)" fill="white" stroke="url(#paint0_linear_1028_3735)"/>
    <ellipse cx="50" cy="86" rx="4" ry="4" transform="rotate(-180 50 86)" fill="#FAA942"/>
    <path d="M54.553 43.7993C54.167 43.7995 53.7931 43.9335 53.4949 44.1785C53.1968 44.4235 52.9927 44.7643 52.9176 45.1428C52.8425 45.5214 52.901 45.9143 53.0831 46.2545C53.2652 46.5948 53.5596 46.8614 53.9162 47.0089C54.2728 47.1564 54.6696 47.1757 55.0388 47.0635C55.4081 46.9513 55.727 46.7146 55.9413 46.3936C56.1555 46.0726 56.2519 45.6873 56.2139 45.3033C56.1759 44.9192 56.006 44.5602 55.733 44.2874C55.5782 44.1323 55.3942 44.0093 55.1917 43.9256C54.9892 43.8418 54.7721 43.7989 54.553 43.7993V43.7993Z" fill="url(#paint1_linear_1028_3735)"/>
    <path d="M63.8409 37.1286C63.8406 37.1267 63.8406 37.1248 63.8409 37.123C63.7881 36.8913 63.6715 36.679 63.5044 36.51C63.3373 36.3411 63.1264 36.2222 62.8953 36.1667C61.0328 35.7124 58.1028 36.1967 54.8559 37.4967C51.5834 38.8092 48.5172 40.7467 46.4447 42.823C45.7804 43.4837 45.1632 44.1903 44.5978 44.9374C43.2022 44.8749 41.9728 45.0736 40.9372 45.5255C37.3284 47.1136 36.2978 51.178 36.0234 52.8467C35.9837 53.0838 35.9993 53.3269 36.0688 53.557C36.1384 53.7872 36.2602 53.9981 36.4246 54.1735C36.589 54.3489 36.7917 54.4839 37.0169 54.5682C37.242 54.6524 37.4836 54.6836 37.7228 54.6592H37.7309L41.7509 54.2205C41.7559 54.2717 41.7615 54.3186 41.7659 54.3617C41.8175 54.8516 42.036 55.3088 42.3847 55.6567L44.3465 57.6199C44.6939 57.969 45.1511 58.1877 45.6409 58.2392L45.7753 58.2536L45.3378 62.2686V62.2767C45.3154 62.493 45.3384 62.7115 45.4053 62.9183C45.4722 63.1252 45.5816 63.3158 45.7263 63.478C45.8711 63.6401 46.0481 63.7703 46.2461 63.8602C46.444 63.95 46.6585 63.9976 46.8759 63.9999C46.9628 63.9999 47.0496 63.9928 47.1353 63.9786C48.8134 63.7086 52.8759 62.6905 54.4597 59.0624C54.9078 58.0336 55.1059 56.8092 55.0503 55.4161C55.8007 54.8519 56.5098 54.2347 57.1722 53.5692C59.2615 51.4905 61.2053 48.4492 62.504 45.2242C63.7972 42.0142 64.284 39.0624 63.8409 37.1286V37.1286ZM57.1497 48.0586C56.6361 48.5727 55.9816 48.9229 55.269 49.0649C54.5564 49.207 53.8177 49.1345 53.1463 48.8566C52.4749 48.5787 51.901 48.1079 51.4972 47.5037C51.0934 46.8996 50.8779 46.1893 50.8779 45.4627C50.8779 44.736 51.0934 44.0257 51.4972 43.4216C51.901 42.8175 52.4749 42.3467 53.1463 42.0688C53.8177 41.7909 54.5564 41.7184 55.269 41.8604C55.9816 42.0024 56.6361 42.3527 57.1497 42.8667C57.4939 43.2058 57.7672 43.6099 57.9538 44.0555C58.1404 44.5012 58.2365 44.9795 58.2365 45.4627C58.2365 45.9458 58.1404 46.4241 57.9538 46.8698C57.7672 47.3155 57.4939 47.7196 57.1497 48.0586V48.0586Z" fill="url(#paint2_linear_1028_3735)"/>
    <path d="M44.1209 58.1525C43.8791 58.1225 43.6346 58.1818 43.4334 58.3194C43.0341 58.5925 42.6328 58.8625 42.2278 59.1256C41.4085 59.6581 40.4285 58.7231 40.9153 57.8756L41.6747 56.5631C41.7833 56.4043 41.8437 56.2175 41.8488 56.0252C41.8539 55.8329 41.8034 55.6432 41.7034 55.4789C41.6034 55.3146 41.4581 55.1826 41.2849 55.0987C41.1118 55.0149 40.9181 54.9828 40.7272 55.0062C39.8844 55.1128 39.101 55.4967 38.5003 56.0975C38.2716 56.3269 37.576 57.0231 37.2016 59.6762C37.095 60.4383 37.0278 61.2054 37.0003 61.9744C36.9969 62.1078 37.0202 62.2406 37.069 62.3649C37.1177 62.4892 37.1908 62.6025 37.284 62.6981C37.3772 62.7937 37.4886 62.8696 37.6116 62.9215C37.7347 62.9733 37.8668 63 38.0003 63H38.0253C38.7949 62.9727 39.5626 62.906 40.3253 62.8C42.9797 62.425 43.6759 61.7287 43.9047 61.5C44.5083 60.8991 44.8912 60.112 44.9916 59.2662C45.0237 59.0031 44.9501 58.738 44.7868 58.5292C44.6235 58.3203 44.384 58.1848 44.1209 58.1525Z" fill="url(#paint3_linear_1028_3735)"/>
    <defs>
    <linearGradient id="paint0_linear_1028_3735" x1="-24.6862" y1="49.9988" x2="123.222" y2="49.9988" gradientUnits="userSpaceOnUse">
    <stop stop-color="#4D7EF2"/>
    <stop offset="1" stop-color="#5FD4F4"/>
    </linearGradient>
    <linearGradient id="paint1_linear_1028_3735" x1="52.0621" y1="45.4674" x2="56.9968" y2="45.4674" gradientUnits="userSpaceOnUse">
    <stop stop-color="#4D7EF2"/>
    <stop offset="1" stop-color="#5FD4F4"/>
    </linearGradient>
    <linearGradient id="paint2_linear_1028_3735" x1="29.0901" y1="49.9996" x2="70.5028" y2="49.9996" gradientUnits="userSpaceOnUse">
    <stop stop-color="#4D7EF2"/>
    <stop offset="1" stop-color="#5FD4F4"/>
    </linearGradient>
    <linearGradient id="paint3_linear_1028_3735" x1="35.0254" y1="58.9993" x2="46.8564" y2="58.9993" gradientUnits="userSpaceOnUse">
    <stop stop-color="#4D7EF2"/>
    <stop offset="1" stop-color="#5FD4F4"/>
    </linearGradient>
    </defs>
</svg>
