<svg width="24" height="24" viewBox="0 0 24 24" fill="none" xmlns="http://www.w3.org/2000/svg">
    <path d="M20.8125 14.85L16.4156 12.975C16.1888 12.8733 15.9397 12.8312 15.692 12.8525C15.4443 12.8738 15.2061 12.9579 15 13.0969L12.6469 14.6625C11.2127 13.966 10.0516 12.8114 9.34687 11.3813L10.9031 9.00001C11.0412 8.79364 11.1255 8.55607 11.1484 8.30885C11.1713 8.06163 11.1321 7.81261 11.0344 7.58438L9.15 3.18751C9.01851 2.89061 8.79586 2.64332 8.51435 2.4815C8.23284 2.31967 7.90711 2.25172 7.58437 2.28751C6.31837 2.45336 5.15566 3.07329 4.31243 4.03206C3.46919 4.99083 3.00281 6.22319 3 7.50001C3 14.9438 9.05625 21 16.5 21C17.7768 20.9972 19.0092 20.5308 19.9679 19.6876C20.9267 18.8443 21.5467 17.6816 21.7125 16.4156C21.7483 16.0929 21.6803 15.7672 21.5185 15.4857C21.3567 15.2041 21.1094 14.9815 20.8125 14.85Z" fill="#001F55"/>
</svg>
