<svg width="36" height="36" viewBox="0 0 36 36" fill="none" xmlns="http://www.w3.org/2000/svg">
    <path d="M14.0625 16.3828C14.234 16.2821 14.3762 16.1383 14.4749 15.9656C14.5736 15.7929 14.6254 15.5974 14.625 15.3984V5.27345C14.6266 5.09222 14.5843 4.9133 14.5019 4.75191C14.4195 4.59052 14.2993 4.45143 14.1515 4.34649C14.0037 4.24154 13.8328 4.17385 13.6533 4.14916C13.4738 4.12447 13.2909 4.14352 13.1203 4.2047C10.2721 5.21929 7.80709 7.0893 6.0626 9.55878C4.31811 12.0283 3.37941 14.9765 3.375 18C3.37652 18.8959 3.45652 19.7899 3.61406 20.6719C3.64786 20.8481 3.7228 21.0138 3.83277 21.1555C3.94273 21.2972 4.08462 21.411 4.24688 21.4875C4.39661 21.5581 4.5595 21.5964 4.725 21.6C4.92284 21.5988 5.11686 21.5454 5.2875 21.4453L14.0625 16.3828ZM12.375 6.97501V14.7516L5.63906 18.6469C5.625 18.4219 5.625 18.2109 5.625 18C5.62932 15.7197 6.26148 13.4846 7.45215 11.5398C8.64282 9.59508 10.346 8.01574 12.375 6.97501Z" fill="#001F55"/>
    <path d="M30.6982 10.7438C30.6837 10.7281 30.6739 10.7085 30.6701 10.6875L30.6138 10.6172C29.3268 8.41359 27.4851 6.58551 25.272 5.3149C23.059 4.04428 20.5517 3.37546 17.9998 3.375C17.7014 3.375 17.4153 3.49353 17.2043 3.7045C16.9933 3.91548 16.8748 4.20163 16.8748 4.5V17.3531L5.75135 23.7797C5.6217 23.8513 5.50768 23.9482 5.41601 24.0645C5.32434 24.1809 5.25687 24.3144 5.21756 24.4572C5.17825 24.6001 5.16791 24.7493 5.18712 24.8962C5.20634 25.0431 5.25474 25.1846 5.32947 25.3125V25.3406L5.37166 25.4109C6.99383 28.1878 9.48608 30.3526 12.4627 31.5702C15.4392 32.7878 18.7341 32.9903 21.8374 32.1465C24.9407 31.3026 27.6793 29.4594 29.6294 26.902C31.5795 24.3447 32.6322 21.216 32.6248 18C32.6282 15.4544 31.9639 12.9524 30.6982 10.7438Z" fill="#001F55"/>
</svg>
