<svg width="150" height="72" viewBox="0 0 150 72" fill="none" xmlns="http://www.w3.org/2000/svg">
    <rect x="20" width="130" height="72" rx="16" fill="#F7F9FC" shape-rendering="geometricPrecision"/>
    <g filter="url(#filter0_d_2464_12371)">
    <rect x="62" y="20" width="22" height="40" rx="5" fill="white"/>
    </g>
    <rect x="88" y="12" width="22" height="40" rx="5" fill="#FAA942"/>
    <g filter="url(#filter1_d_2464_12371)">
    <rect x="114" y="20" width="22" height="40" rx="5" fill="white"/>
    </g>
    <circle cx="22" cy="36" r="22" fill="url(#paint0_linear_2464_12371)"/>
    <path fill-rule="evenodd" clip-rule="evenodd" d="M31.6866 29.273C32.0881 29.6522 32.1062 30.2851 31.727 30.6866L20.3937 42.6866C20.2048 42.8866 19.9418 43 19.6667 43C19.3915 43 19.1286 42.8866 18.9397 42.6866L13.273 36.6866C12.8938 36.2851 12.9119 35.6522 13.3134 35.273C13.7149 34.8938 14.3478 34.9119 14.727 35.3134L19.6667 40.5436L30.273 29.3134C30.6522 28.9119 31.2851 28.8938 31.6866 29.273Z" fill="white"/>
    <defs>
    <filter id="filter0_d_2464_12371" x="58" y="18" width="30" height="48" filterUnits="userSpaceOnUse" color-interpolation-filters="sRGB">
    <feFlood flood-opacity="0" result="BackgroundImageFix"/>
    <feColorMatrix in="SourceAlpha" type="matrix" values="0 0 0 0 0 0 0 0 0 0 0 0 0 0 0 0 0 0 127 0" result="hardAlpha"/>
    <feOffset dy="2"/>
    <feGaussianBlur stdDeviation="2"/>
    <feComposite in2="hardAlpha" operator="out"/>
    <feColorMatrix type="matrix" values="0 0 0 0 0.0510417 0 0 0 0 0.170625 0 0 0 0 0.35 0 0 0 0.1 0"/>
    <feBlend mode="normal" in2="BackgroundImageFix" result="effect1_dropShadow_2464_12371"/>
    <feBlend mode="normal" in="SourceGraphic" in2="effect1_dropShadow_2464_12371" result="shape"/>
    </filter>
    <filter id="filter1_d_2464_12371" x="110" y="18" width="30" height="48" filterUnits="userSpaceOnUse" color-interpolation-filters="sRGB">
    <feFlood flood-opacity="0" result="BackgroundImageFix"/>
    <feColorMatrix in="SourceAlpha" type="matrix" values="0 0 0 0 0 0 0 0 0 0 0 0 0 0 0 0 0 0 127 0" result="hardAlpha"/>
    <feOffset dy="2"/>
    <feGaussianBlur stdDeviation="2"/>
    <feComposite in2="hardAlpha" operator="out"/>
    <feColorMatrix type="matrix" values="0 0 0 0 0.0510417 0 0 0 0 0.170625 0 0 0 0 0.35 0 0 0 0.1 0"/>
    <feBlend mode="normal" in2="BackgroundImageFix" result="effect1_dropShadow_2464_12371"/>
    <feBlend mode="normal" in="SourceGraphic" in2="effect1_dropShadow_2464_12371" result="shape"/>
    </filter>
    <linearGradient id="paint0_linear_2464_12371" x1="-10.8619" y1="35.9995" x2="54.2176" y2="35.9995" gradientUnits="userSpaceOnUse">
    <stop stop-color="#4D7EF2"/>
    <stop offset="1" stop-color="#5FD4F4"/>
    </linearGradient>
    </defs>
</svg>
