<svg width="24" height="24" viewBox="0 0 24 24" fill="none" xmlns="http://www.w3.org/2000/svg">
    <path d="M23.7459 12.27C23.7459 11.48 23.6759 10.73 23.5559 10H12.2559V14.51H18.7259C18.4359 15.99 17.5859 17.24 16.3259 18.09V21.09H20.1859C22.4459 19 23.7459 15.92 23.7459 12.27Z" fill="#4285F4"/>
    <path d="M12.2549 24C15.4949 24 18.2049 22.92 20.1849 21.09L16.3249 18.09C15.2449 18.81 13.8749 19.25 12.2549 19.25C9.12492 19.25 6.47492 17.14 5.52492 14.29H1.54492V17.38C3.51492 21.3 7.56492 24 12.2549 24Z" fill="#34A853"/>
    <path d="M5.52586 14.29C5.27586 13.57 5.14586 12.8 5.14586 12C5.14586 11.2 5.28586 10.43 5.52586 9.71V6.62H1.54586C0.725858 8.24 0.255859 10.06 0.255859 12C0.255859 13.94 0.725858 15.76 1.54586 17.38L5.52586 14.29Z" fill="#FBBC05"/>
    <path d="M12.2549 4.75C14.0249 4.75 15.6049 5.36 16.8549 6.55L20.2749 3.13C18.2049 1.19 15.4949 0 12.2549 0C7.56492 0 3.51492 2.7 1.54492 6.62L5.52492 9.71C6.47492 6.86 9.12492 4.75 12.2549 4.75Z" fill="#EA4335"/>
</svg>
