<svg width="24" height="24" viewBox="0 0 24 24" fill="none" xmlns="http://www.w3.org/2000/svg">
    <path d="M23.9857 12.0001C23.9857 5.38089 18.6198 0.0150146 12.0007 0.0150146C5.3815 0.0150146 0.015625 5.38089 0.015625 12.0001C0.015625 17.9821 4.39837 22.9404 10.128 23.8395V15.4645H7.08493V12.0001H10.128V9.3596C10.128 6.35584 11.9173 4.69668 14.6549 4.69668C15.9662 4.69668 17.3378 4.93075 17.3378 4.93075V7.88019H15.8265C14.3376 7.88019 13.8733 8.80405 13.8733 9.75186V12.0001H17.1973L16.6659 15.4645H13.8733V23.8395C19.6029 22.9404 23.9857 17.9821 23.9857 12.0001Z" fill="#1877F2"/>
    <path d="M16.665 15.4645L17.1963 12H13.8724V9.75183C13.8724 8.80404 14.3367 7.88018 15.8255 7.88018H17.3368V4.93073C17.3368 4.93073 15.9652 4.69666 14.654 4.69666C11.9163 4.69666 10.127 6.35582 10.127 9.35959V12H7.08398V15.4645H10.127V23.8395C10.7465 23.9366 11.3727 23.9852 11.9997 23.9851C12.6368 23.9851 13.2622 23.9352 13.8724 23.8395V15.4645H16.665Z" fill="white"/>
</svg>
