<svg width="100" height="100" viewBox="0 0 100 100" fill="none" xmlns="http://www.w3.org/2000/svg">
    <circle cx="50" cy="50" r="49.5" transform="rotate(90 50 50)" fill="white" stroke="url(#paint0_linear_1028_3750)"/>
    <ellipse cx="50" cy="86" rx="4" ry="4" transform="rotate(-180 50 86)" fill="#FAA942"/>
    <path d="M63.9414 40.96C63.9273 40.7366 63.8386 40.5244 63.6896 40.3574C63.5406 40.1904 63.3399 40.0782 63.1195 40.0388C57.7133 39.0688 55.4564 38.3675 50.4114 36.0888C50.282 36.0303 50.1416 36 49.9995 36C49.8575 36 49.7171 36.0303 49.5877 36.0888C44.5427 38.3675 42.2858 39.0688 36.8795 40.0388C36.6592 40.0782 36.4585 40.1904 36.3095 40.3574C36.1605 40.5244 36.0718 40.7366 36.0577 40.96C35.817 44.7794 36.3302 48.3381 37.5845 51.5375C38.6117 54.1472 40.1319 56.5346 42.062 58.5694C45.4039 62.115 48.952 63.655 49.6289 63.9275C49.8694 64.0248 50.1384 64.0248 50.3789 63.9275C51.0558 63.655 54.6039 62.115 57.9458 58.5694C59.8728 56.5339 61.39 54.1465 62.4145 51.5375C63.6689 48.3381 64.182 44.7794 63.9414 40.96ZM55.7539 45.6544L48.8289 53.6544C48.7399 53.7575 48.6307 53.8414 48.5081 53.9009C48.3854 53.9603 48.2519 53.994 48.1158 54H48.0745C47.8128 54.0001 47.5615 53.8975 47.3745 53.7144L44.2995 50.7019C44.2057 50.61 44.1309 50.5005 44.0794 50.3796C44.028 50.2588 44.0008 50.129 43.9994 49.9977C43.9967 49.7324 44.0995 49.477 44.2852 49.2875C44.4708 49.098 44.7241 48.9901 44.9894 48.9874C45.2546 48.9847 45.5101 49.0875 45.6995 49.2731L48.012 51.5413L54.2433 44.3456C54.3292 44.2463 54.4339 44.1649 54.5513 44.106C54.6687 44.0472 54.7965 44.012 54.9275 44.0025C55.0585 43.9931 55.1901 44.0095 55.3147 44.0509C55.4393 44.0923 55.5546 44.1578 55.6539 44.2438C55.7532 44.3297 55.8346 44.4343 55.8935 44.5517C55.9524 44.6691 55.9875 44.797 55.997 44.928C56.0065 45.059 55.99 45.1905 55.9486 45.3152C55.9073 45.4398 55.8417 45.5551 55.7558 45.6544H55.7539Z" fill="url(#paint1_linear_1028_3750)"/>
    <defs>
    <linearGradient id="paint0_linear_1028_3750" x1="-24.6862" y1="49.9988" x2="123.222" y2="49.9988" gradientUnits="userSpaceOnUse">
    <stop stop-color="#4D7EF2"/>
    <stop offset="1" stop-color="#5FD4F4"/>
    </linearGradient>
    <linearGradient id="paint1_linear_1028_3750" x1="29.0881" y1="49.9999" x2="70.501" y2="49.9999" gradientUnits="userSpaceOnUse">
    <stop stop-color="#4D7EF2"/>
    <stop offset="1" stop-color="#5FD4F4"/>
    </linearGradient>
    </defs>
</svg>
