<svg width="30" height="30" viewBox="0 0 30 30" fill="none" xmlns="http://www.w3.org/2000/svg">
    <circle cx="15" cy="14.9998" r="12.5" fill="white"/>
    <path d="M15 2.49976C12.5277 2.49976 10.111 3.23287 8.05538 4.60639C5.99976 5.9799 4.39761 7.93214 3.45151 10.2162C2.50542 12.5003 2.25787 15.0136 2.74019 17.4384C3.2225 19.8631 4.41301 22.0904 6.16117 23.8386C7.90933 25.5867 10.1366 26.7773 12.5614 27.2596C14.9861 27.7419 17.4995 27.4943 19.7835 26.5482C22.0676 25.6021 24.0199 24 25.3934 21.9444C26.7669 19.8888 27.5 17.472 27.5 14.9998C27.4936 11.6865 26.1746 8.51077 23.8318 6.16794C21.489 3.82511 18.3133 2.50611 15 2.49976ZM20.9495 12.8123L13.9063 19.543C13.7242 19.7143 13.4832 19.809 13.2332 19.8074C13.111 19.8092 12.9897 19.7867 12.8762 19.7413C12.7627 19.696 12.6594 19.6286 12.5721 19.543L9.05048 16.1776C8.95281 16.0924 8.87337 15.9883 8.81695 15.8716C8.76052 15.7549 8.72828 15.628 8.72215 15.4985C8.71603 15.3691 8.73614 15.2397 8.7813 15.1182C8.82645 14.9967 8.89571 14.8855 8.9849 14.7915C9.0741 14.6974 9.18139 14.6224 9.30033 14.5708C9.41927 14.5193 9.54741 14.4923 9.67703 14.4916C9.80666 14.4908 9.9351 14.5163 10.0546 14.5664C10.1742 14.6166 10.2823 14.6904 10.3726 14.7834L13.2332 17.5118L19.6274 11.418C19.8144 11.2549 20.0571 11.1704 20.305 11.1821C20.5528 11.1938 20.7865 11.3009 20.9573 11.4809C21.128 11.661 21.2225 11.9 21.2211 12.1482C21.2196 12.3963 21.1223 12.6342 20.9495 12.8123Z" fill="#00BB7A"/>
</svg>
