<svg width="24" height="24" viewBox="0 0 24 24" fill="none" xmlns="http://www.w3.org/2000/svg">
    <path fill-rule="evenodd" clip-rule="evenodd" d="M13.625 3.75C13.625 3.19772 14.0727 2.75 14.625 2.75H20.25C20.8023 2.75 21.25 3.19772 21.25 3.75V9.375C21.25 9.92728 20.8023 10.375 20.25 10.375C19.6977 10.375 19.25 9.92728 19.25 9.375V4.75H14.625C14.0727 4.75 13.625 4.30228 13.625 3.75Z" fill="#001F55"/>
    <path fill-rule="evenodd" clip-rule="evenodd" d="M20.9571 3.04289C21.3476 3.43342 21.3476 4.06658 20.9571 4.45711L14.2071 11.2071C13.8166 11.5976 13.1834 11.5976 12.7929 11.2071C12.4024 10.8166 12.4024 10.1834 12.7929 9.79289L19.5429 3.04289C19.9334 2.65237 20.5666 2.65237 20.9571 3.04289Z" fill="#001F55"/>
    <path fill-rule="evenodd" clip-rule="evenodd" d="M10.9899 5.92933C11.0681 6.47605 10.6883 6.98265 10.1416 7.06085C7.23485 7.47663 5 9.97821 5 13C5 16.3137 7.68629 19 11 19C14.0218 19 16.5234 16.7652 16.9392 13.8584C17.0174 13.3117 17.524 12.9319 18.0707 13.0101C18.6174 13.0883 18.9972 13.5949 18.919 14.1416C18.3644 18.0195 15.0311 21 11 21C6.58172 21 3 17.4183 3 13C3 8.96893 5.98056 5.63569 9.8584 5.081C10.4051 5.0028 10.9117 5.38261 10.9899 5.92933Z" fill="#001F55"/>
</svg>
