<svg width="64" height="64" viewBox="0 0 64 64" fill="none" xmlns="http://www.w3.org/2000/svg">
    <path d="M59.6172 55.1454C57.0611 57.9422 51.0899 59.8963 44.119 59.8963C37.1497 59.8963 31.1776 57.9423 28.6223 55.1454C28.3214 54.8229 28.0822 54.4809 27.8821 54.1382C27.502 54.7841 27.3027 55.4479 27.3027 56.1519C27.3027 56.493 27.3419 56.8349 27.4436 57.1575C28.5223 60.9599 35.5716 63.9213 44.1182 63.9213C52.6665 63.9213 59.7158 60.9608 60.7943 57.1575C60.8952 56.8349 60.9344 56.493 60.9344 56.1519C60.9344 55.4478 60.7359 54.7833 60.355 54.1382C60.1558 54.4793 59.9165 54.8212 59.6172 55.1454Z" fill="url(#paint0_linear_1113_6937)"/>
    <path d="M59.6167 49.1088C58.9389 49.8338 58.0378 50.5169 56.94 51.1201C56.2606 51.4822 55.5027 51.8233 54.6832 52.1258C51.8064 53.2129 48.1133 53.858 44.1185 53.858C40.1254 53.858 36.4307 53.2129 33.5547 52.1258C32.7344 51.8225 31.9758 51.4806 31.2971 51.1201C30.1992 50.5169 29.2997 49.833 28.6204 49.1088C28.3195 48.7862 28.0802 48.4443 27.8801 48.1016C27.5 48.7467 27.3008 49.4104 27.3008 50.1129C27.3008 50.4548 27.34 50.7975 27.4416 51.1201C27.6401 51.8233 28.0402 52.4879 28.6196 53.133C28.9397 53.4749 29.3182 53.8177 29.7367 54.1379C32.6945 56.3741 38.0264 57.8839 44.1161 57.8839C50.2075 57.8839 55.5388 56.3726 58.4955 54.1379C58.9156 53.8177 59.2941 53.4758 59.6142 53.133C60.1936 52.4871 60.5937 51.8233 60.7922 51.1201C60.893 50.7975 60.9322 50.4556 60.9322 50.1129C60.9322 49.4096 60.7338 48.7451 60.3529 48.1016C60.1552 48.4443 59.9159 48.7862 59.6166 49.1088H59.6167Z" fill="url(#paint1_linear_1113_6937)"/>
    <path d="M59.6167 43.0681C58.9389 43.7939 58.0378 44.4786 56.94 45.081C56.2606 45.4431 55.5027 45.7843 54.6832 46.0867C51.8064 47.1738 48.1133 47.819 44.1185 47.819C40.1254 47.819 36.4307 47.1738 33.5547 46.0867C32.7344 45.7835 31.9758 45.4423 31.2971 45.081C30.1992 44.4786 29.2997 43.7939 28.6204 43.0681C28.3195 42.7456 28.0802 42.4044 27.8801 42.0625C27.5 42.7077 27.3008 43.3722 27.3008 44.0754C27.3008 44.4173 27.34 44.7601 27.4416 45.081C27.6401 45.7843 28.0402 46.4496 28.6196 47.0923C28.9397 47.4343 29.3182 47.777 29.7367 48.0996C30.7346 48.8641 32.0334 49.548 33.5522 50.1109C34.611 50.5141 35.7697 50.8569 37.0261 51.1182C39.1826 51.5803 41.5801 51.8431 44.1161 51.8431C46.6513 51.8431 49.0488 51.5811 51.207 51.1182C52.4641 50.8561 53.6221 50.5149 54.6808 50.1109C56.1989 49.548 57.4985 48.8633 58.4955 48.0996C58.9156 47.777 59.2941 47.4351 59.6142 47.0923C60.1936 46.448 60.5937 45.7835 60.7922 45.081C60.893 44.7593 60.9322 44.4173 60.9322 44.0754C60.9322 43.3722 60.7338 42.7069 60.3529 42.0625C60.1552 42.4044 59.9159 42.7456 59.6166 43.0681H59.6167Z" fill="url(#paint2_linear_1113_6937)"/>
    <path d="M59.6167 37.0331C58.9389 37.7557 58.0378 38.4428 56.94 39.0444C56.2606 39.4065 55.5027 39.7476 54.6832 40.0517C51.8064 41.1372 48.1133 41.7799 44.1185 41.7799C40.1254 41.7799 36.4307 41.1372 33.5547 40.0517C32.7344 39.7476 31.9758 39.4057 31.2971 39.0444C30.1992 38.442 29.2997 37.7557 28.6204 37.0331C28.3195 36.7106 28.0802 36.3686 27.8801 36.0259C27.5 36.6686 27.3008 37.3331 27.3008 38.0372C27.3008 38.3791 27.34 38.7218 27.4416 39.0444C27.6401 39.7476 28.0402 40.413 28.6196 41.0573C28.9397 41.3992 29.3182 41.742 29.7367 42.063C30.7346 42.8283 32.0334 43.513 33.5522 44.0759C34.611 44.4791 35.7697 44.8218 37.0261 45.0815C39.1826 45.5452 41.5801 45.8073 44.1161 45.8073C46.6513 45.8073 49.0488 45.5452 51.207 45.0815C52.4641 44.8202 53.6221 44.4791 54.6808 44.0759C56.1989 43.513 57.4985 42.8283 58.4955 42.063C58.9156 41.7412 59.2941 41.3993 59.6142 41.0573C60.1936 40.4122 60.5937 39.7476 60.7922 39.0444C60.893 38.7218 60.9322 38.3799 60.9322 38.0372C60.9322 37.3331 60.7338 36.667 60.3529 36.0259C60.1552 36.3678 59.9159 36.7098 59.6166 37.0331H59.6167Z" fill="#DDE3F0"/>
    <path d="M59.6167 30.9946C58.9389 31.7171 58.0378 32.4042 56.94 33.0075C56.2606 33.3696 55.5027 33.7115 54.6832 34.0131C51.8064 35.1002 48.1133 35.7429 44.1185 35.7429C40.1254 35.7429 36.4307 35.1002 33.5547 34.0131C32.7344 33.7115 31.9758 33.3688 31.2971 33.0075C30.1992 32.4042 29.2997 31.7188 28.6204 30.9946C28.3195 30.672 28.0802 30.33 27.8801 29.9873C27.5 30.6301 27.3008 31.2938 27.3008 32.0002C27.3008 32.3421 27.34 32.6849 27.4416 33.0075C27.6401 33.7115 28.0402 34.3752 28.6196 35.0204C28.9397 35.3623 29.3182 35.705 29.7367 36.026C30.7346 36.7905 32.0334 37.4744 33.5522 38.0373C34.611 38.4421 35.7697 38.7833 37.0261 39.0446C39.1826 39.5067 41.5801 39.7671 44.1161 39.7671C46.6513 39.7671 49.0488 39.5067 51.207 39.0446C52.4641 38.7825 53.6221 38.4421 54.6808 38.0373C56.1989 37.4744 57.4985 36.7897 58.4955 36.026C58.9156 35.7042 59.2941 35.3623 59.6142 35.0204C60.1936 34.3752 60.5937 33.7115 60.7922 33.0075C60.893 32.6849 60.9322 32.3429 60.9322 32.0002C60.9322 31.2954 60.7338 30.6301 60.3529 29.9873C60.1552 30.3292 59.9159 30.672 59.6166 30.9946H59.6167Z" fill="#DDE3F0"/>
    <path d="M59.6167 24.956C58.9389 25.6786 58.0378 26.3657 56.94 26.9689C56.2606 27.331 55.5027 27.6729 54.6832 27.9745C51.8064 29.0616 48.1133 29.7044 44.1185 29.7044C40.1254 29.7044 36.4307 29.0616 33.5547 27.9745C32.7344 27.6729 31.9758 27.3302 31.2971 26.9689C30.1992 26.3657 29.2997 25.6802 28.6204 24.956C28.3195 24.6334 28.0802 24.2915 27.8801 23.9487C27.5 24.5915 27.3008 25.256 27.3008 25.9616C27.3008 26.3036 27.34 26.6463 27.4416 26.9689C27.6401 27.6729 28.0402 28.3366 28.6196 28.9818C28.9397 29.3229 29.3182 29.6649 29.7367 29.9874C30.7346 30.7519 32.0334 31.4358 33.5522 32.0003C34.611 32.4036 35.7697 32.7463 37.0261 33.0076C39.1826 33.4689 41.5801 33.7302 44.1161 33.7302C46.6513 33.7302 49.0488 33.4681 51.207 33.0076C52.4641 32.7463 53.6221 32.4044 54.6808 32.0003C56.1989 31.4358 57.4985 30.7519 58.4955 29.9874C58.9156 29.6649 59.2941 29.3229 59.6142 28.9818C60.1936 28.3366 60.5937 27.6729 60.7922 26.9689C60.893 26.6463 60.9322 26.3044 60.9322 25.9616C60.9322 25.2568 60.7338 24.5915 60.3529 23.9487C60.1552 24.2923 59.9159 24.6334 59.6166 24.956H59.6167Z" fill="#DDE3F0"/>
    <path d="M59.6167 18.9194C58.9389 19.6419 58.0378 20.329 56.94 20.9323C56.2606 21.2944 55.5027 21.6355 54.6832 21.9379C51.8064 23.025 48.1133 23.6678 44.1185 23.6678C40.1254 23.6678 36.4307 23.025 33.5547 21.9379C32.7344 21.6347 31.9758 21.2928 31.2971 20.9323C30.1992 20.329 29.2997 19.6419 28.6204 18.9194C28.3195 18.5968 28.0802 18.2548 27.8801 17.9121C27.5 18.5549 27.3008 19.2194 27.3008 19.925C27.3008 20.2669 27.34 20.6097 27.4416 20.9323C27.6401 21.6355 28.0402 22.3 28.6196 22.9452C28.9397 23.2863 29.3182 23.6282 29.7367 23.9508C30.7346 24.7153 32.0334 25.3992 33.5522 25.9637C34.611 26.3669 35.7697 26.7097 37.0261 26.971C39.1826 27.4323 41.5801 27.6936 44.1161 27.6936C46.6513 27.6936 49.0488 27.4323 51.207 26.971C52.4641 26.7097 53.6221 26.3677 54.6808 25.9637C56.1989 25.3992 57.4985 24.7153 58.4955 23.9508C58.9156 23.6282 59.2941 23.2863 59.6142 22.9452C60.1936 22.3 60.5937 21.6363 60.7922 20.9323C60.893 20.6097 60.9322 20.2677 60.9322 19.925C60.9322 19.2202 60.7338 18.5549 60.3529 17.9121C60.1552 18.254 59.9159 18.5968 59.6166 18.9194H59.6167Z" fill="#DDE3F0"/>
    <path d="M59.6167 12.8808C58.9389 13.6034 58.0378 14.2889 56.94 14.8937C56.2606 15.2558 55.5027 15.5969 54.6832 15.8993C51.8064 16.9864 48.1133 17.6292 44.1185 17.6292C40.1254 17.6292 36.4307 16.9864 33.5547 15.8993C32.7344 15.5961 31.9758 15.2542 31.2971 14.8937C30.1992 14.2905 29.2997 13.6034 28.6204 12.8808C28.3195 12.5582 28.0802 12.2163 27.8801 11.8735C27.5 12.5163 27.3008 13.1808 27.3008 13.8864C27.3008 14.2284 27.34 14.5695 27.4416 14.8937C27.6401 15.5969 28.0402 16.2614 28.6196 16.9066C28.9397 17.2485 29.3182 17.5897 29.7367 17.9122C30.7346 18.6768 32.0334 19.3606 33.5522 19.9251C34.611 20.3284 35.7697 20.6711 37.0261 20.9324C39.1826 21.3937 41.5801 21.655 44.1161 21.655C46.6513 21.655 49.0488 21.3937 51.207 20.9324C52.4641 20.6703 53.6221 20.3292 54.6808 19.9251C56.1989 19.3606 57.4985 18.6768 58.4955 17.9122C58.9156 17.5897 59.2941 17.2485 59.6142 16.9066C60.1936 16.2614 60.5937 15.5977 60.7922 14.8937C60.893 14.5711 60.9322 14.2292 60.9322 13.8864C60.9322 13.1816 60.7338 12.5163 60.3529 11.8735C60.1552 12.2163 59.9159 12.5582 59.6166 12.8808H59.6167Z" fill="#DDE3F0"/>
    <path d="M28.6206 10.8677C28.9407 11.2096 29.3192 11.5507 29.7377 11.8733C30.7356 12.6386 32.0344 13.3217 33.5532 13.8862C34.612 14.2886 35.7707 14.6306 37.0271 14.8935C39.1836 15.3548 41.5811 15.6161 44.1171 15.6161C46.6523 15.6161 49.0498 15.3548 51.208 14.8935C52.4651 14.6314 53.6231 14.2903 54.6818 13.8862C56.1999 13.3217 57.4995 12.6378 58.4965 11.8733C58.9166 11.5507 59.2951 11.2096 59.6152 10.8677C60.1946 10.2225 60.5947 9.55882 60.7932 8.85478C60.894 8.5322 60.9332 8.19025 60.9332 7.84752C60.9332 3.56034 53.4038 0.078125 44.117 0.078125C34.8302 0.078125 27.3008 3.56117 27.3008 7.84752C27.3008 8.18944 27.34 8.5322 27.4416 8.85478C27.6409 9.55882 28.041 10.2241 28.6204 10.8677H28.6206Z" fill="#DDE3F0"/>
    <path d="M3.50904 49.9634C3.20814 49.6409 2.96969 49.2989 2.76882 48.9562C2.3887 49.6013 2.18945 50.2659 2.18945 50.9691C2.18945 51.311 2.22946 51.6538 2.32949 51.9763C3.40821 55.7788 10.6487 58.7401 19.1969 58.7401C21.6938 58.7401 25.2299 58.4796 26.3775 58.028V54.0039C25.23 54.4571 21.6946 54.7151 19.1969 54.7151C12.2269 54.7135 6.0635 52.7603 3.50908 49.9635L3.50904 49.9634Z" fill="url(#paint3_linear_1113_6937)"/>
    <path d="M8.44303 46.9451C7.62359 46.6419 6.86577 46.2999 6.18628 45.9378C5.08755 45.3354 4.18889 44.6523 3.511 43.9265C3.2101 43.6048 2.97164 43.2628 2.77078 42.9209C2.39066 43.5661 2.19141 44.2298 2.19141 44.9322C2.19141 45.2741 2.23142 45.6169 2.33145 45.9378C2.53071 46.6419 2.93163 47.3064 3.511 47.9515C3.83029 48.2935 4.2088 48.6346 4.62813 48.9564C7.58345 51.191 13.1084 52.7008 19.1989 52.7008C21.6972 52.7008 25.2318 52.4363 26.3795 51.9814V47.9443C25.2319 48.3983 21.6974 48.6757 19.1989 48.6757C15.2041 48.6773 11.3189 48.0322 8.44285 46.9451H8.44303Z" fill="url(#paint4_linear_1113_6937)"/>
    <path d="M8.44303 40.9062C7.62359 40.6029 6.86577 40.261 6.18628 39.9005C5.08755 39.2973 4.18889 38.6126 3.511 37.8876C3.2101 37.565 2.97164 37.2231 2.77078 36.8804C2.39066 37.5263 2.19141 38.1901 2.19141 38.8941C2.19141 39.2352 2.23142 39.5771 2.33145 39.8997C2.53071 40.6029 2.93163 41.2683 3.511 41.911C3.83029 42.2529 4.2088 42.5957 4.62813 42.9183C5.62762 43.6828 6.92482 44.3667 8.44366 44.9296C9.50239 45.3328 10.6603 45.6755 11.9183 45.9352C14.0741 46.3989 16.6621 46.661 19.1989 46.661C21.6972 46.661 25.2318 46.4046 26.3795 45.9513V41.9045C25.2319 42.3585 21.6974 42.6359 19.1989 42.6359C15.2041 42.6383 11.3189 41.9932 8.44285 40.9061L8.44303 40.9062Z" fill="#DDE3F0"/>
    <path d="M8.44303 34.8676C7.62359 34.5644 6.86577 34.2224 6.18628 33.8619C5.08755 33.2595 4.18889 32.5732 3.511 31.849C3.2101 31.5265 2.97164 31.1845 2.77078 30.8418C2.39066 31.4845 2.19141 32.149 2.19141 32.8531C2.19141 33.195 2.23142 33.5378 2.33145 33.8603C2.53071 34.5636 2.93163 35.2281 3.511 35.8732C3.83029 36.2152 4.2088 36.5579 4.62813 36.8781C5.62762 37.6434 6.92482 38.3281 8.44366 38.8918C9.50239 39.2942 10.6603 39.6361 11.9183 39.8974C14.0741 40.3611 16.6621 40.6232 19.1989 40.6232C21.6972 40.6232 25.2318 40.3644 26.3795 39.9136V35.8636C25.2319 36.3176 21.6974 36.5951 19.1989 36.5951C15.2041 36.5983 11.3189 35.9555 8.44285 34.8676L8.44303 34.8676Z" fill="#DDE3F0"/>
    <path d="M19.1976 30.5613C15.2028 30.5613 11.4128 29.9186 8.53761 28.8315C7.71817 28.5282 6.91233 28.1863 6.23293 27.8258C5.13419 27.2226 4.21232 26.5355 3.53368 25.8129C3.23278 25.4903 2.98311 25.1484 2.78225 24.8057C2.40213 25.4484 2.19727 26.1129 2.19727 26.8186C2.19727 27.1605 2.23488 27.5032 2.33491 27.8258C2.53417 28.529 2.93269 29.1936 3.51206 29.8387C3.83136 30.1798 4.20986 30.5218 4.62839 30.8444C5.62789 31.6089 6.92509 32.2928 8.44393 32.8557C9.50265 33.2605 10.6589 33.6016 11.9186 33.8629C14.0743 34.3242 16.6623 34.5855 19.1991 34.5855C21.6991 34.5855 25.2337 34.3291 26.3805 33.879V29.8307C25.2306 30.2864 21.696 30.5614 19.1977 30.5614L19.1976 30.5613Z" fill="#DDE3F0"/>
    <path d="M19.1976 13.0128C9.91082 13.0128 2.28527 16.4958 2.28527 20.7822C2.28527 21.1241 2.27807 21.4668 2.3773 21.7894C2.57656 22.4926 2.95347 23.1572 3.53284 23.8023C3.85213 24.1434 4.21865 24.4854 4.63796 24.808C5.63746 25.5725 6.92995 26.2563 8.44715 26.8209C9.50587 27.2241 10.6615 27.5668 11.9202 27.8281C14.0759 28.2894 16.6617 28.5507 19.1983 28.5507C21.6982 28.5507 25.2304 28.2926 26.3772 27.8434L26.3756 13.7232C25.2305 13.2716 21.6941 13.0127 19.1975 13.0127L19.1976 13.0128Z" fill="#DDE3F0"/>
    <defs>
    <linearGradient id="paint0_linear_1113_6937" x1="19.0004" y1="59.0296" x2="68.7443" y2="59.0296" gradientUnits="userSpaceOnUse">
    <stop stop-color="#4D7EF2"/>
    <stop offset="1" stop-color="#5FD4F4"/>
    </linearGradient>
    <linearGradient id="paint1_linear_1113_6937" x1="18.9985" y1="52.9926" x2="68.742" y2="52.9926" gradientUnits="userSpaceOnUse">
    <stop stop-color="#4D7EF2"/>
    <stop offset="1" stop-color="#5FD4F4"/>
    </linearGradient>
    <linearGradient id="paint2_linear_1113_6937" x1="18.9985" y1="46.9527" x2="68.742" y2="46.9527" gradientUnits="userSpaceOnUse">
    <stop stop-color="#4D7EF2"/>
    <stop offset="1" stop-color="#5FD4F4"/>
    </linearGradient>
    <linearGradient id="paint3_linear_1113_6937" x1="-3.78166" y1="53.848" x2="31.9944" y2="53.848" gradientUnits="userSpaceOnUse">
    <stop stop-color="#4D7EF2"/>
    <stop offset="1" stop-color="#5FD4F4"/>
    </linearGradient>
    <linearGradient id="paint4_linear_1113_6937" x1="-3.7797" y1="47.8107" x2="31.9963" y2="47.8107" gradientUnits="userSpaceOnUse">
    <stop stop-color="#4D7EF2"/>
    <stop offset="1" stop-color="#5FD4F4"/>
    </linearGradient>
    </defs>
</svg>
