<svg width="48" height="48" viewBox="0 0 48 48" fill="none" xmlns="http://www.w3.org/2000/svg">
    <circle cx="24" cy="24" r="24" fill="#FAA942"/>
    <path fill-rule="evenodd" clip-rule="evenodd" d="M16.6025 24.0021C16.6025 23.5603 16.9607 23.2021 17.4025 23.2021H30.6025C31.0444 23.2021 31.4025 23.5603 31.4025 24.0021C31.4025 24.444 31.0444 24.8021 30.6025 24.8021H17.4025C16.9607 24.8021 16.6025 24.444 16.6025 24.0021Z" fill="white"/>
    <path fill-rule="evenodd" clip-rule="evenodd" d="M24.0021 16.6025C24.444 16.6025 24.8021 16.9607 24.8021 17.4025V30.6025C24.8021 31.0444 24.444 31.4025 24.0021 31.4025C23.5603 31.4025 23.2021 31.0444 23.2021 30.6025V17.4025C23.2021 16.9607 23.5603 16.6025 24.0021 16.6025Z" fill="white"/>
</svg>
