<svg width="30" height="30" viewBox="0 0 30 30" fill="none" xmlns="http://www.w3.org/2000/svg">
    <path d="M15 2.8125C12.5895 2.8125 10.2332 3.52728 8.22899 4.86646C6.22477 6.20564 4.66267 8.10907 3.74022 10.336C2.81778 12.563 2.57643 15.0135 3.04668 17.3777C3.51694 19.7418 4.67769 21.9134 6.38214 23.6179C8.08659 25.3223 10.2582 26.4831 12.6223 26.9533C14.9865 27.4236 17.437 27.1822 19.664 26.2598C21.8909 25.3373 23.7944 23.7752 25.1335 21.771C26.4727 19.7668 27.1875 17.4105 27.1875 15C27.1813 11.7696 25.8953 8.67324 23.611 6.38898C21.3268 4.10472 18.2304 2.81869 15 2.8125ZM19.418 18.082C19.594 18.2598 19.6928 18.4998 19.6928 18.75C19.6928 19.0002 19.594 19.2402 19.418 19.418C19.2388 19.5912 18.9993 19.6881 18.75 19.6881C18.5007 19.6881 18.2612 19.5912 18.082 19.418L15 16.3242L11.918 19.418C11.7388 19.5912 11.4993 19.6881 11.25 19.6881C11.0007 19.6881 10.7612 19.5912 10.582 19.418C10.406 19.2402 10.3072 19.0002 10.3072 18.75C10.3072 18.4998 10.406 18.2598 10.582 18.082L13.6758 15L10.582 11.918C10.4325 11.7358 10.3561 11.5046 10.3677 11.2692C10.3793 11.0338 10.478 10.8112 10.6446 10.6446C10.8112 10.4779 11.0339 10.3793 11.2692 10.3677C11.5046 10.3561 11.7358 10.4325 11.918 10.582L15 13.6758L18.082 10.582C18.2642 10.4325 18.4954 10.3561 18.7308 10.3677C18.9662 10.3793 19.1888 10.4779 19.3554 10.6446C19.5221 10.8112 19.6207 11.0338 19.6323 11.2692C19.6439 11.5046 19.5675 11.7358 19.418 11.918L16.3242 15L19.418 18.082Z" fill="#F11940"/>
</svg>
