<svg width="92" height="92" viewBox="0 0 92 92" fill="none" xmlns="http://www.w3.org/2000/svg">
    <g clip-path="url(#clip0_2462_10272)">
    <path d="M51.25 70.5V32C51.25 26.4305 53.4625 21.089 57.4008 17.1508C61.339 13.2125 66.6805 11 72.25 11C73.1783 11 74.0685 11.3687 74.7249 12.0251C75.3813 12.6815 75.75 13.5717 75.75 14.5C75.75 15.4283 75.3813 16.3185 74.7249 16.9749C74.0685 17.6313 73.1783 18 72.25 18C68.5405 18.0115 64.9863 19.4902 62.3633 22.1133C59.7402 24.7363 58.2615 28.2905 58.25 32V35.5H84.5C86.3565 35.5 88.137 36.2375 89.4497 37.5503C90.7625 38.863 91.5 40.6435 91.5 42.5V70.5C91.5 72.3565 90.7625 74.137 89.4497 75.4497C88.137 76.7625 86.3565 77.5 84.5 77.5H58.25C56.3935 77.5 54.613 76.7625 53.3003 75.4497C51.9875 74.137 51.25 72.3565 51.25 70.5ZM7.5 77.5H33.75C35.6065 77.5 37.387 76.7625 38.6997 75.4497C40.0125 74.137 40.75 72.3565 40.75 70.5V42.5C40.75 40.6435 40.0125 38.863 38.6997 37.5503C37.387 36.2375 35.6065 35.5 33.75 35.5H7.5V32C7.51154 28.2905 8.99024 24.7363 11.6133 22.1133C14.2363 19.4902 17.7905 18.0115 21.5 18C22.4283 18 23.3185 17.6313 23.9749 16.9749C24.6313 16.3185 25 15.4283 25 14.5C25 13.5717 24.6313 12.6815 23.9749 12.0251C23.3185 11.3687 22.4283 11 21.5 11C15.9305 11 10.589 13.2125 6.65076 17.1508C2.71249 21.089 0.5 26.4305 0.5 32V70.5C0.5 72.3565 1.2375 74.137 2.55025 75.4497C3.86301 76.7625 5.64349 77.5 7.5 77.5Z" fill="#DDE3F0"/>
    </g>
    <defs>
    <clipPath id="clip0_2462_10272">
    <rect width="92" height="92" fill="white" transform="translate(92 92) rotate(-180)"/>
    </clipPath>
    </defs>
</svg>
