<svg width="82" height="140" viewBox="0 0 82 140" fill="none" xmlns="http://www.w3.org/2000/svg">
    <path d="M0 8.00001C0 3.58173 3.58172 0 8 0H74C78.4183 0 82 3.58172 82 8V28.0432C82 38.1022 76.9587 47.4918 68.5742 53.0491L53.4338 63.0843C48.5644 66.3119 48.6841 73.5008 53.6583 76.5643L67.7322 85.2323C76.5994 90.6934 82 100.362 82 110.776V132C82 136.418 78.4183 140 74 140H8C3.58172 140 0 136.418 0 132V110.998C0 100.464 5.52495 90.7019 14.5559 85.279L28.9936 76.6093C34.07 73.5609 34.1905 66.2457 29.2173 63.0317L13.717 53.0148C5.1649 47.4881 0 38.0008 0 27.8183V8.00001Z" fill="#EEF1F8"/>
    <path d="M77.404 25C34.5 42.5 33.0005 18 4.5 22L5.4045 39L22.9045 57.5L36 66.5L50.0001 65.5L71.5001 47C77.3334 34.6667 78.9044 28.5 77.404 25Z" fill="url(#paint0_linear_718_3914)"/>
    <path fill-rule="evenodd" clip-rule="evenodd" d="M4.9999 24.5C31.0186 37.5093 41.4767 32.2122 51.9929 26.8857C58.8564 23.4093 65.7447 19.9203 77 21.5L78.4992 39L57.9992 57L48 67L44 67.1739V129.078C51.958 129.494 58 131.54 58 134C58 136.761 50.3888 139 41 139C31.6112 139 24 136.761 24 134C24 131.438 30.5537 129.325 39 129.034V67.3913L36.4992 67.5L9.99967 47.5C4.16634 35.1666 3.49945 28 4.9999 24.5Z" fill="url(#paint1_linear_718_3914)"/>
    <path d="M8 3H74C76.7614 3 79 5.23858 79 8V28.0432C79 37.0963 74.4628 45.5469 66.9168 50.5485L51.7764 60.5838C45.0809 65.0216 45.2456 74.9063 52.0851 79.1187L66.159 87.7867C74.1394 92.7017 79 101.404 79 110.776V132C79 134.761 76.7614 137 74 137H8C5.23858 137 3 134.761 3 132V111.107C3 101.573 8.02738 92.7467 16.227 87.8837L30.85 79.2111C37.8988 75.0307 38.065 64.8868 31.1569 60.4777L15.4736 50.4676C7.70312 45.508 3 36.9267 3 27.7083V8.00001C3 5.23858 5.23858 3 8 3Z" stroke="white" stroke-width="6"/>
    <defs>
    <linearGradient id="paint0_linear_718_3914" x1="0.499999" y1="34.5" x2="78" y2="34.5" gradientUnits="userSpaceOnUse">
    <stop stop-color="#3F68E4"/>
    <stop offset="1" stop-color="#5EC4F7"/>
    </linearGradient>
    <linearGradient id="paint1_linear_718_3914" x1="-13.9989" y1="80.053" x2="95.7262" y2="80.053" gradientUnits="userSpaceOnUse">
    <stop stop-color="#4D7EF2"/>
    <stop offset="1" stop-color="#5FD4F4"/>
    </linearGradient>
    </defs>
</svg>
