<svg width="150" height="72" viewBox="0 0 150 72" fill="none" xmlns="http://www.w3.org/2000/svg">
    <rect x="20" width="130" height="72" rx="16" fill="#F7F9FC" shape-rendering="geometricPrecision"/>
    <path d="M126.789 16.0362C125.573 14.7231 123.874 14 121.999 14C120.114 14 118.41 14.7187 117.199 16.0237C115.976 17.3431 115.379 19.1363 115.519 21.0725C115.797 24.8925 118.704 28 121.999 28C125.295 28 128.197 24.8931 128.479 21.0737C128.621 19.155 128.021 17.3656 126.789 16.0362ZM132.999 42H110.999C110.711 42.0037 110.426 41.9433 110.165 41.8229C109.903 41.7026 109.671 41.5254 109.487 41.3044C109.081 40.8187 108.917 40.1556 109.038 39.485C109.566 36.5588 111.212 34.1006 113.799 32.375C116.098 30.8431 119.01 30 121.999 30C124.989 30 127.901 30.8437 130.199 32.375C132.787 34.1 134.433 36.5581 134.961 39.4844C135.082 40.155 134.918 40.8181 134.512 41.3037C134.327 41.5249 134.096 41.7022 133.834 41.8226C133.573 41.9431 133.287 42.0037 132.999 42Z" fill="#FAA942"/>
    <g filter="url(#filter0_d_2464_12385)">
    <path d="M84.3882 28.5408C83.0199 27.0635 81.1088 26.25 78.9994 26.25C76.8788 26.25 74.9614 27.0586 73.5994 28.5267C72.2227 30.011 71.5519 32.0283 71.7094 34.2066C72.0216 38.5041 75.2918 42 78.9994 42C82.707 42 85.9716 38.5048 86.2887 34.208C86.4483 32.0494 85.7733 30.0363 84.3882 28.5408ZM91.3744 57.75H66.6244C66.3005 57.7542 65.9796 57.6862 65.6853 57.5508C65.391 57.4154 65.1305 57.2161 64.9229 56.9674C64.4658 56.4211 64.2816 55.6751 64.418 54.9206C65.0115 51.6286 66.8635 48.8632 69.7744 46.9219C72.3605 45.1985 75.6364 44.25 78.9994 44.25C82.3625 44.25 85.6383 45.1992 88.2244 46.9219C91.1353 48.8625 92.9874 51.6279 93.5808 54.9199C93.7172 55.6744 93.533 56.4204 93.076 56.9667C92.8684 57.2155 92.608 57.415 92.3136 57.5505C92.0193 57.686 91.6984 57.7541 91.3744 57.75Z" fill="white"/>
    </g>
    <path d="M22.0024 14C18.1814 13.9997 14.4263 14.9945 11.1067 16.8864C7.7871 18.7784 5.01747 21.5022 3.07049 24.7897C1.12351 28.0773 0.0663274 31.8152 0.00302065 35.6355C-0.0602861 39.4558 0.872468 43.2267 2.70945 46.5769L0.911315 52.9019C0.742201 53.4839 0.731464 54.1005 0.880213 54.6881C1.02896 55.2756 1.33181 55.8128 1.7575 56.2442C2.18315 56.6719 2.71666 56.9764 3.30141 57.1254C3.88616 57.2744 4.50033 57.2623 5.07875 57.0904L11.4251 55.2923C14.3662 56.9042 17.6369 57.8224 20.9872 57.9767C24.3375 58.131 27.6787 57.5173 30.7555 56.1825C33.8323 54.8477 36.5632 52.8272 38.7395 50.2753C40.9157 47.7235 42.4797 44.7079 43.3119 41.459C44.1441 38.2101 44.2225 34.814 43.5411 31.5302C42.8597 28.2464 41.4365 25.1618 39.3803 22.5123C37.3242 19.8627 34.6894 17.7183 31.6775 16.243C28.6656 14.7677 25.3562 14.0005 22.0024 14ZM28.7718 41.0769H15.2329C14.7841 41.0769 14.3536 40.8986 14.0362 40.5813C13.7189 40.2639 13.5406 39.8334 13.5406 39.3846C13.5406 38.9358 13.7189 38.5053 14.0362 38.188C14.3536 37.8706 14.7841 37.6923 15.2329 37.6923H28.7718C29.2206 37.6923 29.6511 37.8706 29.9685 38.188C30.2859 38.5053 30.4642 38.9358 30.4642 39.3846C30.4642 39.8334 30.2859 40.2639 29.9685 40.5813C29.6511 40.8986 29.2206 41.0769 28.7718 41.0769ZM28.7718 34.3077H15.2329C14.7841 34.3077 14.3536 34.1294 14.0362 33.812C13.7189 33.4947 13.5406 33.0642 13.5406 32.6154C13.5406 32.1666 13.7189 31.7361 14.0362 31.4187C14.3536 31.1014 14.7841 30.9231 15.2329 30.9231H28.7718C29.2206 30.9231 29.6511 31.1014 29.9685 31.4187C30.2859 31.7361 30.4642 32.1666 30.4642 32.6154C30.4642 33.0642 30.2859 33.4947 29.9685 33.812C29.6511 34.1294 29.2206 34.3077 28.7718 34.3077Z" fill="url(#paint0_linear_2464_12385)"/>
    <defs>
    <filter id="filter0_d_2464_12385" x="60.374" y="24.25" width="37.251" height="39.5002" filterUnits="userSpaceOnUse" color-interpolation-filters="sRGB">
    <feFlood flood-opacity="0" result="BackgroundImageFix"/>
    <feColorMatrix in="SourceAlpha" type="matrix" values="0 0 0 0 0 0 0 0 0 0 0 0 0 0 0 0 0 0 127 0" result="hardAlpha"/>
    <feOffset dy="2"/>
    <feGaussianBlur stdDeviation="2"/>
    <feComposite in2="hardAlpha" operator="out"/>
    <feColorMatrix type="matrix" values="0 0 0 0 0.0510417 0 0 0 0 0.170625 0 0 0 0 0.35 0 0 0 0.1 0"/>
    <feBlend mode="normal" in2="BackgroundImageFix" result="effect1_dropShadow_2464_12385"/>
    <feBlend mode="normal" in="SourceGraphic" in2="effect1_dropShadow_2464_12385" result="shape"/>
    </filter>
    <linearGradient id="paint0_linear_2464_12385" x1="-10.8619" y1="35.9995" x2="54.2176" y2="35.9995" gradientUnits="userSpaceOnUse">
    <stop stop-color="#4D7EF2"/>
    <stop offset="1" stop-color="#5FD4F4"/>
    </linearGradient>
    </defs>
</svg>
