<svg width="60" height="60" viewBox="0 0 60 60" fill="none" xmlns="http://www.w3.org/2000/svg">
    <path fill-rule="evenodd" clip-rule="evenodd" d="M52.5488 9.61719C53.9295 9.61719 55.0488 10.7365 55.0488 12.1172V23.3672C55.0488 24.7479 53.9295 25.8672 52.5488 25.8672H41.2988C39.9181 25.8672 38.7988 24.7479 38.7988 23.3672C38.7988 21.9865 39.9181 20.8672 41.2988 20.8672H50.0488V12.1172C50.0488 10.7365 51.1681 9.61719 52.5488 9.61719Z" fill="url(#paint0_linear_2718_9226)"/>
    <path fill-rule="evenodd" clip-rule="evenodd" d="M33.5317 12.2244C30.0154 11.5238 26.3703 11.8819 23.0575 13.2533C19.7447 14.6247 16.9131 16.9478 14.9209 19.9288C12.9286 22.9097 11.8652 26.4146 11.8652 30C11.8652 33.5854 12.9286 37.0903 14.9209 40.0713C16.9131 43.0522 19.7447 45.3753 23.0575 46.7467C26.3703 48.1181 30.0154 48.4762 33.5317 47.7757C37.048 47.0751 40.2775 45.3474 42.8118 42.8111C43.7877 41.8344 45.3706 41.8337 46.3473 42.8096C47.324 43.7856 47.3247 45.3685 46.3487 46.3452C43.1154 49.5812 38.995 51.7855 34.5086 52.6793C30.0223 53.5731 25.3717 53.1163 21.145 51.3665C16.9184 49.6168 13.3057 46.6528 10.7638 42.8495C8.22197 39.0462 6.86523 34.5745 6.86523 30C6.86523 25.4255 8.22197 20.9538 10.7638 17.1505C13.3057 13.3472 16.9184 10.3832 21.145 8.63349C25.3717 6.88377 30.0223 6.42692 34.5086 7.32073C38.9941 8.21437 43.1138 10.418 46.3468 13.6529C46.3474 13.6535 46.3481 13.6542 46.3487 13.6548L54.3142 21.5968C55.2919 22.5717 55.2943 24.1546 54.3194 25.1324C53.3445 26.1101 51.7616 26.1124 50.7838 25.1376L42.8151 17.1923L42.8118 17.1889C40.2775 14.6526 37.048 12.9249 33.5317 12.2244Z" fill="url(#paint1_linear_2718_9226)"/>
    <defs>
    <linearGradient id="paint0_linear_2718_9226" x1="34.7873" y1="17.742" x2="58.8224" y2="17.742" gradientUnits="userSpaceOnUse">
    <stop stop-color="#4D7EF2"/>
    <stop offset="1" stop-color="#5FD4F4"/>
    </linearGradient>
    <linearGradient id="paint1_linear_2718_9226" x1="-5.02951" y1="29.9995" x2="66.2381" y2="29.9995" gradientUnits="userSpaceOnUse">
    <stop stop-color="#4D7EF2"/>
    <stop offset="1" stop-color="#5FD4F4"/>
    </linearGradient>
    </defs>
</svg>
