<svg width="450" height="499" viewBox="0 0 450 499" fill="none" xmlns="http://www.w3.org/2000/svg">
    <path d="M295.117 381.505L293.444 383.367C282.828 395.802 271.136 408.372 258.547 420.284C253.97 424.741 251.576 426.836 250.911 427.415L250.712 427.579C228.947 448.434 205.885 463.579 182.724 474.405C170.323 480.425 157.567 485.035 144.801 488.529C93.2139 503.198 44.4973 499.809 12.448 494.246C7.23947 493.452 3.22778 492.708 0.634577 492.197C-14.847 489.082 -30.0294 484.634 -44.7242 478.919C-51.8721 476.302 -58.9092 473.196 -65.8133 469.679C-66.0239 469.578 -66.2233 469.477 -66.4339 469.375C-153.228 429.374 -226.337 304.818 -240.278 279.955C-244.932 271.97 -249.332 264.053 -253.488 256.223C-321.819 129.089 -324.701 29.3067 -324.823 21.1409C-324.889 19.9015 -324.934 18.9495 -324.967 18.2987L-325 17.8334L-325 16.5373C-325 16.2867 -324.989 16.0402 -324.989 15.7965C-324.945 6.34698 -322.484 2.35269 -320.8 1.19367L-320.634 1.08427C-317.83 -1.05446 -314.705 0.631459 -314.705 0.631459C-314.705 0.631459 -127.562 103.519 62.6607 286.877C252.817 103.628 439.793 0.803728 439.793 0.803728C439.793 0.803728 450 -4.68539 450 16.7096L450 18.0064L449.967 18.5381C449.346 31.2805 443.473 152.207 358.507 291.386L357.886 292.449L357.786 292.599C353.42 300.15 330.381 339.835 295.117 381.505Z" fill="#EEF1F8"/>
</svg>
