<svg width="100" height="100" viewBox="0 0 100 100" fill="none" xmlns="http://www.w3.org/2000/svg">
    <circle cx="50" cy="49.9998" r="49.5" transform="rotate(90 50 49.9998)" fill="white" stroke="url(#paint0_linear_821_4656)"/>
    <ellipse cx="50" cy="86" rx="4" ry="4" transform="rotate(-180 50 86)" fill="#FAA942"/>
    <path d="M54.7903 38.036C53.5741 36.7229 51.8753 35.9998 50.0003 35.9998C48.1153 35.9998 46.411 36.7185 45.2004 38.0235C43.9766 39.3429 43.3804 41.136 43.5204 43.0723C43.7979 46.8923 46.7047 49.9998 50.0003 49.9998C53.296 49.9998 56.1978 46.8929 56.4797 43.0735C56.6216 41.1548 56.0216 39.3654 54.7903 38.036ZM61.0003 63.9998H39.0004C38.7124 64.0035 38.4272 63.943 38.1656 63.8227C37.9039 63.7023 37.6724 63.5252 37.4879 63.3041C37.0816 62.8185 36.9179 62.1554 37.0391 61.4848C37.5666 58.5585 39.2129 56.1004 41.8004 54.3748C44.0991 52.8429 47.011 51.9998 50.0003 51.9998C52.9897 51.9998 55.9016 52.8435 58.2003 54.3748C60.7878 56.0998 62.4341 58.5579 62.9616 61.4841C63.0828 62.1548 62.9191 62.8179 62.5128 63.3035C62.3283 63.5247 62.0968 63.7019 61.8352 63.8224C61.5735 63.9428 61.2883 64.0034 61.0003 63.9998Z" fill="url(#paint1_linear_821_4656)"/>
    <defs>
    <linearGradient id="paint0_linear_821_4656" x1="-24.6862" y1="49.9986" x2="123.222" y2="49.9986" gradientUnits="userSpaceOnUse">
    <stop stop-color="#4D7EF2"/>
    <stop offset="1" stop-color="#5FD4F4"/>
    </linearGradient>
    <linearGradient id="paint1_linear_821_4656" x1="30.5814" y1="49.9995" x2="69.0385" y2="49.9995" gradientUnits="userSpaceOnUse">
    <stop stop-color="#4D7EF2"/>
    <stop offset="1" stop-color="#5FD4F4"/>
    </linearGradient>
    </defs>
</svg>
