<svg width="80" height="80" viewBox="0 0 80 80" fill="none" xmlns="http://www.w3.org/2000/svg">
    <rect x="0.5" y="0.5" width="79" height="79" rx="39.5" stroke="url(#paint0_linear_608_539)"/>
    <path d="M47.875 34.6V33.8125C47.875 30.2828 42.5594 27.625 35.5 27.625C28.4406 27.625 23.125 30.2828 23.125 33.8125V39.4375C23.125 42.3766 26.8094 44.7109 32.125 45.4141V46.1875C32.125 49.7172 37.4406 52.375 44.5 52.375C51.5594 52.375 56.875 49.7172 56.875 46.1875V40.5625C56.875 37.6516 53.3031 35.3172 47.875 34.6ZM32.125 43.1219V39.7891C33.2442 39.9329 34.3716 40.0034 35.5 40C36.6284 40.0034 37.7558 39.9329 38.875 39.7891V43.1219C37.7585 43.2959 36.6299 43.3805 35.5 43.375C34.3701 43.3805 33.2415 43.2959 32.125 43.1219V43.1219ZM45.625 37.4547V39.4375C45.625 40.6187 43.8813 41.8844 41.125 42.6578V39.3672C42.9391 38.9313 44.4719 38.2703 45.625 37.4547V37.4547ZM25.375 39.4375V37.4547C26.5281 38.2703 28.0609 38.9313 29.875 39.3672V42.6578C27.1187 41.8844 25.375 40.6187 25.375 39.4375ZM34.375 46.1875V45.5969L35.5 45.625C36.0531 45.625 36.5875 45.6109 37.1031 45.5828C37.6656 45.7797 38.2562 45.9484 38.875 46.1031V49.4078C36.1187 48.6344 34.375 47.3687 34.375 46.1875ZM41.125 49.8719V46.525C42.2441 46.6718 43.3714 46.747 44.5 46.75C45.6284 46.7534 46.7558 46.6829 47.875 46.5391V49.8719C45.6377 50.2094 43.3623 50.2094 41.125 49.8719ZM50.125 49.4078V46.1172C51.9391 45.6813 53.4719 45.0203 54.625 44.2047V46.1875C54.625 47.3687 52.8813 48.6344 50.125 49.4078V49.4078Z" fill="url(#paint1_linear_608_539)"/>
    <defs>
    <linearGradient id="paint0_linear_608_539" x1="-19.749" y1="39.999" x2="98.5774" y2="39.999" gradientUnits="userSpaceOnUse">
    <stop stop-color="#4D7EF2"/>
    <stop offset="1" stop-color="#5FD4F4"/>
    </linearGradient>
    <linearGradient id="paint1_linear_608_539" x1="14.7934" y1="39.9997" x2="64.7123" y2="39.9997" gradientUnits="userSpaceOnUse">
    <stop stop-color="#4D7EF2"/>
    <stop offset="1" stop-color="#5FD4F4"/>
    </linearGradient>
    </defs>
</svg>
