<svg width="24" height="24" viewBox="0 0 24 24" fill="none" xmlns="http://www.w3.org/2000/svg">
    <path d="M6.31111 22H17.6889C18.9689 22 20 21 20 19.7586V5.96552C20 4.91379 19.5733 3.91379 18.8089 3.15517C18.0444 2.39655 16.9956 2 15.9111 2H6.31111C5.03111 2 4 3 4 4.24138V19.7586C4 21 5.03111 22 6.31111 22ZM15.9289 16.8276H8.10667C7.80444 16.8276 7.57333 16.6034 7.57333 16.3103C7.57333 16.0172 7.80444 15.7931 8.10667 15.7931H15.9289C16.2311 15.7931 16.4622 16.0172 16.4622 16.3103C16.4622 16.6034 16.2311 16.8276 15.9289 16.8276ZM18.0444 3.89655C18.4889 4.32759 18.7733 4.86207 18.88 5.44828H17.6889C16.9956 5.44828 16.4444 4.91379 16.4444 4.24138V3.08621C17.0489 3.18966 17.6 3.46552 18.0444 3.89655ZM8.07111 10.6207H15.8933C16.1956 10.6207 16.4267 10.8448 16.4267 11.1379C16.4267 11.431 16.1956 11.6552 15.8933 11.6552H8.07111C7.76889 11.6552 7.53778 11.431 7.53778 11.1379C7.53778 10.8448 7.76889 10.6207 8.07111 10.6207ZM8.07111 13.2069H15.8933C16.1956 13.2069 16.4267 13.431 16.4267 13.7241C16.4267 14.0172 16.1956 14.2414 15.8933 14.2414H8.07111C7.76889 14.2414 7.53778 14.0172 7.53778 13.7241C7.53778 13.431 7.76889 13.2069 8.07111 13.2069Z" fill="url(#paint0_linear_1595_6655)"/>
    <defs>
    <linearGradient id="paint0_linear_1595_6655" x1="0.0502092" y1="11.9998" x2="23.7155" y2="11.9998" gradientUnits="userSpaceOnUse">
    <stop stop-color="#4D7EF2"/>
    <stop offset="1" stop-color="#5FD4F4"/>
    </linearGradient>
    </defs>
</svg>
