<svg width="48" height="48" viewBox="0 0 48 48" fill="none" xmlns="http://www.w3.org/2000/svg">
    <path fill-rule="evenodd" clip-rule="evenodd" d="M42.0391 7.69385C43.1436 7.69385 44.0391 8.58928 44.0391 9.69385V18.6939C44.0391 19.7984 43.1436 20.6939 42.0391 20.6939H33.0391C31.9345 20.6939 31.0391 19.7984 31.0391 18.6939C31.0391 17.5893 31.9345 16.6939 33.0391 16.6939H40.0391V9.69385C40.0391 8.58928 40.9345 7.69385 42.0391 7.69385Z" fill="#001F55"/>
    <path fill-rule="evenodd" clip-rule="evenodd" d="M26.8253 9.77949C24.0123 9.21904 21.0962 9.5055 18.446 10.6026C15.7958 11.6997 13.5305 13.5582 11.9367 15.943C10.3429 18.3278 9.49219 21.1317 9.49219 24C9.49219 26.8683 10.3429 29.6722 11.9367 32.057C13.5305 34.4418 15.7958 36.3003 18.446 37.3974C21.0962 38.4945 24.0123 38.781 26.8253 38.2205C29.6384 37.6601 32.222 36.2779 34.2494 34.2489C35.0301 33.4675 36.2965 33.467 37.0778 34.2477C37.8592 35.0284 37.8597 36.2948 37.079 37.0761C34.4923 39.6649 31.196 41.4284 27.6069 42.1434C24.0179 42.8585 20.2973 42.493 16.916 41.0932C13.5347 39.6934 10.6445 37.3223 8.61105 34.2796C6.57757 31.237 5.49219 27.6596 5.49219 24C5.49219 20.3404 6.57757 16.763 8.61105 13.7204C10.6445 10.6778 13.5347 8.30657 16.916 6.90679C20.2973 5.50702 24.0179 5.14154 27.6069 5.85659C31.1953 6.57149 34.491 8.33438 37.0774 10.9223C37.078 10.9228 37.0785 10.9234 37.079 10.9239L43.4513 17.2775C44.2335 18.0574 44.2354 19.3237 43.4555 20.1059C42.6756 20.8881 41.4093 20.89 40.6271 20.1101L34.2521 13.7538L34.2494 13.7511C32.222 11.7221 29.6384 10.3399 26.8253 9.77949Z" fill="#001F55"/>
</svg>
