<svg width="24" height="24" viewBox="0 0 24 24" fill="none" xmlns="http://www.w3.org/2000/svg">
    <path d="M22.5 6.00005C22.5 5.2044 22.1839 4.44134 21.6213 3.87873C21.0587 3.31612 20.2956 3.00005 19.5 3.00005H18.75V2.27115C18.75 1.86755 18.4397 1.52115 18.0361 1.50099C17.9347 1.49611 17.8333 1.51186 17.7382 1.5473C17.6431 1.58274 17.5561 1.63712 17.4826 1.70716C17.4091 1.77719 17.3506 1.86142 17.3106 1.95474C17.2706 2.04806 17.25 2.14853 17.25 2.25005V3.00005H6.75V2.27115C6.75 1.86755 6.43969 1.52115 6.03609 1.50099C5.93469 1.49611 5.83334 1.51186 5.7382 1.5473C5.64307 1.58274 5.55611 1.63712 5.48261 1.70716C5.40911 1.77719 5.3506 1.86142 5.31062 1.95474C5.27063 2.04806 5.25001 2.14853 5.25 2.25005V3.00005H4.5C3.70435 3.00005 2.94129 3.31612 2.37868 3.87873C1.81607 4.44134 1.5 5.2044 1.5 6.00005V6.56255C1.5 6.61228 1.51975 6.65997 1.55492 6.69514C1.59008 6.7303 1.63777 6.75005 1.6875 6.75005H22.3125C22.3622 6.75005 22.4099 6.7303 22.4451 6.69514C22.4802 6.65997 22.5 6.61228 22.5 6.56255V6.00005ZM1.5 19.5001C1.5 20.2957 1.81607 21.0588 2.37868 21.6214C2.94129 22.184 3.70435 22.5 4.5 22.5H19.5C20.2956 22.5 21.0587 22.184 21.6213 21.6214C22.1839 21.0588 22.5 20.2957 22.5 19.5001V8.39068C22.5 8.35338 22.4852 8.31761 22.4588 8.29124C22.4324 8.26487 22.3967 8.25005 22.3594 8.25005H1.64062C1.60333 8.25005 1.56756 8.26487 1.54119 8.29124C1.51482 8.31761 1.5 8.35338 1.5 8.39068V19.5001ZM17.625 9.75005C17.8475 9.75005 18.065 9.81603 18.25 9.93965C18.435 10.0633 18.5792 10.239 18.6644 10.4445C18.7495 10.6501 18.7718 10.8763 18.7284 11.0945C18.685 11.3128 18.5778 11.5132 18.4205 11.6705C18.2632 11.8279 18.0627 11.935 17.8445 11.9784C17.6262 12.0218 17.4 11.9996 17.1945 11.9144C16.9889 11.8293 16.8132 11.6851 16.6896 11.5001C16.566 11.3151 16.5 11.0976 16.5 10.8751C16.5 10.5767 16.6185 10.2905 16.8295 10.0796C17.0405 9.86858 17.3266 9.75005 17.625 9.75005ZM17.625 13.5001C17.8475 13.5001 18.065 13.566 18.25 13.6896C18.435 13.8133 18.5792 13.989 18.6644 14.1945C18.7495 14.4001 18.7718 14.6263 18.7284 14.8445C18.685 15.0628 18.5778 15.2632 18.4205 15.4205C18.2632 15.5779 18.0627 15.685 17.8445 15.7284C17.6262 15.7718 17.4 15.7496 17.1945 15.6644C16.9889 15.5793 16.8132 15.4351 16.6896 15.2501C16.566 15.0651 16.5 14.8476 16.5 14.6251C16.5 14.3267 16.6185 14.0405 16.8295 13.8296C17.0405 13.6186 17.3266 13.5001 17.625 13.5001ZM13.875 9.75005C14.0975 9.75005 14.315 9.81603 14.5 9.93965C14.685 10.0633 14.8292 10.239 14.9144 10.4445C14.9995 10.6501 15.0218 10.8763 14.9784 11.0945C14.935 11.3128 14.8278 11.5132 14.6705 11.6705C14.5132 11.8279 14.3127 11.935 14.0945 11.9784C13.8762 12.0218 13.65 11.9996 13.4445 11.9144C13.2389 11.8293 13.0632 11.6851 12.9396 11.5001C12.816 11.3151 12.75 11.0976 12.75 10.8751C12.75 10.5767 12.8685 10.2905 13.0795 10.0796C13.2905 9.86858 13.5766 9.75005 13.875 9.75005ZM13.875 13.5001C14.0975 13.5001 14.315 13.566 14.5 13.6896C14.685 13.8133 14.8292 13.989 14.9144 14.1945C14.9995 14.4001 15.0218 14.6263 14.9784 14.8445C14.935 15.0628 14.8278 15.2632 14.6705 15.4205C14.5132 15.5779 14.3127 15.685 14.0945 15.7284C13.8762 15.7718 13.65 15.7496 13.4445 15.6644C13.2389 15.5793 13.0632 15.4351 12.9396 15.2501C12.816 15.0651 12.75 14.8476 12.75 14.6251C12.75 14.3267 12.8685 14.0405 13.0795 13.8296C13.2905 13.6186 13.5766 13.5001 13.875 13.5001ZM13.875 17.2501C14.0975 17.2501 14.315 17.316 14.5 17.4396C14.685 17.5633 14.8292 17.739 14.9144 17.9445C14.9995 18.1501 15.0218 18.3763 14.9784 18.5945C14.935 18.8128 14.8278 19.0132 14.6705 19.1705C14.5132 19.3279 14.3127 19.435 14.0945 19.4784C13.8762 19.5218 13.65 19.4996 13.4445 19.4144C13.2389 19.3293 13.0632 19.1851 12.9396 19.0001C12.816 18.8151 12.75 18.5976 12.75 18.3751C12.75 18.0767 12.8685 17.7905 13.0795 17.5796C13.2905 17.3686 13.5766 17.2501 13.875 17.2501ZM10.125 13.5001C10.3475 13.5001 10.565 13.566 10.75 13.6896C10.935 13.8133 11.0792 13.989 11.1644 14.1945C11.2495 14.4001 11.2718 14.6263 11.2284 14.8445C11.185 15.0628 11.0778 15.2632 10.9205 15.4205C10.7632 15.5779 10.5627 15.685 10.3445 15.7284C10.1262 15.7718 9.90005 15.7496 9.69448 15.6644C9.48891 15.5793 9.31321 15.4351 9.1896 15.2501C9.06598 15.0651 9 14.8476 9 14.6251C9 14.3267 9.11853 14.0405 9.3295 13.8296C9.54048 13.6186 9.82663 13.5001 10.125 13.5001ZM10.125 17.2501C10.3475 17.2501 10.565 17.316 10.75 17.4396C10.935 17.5633 11.0792 17.739 11.1644 17.9445C11.2495 18.1501 11.2718 18.3763 11.2284 18.5945C11.185 18.8128 11.0778 19.0132 10.9205 19.1705C10.7632 19.3279 10.5627 19.435 10.3445 19.4784C10.1262 19.5218 9.90005 19.4996 9.69448 19.4144C9.48891 19.3293 9.31321 19.1851 9.1896 19.0001C9.06598 18.8151 9 18.5976 9 18.3751C9 18.0767 9.11853 17.7905 9.3295 17.5796C9.54048 17.3686 9.82663 17.2501 10.125 17.2501ZM6.375 13.5001C6.5975 13.5001 6.81501 13.566 7.00002 13.6896C7.18502 13.8133 7.32922 13.989 7.41436 14.1945C7.49951 14.4001 7.52179 14.6263 7.47838 14.8445C7.43498 15.0628 7.32783 15.2632 7.1705 15.4205C7.01316 15.5779 6.81271 15.685 6.59448 15.7284C6.37625 15.7718 6.15005 15.7496 5.94448 15.6644C5.73891 15.5793 5.56321 15.4351 5.4396 15.2501C5.31598 15.0651 5.25 14.8476 5.25 14.6251C5.25 14.3267 5.36853 14.0405 5.5795 13.8296C5.79048 13.6186 6.07663 13.5001 6.375 13.5001ZM6.375 17.2501C6.5975 17.2501 6.81501 17.316 7.00002 17.4396C7.18502 17.5633 7.32922 17.739 7.41436 17.9445C7.49951 18.1501 7.52179 18.3763 7.47838 18.5945C7.43498 18.8128 7.32783 19.0132 7.1705 19.1705C7.01316 19.3279 6.81271 19.435 6.59448 19.4784C6.37625 19.5218 6.15005 19.4996 5.94448 19.4144C5.73891 19.3293 5.56321 19.1851 5.4396 19.0001C5.31598 18.8151 5.25 18.5976 5.25 18.3751C5.25 18.0767 5.36853 17.7905 5.5795 17.5796C5.79048 17.3686 6.07663 17.2501 6.375 17.2501Z" fill="#A2ACBE"/>
</svg>
