<svg width="100" height="114" viewBox="0 0 100 114" fill="none" xmlns="http://www.w3.org/2000/svg">
    <rect y="23.9043" width="99.6023" height="89.6421" rx="16" fill="url(#paint0_linear_2646_9277)" shape-rendering="geometricPrecision"/>
    <circle cx="49.7953" cy="21.9125" r="21.9125" fill="url(#paint1_linear_2646_9277)" shape-rendering="geometricPrecision"/>
    <path d="M54.5423 23.9212L56.4881 25.867C57.2138 26.5927 57.2138 27.7693 56.4881 28.4951C55.7624 29.2208 54.5857 29.2208 53.86 28.4951L51.9142 26.5493C50.9563 27.0787 49.855 27.3799 48.6831 27.3799C44.9883 27.3799 41.9932 24.3848 41.9932 20.69C41.9932 16.9951 44.9883 14 48.6831 14C52.3777 14 55.3731 16.9952 55.3731 20.69C55.3731 21.8618 55.0717 22.9632 54.5423 23.9212ZM48.6832 24.035C50.5304 24.035 52.028 22.5373 52.028 20.6902C52.028 18.8427 50.5304 17.345 48.6832 17.345C46.8358 17.345 45.3381 18.8427 45.3381 20.6902C45.3381 22.5373 46.8358 24.035 48.6832 24.035Z" fill="white"/>
    <circle cx="50" cy="22" r="22" fill="#FAA942"/>
    <path d="M48.9793 19.1177C48.9793 19.6434 48.884 20.1231 48.6934 20.5569C48.5029 20.9906 48.2499 21.3651 47.9344 21.6806C47.619 21.9894 47.251 22.2293 46.8304 22.4001C46.4164 22.571 45.9827 22.6564 45.5293 22.6564C45.0299 22.6564 44.5699 22.571 44.1493 22.4001C43.7353 22.2293 43.3739 21.9894 43.065 21.6806C42.7627 21.3651 42.5261 20.9906 42.3553 20.5569C42.1844 20.1231 42.099 19.6434 42.099 19.1177C42.099 18.5723 42.1844 18.0794 42.3553 17.6391C42.5261 17.1923 42.7627 16.8111 43.065 16.4957C43.3739 16.1803 43.7353 15.9371 44.1493 15.7663C44.5699 15.5889 45.0299 15.5001 45.5293 15.5001C46.0287 15.5001 46.4887 15.5889 46.9093 15.7663C47.3364 15.9371 47.7011 16.1803 48.0034 16.4957C48.3123 16.8111 48.5521 17.1923 48.723 17.6391C48.8939 18.0794 48.9793 18.5723 48.9793 19.1177ZM46.6333 19.1177C46.6333 18.7826 46.6037 18.5066 46.5446 18.2897C46.492 18.0663 46.4164 17.8889 46.3179 17.7574C46.2193 17.626 46.101 17.534 45.963 17.4814C45.8316 17.4289 45.687 17.4026 45.5293 17.4026C45.3716 17.4026 45.227 17.4289 45.0956 17.4814C44.9641 17.534 44.8524 17.626 44.7604 17.7574C44.6684 17.8889 44.5961 18.0663 44.5436 18.2897C44.491 18.5066 44.4647 18.7826 44.4647 19.1177C44.4647 19.4331 44.491 19.696 44.5436 19.9063C44.5961 20.1166 44.6684 20.2841 44.7604 20.409C44.8524 20.5339 44.9641 20.6226 45.0956 20.6751C45.227 20.7277 45.3716 20.754 45.5293 20.754C45.687 20.754 45.8316 20.7277 45.963 20.6751C46.101 20.6226 46.2193 20.5339 46.3179 20.409C46.4164 20.2841 46.492 20.1166 46.5446 19.9063C46.6037 19.696 46.6333 19.4331 46.6333 19.1177ZM53.4939 16.0916C53.5924 15.9799 53.714 15.878 53.8586 15.786C54.0031 15.6874 54.2036 15.6381 54.4599 15.6381H56.6876L45.8644 29.5663C45.7659 29.6911 45.641 29.7963 45.4899 29.8817C45.3453 29.9606 45.1679 30 44.9576 30H42.6707L53.4939 16.0916ZM57.2396 26.6289C57.2396 27.1546 57.1443 27.6376 56.9537 28.0779C56.7631 28.5116 56.5101 28.8861 56.1947 29.2016C55.8793 29.5104 55.5113 29.7503 55.0907 29.9211C54.6767 30.092 54.243 30.1774 53.7896 30.1774C53.2901 30.1774 52.8301 30.092 52.4096 29.9211C51.9956 29.7503 51.6341 29.5104 51.3253 29.2016C51.023 28.8861 50.7864 28.5116 50.6156 28.0779C50.4447 27.6376 50.3593 27.1546 50.3593 26.6289C50.3593 26.0834 50.4447 25.5906 50.6156 25.1503C50.7864 24.7034 51.023 24.3223 51.3253 24.0069C51.6341 23.6914 51.9956 23.4483 52.4096 23.2774C52.8301 23.1 53.2901 23.0113 53.7896 23.0113C54.289 23.0113 54.749 23.1 55.1696 23.2774C55.5967 23.4483 55.9614 23.6914 56.2637 24.0069C56.5726 24.3223 56.8124 24.7034 56.9833 25.1503C57.1541 25.5906 57.2396 26.0834 57.2396 26.6289ZM54.8936 26.6289C54.8936 26.3003 54.864 26.0276 54.8049 25.8107C54.7523 25.5873 54.6767 25.4099 54.5781 25.2784C54.4796 25.147 54.3613 25.055 54.2233 25.0024C54.0919 24.9499 53.9473 24.9236 53.7896 24.9236C53.6319 24.9236 53.4873 24.9499 53.3559 25.0024C53.2244 25.055 53.1127 25.147 53.0207 25.2784C52.9287 25.4099 52.8564 25.5873 52.8039 25.8107C52.7513 26.0276 52.725 26.3003 52.725 26.6289C52.725 26.9443 52.7513 27.2071 52.8039 27.4174C52.8564 27.6277 52.9287 27.7953 53.0207 27.9201C53.1127 28.045 53.2244 28.1337 53.3559 28.1863C53.4873 28.2389 53.6319 28.2651 53.7896 28.2651C53.9473 28.2651 54.0919 28.2389 54.2233 28.1863C54.3613 28.1337 54.4796 28.045 54.5781 27.9201C54.6767 27.7953 54.7523 27.6277 54.8049 27.4174C54.864 27.2071 54.8936 26.9443 54.8936 26.6289Z" fill="white"/>
    <path d="M50 62V96" stroke="#FAA942" stroke-width="2"/>
    <g filter="url(#filter0_d_2646_9277)">
    <rect x="20" y="51" width="61" height="39" rx="2" fill="white"/>
    </g>
    <path d="M48.8766 64.3563C48.8653 64.344 48.8577 64.3289 48.8547 64.3125L48.811 64.2578C47.81 62.5439 46.3775 61.1221 44.6563 60.1338C42.935 59.1456 40.9849 58.6254 39 58.625C38.768 58.625 38.5454 58.7172 38.3813 58.8813C38.2172 59.0454 38.125 59.2679 38.125 59.5V69.4969L29.4735 74.4953C29.3726 74.551 29.284 74.6264 29.2127 74.7169C29.1414 74.8074 29.0889 74.9112 29.0583 75.0223C29.0277 75.1334 29.0197 75.2495 29.0346 75.3637C29.0496 75.4779 29.0872 75.588 29.1454 75.6875V75.7094L29.1782 75.7641C30.4399 77.9239 32.3783 79.6076 34.6934 80.5546C37.0085 81.5016 39.5712 81.6592 41.9849 81.0028C44.3986 80.3465 46.5286 78.9128 48.0453 76.9238C49.562 74.9348 50.3808 72.5013 50.375 70C50.3777 68.0201 49.861 66.0741 48.8766 64.3563Z" fill="#DDE3F0"/>
    <path d="M35.9375 68.7422C36.0709 68.6639 36.1815 68.552 36.2583 68.4177C36.335 68.2834 36.3753 68.1313 36.375 67.9766V60.1016C36.3762 59.9606 36.3434 59.8215 36.2793 59.696C36.2151 59.5704 36.1216 59.4623 36.0067 59.3806C35.8918 59.299 35.7589 59.2464 35.6192 59.2272C35.4796 59.2079 35.3374 59.2228 35.2047 59.2703C32.9894 60.0595 31.0722 61.5139 29.7154 63.4346C28.3585 65.3553 27.6284 67.6484 27.625 70C27.6262 70.6968 27.6884 71.3922 27.8109 72.0782C27.8372 72.2152 27.8955 72.3441 27.981 72.4543C28.0666 72.5645 28.1769 72.653 28.3031 72.7125C28.4196 72.7674 28.5463 72.7972 28.675 72.8C28.8289 72.7991 28.9798 72.7576 29.1125 72.6797L35.9375 68.7422Z" fill="url(#paint2_linear_2646_9277)"/>
    <rect x="57" y="63" width="6" height="3" rx="1.5" fill="url(#paint3_linear_2646_9277)"/>
    <rect x="57" y="69" width="13" height="3" rx="1.5" fill="url(#paint4_linear_2646_9277)"/>
    <rect x="57" y="75" width="13" height="3" rx="1.5" fill="url(#paint5_linear_2646_9277)"/>
    <g filter="url(#filter1_d_2646_9277)">
    <circle cx="50" cy="99" r="5" fill="url(#paint6_linear_2646_9277)"/>
    <circle cx="50" cy="99" r="4.5" stroke="white"/>
    </g>
    <defs>
    <filter id="filter0_d_2646_9277" x="16" y="49" width="69" height="47" filterUnits="userSpaceOnUse" color-interpolation-filters="sRGB">
    <feFlood flood-opacity="0" result="BackgroundImageFix"/>
    <feColorMatrix in="SourceAlpha" type="matrix" values="0 0 0 0 0 0 0 0 0 0 0 0 0 0 0 0 0 0 127 0" result="hardAlpha"/>
    <feOffset dy="2"/>
    <feGaussianBlur stdDeviation="2"/>
    <feComposite in2="hardAlpha" operator="out"/>
    <feColorMatrix type="matrix" values="0 0 0 0 0.0510417 0 0 0 0 0.170625 0 0 0 0 0.35 0 0 0 0.1 0"/>
    <feBlend mode="normal" in2="BackgroundImageFix" result="effect1_dropShadow_2646_9277"/>
    <feBlend mode="normal" in="SourceGraphic" in2="effect1_dropShadow_2646_9277" result="shape"/>
    </filter>
    <filter id="filter1_d_2646_9277" x="41" y="92" width="18" height="18" filterUnits="userSpaceOnUse" color-interpolation-filters="sRGB">
    <feFlood flood-opacity="0" result="BackgroundImageFix"/>
    <feColorMatrix in="SourceAlpha" type="matrix" values="0 0 0 0 0 0 0 0 0 0 0 0 0 0 0 0 0 0 127 0" result="hardAlpha"/>
    <feOffset dy="2"/>
    <feGaussianBlur stdDeviation="2"/>
    <feComposite in2="hardAlpha" operator="out"/>
    <feColorMatrix type="matrix" values="0 0 0 0 0.0510417 0 0 0 0 0.170625 0 0 0 0 0.35 0 0 0 0.1 0"/>
    <feBlend mode="normal" in2="BackgroundImageFix" result="effect1_dropShadow_2646_9277"/>
    <feBlend mode="normal" in="SourceGraphic" in2="effect1_dropShadow_2646_9277" result="shape"/>
    </filter>
    <linearGradient id="paint0_linear_2646_9277" x1="-24.588" y1="68.7243" x2="122.732" y2="68.7243" gradientUnits="userSpaceOnUse">
    <stop stop-color="#4D7EF2"/>
    <stop offset="1" stop-color="#5FD4F4"/>
    </linearGradient>
    <linearGradient id="paint1_linear_2646_9277" x1="17.0641" y1="21.912" x2="81.8848" y2="21.912" gradientUnits="userSpaceOnUse">
    <stop stop-color="#4D7EF2"/>
    <stop offset="1" stop-color="#5FD4F4"/>
    </linearGradient>
    <linearGradient id="paint2_linear_2646_9277" x1="25.4649" y1="66.0094" x2="38.4069" y2="66.0094" gradientUnits="userSpaceOnUse">
    <stop stop-color="#4D7EF2"/>
    <stop offset="1" stop-color="#5FD4F4"/>
    </linearGradient>
    <linearGradient id="paint3_linear_2646_9277" x1="55.5188" y1="64.5" x2="64.3933" y2="64.5" gradientUnits="userSpaceOnUse">
    <stop stop-color="#4D7EF2"/>
    <stop offset="1" stop-color="#5FD4F4"/>
    </linearGradient>
    <linearGradient id="paint4_linear_2646_9277" x1="53.7908" y1="70.5" x2="73.0188" y2="70.5" gradientUnits="userSpaceOnUse">
    <stop stop-color="#4D7EF2"/>
    <stop offset="1" stop-color="#5FD4F4"/>
    </linearGradient>
    <linearGradient id="paint5_linear_2646_9277" x1="53.7908" y1="76.5" x2="73.0188" y2="76.5" gradientUnits="userSpaceOnUse">
    <stop stop-color="#4D7EF2"/>
    <stop offset="1" stop-color="#5FD4F4"/>
    </linearGradient>
    <linearGradient id="paint6_linear_2646_9277" x1="42.5314" y1="98.9999" x2="57.3222" y2="98.9999" gradientUnits="userSpaceOnUse">
    <stop stop-color="#4D7EF2"/>
    <stop offset="1" stop-color="#5FD4F4"/>
    </linearGradient>
    </defs>
</svg>
