<svg width="36" height="36" viewBox="0 0 36 36" fill="none" xmlns="http://www.w3.org/2000/svg">
    <path d="M22.5141 5.625C20.2132 5.62497 17.9579 6.26564 16.0007 7.47523C14.0435 8.68482 12.4618 10.4155 11.4328 12.4734C10.5739 14.1741 10.1259 16.0526 10.125 17.9578C10.1299 18.2475 10.0256 18.5285 9.83275 18.7447C9.63993 18.961 9.37275 19.0968 9.08437 19.125C8.9297 19.1366 8.77429 19.1162 8.6279 19.0649C8.48152 19.0135 8.34732 18.9325 8.23375 18.8269C8.12018 18.7212 8.02968 18.5932 7.96794 18.4509C7.90621 18.3086 7.87456 18.1551 7.875 18C7.87557 16.428 8.12717 14.8661 8.62031 13.3734C8.65322 13.2783 8.65998 13.176 8.63987 13.0773C8.61976 12.9786 8.57353 12.8872 8.506 12.8124C8.43847 12.7377 8.35212 12.6825 8.25597 12.6526C8.15981 12.6226 8.05738 12.619 7.95937 12.6422C6.00872 13.1258 4.27605 14.2483 3.03745 15.831C1.79886 17.4136 1.12561 19.3653 1.125 21.375C1.125 26.325 5.31563 30.375 10.2516 30.375H22.5C25.7821 30.3769 28.9304 29.0749 31.2525 26.7554C33.5746 24.436 34.8802 21.2891 34.882 18.007C34.8839 14.725 33.5819 11.5766 31.2624 9.25453C28.943 6.93244 25.7961 5.62686 22.5141 5.625ZM26.9437 23.0203L22.1766 27.8016C21.9591 28.0056 21.6732 28.1209 21.375 28.125C21.0763 28.1237 20.7894 28.008 20.5734 27.8016L15.8062 23.0203C15.6123 22.8063 15.5082 22.5259 15.5153 22.2372C15.5224 21.9485 15.6402 21.6736 15.8444 21.4694C16.0486 21.2652 16.3235 21.1474 16.6122 21.1403C16.9009 21.1332 17.1813 21.2373 17.3953 21.4312L20.25 24.2859V15.75C20.25 15.4516 20.3685 15.1655 20.5795 14.9545C20.7905 14.7435 21.0766 14.625 21.375 14.625C21.6734 14.625 21.9595 14.7435 22.1705 14.9545C22.3815 15.1655 22.5 15.4516 22.5 15.75V24.2859L25.3547 21.4312C25.5687 21.2373 25.8491 21.1332 26.1378 21.1403C26.4265 21.1474 26.7014 21.2652 26.9056 21.4694C27.1098 21.6736 27.2276 21.9485 27.2347 22.2372C27.2418 22.5259 27.1377 22.8063 26.9437 23.0203Z" fill="url(#paint0_linear_824_3966)"/>
    <defs>
    <linearGradient id="paint0_linear_824_3966" x1="-7.20833" y1="17.9997" x2="42.721" y2="17.9997" gradientUnits="userSpaceOnUse">
    <stop stop-color="#4D7EF2"/>
    <stop offset="1" stop-color="#5FD4F4"/>
    </linearGradient>
    </defs>
</svg>
