<svg width="100" height="114" viewBox="0 0 100 114" fill="none" xmlns="http://www.w3.org/2000/svg">
    <rect y="23.9043" width="99.6023" height="89.6421" rx="16" fill="url(#paint0_linear_2646_9300)" shape-rendering="geometricPrecision"/>
    <g filter="url(#filter0_d_2646_9300)">
    <path d="M59.1062 63.5H41.7666C38.1351 67.623 33 75.1838 33 84.9177C33 100.516 67.8439 100.516 67.8439 84.9177C67.8289 75.1838 62.7088 67.623 59.1069 63.5H59.1062Z" fill="white"/>
    <path d="M61.3222 60.0611V58.6677H55.6067C56.0978 56.9263 56.6932 54.8721 57.1694 53.1606C57.2617 52.8586 57.2643 52.5357 57.1769 52.2318C57.0898 51.9284 56.9167 51.6563 56.6783 51.4488C56.4447 51.232 56.1539 51.0859 55.8403 51.028C55.5267 50.97 55.203 51.0026 54.907 51.1214L53.2102 51.8061C50.7729 52.7768 48.0568 52.7768 45.6195 51.8061L43.9226 51.1214C43.5279 50.9637 43.0888 50.9596 42.6915 51.1102C42.2942 51.2608 41.9675 51.555 41.7769 51.9343C41.5859 52.3141 41.5444 52.7518 41.6606 53.1602C42.1368 54.8721 42.7471 56.9409 43.2233 58.6673L37.5078 58.6676V60.061L61.3222 60.0611Z" fill="white"/>
    <rect x="42" y="72" width="17" height="17" rx="8.5" fill="url(#paint1_linear_2646_9300)"/>
    <path d="M50.9799 82.5658C51.4736 82.485 51.7205 82.2142 51.7205 81.7534C51.7205 81.5798 51.6651 81.4437 51.5544 81.3449C51.4467 81.2432 51.303 81.1579 51.1235 81.0891L50.9799 82.5658ZM50.5624 78.194C50.4248 78.2149 50.3081 78.2464 50.2123 78.2883C50.1196 78.3302 50.0432 78.3795 49.9834 78.4364C49.9265 78.4932 49.8847 78.5576 49.8577 78.6294C49.8308 78.6982 49.8173 78.7715 49.8173 78.8493C49.8173 79.0259 49.8742 79.1695 49.9879 79.2802C50.1016 79.3879 50.2482 79.4792 50.4278 79.554L50.5624 78.194ZM51.2492 79.8233C51.3928 79.8652 51.5364 79.9116 51.6801 79.9625C51.8237 80.0104 51.9613 80.0672 52.093 80.133C52.2277 80.1959 52.3518 80.2692 52.4656 80.353C52.5823 80.4368 52.6825 80.5355 52.7663 80.6492C52.8531 80.7629 52.9204 80.8931 52.9683 81.0397C53.0161 81.1863 53.0401 81.3554 53.0401 81.5469C53.0401 81.8312 52.9922 82.099 52.8964 82.3504C52.8007 82.5987 52.6601 82.8202 52.4745 83.0147C52.289 83.2062 52.0616 83.3633 51.7923 83.486C51.523 83.6057 51.2147 83.679 50.8676 83.7059L50.8138 84.2625C50.8078 84.3463 50.7704 84.4211 50.7016 84.4869C50.6357 84.5557 50.5504 84.5901 50.4457 84.5901H49.934L50.0238 83.6655C49.6797 83.6087 49.3505 83.5099 49.0363 83.3693C48.7251 83.2256 48.4618 83.0536 48.2463 82.8531L48.6772 82.2292C48.7131 82.1783 48.761 82.1364 48.8209 82.1035C48.8837 82.0676 48.9495 82.0496 49.0184 82.0496C49.0902 82.0496 49.1635 82.0691 49.2383 82.108C49.3131 82.1439 49.3939 82.1888 49.4807 82.2426C49.5705 82.2935 49.6677 82.3474 49.7724 82.4042C49.8802 82.4581 50.0014 82.503 50.136 82.5389L50.3021 80.8467C50.0866 80.7869 49.8712 80.7166 49.6557 80.6358C49.4433 80.555 49.2518 80.4457 49.0812 80.3081C48.9106 80.1704 48.7715 79.9954 48.6638 79.7829C48.559 79.5705 48.5067 79.3042 48.5067 78.984C48.5067 78.7476 48.5546 78.5172 48.6503 78.2927C48.7461 78.0683 48.8852 77.8663 49.0677 77.6868C49.2533 77.5073 49.4807 77.3606 49.75 77.2469C50.0193 77.1302 50.3275 77.0629 50.6746 77.0449L50.724 76.5467C50.73 76.4629 50.7659 76.3881 50.8317 76.3223C50.9006 76.2535 50.9873 76.2191 51.0921 76.2191H51.6038L51.5185 77.0988C51.8416 77.1586 52.1184 77.2559 52.3488 77.3906C52.5823 77.5252 52.7797 77.6688 52.9413 77.8215L52.6002 78.3197C52.5493 78.3945 52.497 78.4498 52.4431 78.4858C52.3922 78.5187 52.3309 78.5351 52.2591 78.5351C52.2142 78.5351 52.1603 78.5247 52.0975 78.5037C52.0376 78.4798 51.9718 78.4528 51.9 78.4229C51.8282 78.39 51.7504 78.3571 51.6666 78.3242C51.5858 78.2883 51.499 78.2568 51.4063 78.2299L51.2492 79.8233Z" fill="white"/>
    </g>
    <circle cx="49.7953" cy="21.9125" r="21.9125" fill="url(#paint2_linear_2646_9300)"/>
    <circle cx="50" cy="22" r="22" fill="#FAA942"/>
    <path d="M54.375 19.65V19.2344C54.375 17.3715 51.4219 15.9688 47.5 15.9688C43.5781 15.9688 40.625 17.3715 40.625 19.2344V22.2031C40.625 23.7543 42.6719 24.9863 45.625 25.3574V25.7656C45.625 27.6285 48.5781 29.0312 52.5 29.0312C56.4219 29.0312 59.375 27.6285 59.375 25.7656V22.7969C59.375 21.2605 57.3906 20.0285 54.375 19.65ZM45.625 24.1477V22.3887C46.2468 22.4646 46.8731 22.5018 47.5 22.5C48.1269 22.5018 48.7532 22.4646 49.375 22.3887V24.1477C48.7547 24.2395 48.1277 24.2842 47.5 24.2812C46.8723 24.2842 46.2453 24.2395 45.625 24.1477ZM53.125 21.1566V22.2031C53.125 22.8266 52.1563 23.4945 50.625 23.9027V22.166C51.6328 21.9359 52.4844 21.5871 53.125 21.1566ZM41.875 22.2031V21.1566C42.5156 21.5871 43.3672 21.9359 44.375 22.166V23.9027C42.8438 23.4945 41.875 22.8266 41.875 22.2031ZM46.875 25.7656V25.4539L47.5 25.4687C47.8073 25.4687 48.1042 25.4613 48.3906 25.4465C48.7031 25.5504 49.0313 25.6395 49.375 25.7211V27.4652C47.8438 27.057 46.875 26.3891 46.875 25.7656ZM50.625 27.7102V25.9437C51.2467 26.0212 51.873 26.0609 52.5 26.0625C53.1269 26.0643 53.7532 26.0271 54.375 25.9512V27.7102C53.132 27.8883 51.868 27.8883 50.625 27.7102ZM55.625 27.4652V25.7285C56.6328 25.4984 57.4844 25.1496 58.125 24.7191V25.7656C58.125 26.3891 57.1563 27.057 55.625 27.4652Z" fill="white"/>
    <rect x="36" y="58" width="28" height="3" rx="1.5" fill="#DDE3F0"/>
    <defs>
    <filter id="filter0_d_2646_9300" x="29" y="49" width="42.8438" height="53.6162" filterUnits="userSpaceOnUse" color-interpolation-filters="sRGB">
    <feFlood flood-opacity="0" result="BackgroundImageFix"/>
    <feColorMatrix in="SourceAlpha" type="matrix" values="0 0 0 0 0 0 0 0 0 0 0 0 0 0 0 0 0 0 127 0" result="hardAlpha"/>
    <feOffset dy="2"/>
    <feGaussianBlur stdDeviation="2"/>
    <feComposite in2="hardAlpha" operator="out"/>
    <feColorMatrix type="matrix" values="0 0 0 0 0.0510417 0 0 0 0 0.170625 0 0 0 0 0.35 0 0 0 0.1 0"/>
    <feBlend mode="normal" in2="BackgroundImageFix" result="effect1_dropShadow_2646_9300"/>
    <feBlend mode="normal" in="SourceGraphic" in2="effect1_dropShadow_2646_9300" result="shape"/>
    </filter>
    <linearGradient id="paint0_linear_2646_9300" x1="-24.588" y1="68.7243" x2="122.732" y2="68.7243" gradientUnits="userSpaceOnUse">
    <stop stop-color="#4D7EF2"/>
    <stop offset="1" stop-color="#5FD4F4"/>
    </linearGradient>
    <linearGradient id="paint1_linear_2646_9300" x1="37.8033" y1="80.4998" x2="62.9477" y2="80.4998" gradientUnits="userSpaceOnUse">
    <stop stop-color="#4D7EF2"/>
    <stop offset="1" stop-color="#5FD4F4"/>
    </linearGradient>
    <linearGradient id="paint2_linear_2646_9300" x1="17.0641" y1="21.912" x2="81.8848" y2="21.912" gradientUnits="userSpaceOnUse">
    <stop stop-color="#4D7EF2"/>
    <stop offset="1" stop-color="#5FD4F4"/>
    </linearGradient>
    </defs>
</svg>
