<svg width="220" height="223" viewBox="0 0 220 223" fill="none" xmlns="http://www.w3.org/2000/svg">
    <path d="M39.337 444.961L37.3851 447.134C25.0014 461.636 11.3637 476.297 -3.32096 490.191C-8.65964 495.389 -11.4518 497.833 -12.2274 498.507L-12.4601 498.699C-37.8481 523.023 -64.7484 540.687 -91.7651 553.314C-106.23 560.336 -121.109 565.712 -136 569.787C-196.174 586.897 -252.999 582.944 -290.383 576.456C-296.459 575.529 -301.138 574.662 -304.163 574.065C-322.222 570.432 -339.931 565.244 -357.072 558.579C-365.41 555.526 -373.618 551.903 -381.671 547.801C-381.917 547.684 -382.15 547.566 -382.395 547.448C-483.637 500.792 -568.914 355.519 -585.176 326.52C-590.605 317.207 -595.737 307.974 -600.584 298.841C-680.29 150.561 -683.651 34.1812 -683.793 24.6571C-683.871 23.2116 -683.922 22.1013 -683.961 21.3422L-684 20.7995L-684 19.2878C-684 18.9955 -683.987 18.708 -683.987 18.4238C-683.935 7.40253 -681.066 2.74386 -679.101 1.39205L-678.907 1.26446C-675.636 -1.23002 -671.991 0.736329 -671.991 0.736329C-671.991 0.736329 -453.699 120.738 -231.813 334.594C-10.0041 120.864 208.094 0.937251 208.094 0.937251C208.094 0.937251 220 -5.46489 220 19.4887L220 21.0013L219.961 21.6214C219.237 36.4833 212.386 177.524 113.277 339.853L112.554 341.093L112.437 341.268C107.344 350.074 80.4696 396.361 39.337 444.961Z" fill="#DDE3F0"/>
</svg>
