<svg width="25" height="24" viewBox="0 0 25 24" fill="none" xmlns="http://www.w3.org/2000/svg">
    <path d="M15.5094 3.75C13.9755 3.74998 12.4719 4.17709 11.1671 4.98349C9.86232 5.78988 8.80785 6.94369 8.12187 8.31562C7.54924 9.44939 7.25061 10.7017 7.25 11.9719C7.25327 12.165 7.18372 12.3523 7.05517 12.4965C6.92662 12.6407 6.7485 12.7312 6.55625 12.75C6.45313 12.7578 6.34952 12.7441 6.25193 12.7099C6.15435 12.6757 6.06488 12.6217 5.98917 12.5513C5.91345 12.4808 5.85312 12.3955 5.81196 12.3006C5.7708 12.2058 5.74971 12.1034 5.75 12C5.75038 10.952 5.91812 9.91074 6.24687 8.91562C6.26881 8.85217 6.27332 8.78399 6.25991 8.7182C6.24651 8.65242 6.21568 8.59144 6.17067 8.54163C6.12565 8.49182 6.06808 8.45501 6.00398 8.43504C5.93988 8.41508 5.87159 8.41269 5.80625 8.42813C4.50581 8.75051 3.3507 9.49889 2.52497 10.554C1.69924 11.6091 1.25041 12.9102 1.25 14.25C1.25 17.55 4.04375 20.25 7.33437 20.25H15.5C17.688 20.2512 19.7869 19.3832 21.335 17.8369C22.8831 16.2907 23.7534 14.1927 23.7547 12.0047C23.7559 9.81665 22.8879 7.71774 21.3416 6.16968C19.7953 4.62163 17.6974 3.75124 15.5094 3.75ZM18.4625 15.3469L15.2844 18.5344C15.1394 18.6704 14.9488 18.7473 14.75 18.75C14.5508 18.7492 14.3596 18.672 14.2156 18.5344L11.0375 15.3469C10.9082 15.2042 10.8388 15.0173 10.8435 14.8248C10.8483 14.6324 10.9268 14.4491 11.063 14.313C11.1991 14.1768 11.3824 14.0983 11.5748 14.0935C11.7673 14.0888 11.9542 14.1582 12.0969 14.2875L14 16.1906V10.5C14 10.3011 14.079 10.1103 14.2197 9.96967C14.3603 9.82902 14.5511 9.75 14.75 9.75C14.9489 9.75 15.1397 9.82902 15.2803 9.96967C15.421 10.1103 15.5 10.3011 15.5 10.5V16.1906L17.4031 14.2875C17.5458 14.1582 17.7327 14.0888 17.9252 14.0935C18.1176 14.0983 18.3009 14.1768 18.437 14.313C18.5732 14.4491 18.6517 14.6324 18.6565 14.8248C18.6612 15.0173 18.5918 15.2042 18.4625 15.3469Z" fill="white"/>
</svg>
