<svg width="36" height="36" viewBox="0 0 36 36" fill="none" xmlns="http://www.w3.org/2000/svg">
    <path d="M29.25 4.5H25.875V3.375C25.875 3.07663 25.7565 2.79048 25.5455 2.5795C25.3345 2.36853 25.0484 2.25 24.75 2.25C24.4516 2.25 24.1655 2.36853 23.9545 2.5795C23.7435 2.79048 23.625 3.07663 23.625 3.375V4.5H12.375V3.375C12.375 3.07663 12.2565 2.79048 12.0455 2.5795C11.8345 2.36853 11.5484 2.25 11.25 2.25C10.9516 2.25 10.6655 2.36853 10.4545 2.5795C10.2435 2.79048 10.125 3.07663 10.125 3.375V4.5H6.75C6.15326 4.5 5.58097 4.73705 5.15901 5.15901C4.73705 5.58097 4.5 6.15326 4.5 6.75V29.25C4.5 29.8467 4.73705 30.419 5.15901 30.841C5.58097 31.2629 6.15326 31.5 6.75 31.5H29.25C29.8467 31.5 30.419 31.2629 30.841 30.841C31.2629 30.419 31.5 29.8467 31.5 29.25V6.75C31.5 6.15326 31.2629 5.58097 30.841 5.15901C30.419 4.73705 29.8467 4.5 29.25 4.5ZM23.8359 18.8156L17.2688 25.0031C17.1666 25.1032 17.0457 25.1821 16.913 25.2352C16.7802 25.2883 16.6383 25.3145 16.4953 25.3125C16.2071 25.3136 15.9298 25.2027 15.7219 25.0031L12.1641 21.6281C12.0498 21.5284 11.9568 21.4066 11.8908 21.2701C11.8248 21.1335 11.7871 20.9851 11.7799 20.8336C11.7727 20.6821 11.7963 20.5307 11.8491 20.3885C11.9019 20.2464 11.983 20.1164 12.0873 20.0063C12.1917 19.8963 12.3172 19.8084 12.4564 19.7481C12.5955 19.6878 12.7455 19.6563 12.8971 19.6554C13.0488 19.6545 13.1991 19.6843 13.3389 19.743C13.4788 19.8017 13.6053 19.888 13.7109 19.9969L16.4953 22.6406L22.2891 17.1844C22.3953 17.0812 22.5211 17.0003 22.6591 16.9465C22.7971 16.8926 22.9444 16.8669 23.0925 16.8708C23.2405 16.8748 23.3863 16.9083 23.5212 16.9693C23.6562 17.0304 23.7775 17.1179 23.8781 17.2266C24.083 17.443 24.1936 17.7319 24.1857 18.0298C24.1778 18.3277 24.052 18.6104 23.8359 18.8156ZM29.25 11.25H6.75V6.75H10.125V7.875C10.125 8.17337 10.2435 8.45952 10.4545 8.6705C10.6655 8.88147 10.9516 9 11.25 9C11.5484 9 11.8345 8.88147 12.0455 8.6705C12.2565 8.45952 12.375 8.17337 12.375 7.875V6.75H23.625V7.875C23.625 8.17337 23.7435 8.45952 23.9545 8.6705C24.1655 8.88147 24.4516 9 24.75 9C25.0484 9 25.3345 8.88147 25.5455 8.6705C25.7565 8.45952 25.875 8.17337 25.875 7.875V6.75H29.25V11.25Z" fill="url(#paint0_linear_1113_5298)"/>
    <defs>
    <linearGradient id="paint0_linear_1113_5298" x1="-2.16527" y1="16.8747" x2="37.7699" y2="16.8747" gradientUnits="userSpaceOnUse">
    <stop stop-color="#4D7EF2"/>
    <stop offset="1" stop-color="#5FD4F4"/>
    </linearGradient>
    </defs>
</svg>
