<svg width="16" height="16" viewBox="0 0 16 16" fill="none" xmlns="http://www.w3.org/2000/svg">
    <path d="M13.725 2.54997C13.6412 2.50994 13.548 2.49345 13.4556 2.50225C13.3631 2.51106 13.2748 2.54484 13.2 2.59997C11.4312 3.92497 9.93125 3.28747 8.2 2.54372C6.46875 1.79997 4.43125 0.924966 2.2 2.59997H2.19375L2.16875 2.61872L2.15625 2.63122L2.1375 2.64997L2.11875 2.66872L2.10625 2.68747L2.0875 2.70622C2.0875 2.71247 2.08125 2.71872 2.075 2.72497L2.0625 2.74997C2.0625 2.75622 2.05625 2.76247 2.05625 2.76872C2.04979 2.77569 2.04546 2.78436 2.04375 2.79372C2.0375 2.79997 2.0375 2.80622 2.03125 2.81872C2.025 2.83122 2.025 2.83122 2.025 2.83747C2.025 2.84372 2.01875 2.85622 2.01875 2.86247C2.01875 2.86872 2.0125 2.87497 2.0125 2.88122C2.0125 2.88747 2.00625 2.89997 2.00625 2.90622V2.93747C2.00625 2.94372 2 2.95622 2 2.96247V13.5C2 13.6326 2.05268 13.7597 2.14645 13.8535C2.24021 13.9473 2.36739 14 2.5 14C2.63261 14 2.75979 13.9473 2.85355 13.8535C2.94732 13.7597 3 13.6326 3 13.5V10.7562C4.68125 9.62496 6.13125 10.2437 7.8 10.9625C8.81875 11.3937 9.9125 11.8625 11.0875 11.8625C11.95 11.8625 12.8562 11.6125 13.8 10.9C13.8617 10.8531 13.9119 10.7926 13.9466 10.7232C13.9812 10.6539 13.9995 10.5775 14 10.5V2.99997C13.9992 2.90708 13.9733 2.81614 13.9248 2.73688C13.8764 2.65762 13.8073 2.59301 13.725 2.54997Z" fill="#F11940"/>
</svg>
