<svg width="150" height="72" viewBox="0 0 150 72" fill="none" xmlns="http://www.w3.org/2000/svg">
    <rect x="20" width="130" height="72" rx="16" fill="#F7F9FC" shape-rendering="geometricPrecision"/>
    <g filter="url(#filter0_d_2464_12400)">
    <rect x="107.142" y="18.696" width="26.0943" height="31.5879" rx="3.43346" transform="rotate(20 107.142 18.696)" fill="#FAA942"/>
    </g>
    <rect x="108.136" y="30.0193" width="16.4806" height="1.37339" rx="0.686693" transform="rotate(20 108.136 30.0193)" fill="white"/>
    <rect x="106.727" y="33.8909" width="16.4806" height="1.37339" rx="0.686693" transform="rotate(20 106.727 33.8909)" fill="white"/>
    <rect x="105.317" y="37.7625" width="10.3004" height="1.37339" rx="0.686693" transform="rotate(20 105.317 37.7625)" fill="white"/>
    <g filter="url(#filter1_d_2464_12400)">
    <rect x="67" y="13" width="38" height="46" rx="5" fill="white"/>
    </g>
    <rect x="74" y="28" width="24" height="2" rx="1" fill="url(#paint0_linear_2464_12400)"/>
    <rect x="74" y="34" width="24" height="2" rx="1" fill="url(#paint1_linear_2464_12400)"/>
    <rect x="74" y="40" width="15" height="2" rx="1" fill="url(#paint2_linear_2464_12400)"/>
    <path d="M41.1694 23.57C41.15 23.2629 41.0281 22.9711 40.8232 22.7414C40.6183 22.5118 40.3423 22.3575 40.0394 22.3033C32.6058 20.9695 29.5026 20.0053 22.5657 16.872C22.3877 16.7916 22.1947 16.75 21.9994 16.75C21.8041 16.75 21.611 16.7916 21.433 16.872C14.4962 20.0053 11.393 20.9695 3.95937 22.3033C3.65641 22.3575 3.3804 22.5118 3.17551 22.7414C2.97063 22.9711 2.84871 23.2629 2.82929 23.57C2.49843 28.8217 3.20397 33.7149 4.92874 38.1141C6.34114 41.7024 8.43139 44.9851 11.0853 47.7829C15.6804 52.6581 20.5591 54.7756 21.4898 55.1503C21.8205 55.2841 22.1903 55.2841 22.521 55.1503C23.4517 54.7756 28.3304 52.6581 32.9255 47.7829C35.5751 44.9841 37.6612 41.7014 39.07 38.1141C40.7948 33.7149 41.5003 28.8217 41.1694 23.57ZM29.9116 30.0248L20.3898 41.0248C20.2673 41.1666 20.1172 41.2819 19.9486 41.3637C19.78 41.4454 19.5964 41.4918 19.4092 41.5H19.3525C18.9926 41.5001 18.6471 41.3591 18.39 41.1073L14.1619 36.9651C14.0329 36.8387 13.93 36.6881 13.8592 36.522C13.7884 36.3558 13.751 36.1774 13.7492 35.9968C13.7455 35.6321 13.8868 35.2808 14.1421 35.0203C14.3974 34.7598 14.7457 34.6114 15.1104 34.6077C15.4751 34.604 15.8264 34.7453 16.0869 35.0006L19.2666 38.1192L27.8345 28.2252C27.9527 28.0887 28.0966 27.9767 28.258 27.8958C28.4194 27.8149 28.5952 27.7665 28.7753 27.7535C28.9554 27.7405 29.1363 27.7631 29.3077 27.82C29.4791 27.8769 29.6376 27.967 29.7741 28.0852C29.9107 28.2033 30.0226 28.3472 30.1036 28.5086C30.1845 28.6701 30.2329 28.8459 30.2459 29.026C30.2589 29.2061 30.2363 29.387 30.1794 29.5584C30.1225 29.7297 30.0324 29.8882 29.9142 30.0248H29.9116Z" fill="url(#paint3_linear_2464_12400)"/>
    <defs>
    <filter id="filter0_d_2464_12400" x="94.5579" y="18.289" width="38.8851" height="42.1686" filterUnits="userSpaceOnUse" color-interpolation-filters="sRGB">
    <feFlood flood-opacity="0" result="BackgroundImageFix"/>
    <feColorMatrix in="SourceAlpha" type="matrix" values="0 0 0 0 0 0 0 0 0 0 0 0 0 0 0 0 0 0 127 0" result="hardAlpha"/>
    <feOffset dy="1.37339"/>
    <feGaussianBlur stdDeviation="1.37339"/>
    <feComposite in2="hardAlpha" operator="out"/>
    <feColorMatrix type="matrix" values="0 0 0 0 0.0510417 0 0 0 0 0.170625 0 0 0 0 0.35 0 0 0 0.1 0"/>
    <feBlend mode="normal" in2="BackgroundImageFix" result="effect1_dropShadow_2464_12400"/>
    <feBlend mode="normal" in="SourceGraphic" in2="effect1_dropShadow_2464_12400" result="shape"/>
    </filter>
    <filter id="filter1_d_2464_12400" x="63" y="11" width="46" height="54" filterUnits="userSpaceOnUse" color-interpolation-filters="sRGB">
    <feFlood flood-opacity="0" result="BackgroundImageFix"/>
    <feColorMatrix in="SourceAlpha" type="matrix" values="0 0 0 0 0 0 0 0 0 0 0 0 0 0 0 0 0 0 127 0" result="hardAlpha"/>
    <feOffset dy="2"/>
    <feGaussianBlur stdDeviation="2"/>
    <feComposite in2="hardAlpha" operator="out"/>
    <feColorMatrix type="matrix" values="0 0 0 0 0.0510417 0 0 0 0 0.170625 0 0 0 0 0.35 0 0 0 0.1 0"/>
    <feBlend mode="normal" in2="BackgroundImageFix" result="effect1_dropShadow_2464_12400"/>
    <feBlend mode="normal" in="SourceGraphic" in2="effect1_dropShadow_2464_12400" result="shape"/>
    </filter>
    <linearGradient id="paint0_linear_2464_12400" x1="68.0753" y1="29" x2="103.573" y2="29" gradientUnits="userSpaceOnUse">
    <stop stop-color="#4D7EF2"/>
    <stop offset="1" stop-color="#5FD4F4"/>
    </linearGradient>
    <linearGradient id="paint1_linear_2464_12400" x1="68.0753" y1="35" x2="103.573" y2="35" gradientUnits="userSpaceOnUse">
    <stop stop-color="#4D7EF2"/>
    <stop offset="1" stop-color="#5FD4F4"/>
    </linearGradient>
    <linearGradient id="paint2_linear_2464_12400" x1="70.2971" y1="41" x2="92.4833" y2="41" gradientUnits="userSpaceOnUse">
    <stop stop-color="#4D7EF2"/>
    <stop offset="1" stop-color="#5FD4F4"/>
    </linearGradient>
    <linearGradient id="paint3_linear_2464_12400" x1="-6.75387" y1="35.9999" x2="50.1888" y2="35.9999" gradientUnits="userSpaceOnUse">
    <stop stop-color="#4D7EF2"/>
    <stop offset="1" stop-color="#5FD4F4"/>
    </linearGradient>
    </defs>
</svg>
