<?xml version="1.0" encoding="utf-8"?><svg version="1.1" id="Layer_1" xmlns="http://www.w3.org/2000/svg" xmlns:xlink="http://www.w3.org/1999/xlink" x="0px" y="0px" viewBox="0 0 122.88 104.41" style="enable-background:new 0 0 122.88 104.41; fill: #fff;" xml:space="preserve"><style type="text/css">.st0{fill-rule:evenodd;clip-rule:evenodd;}</style><g><path class="st0" d="M18.6,28.87c0.19,0.05,0.38,0.09,0.58,0.12l-0.65-5.11c0.33-1.25,0.83-2.23,1.5-2.95 c0.7-0.75,1.57-1.21,2.61-1.41c1.38-0.1,1.79,0.91,3.17,1.79c4.19,2.68,7.74,3.58,12.92,3.65l-0.64,3.16 c-0.12,0.15-0.18,0.34-0.17,0.55c0,0.05,0.01,0.1,0.03,0.14l-0.09,0.43c0.15,0.02,0.31,0.03,0.46,0.03 c0.13,0.07,0.28,0.1,0.43,0.09c0.88-0.08,1.42-0.01,1.56,0.28c0.2,0.4,0.02,1.22-0.56,2.55l-2.83,4.66 c-1.05,1.73-2.12,3.47-3.47,4.73c-1.29,1.21-2.89,2.02-5.07,2.01c-2.01-0.01-3.53-0.78-4.79-1.93c-1.31-1.2-2.36-2.83-3.37-4.43 l-2.52-4l0,0l-0.01-0.02c-0.77-1.14-1.17-2.13-1.19-2.89c-0.01-0.25,0.03-0.47,0.11-0.65c0.07-0.16,0.19-0.29,0.34-0.4 c0.29-0.19,0.72-0.31,1.29-0.32C18.39,28.96,18.5,28.93,18.6,28.87L18.6,28.87z M80.87,15.77L65.2,26.29l1.32-6.55 c-7.88-3.37-14.76-2.8-20.96,2.46c3.46-12.7,13.5-17.13,23.6-15.52L70.51,0L80.87,15.77L80.87,15.77L80.87,15.77z M40.56,88.64 l15.67-10.51l-1.32,6.55c7.88,3.37,14.76,2.8,20.96-2.46c-3.46,12.7-13.5,17.13-23.6,15.52l-1.35,6.68L40.56,88.64L40.56,88.64 L40.56,88.64z M83.98,44.31l2.56-0.07l2.13-0.06c-2.48-7.64-1.65-14.66,4.32-20.63c1.01,3.28,3.29,5.98,7.15,7.98 c1.85,1.37,3.64,3.03,5.37,4.94c0.31-1.26-0.86-2.8-2.28-4.38c1.31,0.65,2.52,1.56,3.38,3.3c0.99,2.03,0.98,3.73,0.65,5.93 c-0.15,1.02-0.4,1.98-0.76,2.86h3.54c3.73-7.98,1.37-19.84-6.26-24.86c-2.34-1.54-4.02-1.48-6.77-1.48c-3.14,0-4.75,0.1-7.44,1.88 c-3.97,2.63-6.41,7.17-7.44,13.48C81.92,36.34,81.78,41.78,83.98,44.31L83.98,44.31z M93.71,58.83l1.91-6.63l-0.94-1.02 c-0.42-0.62-0.51-1.15-0.28-1.62c0.51-1,1.56-0.82,2.54-0.82c1.03,0,2.29-0.19,2.62,1.09c0.11,0.43-0.03,0.88-0.33,1.34l-0.94,1.02 l1.91,6.63l-3.25,2.56L93.71,58.83L93.71,58.83z M110.79,56.54c-1.45-2.9-3.28-5.37-5.42-7.68c4.02,1.56,8.13,3.09,11.18,5 c1.94,1.21,2.94,2.13,3.72,3.6c1.67,3.12,1.84,5.93,2.1,9.32l0.25,3.36c0.41,5.49,1.12,4.49-4.51,4.49H96.96H76.61 c-5.19,0-5.74,1.34-5.4-3.24l0.34-4.61c0.25-3.39,0.43-6.19,2.1-9.32c0.78-1.47,1.78-2.38,3.72-3.6c3.04-1.91,7.15-3.45,11.18-5 c-2.14,2.31-3.97,4.78-5.42,7.68l4.19-0.1l9.64,8.38l9.64-8.38L110.79,56.54L110.79,56.54z M20.26,47.85l4.5,13.24l2.26-7.85 l-1.11-1.21c-0.5-0.73-0.61-1.37-0.33-1.92c0.6-1.19,1.84-0.97,3.01-0.97c1.22,0,2.72-0.23,3.1,1.29c0.13,0.51-0.03,1.04-0.39,1.59 l-1.11,1.21l2.26,7.85l4.08-13.24c2.94,2.65,11.64,3.18,14.88,4.98c1.02,0.57,1.95,1.3,2.69,2.28c1.13,1.49,1.82,3.44,2.01,5.91 l0.68,10.7c-0.16,1.75-1.16,2.76-3.11,2.91H28.6H3.11C1.16,74.48,0.16,73.47,0,71.72l0.68-10.7c0.19-2.47,0.88-4.42,2.01-5.91 c0.74-0.98,1.67-1.71,2.69-2.28C8.62,51.03,17.32,50.5,20.26,47.85L20.26,47.85z M40.47,27.95l0.16-6.47 c-0.19-2.65-1.07-4.65-2.46-6.16c-3.43-3.71-9.83-4.66-14.66-2.92c-0.81,0.29-1.58,0.67-2.29,1.11c-1.99,1.27-3.61,3.12-4.25,5.42 c-0.15,0.54-0.26,1.09-0.31,1.63c-0.1,2.27-0.05,4.97,0.11,7.13c-0.23,0.09-0.45,0.2-0.64,0.32c-0.4,0.27-0.69,0.61-0.88,1.03 c-0.18,0.39-0.27,0.84-0.25,1.33c0.03,1.04,0.51,2.3,1.44,3.68l2.52,4c1.06,1.68,2.17,3.41,3.63,4.74 c1.52,1.39,3.36,2.32,5.82,2.33c2.63,0.01,4.55-0.97,6.11-2.43c1.5-1.41,2.63-3.23,3.73-5.06l2.87-4.72 c0.02-0.03,0.03-0.06,0.05-0.09l0,0c0.79-1.79,0.96-3.04,0.54-3.87C41.45,28.45,41.03,28.13,40.47,27.95L40.47,27.95z"/></g></svg>