<svg width="88" height="88" viewBox="0 0 88 88" fill="none" xmlns="http://www.w3.org/2000/svg">
<path d="M88 44C88 68.3005 68.3005 88 44 88C19.6995 88 0 68.3005 0 44C0 19.6995 19.6995 0 44 0C68.3005 0 88 19.6995 88 44Z" fill="#EEF1F8"/>
<path d="M44 47.75C45.0355 47.75 45.875 46.9105 45.875 45.875C45.875 44.8395 45.0355 44 44 44C42.9645 44 42.125 44.8395 42.125 45.875C42.125 46.9105 42.9645 47.75 44 47.75Z" fill="#001F55"/>
<path d="M56.5 36.5H50.875V32.125C50.875 30.3016 50.1507 28.553 48.8614 27.2636C47.572 25.9743 45.8234 25.25 44 25.25C42.1766 25.25 40.428 25.9743 39.1386 27.2636C37.8493 28.553 37.125 30.3016 37.125 32.125V36.5H31.5C30.837 36.5 30.2011 36.7634 29.7322 37.2322C29.2634 37.7011 29 38.337 29 39V56.5C29 57.163 29.2634 57.7989 29.7322 58.2678C30.2011 58.7366 30.837 59 31.5 59H56.5C57.163 59 57.7989 58.7366 58.2678 58.2678C58.7366 57.7989 59 57.163 59 56.5V39C59 38.337 58.7366 37.7011 58.2678 37.2322C57.7989 36.7634 57.163 36.5 56.5 36.5ZM45.25 50.0625V52.75C45.25 53.0815 45.1183 53.3995 44.8839 53.6339C44.6495 53.8683 44.3315 54 44 54C43.6685 54 43.3505 53.8683 43.1161 53.6339C42.8817 53.3995 42.75 53.0815 42.75 52.75V50.0625C41.7429 49.7622 40.8776 49.1095 40.3122 48.2237C39.7468 47.3379 39.5191 46.2781 39.6708 45.2383C39.8225 44.1984 40.3435 43.2479 41.1384 42.5605C41.9333 41.8731 42.9491 41.4949 44 41.4949C45.0509 41.4949 46.0667 41.8731 46.8616 42.5605C47.6565 43.2479 48.1775 44.1984 48.3292 45.2383C48.4809 46.2781 48.2532 47.3379 47.6878 48.2237C47.1224 49.1095 46.2571 49.7622 45.25 50.0625V50.0625ZM48.375 36.5H39.625V32.125C39.625 30.9647 40.0859 29.8519 40.9064 29.0314C41.7269 28.2109 42.8397 27.75 44 27.75C45.1603 27.75 46.2731 28.2109 47.0936 29.0314C47.9141 29.8519 48.375 30.9647 48.375 32.125V36.5Z" fill="#001F55"/>
</svg>
