<svg width="68" height="68" viewBox="0 0 68 68" fill="none" xmlns="http://www.w3.org/2000/svg">
<g filter="url(#filter0_b_163_334)">
<circle cx="34" cy="34" r="34" fill="white" fill-opacity="0.1"/>
</g>
<path d="M34 37C34.8284 37 35.5 36.3284 35.5 35.5C35.5 34.6716 34.8284 34 34 34C33.1716 34 32.5 34.6716 32.5 35.5C32.5 36.3284 33.1716 37 34 37Z" fill="white"/>
<path d="M44 28H39.5V24.5C39.5 23.0413 38.9205 21.6424 37.8891 20.6109C36.8576 19.5795 35.4587 19 34 19C32.5413 19 31.1424 19.5795 30.1109 20.6109C29.0795 21.6424 28.5 23.0413 28.5 24.5V28H24C23.4696 28 22.9609 28.2107 22.5858 28.5858C22.2107 28.9609 22 29.4696 22 30V44C22 44.5304 22.2107 45.0391 22.5858 45.4142C22.9609 45.7893 23.4696 46 24 46H44C44.5304 46 45.0391 45.7893 45.4142 45.4142C45.7893 45.0391 46 44.5304 46 44V30C46 29.4696 45.7893 28.9609 45.4142 28.5858C45.0391 28.2107 44.5304 28 44 28ZM35 38.85V41C35 41.2652 34.8946 41.5196 34.7071 41.7071C34.5196 41.8946 34.2652 42 34 42C33.7348 42 33.4804 41.8946 33.2929 41.7071C33.1054 41.5196 33 41.2652 33 41V38.85C32.1943 38.6098 31.5021 38.0876 31.0497 37.379C30.5974 36.6703 30.4153 35.8225 30.5367 34.9906C30.658 34.1587 31.0748 33.3983 31.7107 32.8484C32.3467 32.2985 33.1593 31.9959 34 31.9959C34.8407 31.9959 35.6533 32.2985 36.2893 32.8484C36.9252 33.3983 37.342 34.1587 37.4633 34.9906C37.5847 35.8225 37.4026 36.6703 36.9503 37.379C36.4979 38.0876 35.8057 38.6098 35 38.85V38.85ZM37.5 28H30.5V24.5C30.5 23.5717 30.8687 22.6815 31.5251 22.0251C32.1815 21.3687 33.0717 21 34 21C34.9283 21 35.8185 21.3687 36.4749 22.0251C37.1313 22.6815 37.5 23.5717 37.5 24.5V28Z" fill="white"/>
<defs>
<filter id="filter0_b_163_334" x="-10" y="-10" width="88" height="88" filterUnits="userSpaceOnUse" color-interpolation-filters="sRGB">
<feFlood flood-opacity="0" result="BackgroundImageFix"/>
<feGaussianBlur in="BackgroundImage" stdDeviation="5"/>
<feComposite in2="SourceAlpha" operator="in" result="effect1_backgroundBlur_163_334"/>
<feBlend mode="normal" in="SourceGraphic" in2="effect1_backgroundBlur_163_334" result="shape"/>
</filter>
</defs>
</svg>
