<svg width="184" height="32" viewBox="0 0 184 32" fill="none" xmlns="http://www.w3.org/2000/svg">
    <path d="M24.6864 11.3947C27.7272 11.3947 30.1922 8.92622 30.1922 5.88119C30.1922 2.83616 27.7272 0.367676 24.6864 0.367676C21.6457 0.367676 19.1807 2.83616 19.1807 5.88119C19.1807 8.92622 21.6457 11.3947 24.6864 11.3947Z" fill="#FAA942"/>
    <path d="M56.0396 28.1218V4.33807H64.0608C65.5626 4.31667 67.058 4.53751 68.4897 4.99213C69.7429 5.37254 70.8387 6.1503 71.6123 7.20834C72.3878 8.22816 72.7756 9.62185 72.7756 11.3894C72.7756 13.2074 72.3392 14.6741 71.4666 15.7894C70.5985 16.917 69.4089 17.754 68.0552 18.1894L73.7229 28.1137H68.9998L63.8719 18.8056H60.2499V28.1137L56.0396 28.1218ZM60.2499 15.4678H63.6263C65.2456 15.4678 66.4799 15.1282 67.3292 14.4489C68.1784 13.7696 68.6139 12.7516 68.6354 11.3948C68.6354 10.0381 68.2 9.09302 67.3292 8.55969C66.4583 8.02636 65.224 7.74798 63.6263 7.72456H60.2499V15.4678ZM83.7034 28.5543C82.1471 28.5791 80.61 28.2071 79.2368 27.4732C77.9069 26.7222 76.8131 25.6138 76.079 24.2732C75.3035 22.8678 74.9167 21.1831 74.9185 19.2191C74.9203 17.2552 75.3071 15.5831 76.079 14.2029C76.8051 12.8693 77.869 11.7507 79.1639 10.9597C80.3546 10.2278 81.7234 9.83796 83.1205 9.83266C84.7398 9.83266 86.0956 10.193 87.1877 10.9137C88.2897 11.6346 89.1501 12.6703 89.6572 13.8867C90.2389 15.279 90.5229 16.7778 90.4912 18.2867C90.51 18.9698 90.4494 19.6528 90.3104 20.3218H78.975C79.1693 21.8984 79.7378 23.1228 80.6807 23.9948C81.6514 24.8775 82.9274 25.3467 84.2378 25.3029C84.9651 25.3108 85.6888 25.2003 86.3808 24.9759C87.08 24.7222 87.7496 24.3932 88.378 23.9948L89.7922 26.611C88.9099 27.1882 87.9587 27.6522 86.961 27.9921C85.9149 28.3637 84.8134 28.5547 83.7034 28.557V28.5543ZM78.948 17.5056H86.8612C86.8612 16.1237 86.5589 15.0426 85.9543 14.2624C85.3498 13.4822 84.442 13.0822 83.2311 13.0624C82.1856 13.0715 81.1858 13.4929 80.4486 14.2354C79.6407 14.9867 79.1405 16.0768 78.948 17.5056ZM99.6783 28.557C97.6217 28.557 96.1571 27.9633 95.2845 26.7759C94.4388 25.5651 94.016 24.002 94.016 22.0867V13.5759H91.4736V10.4543L94.2319 10.2705L94.742 5.40564H98.2263V10.2705H102.763V13.5759H98.2263V22.084C98.2263 24.1687 99.0611 25.211 100.731 25.211C101.06 25.2091 101.389 25.1719 101.711 25.1002C102.006 25.0185 102.297 24.922 102.582 24.811L103.308 27.9002C102.763 28.0874 102.205 28.2328 101.638 28.3354C100.996 28.4865 100.338 28.5609 99.6783 28.557ZM105.789 28.1218V10.284H109.964V28.1218H105.789ZM107.894 7.14618C107.229 7.17449 106.58 6.93841 106.088 6.48942C105.856 6.26449 105.675 5.99274 105.556 5.6922C105.436 5.39166 105.382 5.06919 105.397 4.74618C105.384 4.42822 105.439 4.11115 105.558 3.81613C105.678 3.52112 105.858 3.25494 106.088 3.03537C106.599 2.6124 107.241 2.38098 107.903 2.38098C108.566 2.38098 109.208 2.6124 109.718 3.03537C109.947 3.2555 110.127 3.52184 110.246 3.81676C110.364 4.11169 110.419 4.42848 110.406 4.74618C110.421 5.06893 110.367 5.39112 110.249 5.69158C110.13 5.99203 109.949 6.26394 109.718 6.48942C109.472 6.71381 109.185 6.88734 108.871 7.00005C108.558 7.11275 108.226 7.16241 107.894 7.14618ZM114.565 28.1218V10.284H118.012L118.303 13.4489H118.449C118.985 12.3914 119.769 11.4804 120.735 10.7948C121.533 10.1979 122.498 9.86703 123.493 9.84888C124.186 9.81782 124.878 9.93674 125.52 10.1975L124.802 13.8462C124.516 13.7561 124.225 13.683 123.931 13.6273C123.607 13.5742 123.279 13.5498 122.951 13.5543C122.143 13.5916 121.368 13.8829 120.735 14.3867C119.961 14.9273 119.297 15.8651 118.738 17.2246V28.13L114.565 28.1218ZM134.651 28.557C133.094 28.5818 131.557 28.2098 130.184 27.4759C128.854 26.7249 127.76 25.6165 127.026 24.2759C126.251 22.8705 125.864 21.1858 125.866 19.2219C125.868 17.2579 126.254 15.5858 127.026 14.2056C127.752 12.872 128.816 11.7534 130.111 10.9624C131.303 10.2302 132.672 9.8403 134.07 9.83537C135.69 9.83537 137.045 10.1957 138.135 10.9164C139.238 11.6365 140.098 12.6725 140.605 13.8894C141.19 15.2863 141.476 16.7909 141.444 18.3056C141.463 18.9887 141.402 19.6717 141.263 20.3408H129.928C130.122 21.9173 130.691 23.1417 131.633 24.0137C132.604 24.8964 133.88 25.3656 135.191 25.3218C135.918 25.3297 136.642 25.2192 137.333 24.9948C138.033 24.7411 138.702 24.4122 139.331 24.0137L140.745 26.63C139.863 27.2071 138.911 27.6711 137.914 28.011C136.865 28.3768 135.761 28.5614 134.651 28.557ZM129.895 17.5056H137.808C137.808 16.1237 137.506 15.0426 136.902 14.2624C136.297 13.4822 135.389 13.0822 134.178 13.0624C133.129 13.0658 132.124 13.4845 131.382 14.2273C130.583 14.984 130.088 16.0768 129.895 17.5056ZM153.956 28.557C152.306 28.5979 150.671 28.2263 149.201 27.4759C147.846 26.7552 146.793 25.5912 146.043 23.984C145.293 22.3768 144.933 20.2804 144.963 17.6948V4.34618H149.174V18.0137C149.174 19.7363 149.367 21.1056 149.754 22.1219C150.075 23.0036 150.673 23.7568 151.46 24.2678C152.226 24.6895 153.09 24.9029 153.964 24.8867C154.851 24.9061 155.727 24.6928 156.506 24.2678C157.31 23.7673 157.924 23.0119 158.25 22.1219C158.684 21.1056 158.901 19.7363 158.903 18.0137V4.34618H162.933V17.6867C162.933 20.2813 162.573 22.3777 161.853 23.9759C161.133 25.5741 160.088 26.7381 158.717 27.4678C157.247 28.2271 155.609 28.6018 153.956 28.557ZM174.705 28.557C173.11 28.5585 171.53 28.2501 170.052 27.6489C168.59 27.0516 167.258 26.1749 166.131 25.0678L168.6 22.1948C169.457 23.0007 170.438 23.664 171.504 24.1597C172.53 24.6299 173.644 24.8777 174.773 24.8867C176.128 24.8867 177.156 24.6074 177.858 24.0489C178.196 23.7897 178.468 23.4536 178.651 23.0682C178.834 22.6828 178.923 22.2592 178.91 21.8327C178.91 20.8381 178.559 20.1246 177.858 19.6867C177.023 19.1684 176.15 18.7166 175.245 18.3354L171.977 16.9191C171.172 16.5618 170.406 16.1235 169.691 15.611C168.959 15.0623 168.348 14.3698 167.893 13.5759C167.412 12.6607 167.174 11.6369 167.202 10.6029C167.186 9.39797 167.542 8.21736 168.22 7.22185C168.94 6.19009 169.915 5.36386 171.051 4.82456C172.337 4.20038 173.751 3.88659 175.18 3.90834C176.554 3.90817 177.914 4.19346 179.172 4.74618C180.404 5.24738 181.524 5.98877 182.467 6.92726L180.327 9.62996C179.606 9.01785 178.798 8.51602 177.93 8.14077C177.059 7.7687 176.119 7.58452 175.172 7.60023C174.206 7.55711 173.252 7.82415 172.449 8.36239C172.122 8.58878 171.857 8.89427 171.679 9.25052C171.501 9.60677 171.416 10.0022 171.431 10.4002C171.42 10.9473 171.6 11.481 171.942 11.9083C172.35 12.328 172.83 12.672 173.358 12.9246C173.938 13.1912 174.555 13.4615 175.21 13.7354L178.449 15.0867C179.759 15.6267 180.936 16.4456 181.898 17.4867C182.797 18.4543 183.247 19.7993 183.247 21.5219C183.255 22.767 182.901 23.9876 182.23 25.0354C181.502 26.147 180.486 27.0393 179.291 27.6164C178.024 28.2453 176.495 28.5588 174.705 28.557Z" fill="white"/>
    <path d="M13.942 24.2488C16.3143 23.6488 20.1899 22.157 24.4245 18.4516C36.3861 6.82993 48.2343 0.302901 48.2343 0.302901C48.2343 0.302901 48.8712 -0.0403419 48.8712 1.2975C48.8712 1.32452 48.8712 1.35155 48.8712 1.37858C48.8415 1.96506 48.5501 9.62993 43.1603 18.4732C43.0092 18.7191 37.382 28.838 30.2461 30.5434C30.2137 30.5434 30.1867 30.5705 30.1543 30.5813C29.4688 30.8326 21.7634 33.4218 13.4481 26.4461L13.386 26.3894C13.2211 26.2345 13.101 26.0381 13.0382 25.8206C12.9755 25.6032 12.9724 25.3728 13.0293 25.1538C13.0862 24.9348 13.201 24.7351 13.3616 24.5759C13.5222 24.4166 13.7227 24.3036 13.942 24.2488Z" fill="url(#paint0_linear_898_1154)"/>
    <path d="M24.9509 18.4407C12.9894 6.81912 1.13846 0.292098 1.13846 0.292098C1.13846 0.292098 0.504221 -0.0511451 0.496124 1.28669V1.36777C0.525812 1.95426 0.830789 9.62994 6.20971 18.4732C6.35815 18.7191 11.9881 28.838 19.124 30.5434C19.1564 30.5434 19.1834 30.5705 19.2157 30.5813C19.9013 30.8326 29.2881 33.8461 36.4321 26.9894C36.451 26.9705 37.2094 26.3407 39.2038 24.1083C39.2038 24.1164 29.1855 22.157 24.9509 18.4407Z" fill="url(#paint1_linear_898_1154)"/>
    <path d="M36.2646 26.592C31.5172 32.8758 22.3248 31.3272 20.8215 31.0299C19.3703 30.7378 17.9632 30.2581 16.6355 29.6029C10.6061 26.8191 5.63473 17.4866 5.63473 17.4866C0.506809 8.61096 0.506809 1.54069 0.506809 1.54069C0.450132 0.729883 0.636356 0.410965 0.757807 0.327181L0.795592 0.302856C1.46222 1.46232 10.9786 17.6299 20.6353 24.7272C23.5231 26.8461 27.3124 27.7866 33.8248 27.5893H33.8518L36.2646 26.592Z" fill="url(#paint2_linear_898_1154)"/>
    <defs>
    <linearGradient id="paint0_linear_898_1154" x1="24.5945" y1="15.811" x2="55.6131" y2="15.6843" gradientUnits="userSpaceOnUse">
    <stop stop-color="#286CDF"/>
    <stop offset="0.25" stop-color="#3C91E7"/>
    <stop offset="0.53" stop-color="#4FB5F0"/>
    <stop offset="0.67" stop-color="#56C3F3"/>
    </linearGradient>
    <linearGradient id="paint1_linear_898_1154" x1="-0.675201" y1="16.0083" x2="38.2808" y2="15.5852" gradientUnits="userSpaceOnUse">
    <stop offset="0.07" stop-color="#5FD4F4"/>
    <stop offset="0.24" stop-color="#5BBFF4"/>
    <stop offset="0.56" stop-color="#539CF3"/>
    <stop offset="0.83" stop-color="#4F86F2"/>
    <stop offset="1" stop-color="#4D7EF2"/>
    </linearGradient>
    <linearGradient id="paint2_linear_898_1154" x1="2.0101" y1="12.1002" x2="39.6789" y2="28.1862" gradientUnits="userSpaceOnUse">
    <stop stop-color="#94DDD4"/>
    <stop offset="0.01" stop-color="#96DED5" stop-opacity="0.98"/>
    <stop offset="0.24" stop-color="#BBE9E4" stop-opacity="0.64"/>
    <stop offset="0.43" stop-color="#D8F3EF" stop-opacity="0.36"/>
    <stop offset="0.6" stop-color="#EDF9F8" stop-opacity="0.17"/>
    <stop offset="0.73" stop-color="#FAFDFD" stop-opacity="0.04"/>
    <stop offset="0.81" stop-color="white" stop-opacity="0"/>
    </linearGradient>
    </defs>
</svg>
