<svg width="184" height="32" viewBox="0 0 184 32" fill="none" xmlns="http://www.w3.org/2000/svg">
    <path d="M24.6864 11.3947C27.7272 11.3947 30.1922 8.92622 30.1922 5.88119C30.1922 2.83616 27.7272 0.367676 24.6864 0.367676C21.6457 0.367676 19.1807 2.83616 19.1807 5.88119C19.1807 8.92622 21.6457 11.3947 24.6864 11.3947Z" fill="#FAA942"/>
    <path d="M56.0396 28.1217V4.33795H64.0608C65.5626 4.31655 67.058 4.53739 68.4897 4.992C69.7429 5.37242 70.8387 6.15018 71.6123 7.20822C72.3878 8.22804 72.7756 9.62173 72.7756 11.3893C72.7756 13.2073 72.3392 14.674 71.4666 15.7893C70.5985 16.9169 69.4089 17.7539 68.0552 18.1893L73.7229 28.1136H68.9998L63.8719 18.8055H60.2499V28.1136L56.0396 28.1217ZM60.2499 15.4677H63.6263C65.2456 15.4677 66.4799 15.128 67.3292 14.4488C68.1784 13.7695 68.6139 12.7515 68.6354 11.3947C68.6354 10.0379 68.2 9.0929 67.3292 8.55957C66.4583 8.02624 65.224 7.74786 63.6263 7.72443H60.2499V15.4677ZM83.7034 28.5542C82.1471 28.579 80.61 28.207 79.2368 27.4731C77.9069 26.7221 76.8131 25.6137 76.079 24.2731C75.3035 22.8677 74.9167 21.183 74.9185 19.219C74.9203 17.2551 75.3071 15.583 76.079 14.2028C76.8051 12.8692 77.869 11.7506 79.1639 10.9596C80.3546 10.2277 81.7234 9.83784 83.1205 9.83254C84.7398 9.83254 86.0956 10.1929 87.1877 10.9136C88.2897 11.6345 89.1501 12.6702 89.6572 13.8866C90.2389 15.2789 90.5229 16.7777 90.4912 18.2866C90.51 18.9697 90.4494 19.6527 90.3104 20.3217H78.975C79.1693 21.8983 79.7378 23.1226 80.6807 23.9947C81.6514 24.8774 82.9274 25.3466 84.2378 25.3028C84.9651 25.3106 85.6888 25.2002 86.3808 24.9758C87.08 24.7221 87.7496 24.3931 88.378 23.9947L89.7922 26.6109C88.9099 27.1881 87.9587 27.6521 86.961 27.992C85.9149 28.3636 84.8134 28.5546 83.7034 28.5569V28.5542ZM78.948 17.5055H86.8612C86.8612 16.1235 86.5589 15.0425 85.9543 14.2623C85.3498 13.4821 84.442 13.0821 83.2311 13.0623C82.1856 13.0714 81.1858 13.4928 80.4486 14.2352C79.6407 14.9866 79.1405 16.0767 78.948 17.5055ZM99.6783 28.5569C97.6217 28.5569 96.1571 27.9632 95.2845 26.7758C94.4388 25.565 94.016 24.0019 94.016 22.0866V13.5758H91.4736V10.4542L94.2319 10.2704L94.742 5.40552H98.2263V10.2704H102.763V13.5758H98.2263V22.0839C98.2263 24.1686 99.0611 25.2109 100.731 25.2109C101.06 25.2089 101.389 25.1718 101.711 25.1001C102.006 25.0184 102.297 24.9219 102.582 24.8109L103.308 27.9001C102.763 28.0872 102.205 28.2327 101.638 28.3352C100.996 28.4864 100.338 28.5608 99.6783 28.5569ZM105.789 28.1217V10.2839H109.964V28.1217H105.789ZM107.894 7.14606C107.229 7.17437 106.58 6.93829 106.088 6.4893C105.856 6.26437 105.675 5.99262 105.556 5.69208C105.436 5.39153 105.382 5.06907 105.397 4.74606C105.384 4.42809 105.439 4.11102 105.558 3.81601C105.678 3.521 105.858 3.25482 106.088 3.03525C106.599 2.61228 107.241 2.38086 107.903 2.38086C108.566 2.38086 109.208 2.61228 109.718 3.03525C109.947 3.25538 110.127 3.52172 110.246 3.81664C110.364 4.11157 110.419 4.42836 110.406 4.74606C110.421 5.06881 110.367 5.391 110.249 5.69146C110.13 5.99191 109.949 6.26382 109.718 6.4893C109.472 6.71369 109.185 6.88722 108.871 6.99993C108.558 7.11263 108.226 7.16229 107.894 7.14606ZM114.565 28.1217V10.2839H118.012L118.303 13.4488H118.449C118.985 12.3912 119.769 11.4803 120.735 10.7947C121.533 10.1978 122.498 9.86691 123.493 9.84876C124.186 9.81769 124.878 9.93661 125.52 10.1974L124.802 13.8461C124.516 13.756 124.225 13.6829 123.931 13.6271C123.607 13.574 123.279 13.5496 122.951 13.5542C122.143 13.5915 121.368 13.8828 120.735 14.3866C119.961 14.9271 119.297 15.865 118.738 17.2244V28.1298L114.565 28.1217ZM134.651 28.5569C133.094 28.5817 131.557 28.2097 130.184 27.4758C128.854 26.7248 127.76 25.6164 127.026 24.2758C126.251 22.8704 125.864 21.1857 125.866 19.2217C125.868 17.2578 126.254 15.5857 127.026 14.2055C127.752 12.8719 128.816 11.7533 130.111 10.9623C131.303 10.2301 132.672 9.84018 134.07 9.83524C135.69 9.83524 137.045 10.1956 138.135 10.9163C139.238 11.6364 140.098 12.6724 140.605 13.8893C141.19 15.2862 141.476 16.7908 141.444 18.3055C141.463 18.9886 141.402 19.6716 141.263 20.3406H129.928C130.122 21.9172 130.691 23.1415 131.633 24.0136C132.604 24.8963 133.88 25.3655 135.191 25.3217C135.918 25.3296 136.642 25.2191 137.333 24.9947C138.033 24.741 138.702 24.412 139.331 24.0136L140.745 26.6298C139.863 27.207 138.911 27.671 137.914 28.0109C136.865 28.3767 135.761 28.5613 134.651 28.5569ZM129.895 17.5055H137.808C137.808 16.1235 137.506 15.0425 136.902 14.2623C136.297 13.4821 135.389 13.0821 134.178 13.0623C133.129 13.0656 132.124 13.4844 131.382 14.2271C130.583 14.9839 130.088 16.0767 129.895 17.5055ZM153.956 28.5569C152.306 28.5977 150.671 28.2262 149.201 27.4758C147.846 26.7551 146.793 25.5911 146.043 23.9839C145.293 22.3767 144.933 20.2803 144.963 17.6947V4.34606H149.174V18.0136C149.174 19.7361 149.367 21.1055 149.754 22.1217C150.075 23.0034 150.673 23.7567 151.46 24.2677C152.226 24.6894 153.09 24.9028 153.964 24.8866C154.851 24.906 155.727 24.6926 156.506 24.2677C157.31 23.7672 157.924 23.0118 158.25 22.1217C158.684 21.1055 158.901 19.7361 158.903 18.0136V4.34606H162.933V17.6866C162.933 20.2812 162.573 22.3776 161.853 23.9758C161.133 25.574 160.088 26.7379 158.717 27.4677C157.247 28.227 155.609 28.6017 153.956 28.5569ZM174.705 28.5569C173.11 28.5584 171.53 28.25 170.052 27.6488C168.59 27.0515 167.258 26.1748 166.131 25.0677L168.6 22.1947C169.457 23.0005 170.438 23.6639 171.504 24.1596C172.53 24.6298 173.644 24.8776 174.773 24.8866C176.128 24.8866 177.156 24.6073 177.858 24.0488C178.196 23.7896 178.468 23.4534 178.651 23.068C178.834 22.6826 178.923 22.2591 178.91 21.8325C178.91 20.8379 178.559 20.1244 177.858 19.6866C177.023 19.1683 176.15 18.7164 175.245 18.3352L171.977 16.919C171.172 16.5617 170.406 16.1234 169.691 15.6109C168.959 15.0622 168.348 14.3697 167.893 13.5758C167.412 12.6606 167.174 11.6368 167.202 10.6028C167.186 9.39785 167.542 8.21724 168.22 7.22173C168.94 6.18997 169.915 5.36374 171.051 4.82443C172.337 4.20025 173.751 3.88647 175.18 3.90822C176.554 3.90805 177.914 4.19334 179.172 4.74606C180.404 5.24726 181.524 5.98865 182.467 6.92714L180.327 9.62984C179.606 9.01773 178.798 8.5159 177.93 8.14065C177.059 7.76858 176.119 7.5844 175.172 7.60011C174.206 7.55699 173.252 7.82403 172.449 8.36227C172.122 8.58866 171.857 8.89415 171.679 9.2504C171.501 9.60665 171.416 10.0021 171.431 10.4001C171.42 10.9471 171.6 11.4809 171.942 11.9082C172.35 12.3279 172.83 12.6719 173.358 12.9244C173.938 13.1911 174.555 13.4614 175.21 13.7352L178.449 15.0866C179.759 15.6266 180.936 16.4455 181.898 17.4866C182.797 18.4542 183.247 19.7992 183.247 21.5217C183.255 22.7669 182.901 23.9874 182.23 25.0352C181.502 26.1469 180.486 27.0392 179.291 27.6163C178.024 28.2451 176.495 28.5587 174.705 28.5569Z" fill="#001F55"/>
    <path d="M13.942 24.2491C16.3143 23.6491 20.1899 22.1572 24.4245 18.4518C36.3861 6.83017 48.2343 0.303145 48.2343 0.303145C48.2343 0.303145 48.8712 -0.0400978 48.8712 1.29774C48.8712 1.32477 48.8712 1.35179 48.8712 1.37882C48.8415 1.96531 48.5501 9.63017 43.1603 18.4734C43.0092 18.7194 37.382 28.8383 30.2461 30.5437C30.2137 30.5437 30.1867 30.5707 30.1543 30.5815C29.4688 30.8329 21.7634 33.4221 13.4481 26.4464L13.386 26.3896C13.2211 26.2348 13.101 26.0383 13.0382 25.8209C12.9755 25.6034 12.9724 25.3731 13.0293 25.154C13.0862 24.935 13.201 24.7354 13.3616 24.5761C13.5222 24.4169 13.7227 24.3039 13.942 24.2491Z" fill="url(#paint0_linear_898_8)"/>
    <path d="M24.9509 18.4406C12.9894 6.81894 1.13846 0.291915 1.13846 0.291915C1.13846 0.291915 0.504221 -0.0513282 0.496124 1.28651V1.36759C0.525812 1.95408 0.830789 9.62975 6.20971 18.473C6.35815 18.7189 11.9881 28.8379 19.124 30.5433C19.1564 30.5433 19.1834 30.5703 19.2157 30.5811C19.9013 30.8325 29.2881 33.846 36.4321 26.9892C36.451 26.9703 37.2094 26.3406 39.2038 24.1081C39.2038 24.1162 29.1855 22.1568 24.9509 18.4406Z" fill="url(#paint1_linear_898_8)"/>
    <path d="M36.2646 26.5919C31.5172 32.8757 22.3248 31.3271 20.8215 31.0298C19.3703 30.7377 17.9632 30.258 16.6355 29.6027C10.6061 26.819 5.63473 17.4865 5.63473 17.4865C0.506809 8.61084 0.506809 1.54057 0.506809 1.54057C0.450132 0.729761 0.636356 0.410843 0.757807 0.327059L0.795592 0.302734C1.46222 1.46219 10.9786 17.6298 20.6353 24.7271C23.5231 26.846 27.3124 27.7865 33.8248 27.5892H33.8518L36.2646 26.5919Z" fill="url(#paint2_linear_898_8)"/>
    <defs>
    <linearGradient id="paint0_linear_898_8" x1="24.5945" y1="15.8113" x2="55.6131" y2="15.6846" gradientUnits="userSpaceOnUse">
    <stop stop-color="#286CDF"/>
    <stop offset="0.25" stop-color="#3C91E7"/>
    <stop offset="0.53" stop-color="#4FB5F0"/>
    <stop offset="0.67" stop-color="#56C3F3"/>
    </linearGradient>
    <linearGradient id="paint1_linear_898_8" x1="-0.675201" y1="16.0081" x2="38.2808" y2="15.585" gradientUnits="userSpaceOnUse">
    <stop offset="0.07" stop-color="#5FD4F4"/>
    <stop offset="0.24" stop-color="#5BBFF4"/>
    <stop offset="0.56" stop-color="#539CF3"/>
    <stop offset="0.83" stop-color="#4F86F2"/>
    <stop offset="1" stop-color="#4D7EF2"/>
    </linearGradient>
    <linearGradient id="paint2_linear_898_8" x1="2.0101" y1="12.1" x2="39.6789" y2="28.1861" gradientUnits="userSpaceOnUse">
    <stop stop-color="#94DDD4"/>
    <stop offset="0.01" stop-color="#96DED5" stop-opacity="0.98"/>
    <stop offset="0.24" stop-color="#BBE9E4" stop-opacity="0.64"/>
    <stop offset="0.43" stop-color="#D8F3EF" stop-opacity="0.36"/>
    <stop offset="0.6" stop-color="#EDF9F8" stop-opacity="0.17"/>
    <stop offset="0.73" stop-color="#FAFDFD" stop-opacity="0.04"/>
    <stop offset="0.81" stop-color="white" stop-opacity="0"/>
    </linearGradient>
    </defs>
</svg>
