<svg width="448" height="172" viewBox="0 0 448 172" fill="none" xmlns="http://www.w3.org/2000/svg">
    <path d="M39.9687 25C46.1819 25 51.2187 19.9632 51.2187 13.75C51.2187 7.5368 46.1819 2.5 39.9687 2.5C33.7555 2.5 28.7188 7.5368 28.7188 13.75C28.7188 19.9632 33.7555 25 39.9687 25Z" fill="url(#paint0_linear_2595_9557)"/>
    <path d="M66.1558 43.5938L53.8433 27.7813L53.6558 27.5625C52.8453 26.7473 51.881 26.101 50.8189 25.6611C49.7568 25.2212 48.6179 24.9965 47.4683 25H32.4683C31.3187 24.9965 30.1798 25.2212 29.1177 25.6611C28.0556 26.101 27.0913 26.7473 26.2808 27.5625L26.0621 27.7813L13.7808 43.5938C12.6081 44.7665 11.9492 46.3571 11.9492 48.0157C11.9492 49.6742 12.6081 51.2648 13.7808 52.4375C14.9536 53.6103 16.5442 54.2691 18.2027 54.2691C19.8612 54.2691 21.4518 53.6103 22.6246 52.4375L27.0308 49L20.8121 68.5938C20.1947 70.0549 20.1501 71.695 20.6871 73.1875C20.9679 73.9621 21.3998 74.6731 21.9577 75.2793C22.5156 75.8855 23.1884 76.3748 23.9371 76.7188C24.6743 77.07 25.4742 77.2703 26.29 77.3079C27.1057 77.3455 27.9207 77.2196 28.6871 76.9375C30.1893 76.3926 31.4289 75.2981 32.1558 73.875L39.9683 61.5625L47.7808 73.875C48.5052 75.2884 49.731 76.3805 51.2183 76.9375C51.9109 77.1829 52.6398 77.3097 53.3746 77.3125C54.2834 77.317 55.1812 77.114 55.9996 76.7188C57.5056 76.0155 58.6734 74.7466 59.2496 73.1875C59.7925 71.6935 59.7365 70.0474 59.0933 68.5938L52.9058 49L57.3121 52.4375C58.4952 53.5568 60.0684 54.17 61.6968 54.1466C63.3253 54.1233 64.8803 53.4652 66.0308 52.3125C66.6105 51.7353 67.0694 51.0484 67.3806 50.2919C67.6918 49.5353 67.8491 48.7243 67.8433 47.9063C67.857 46.3051 67.2525 44.7604 66.1558 43.5938Z" fill="url(#paint1_linear_2595_9557)"/>
    <path d="M39.9687 117C46.1819 117 51.2187 111.963 51.2187 105.75C51.2187 99.5368 46.1819 94.5 39.9687 94.5C33.7555 94.5 28.7188 99.5368 28.7188 105.75C28.7188 111.963 33.7555 117 39.9687 117Z" fill="url(#paint2_linear_2595_9557)"/>
    <path d="M66.1558 135.594L53.8433 119.781L53.6558 119.563C52.8453 118.747 51.881 118.101 50.8189 117.661C49.7568 117.221 48.6179 116.997 47.4683 117H32.4683C31.3187 116.997 30.1798 117.221 29.1177 117.661C28.0556 118.101 27.0913 118.747 26.2808 119.563L26.0621 119.781L13.7808 135.594C12.6081 136.767 11.9492 138.357 11.9492 140.016C11.9492 141.674 12.6081 143.265 13.7808 144.438C14.9536 145.61 16.5442 146.269 18.2027 146.269C19.8612 146.269 21.4518 145.61 22.6246 144.438L27.0308 141L20.8121 160.594C20.1947 162.055 20.1501 163.695 20.6871 165.188C20.9679 165.962 21.3998 166.673 21.9577 167.279C22.5156 167.886 23.1884 168.375 23.9371 168.719C24.6743 169.07 25.4742 169.27 26.29 169.308C27.1057 169.345 27.9207 169.22 28.6871 168.938C30.1893 168.393 31.4289 167.298 32.1558 165.875L39.9683 153.563L47.7808 165.875C48.5052 167.288 49.731 168.381 51.2183 168.938C51.9109 169.183 52.6398 169.31 53.3746 169.313C54.2834 169.317 55.1812 169.114 55.9996 168.719C57.5056 168.015 58.6734 166.747 59.2496 165.188C59.7925 163.694 59.7365 162.047 59.0933 160.594L52.9058 141L57.3121 144.438C58.4952 145.557 60.0684 146.17 61.6968 146.147C63.3253 146.123 64.8803 145.465 66.0308 144.313C66.6105 143.735 67.0694 143.048 67.3806 142.292C67.6918 141.535 67.8491 140.724 67.8433 139.906C67.857 138.305 67.2525 136.76 66.1558 135.594Z" fill="url(#paint3_linear_2595_9557)"/>
    <path d="M131.969 25C138.182 25 143.219 19.9632 143.219 13.75C143.219 7.5368 138.182 2.5 131.969 2.5C125.756 2.5 120.719 7.5368 120.719 13.75C120.719 19.9632 125.756 25 131.969 25Z" fill="url(#paint4_linear_2595_9557)"/>
    <path d="M158.156 43.5938L145.843 27.7813L145.656 27.5625C144.845 26.7473 143.881 26.101 142.819 25.6611C141.757 25.2212 140.618 24.9965 139.468 25H124.468C123.319 24.9965 122.18 25.2212 121.118 25.6611C120.056 26.101 119.091 26.7473 118.281 27.5625L118.062 27.7813L105.781 43.5938C104.608 44.7665 103.949 46.3571 103.949 48.0157C103.949 49.6742 104.608 51.2648 105.781 52.4375C106.954 53.6103 108.544 54.2691 110.203 54.2691C111.861 54.2691 113.452 53.6103 114.625 52.4375L119.031 49L112.812 68.5938C112.195 70.0549 112.15 71.695 112.687 73.1875C112.968 73.9621 113.4 74.6731 113.958 75.2793C114.516 75.8855 115.188 76.3748 115.937 76.7188C116.674 77.07 117.474 77.2703 118.29 77.3079C119.106 77.3455 119.921 77.2196 120.687 76.9375C122.189 76.3926 123.429 75.2981 124.156 73.875L131.968 61.5625L139.781 73.875C140.505 75.2884 141.731 76.3805 143.218 76.9375C143.911 77.1829 144.64 77.3097 145.375 77.3125C146.283 77.317 147.181 77.114 148 76.7188C149.506 76.0155 150.673 74.7466 151.25 73.1875C151.793 71.6935 151.737 70.0474 151.093 68.5938L144.906 49L149.312 52.4375C150.495 53.5568 152.068 54.17 153.697 54.1466C155.325 54.1233 156.88 53.4652 158.031 52.3125C158.611 51.7353 159.069 51.0484 159.381 50.2919C159.692 49.5353 159.849 48.7243 159.843 47.9063C159.857 46.3051 159.253 44.7604 158.156 43.5938Z" fill="url(#paint5_linear_2595_9557)"/>
    <path d="M131.969 117C138.182 117 143.219 111.963 143.219 105.75C143.219 99.5368 138.182 94.5 131.969 94.5C125.756 94.5 120.719 99.5368 120.719 105.75C120.719 111.963 125.756 117 131.969 117Z" fill="url(#paint6_linear_2595_9557)"/>
    <path d="M158.156 135.594L145.843 119.781L145.656 119.563C144.845 118.747 143.881 118.101 142.819 117.661C141.757 117.221 140.618 116.997 139.468 117H124.468C123.319 116.997 122.18 117.221 121.118 117.661C120.056 118.101 119.091 118.747 118.281 119.563L118.062 119.781L105.781 135.594C104.608 136.767 103.949 138.357 103.949 140.016C103.949 141.674 104.608 143.265 105.781 144.438C106.954 145.61 108.544 146.269 110.203 146.269C111.861 146.269 113.452 145.61 114.625 144.438L119.031 141L112.812 160.594C112.195 162.055 112.15 163.695 112.687 165.188C112.968 165.962 113.4 166.673 113.958 167.279C114.516 167.886 115.188 168.375 115.937 168.719C116.674 169.07 117.474 169.27 118.29 169.308C119.106 169.345 119.921 169.22 120.687 168.938C122.189 168.393 123.429 167.298 124.156 165.875L131.968 153.563L139.781 165.875C140.505 167.288 141.731 168.381 143.218 168.938C143.911 169.183 144.64 169.31 145.375 169.313C146.283 169.317 147.181 169.114 148 168.719C149.506 168.015 150.673 166.747 151.25 165.188C151.793 163.694 151.737 162.047 151.093 160.594L144.906 141L149.312 144.438C150.495 145.557 152.068 146.17 153.697 146.147C155.325 146.123 156.88 145.465 158.031 144.313C158.611 143.735 159.069 143.048 159.381 142.292C159.692 141.535 159.849 140.724 159.843 139.906C159.857 138.305 159.253 136.76 158.156 135.594Z" fill="url(#paint7_linear_2595_9557)"/>
    <path d="M223.969 25C230.182 25 235.219 19.9632 235.219 13.75C235.219 7.5368 230.182 2.5 223.969 2.5C217.756 2.5 212.719 7.5368 212.719 13.75C212.719 19.9632 217.756 25 223.969 25Z" fill="url(#paint8_linear_2595_9557)"/>
    <path d="M250.156 43.5938L237.843 27.7813L237.656 27.5625C236.845 26.7473 235.881 26.101 234.819 25.6611C233.757 25.2212 232.618 24.9965 231.468 25H216.468C215.319 24.9965 214.18 25.2212 213.118 25.6611C212.056 26.101 211.091 26.7473 210.281 27.5625L210.062 27.7813L197.781 43.5938C196.608 44.7665 195.949 46.3571 195.949 48.0157C195.949 49.6742 196.608 51.2648 197.781 52.4375C198.954 53.6103 200.544 54.2691 202.203 54.2691C203.861 54.2691 205.452 53.6103 206.625 52.4375L211.031 49L204.812 68.5938C204.195 70.0549 204.15 71.695 204.687 73.1875C204.968 73.9621 205.4 74.6731 205.958 75.2793C206.516 75.8855 207.188 76.3748 207.937 76.7188C208.674 77.07 209.474 77.2703 210.29 77.3079C211.106 77.3455 211.921 77.2196 212.687 76.9375C214.189 76.3926 215.429 75.2981 216.156 73.875L223.968 61.5625L231.781 73.875C232.505 75.2884 233.731 76.3805 235.218 76.9375C235.911 77.1829 236.64 77.3097 237.375 77.3125C238.283 77.317 239.181 77.114 240 76.7188C241.506 76.0155 242.673 74.7466 243.25 73.1875C243.793 71.6935 243.737 70.0474 243.093 68.5938L236.906 49L241.312 52.4375C242.495 53.5568 244.068 54.17 245.697 54.1466C247.325 54.1233 248.88 53.4652 250.031 52.3125C250.611 51.7353 251.069 51.0484 251.381 50.2919C251.692 49.5353 251.849 48.7243 251.843 47.9063C251.857 46.3051 251.253 44.7604 250.156 43.5938Z" fill="url(#paint9_linear_2595_9557)"/>
    <path d="M223.969 117C230.182 117 235.219 111.963 235.219 105.75C235.219 99.5368 230.182 94.5 223.969 94.5C217.756 94.5 212.719 99.5368 212.719 105.75C212.719 111.963 217.756 117 223.969 117Z" fill="#DDE3F0"/>
    <path d="M250.156 135.594L237.843 119.781L237.656 119.563C236.845 118.747 235.881 118.101 234.819 117.661C233.757 117.221 232.618 116.997 231.468 117H216.468C215.319 116.997 214.18 117.221 213.118 117.661C212.056 118.101 211.091 118.747 210.281 119.563L210.062 119.781L197.781 135.594C196.608 136.767 195.949 138.357 195.949 140.016C195.949 141.674 196.608 143.265 197.781 144.438C198.954 145.61 200.544 146.269 202.203 146.269C203.861 146.269 205.452 145.61 206.625 144.438L211.031 141L204.812 160.594C204.195 162.055 204.15 163.695 204.687 165.188C204.968 165.962 205.4 166.673 205.958 167.279C206.516 167.886 207.188 168.375 207.937 168.719C208.674 169.07 209.474 169.27 210.29 169.308C211.106 169.345 211.921 169.22 212.687 168.938C214.189 168.393 215.429 167.298 216.156 165.875L223.968 153.563L231.781 165.875C232.505 167.288 233.731 168.381 235.218 168.938C235.911 169.183 236.64 169.31 237.375 169.313C238.283 169.317 239.181 169.114 240 168.719C241.506 168.015 242.673 166.747 243.25 165.188C243.793 163.694 243.737 162.047 243.093 160.594L236.906 141L241.312 144.438C242.495 145.557 244.068 146.17 245.697 146.147C247.325 146.123 248.88 145.465 250.031 144.313C250.611 143.735 251.069 143.048 251.381 142.292C251.692 141.535 251.849 140.724 251.843 139.906C251.857 138.305 251.253 136.76 250.156 135.594Z" fill="#DDE3F0"/>
    <path d="M315.969 25C322.182 25 327.219 19.9632 327.219 13.75C327.219 7.5368 322.182 2.5 315.969 2.5C309.756 2.5 304.719 7.5368 304.719 13.75C304.719 19.9632 309.756 25 315.969 25Z" fill="url(#paint10_linear_2595_9557)"/>
    <path d="M342.156 43.5938L329.843 27.7813L329.656 27.5625C328.845 26.7473 327.881 26.101 326.819 25.6611C325.757 25.2212 324.618 24.9965 323.468 25H308.468C307.319 24.9965 306.18 25.2212 305.118 25.6611C304.056 26.101 303.091 26.7473 302.281 27.5625L302.062 27.7813L289.781 43.5938C288.608 44.7665 287.949 46.3571 287.949 48.0157C287.949 49.6742 288.608 51.2648 289.781 52.4375C290.954 53.6103 292.544 54.2691 294.203 54.2691C295.861 54.2691 297.452 53.6103 298.625 52.4375L303.031 49L296.812 68.5938C296.195 70.0549 296.15 71.695 296.687 73.1875C296.968 73.9621 297.4 74.6731 297.958 75.2793C298.516 75.8855 299.188 76.3748 299.937 76.7188C300.674 77.07 301.474 77.2703 302.29 77.3079C303.106 77.3455 303.921 77.2196 304.687 76.9375C306.189 76.3926 307.429 75.2981 308.156 73.875L315.968 61.5625L323.781 73.875C324.505 75.2884 325.731 76.3805 327.218 76.9375C327.911 77.1829 328.64 77.3097 329.375 77.3125C330.283 77.317 331.181 77.114 332 76.7188C333.506 76.0155 334.673 74.7466 335.25 73.1875C335.793 71.6935 335.737 70.0474 335.093 68.5938L328.906 49L333.312 52.4375C334.495 53.5568 336.068 54.17 337.697 54.1466C339.325 54.1233 340.88 53.4652 342.031 52.3125C342.611 51.7353 343.069 51.0484 343.381 50.2919C343.692 49.5353 343.849 48.7243 343.843 47.9063C343.857 46.3051 343.253 44.7604 342.156 43.5938Z" fill="url(#paint11_linear_2595_9557)"/>
    <path d="M315.969 117C322.182 117 327.219 111.963 327.219 105.75C327.219 99.5368 322.182 94.5 315.969 94.5C309.756 94.5 304.719 99.5368 304.719 105.75C304.719 111.963 309.756 117 315.969 117Z" fill="#DDE3F0"/>
    <path d="M342.156 135.594L329.843 119.781L329.656 119.563C328.845 118.747 327.881 118.101 326.819 117.661C325.757 117.221 324.618 116.997 323.468 117H308.468C307.319 116.997 306.18 117.221 305.118 117.661C304.056 118.101 303.091 118.747 302.281 119.563L302.062 119.781L289.781 135.594C288.608 136.767 287.949 138.357 287.949 140.016C287.949 141.674 288.608 143.265 289.781 144.438C290.954 145.61 292.544 146.269 294.203 146.269C295.861 146.269 297.452 145.61 298.625 144.438L303.031 141L296.812 160.594C296.195 162.055 296.15 163.695 296.687 165.188C296.968 165.962 297.4 166.673 297.958 167.279C298.516 167.886 299.188 168.375 299.937 168.719C300.674 169.07 301.474 169.27 302.29 169.308C303.106 169.345 303.921 169.22 304.687 168.938C306.189 168.393 307.429 167.298 308.156 165.875L315.968 153.563L323.781 165.875C324.505 167.288 325.731 168.381 327.218 168.938C327.911 169.183 328.64 169.31 329.375 169.313C330.283 169.317 331.181 169.114 332 168.719C333.506 168.015 334.673 166.747 335.25 165.188C335.793 163.694 335.737 162.047 335.093 160.594L328.906 141L333.312 144.438C334.495 145.557 336.068 146.17 337.697 146.147C339.325 146.123 340.88 145.465 342.031 144.313C342.611 143.735 343.069 143.048 343.381 142.292C343.692 141.535 343.849 140.724 343.843 139.906C343.857 138.305 343.253 136.76 342.156 135.594Z" fill="#DDE3F0"/>
    <path d="M407.969 25C414.182 25 419.219 19.9632 419.219 13.75C419.219 7.5368 414.182 2.5 407.969 2.5C401.756 2.5 396.719 7.5368 396.719 13.75C396.719 19.9632 401.756 25 407.969 25Z" fill="url(#paint12_linear_2595_9557)"/>
    <path d="M434.156 43.5938L421.843 27.7813L421.656 27.5625C420.845 26.7473 419.881 26.101 418.819 25.6611C417.757 25.2212 416.618 24.9965 415.468 25H400.468C399.319 24.9965 398.18 25.2212 397.118 25.6611C396.056 26.101 395.091 26.7473 394.281 27.5625L394.062 27.7813L381.781 43.5938C380.608 44.7665 379.949 46.3571 379.949 48.0157C379.949 49.6742 380.608 51.2648 381.781 52.4375C382.954 53.6103 384.544 54.2691 386.203 54.2691C387.861 54.2691 389.452 53.6103 390.625 52.4375L395.031 49L388.812 68.5938C388.195 70.0549 388.15 71.695 388.687 73.1875C388.968 73.9621 389.4 74.6731 389.958 75.2793C390.516 75.8855 391.188 76.3748 391.937 76.7188C392.674 77.07 393.474 77.2703 394.29 77.3079C395.106 77.3455 395.921 77.2196 396.687 76.9375C398.189 76.3926 399.429 75.2981 400.156 73.875L407.968 61.5625L415.781 73.875C416.505 75.2884 417.731 76.3805 419.218 76.9375C419.911 77.1829 420.64 77.3097 421.375 77.3125C422.283 77.317 423.181 77.114 424 76.7188C425.506 76.0155 426.673 74.7466 427.25 73.1875C427.793 71.6935 427.737 70.0474 427.093 68.5938L420.906 49L425.312 52.4375C426.495 53.5568 428.068 54.17 429.697 54.1466C431.325 54.1233 432.88 53.4652 434.031 52.3125C434.611 51.7353 435.069 51.0484 435.381 50.2919C435.692 49.5353 435.849 48.7243 435.843 47.9063C435.857 46.3051 435.253 44.7604 434.156 43.5938Z" fill="url(#paint13_linear_2595_9557)"/>
    <path d="M407.969 117C414.182 117 419.219 111.963 419.219 105.75C419.219 99.5368 414.182 94.5 407.969 94.5C401.756 94.5 396.719 99.5368 396.719 105.75C396.719 111.963 401.756 117 407.969 117Z" fill="#DDE3F0"/>
    <path d="M434.156 135.594L421.843 119.781L421.656 119.563C420.845 118.747 419.881 118.101 418.819 117.661C417.757 117.221 416.618 116.997 415.468 117H400.468C399.319 116.997 398.18 117.221 397.118 117.661C396.056 118.101 395.091 118.747 394.281 119.563L394.062 119.781L381.781 135.594C380.608 136.767 379.949 138.357 379.949 140.016C379.949 141.674 380.608 143.265 381.781 144.438C382.954 145.61 384.544 146.269 386.203 146.269C387.861 146.269 389.452 145.61 390.625 144.438L395.031 141L388.812 160.594C388.195 162.055 388.15 163.695 388.687 165.188C388.968 165.962 389.4 166.673 389.958 167.279C390.516 167.886 391.188 168.375 391.937 168.719C392.674 169.07 393.474 169.27 394.29 169.308C395.106 169.345 395.921 169.22 396.687 168.938C398.189 168.393 399.429 167.298 400.156 165.875L407.968 153.563L415.781 165.875C416.505 167.288 417.731 168.381 419.218 168.938C419.911 169.183 420.64 169.31 421.375 169.313C422.283 169.317 423.181 169.114 424 168.719C425.506 168.015 426.673 166.747 427.25 165.188C427.793 163.694 427.737 162.047 427.093 160.594L420.906 141L425.312 144.438C426.495 145.557 428.068 146.17 429.697 146.147C431.325 146.123 432.88 145.465 434.031 144.313C434.611 143.735 435.069 143.048 435.381 142.292C435.692 141.535 435.849 140.724 435.843 139.906C435.857 138.305 435.253 136.76 434.156 135.594Z" fill="#DDE3F0"/>
    <defs>
    <linearGradient id="paint0_linear_2595_9557" x1="23.1644" y1="13.7497" x2="56.4436" y2="13.7497" gradientUnits="userSpaceOnUse">
    <stop stop-color="#4D7EF2"/>
    <stop offset="1" stop-color="#5FD4F4"/>
    </linearGradient>
    <linearGradient id="paint1_linear_2595_9557" x1="-1.84896" y1="51.1566" x2="80.8232" y2="51.1566" gradientUnits="userSpaceOnUse">
    <stop stop-color="#4D7EF2"/>
    <stop offset="1" stop-color="#5FD4F4"/>
    </linearGradient>
    <linearGradient id="paint2_linear_2595_9557" x1="23.1644" y1="105.75" x2="56.4436" y2="105.75" gradientUnits="userSpaceOnUse">
    <stop stop-color="#4D7EF2"/>
    <stop offset="1" stop-color="#5FD4F4"/>
    </linearGradient>
    <linearGradient id="paint3_linear_2595_9557" x1="-1.84896" y1="143.157" x2="80.8232" y2="143.157" gradientUnits="userSpaceOnUse">
    <stop stop-color="#4D7EF2"/>
    <stop offset="1" stop-color="#5FD4F4"/>
    </linearGradient>
    <linearGradient id="paint4_linear_2595_9557" x1="115.164" y1="13.7497" x2="148.444" y2="13.7497" gradientUnits="userSpaceOnUse">
    <stop stop-color="#4D7EF2"/>
    <stop offset="1" stop-color="#5FD4F4"/>
    </linearGradient>
    <linearGradient id="paint5_linear_2595_9557" x1="90.151" y1="51.1566" x2="172.823" y2="51.1566" gradientUnits="userSpaceOnUse">
    <stop stop-color="#4D7EF2"/>
    <stop offset="1" stop-color="#5FD4F4"/>
    </linearGradient>
    <linearGradient id="paint6_linear_2595_9557" x1="115.164" y1="105.75" x2="148.444" y2="105.75" gradientUnits="userSpaceOnUse">
    <stop stop-color="#4D7EF2"/>
    <stop offset="1" stop-color="#5FD4F4"/>
    </linearGradient>
    <linearGradient id="paint7_linear_2595_9557" x1="90.151" y1="143.157" x2="172.823" y2="143.157" gradientUnits="userSpaceOnUse">
    <stop stop-color="#4D7EF2"/>
    <stop offset="1" stop-color="#5FD4F4"/>
    </linearGradient>
    <linearGradient id="paint8_linear_2595_9557" x1="207.164" y1="13.7497" x2="240.444" y2="13.7497" gradientUnits="userSpaceOnUse">
    <stop stop-color="#4D7EF2"/>
    <stop offset="1" stop-color="#5FD4F4"/>
    </linearGradient>
    <linearGradient id="paint9_linear_2595_9557" x1="182.151" y1="51.1566" x2="264.823" y2="51.1566" gradientUnits="userSpaceOnUse">
    <stop stop-color="#4D7EF2"/>
    <stop offset="1" stop-color="#5FD4F4"/>
    </linearGradient>
    <linearGradient id="paint10_linear_2595_9557" x1="299.164" y1="13.7497" x2="332.444" y2="13.7497" gradientUnits="userSpaceOnUse">
    <stop stop-color="#4D7EF2"/>
    <stop offset="1" stop-color="#5FD4F4"/>
    </linearGradient>
    <linearGradient id="paint11_linear_2595_9557" x1="274.151" y1="51.1566" x2="356.823" y2="51.1566" gradientUnits="userSpaceOnUse">
    <stop stop-color="#4D7EF2"/>
    <stop offset="1" stop-color="#5FD4F4"/>
    </linearGradient>
    <linearGradient id="paint12_linear_2595_9557" x1="391.164" y1="13.7497" x2="424.444" y2="13.7497" gradientUnits="userSpaceOnUse">
    <stop stop-color="#4D7EF2"/>
    <stop offset="1" stop-color="#5FD4F4"/>
    </linearGradient>
    <linearGradient id="paint13_linear_2595_9557" x1="366.151" y1="51.1566" x2="448.823" y2="51.1566" gradientUnits="userSpaceOnUse">
    <stop stop-color="#4D7EF2"/>
    <stop offset="1" stop-color="#5FD4F4"/>
    </linearGradient>
    </defs>
</svg>
