<svg width="26" height="28" viewBox="0 0 26 28" fill="none" xmlns="http://www.w3.org/2000/svg">
<path d="M8.07861 14.832C7.11861 15.456 6.41661 16.164 5.97261 16.956C5.54061 17.736 5.32461 18.576 5.32461 19.476C5.32461 20.136 5.43861 20.73 5.66661 21.258C5.89461 21.786 6.20061 22.236 6.58461 22.608C6.98061 22.968 7.43661 23.25 7.95261 23.454C8.48061 23.646 9.03861 23.742 9.62661 23.742C10.6826 23.742 11.6486 23.58 12.5246 23.256C13.4006 22.92 14.1926 22.458 14.9006 21.87L8.07861 14.832ZM25.4126 27H21.0566C20.6006 27 20.2286 26.946 19.9406 26.838C19.6646 26.73 19.3706 26.502 19.0586 26.154L17.2586 24.3C16.1186 25.236 14.8406 25.968 13.4246 26.496C12.0086 27.024 10.4786 27.288 8.83461 27.288C7.83861 27.288 6.85461 27.12 5.88261 26.784C4.92261 26.436 4.06461 25.938 3.30861 25.29C2.55261 24.642 1.94061 23.862 1.47261 22.95C1.01661 22.026 0.788609 20.988 0.788609 19.836C0.788609 19.02 0.920609 18.252 1.18461 17.532C1.44861 16.8 1.81461 16.122 2.28261 15.498C2.75061 14.874 3.30861 14.316 3.95661 13.824C4.60461 13.32 5.31261 12.888 6.08061 12.528C5.43261 11.628 4.96461 10.752 4.67661 9.9C4.38861 9.036 4.24461 8.178 4.24461 7.326C4.24461 6.426 4.40661 5.574 4.73061 4.77C5.06661 3.954 5.54661 3.246 6.17061 2.646C6.79461 2.046 7.56261 1.572 8.47461 1.224C9.38661 0.864 10.4186 0.684 11.5706 0.684C12.6266 0.684 13.5686 0.845999 14.3966 1.17C15.2366 1.494 15.9506 1.926 16.5386 2.466C17.1386 3.006 17.6066 3.624 17.9426 4.32C18.2906 5.016 18.4946 5.736 18.5546 6.48L15.7286 7.074C15.2006 7.182 14.8166 6.954 14.5766 6.39C14.4686 6.078 14.3246 5.784 14.1446 5.508C13.9766 5.22 13.7726 4.974 13.5326 4.77C13.2926 4.554 13.0106 4.386 12.6866 4.266C12.3626 4.134 11.9906 4.068 11.5706 4.068C11.0666 4.068 10.6166 4.158 10.2206 4.338C9.82461 4.506 9.48861 4.74 9.21261 5.04C8.94861 5.328 8.74461 5.67 8.60061 6.066C8.45661 6.45 8.38461 6.858 8.38461 7.29C8.38461 7.65 8.42061 7.998 8.49261 8.334C8.56461 8.67 8.68461 9.006 8.85261 9.342C9.02061 9.678 9.23661 10.026 9.50061 10.386C9.77661 10.734 10.1126 11.112 10.5086 11.52L17.4206 18.702C17.8166 17.946 18.1346 17.148 18.3746 16.308C18.6146 15.468 18.7706 14.616 18.8426 13.752C18.8786 13.476 18.9746 13.254 19.1306 13.086C19.2866 12.918 19.5026 12.834 19.7786 12.834H22.5506C22.5386 14.418 22.3106 15.93 21.8666 17.37C21.4226 18.81 20.7866 20.136 19.9586 21.348L25.4126 27Z" fill="url(#paint0_linear_1758_8520)"/>
<defs>
<linearGradient id="paint0_linear_1758_8520" x1="-7.66527" y1="12.9995" x2="32.2699" y2="12.9995" gradientUnits="userSpaceOnUse">
<stop stop-color="#4D7EF2"/>
<stop offset="1" stop-color="#5FD4F4"/>
</linearGradient>
</defs>
</svg>
