<svg width="100" height="73" viewBox="0 0 100 73" fill="none" xmlns="http://www.w3.org/2000/svg">
<circle cx="22" cy="51.998" r="11" fill="#A2ACBE"/>
<path d="M18.068 38.4249C11.0561 40.3038 6.89153 47.517 8.77037 54.529C10.6492 61.5409 17.8625 65.7055 24.8744 63.8266C31.8863 61.9478 36.0509 54.7345 34.172 47.7226C32.2932 40.7107 25.0799 36.5461 18.068 38.4249ZM23.0595 58.641C22.7978 58.7111 22.5212 58.702 22.2647 58.6149C22.0082 58.5279 21.7833 58.3667 21.6184 58.1518C21.4534 57.9368 21.356 57.6779 21.3383 57.4075C21.3205 57.1372 21.3834 56.8677 21.5188 56.6331C21.6543 56.3985 21.8562 56.2093 22.0992 56.0895C22.3422 55.9697 22.6152 55.9246 22.8838 55.96C23.1524 55.9954 23.4044 56.1096 23.6081 56.2882C23.8118 56.4668 23.9579 56.7018 24.028 56.9635C24.122 57.3143 24.0728 57.6882 23.8912 58.0028C23.7095 58.3174 23.4104 58.5469 23.0595 58.641ZM23.4636 51.3009C22.5842 52.308 22.6134 53.007 22.7756 53.6123C22.8414 53.8579 22.8069 54.1196 22.6798 54.3398C22.5526 54.56 22.3432 54.7207 22.0976 54.7865C21.852 54.8523 21.5903 54.8179 21.3701 54.6907C21.1499 54.5636 20.9892 54.3542 20.9233 54.1086C20.535 52.6592 20.893 51.3282 22.0181 50.0391C23.0641 48.8414 23.6398 48.1058 23.3202 46.9131C23.1029 46.1021 22.4748 45.6103 21.3942 45.4114C21.1399 45.3646 20.6098 45.3947 19.9939 45.5675C19.2213 45.7851 18.669 46.1317 18.3052 46.629C17.6193 47.5672 17.7505 48.353 17.7535 48.3643C17.7802 48.4875 17.7824 48.6147 17.7599 48.7387C17.7375 48.8628 17.6908 48.9812 17.6226 49.0872C17.5544 49.1932 17.466 49.2847 17.3624 49.3566C17.2588 49.4284 17.1421 49.4791 17.0189 49.5058C16.8957 49.5326 16.7685 49.5348 16.6444 49.5123C16.5204 49.4898 16.402 49.4432 16.296 49.375C16.19 49.3068 16.0985 49.2183 16.0266 49.1148C15.9548 49.0112 15.9041 48.8945 15.8773 48.7713C15.8415 48.6086 15.5653 47.1306 16.7573 45.501C17.3753 44.6562 18.2892 44.0582 19.472 43.7257C20.3095 43.4906 21.1368 43.4214 21.7396 43.5307C23.5441 43.859 24.7623 44.8861 25.1724 46.4168C25.772 48.6546 24.5456 50.0602 23.4636 51.3009Z" fill="white"/>
<circle cx="46.9996" cy="33.9996" r="23.4" fill="white"/>
<path d="M47.0008 7.67578C32.4672 7.67578 20.6758 19.4672 20.6758 34.0008C20.6758 48.5344 32.4672 60.3258 47.0008 60.3258C61.5344 60.3258 73.3258 48.5344 73.3258 34.0008C73.3258 19.4672 61.5344 7.67578 47.0008 7.67578ZM46.1781 49.357C45.6358 49.357 45.1056 49.1962 44.6546 48.8949C44.2037 48.5936 43.8522 48.1653 43.6447 47.6642C43.4371 47.1632 43.3828 46.6118 43.4886 46.0799C43.5944 45.5479 43.8556 45.0593 44.2391 44.6758C44.6226 44.2923 45.1112 44.0312 45.6432 43.9254C46.1751 43.8195 46.7264 43.8738 47.2275 44.0814C47.7286 44.2889 48.1569 44.6404 48.4582 45.0914C48.7595 45.5423 48.9203 46.0725 48.9203 46.6148C48.9203 47.3421 48.6314 48.0396 48.1171 48.5539C47.6029 49.0681 46.9054 49.357 46.1781 49.357ZM50.7631 35.3719C48.5405 36.8636 48.2348 38.2306 48.2348 39.4852C48.2348 39.9943 48.0325 40.4825 47.6726 40.8425C47.3126 41.2025 46.8243 41.4047 46.3152 41.4047C45.8061 41.4047 45.3179 41.2025 44.9579 40.8425C44.5979 40.4825 44.3957 39.9943 44.3957 39.4852C44.3957 36.4811 45.7778 34.0926 48.6214 32.1827C51.2649 30.4085 52.7594 29.2842 52.7594 26.8121C52.7594 25.1312 51.7996 23.8547 49.8129 22.91C49.3454 22.6879 48.3047 22.4713 47.0241 22.4863C45.4172 22.5069 44.1695 22.8908 43.2083 23.6641C41.3958 25.1229 41.2422 26.7107 41.2422 26.734C41.23 26.9861 41.1684 27.2333 41.0607 27.4615C40.953 27.6898 40.8014 27.8945 40.6145 28.0642C40.4277 28.2338 40.2093 28.365 39.9717 28.4503C39.7342 28.5355 39.4822 28.5731 39.2301 28.561C38.978 28.5488 38.7308 28.4871 38.5026 28.3794C38.2743 28.2717 38.0696 28.1201 37.8999 27.9333C37.7303 27.7465 37.5991 27.528 37.5138 27.2905C37.4286 27.053 37.391 26.801 37.4031 26.5489C37.4182 26.2157 37.6499 23.2144 40.7993 20.6806C42.4323 19.3671 44.5095 18.6843 46.9692 18.6541C48.7105 18.6336 50.3463 18.9283 51.4555 19.4521C54.7749 21.022 56.5984 23.6394 56.5984 26.8121C56.5984 31.4506 53.4984 33.5332 50.7631 35.3719Z" fill="url(#paint0_linear_1758_8508)"/>
<g clip-path="url(#clip0_1758_8508)">
<circle cx="77" cy="22" r="11" fill="#A2ACBE"/>
<path d="M83.3295 11.8689C77.5998 8.56084 70.2673 10.5256 66.9592 16.2553C63.6512 21.985 65.6159 29.3175 71.3456 32.6255C77.0753 35.9336 84.4079 33.9688 87.7159 28.2391C91.0239 22.5094 89.0592 15.1769 83.3295 11.8689ZM73.518 28.114C73.3041 27.9905 73.1317 27.8065 73.0225 27.585C72.9133 27.3636 72.8722 27.1148 72.9045 26.87C72.9367 26.6252 73.0408 26.3955 73.2036 26.2098C73.3664 26.0242 73.5805 25.891 73.819 25.8271C74.0575 25.7632 74.3096 25.7715 74.5434 25.8508C74.7772 25.9302 74.9822 26.0771 75.1325 26.273C75.2828 26.4689 75.3716 26.7049 75.3878 26.9513C75.4039 27.1976 75.3466 27.4433 75.2232 27.6571C75.0577 27.9438 74.785 28.153 74.4652 28.2387C74.1454 28.3244 73.8047 28.2795 73.518 28.114ZM78.5087 23.6441C77.293 23.7263 76.8613 24.1956 76.5757 24.6902C76.4599 24.8909 76.269 25.0374 76.0451 25.0974C75.8213 25.1574 75.5828 25.126 75.3821 25.0101C75.1814 24.8942 75.0349 24.7033 74.9749 24.4795C74.915 24.2556 74.9464 24.0171 75.0622 23.8164C75.746 22.6321 76.8345 22.0051 78.3903 21.8993C79.8363 21.8016 80.6814 21.6985 81.2441 20.7239C81.6267 20.0612 81.5388 19.3395 80.9706 18.5149C80.8369 18.3209 80.4759 17.9986 79.9676 17.7131C79.3294 17.3554 78.7501 17.2228 78.1952 17.3089C77.1486 17.4714 76.7266 18.0624 76.7213 18.0716C76.6592 18.1682 76.5786 18.2517 76.4842 18.3171C76.3898 18.3826 76.2834 18.4288 76.1711 18.4532C76.0588 18.4775 75.9429 18.4795 75.8298 18.4591C75.7168 18.4386 75.6089 18.3961 75.5122 18.3339C75.4156 18.2717 75.3322 18.1912 75.2667 18.0968C75.2013 18.0023 75.155 17.896 75.1307 17.7837C75.1063 17.6714 75.1043 17.5554 75.1248 17.4424C75.1453 17.3294 75.1878 17.2214 75.25 17.1248C75.3317 16.9969 76.1062 15.8664 77.9246 15.5843C78.8673 15.4382 79.8417 15.6418 80.8182 16.1898C81.5094 16.578 82.0872 17.0666 82.4053 17.5255C83.3566 18.9 83.4797 20.3469 82.7576 21.5977C81.7018 23.4264 80.0056 23.5418 78.5087 23.6441Z" fill="white"/>
</g>
<defs>
<linearGradient id="paint0_linear_1758_8508" x1="7.6785" y1="34.0002" x2="85.552" y2="34.0002" gradientUnits="userSpaceOnUse">
<stop stop-color="#4D7EF2"/>
<stop offset="1" stop-color="#5FD4F4"/>
</linearGradient>
<clipPath id="clip0_1758_8508">
<rect width="31.957" height="31.957" fill="white" transform="translate(71.4883 0.419922) rotate(30)"/>
</clipPath>
</defs>
</svg>
