<svg width="364" height="160" viewBox="0 0 364 160" fill="none" xmlns="http://www.w3.org/2000/svg">
    <rect x="212" width="152" height="160" rx="20" fill="#EEF1F8"/>
    <path d="M257.25 24.3267C257.25 19.9084 260.832 16.3267 265.25 16.3267H310.75C315.168 16.3267 318.75 19.9084 318.75 24.3267V33.4709C318.75 43.5138 313.725 52.8905 305.362 58.4516L299.889 62.0912C295.033 65.3204 295.153 72.4929 300.114 75.5583L304.52 78.281C313.366 83.7469 318.75 93.4036 318.75 103.802V113.673C318.75 118.091 315.168 121.673 310.75 121.673H265.25C260.832 121.673 257.25 118.091 257.25 113.673V104.024C257.25 93.5054 262.759 83.7552 271.768 78.3271L276.289 75.6034C281.352 72.553 281.473 65.2542 276.513 62.0384L270.929 58.4179C262.399 52.887 257.25 43.4123 257.25 33.2459V24.3267Z" fill="#EEF1F8"/>
    <path d="M315.303 35.1385C283.125 48.3068 282 29.8711 260.625 32.881L261.303 45.6731L274.428 59.5939L284.25 66.3662L294.75 65.6137L310.875 51.6929C315.25 42.4124 316.428 37.7721 315.303 35.1385Z" fill="url(#paint0_linear_513_371)"/>
    <path fill-rule="evenodd" clip-rule="evenodd" d="M296.245 36.5574C288.358 40.5655 280.514 44.5514 261 34.7622C259.875 37.3958 260.375 42.7886 264.75 52.0691L284.625 67.1187L286.407 67.0409L287.955 75.6471C287.981 75.7921 288.107 75.8975 288.254 75.8975C288.398 75.8975 288.522 75.7976 288.552 75.6575L290.45 66.8646L293.25 66.7424L300.75 59.2177L316.125 45.6731L315 32.5048C306.559 31.3161 301.393 33.9415 296.245 36.5574Z" fill="url(#paint1_linear_513_371)"/>
    <path fill-rule="evenodd" clip-rule="evenodd" d="M312.75 20.8415H263.25C262.422 20.8415 261.75 21.5153 261.75 22.3465V37.1765C261.75 43.3423 264.885 49.0821 270.066 52.3994L281.828 59.9317C288.422 64.1544 288.264 73.8691 281.535 77.8727L270.568 84.3986C265.102 87.6513 261.75 93.5552 261.75 99.9316V115.653C261.75 116.485 262.422 117.158 263.25 117.158H312.75C313.578 117.158 314.25 116.485 314.25 115.653V99.6831C314.25 93.4141 311.01 87.5936 305.689 84.3061L295.134 77.7837C288.605 73.7495 288.448 64.2829 294.839 60.0328L306.195 52.4815C311.225 49.1361 314.25 43.4838 314.25 37.4285V22.3465C314.25 21.5153 313.578 20.8415 312.75 20.8415ZM263.25 16.3267C259.936 16.3267 257.25 19.0218 257.25 22.3465V37.1765C257.25 44.8838 261.169 52.0585 267.645 56.2051L279.407 63.7375C283.175 66.1504 283.085 71.7017 279.24 73.9895L268.273 80.5153C261.439 84.5812 257.25 91.961 257.25 99.9316V115.653C257.25 118.978 259.936 121.673 263.25 121.673H312.75C316.064 121.673 318.75 118.978 318.75 115.653V99.6831C318.75 91.8468 314.7 84.5712 308.049 80.4618L297.494 73.9394C293.763 71.6342 293.673 66.2247 297.325 63.7961L308.681 56.2448C314.969 52.063 318.75 44.9976 318.75 37.4285V22.3465C318.75 19.0218 316.064 16.3267 312.75 16.3267H263.25Z" fill="white"/>
    <path d="M286.561 108.872V111H277.361V108.872H280.73V99.178C280.73 98.7947 280.742 98.3998 280.765 97.9935L278.373 99.9945C278.235 100.102 278.097 100.171 277.959 100.201C277.828 100.224 277.702 100.224 277.579 100.201C277.464 100.178 277.361 100.14 277.269 100.086C277.177 100.025 277.108 99.96 277.062 99.891L276.165 98.6605L281.236 94.348H283.571V108.872H286.561ZM300.765 102.685C300.765 104.134 300.608 105.396 300.294 106.469C299.987 107.535 299.558 108.416 299.006 109.114C298.461 109.812 297.813 110.333 297.062 110.678C296.318 111.015 295.513 111.184 294.647 111.184C293.781 111.184 292.976 111.015 292.232 110.678C291.496 110.333 290.856 109.812 290.312 109.114C289.767 108.416 289.342 107.535 289.035 106.469C288.728 105.396 288.575 104.134 288.575 102.685C288.575 101.229 288.728 99.9677 289.035 98.902C289.342 97.8363 289.767 96.9547 290.312 96.257C290.856 95.5593 291.496 95.0418 292.232 94.7045C292.976 94.3595 293.781 94.187 294.647 94.187C295.513 94.187 296.318 94.3595 297.062 94.7045C297.813 95.0418 298.461 95.5593 299.006 96.257C299.558 96.9547 299.987 97.8363 300.294 98.902C300.608 99.9677 300.765 101.229 300.765 102.685ZM297.833 102.685C297.833 101.482 297.744 100.485 297.568 99.6955C297.392 98.9058 297.154 98.2772 296.855 97.8095C296.564 97.3418 296.226 97.016 295.843 96.832C295.46 96.6403 295.061 96.5445 294.647 96.5445C294.241 96.5445 293.846 96.6403 293.463 96.832C293.087 97.016 292.753 97.3418 292.462 97.8095C292.171 98.2772 291.937 98.9058 291.761 99.6955C291.592 100.485 291.508 101.482 291.508 102.685C291.508 103.889 291.592 104.886 291.761 105.675C291.937 106.465 292.171 107.094 292.462 107.561C292.753 108.029 293.087 108.359 293.463 108.55C293.846 108.734 294.241 108.826 294.647 108.826C295.061 108.826 295.46 108.734 295.843 108.55C296.226 108.359 296.564 108.029 296.855 107.561C297.154 107.094 297.392 106.465 297.568 105.675C297.744 104.886 297.833 103.889 297.833 102.685Z" fill="#000714"/>
    <path d="M265.473 132.232C265.409 132.349 265.31 132.408 265.177 132.408C265.097 132.408 265.006 132.379 264.905 132.32C264.804 132.261 264.678 132.197 264.529 132.128C264.385 132.053 264.212 131.987 264.009 131.928C263.806 131.864 263.566 131.832 263.289 131.832C263.049 131.832 262.833 131.864 262.641 131.928C262.449 131.987 262.284 132.069 262.145 132.176C262.012 132.283 261.908 132.408 261.833 132.552C261.764 132.691 261.729 132.843 261.729 133.008C261.729 133.216 261.788 133.389 261.905 133.528C262.028 133.667 262.188 133.787 262.385 133.888C262.582 133.989 262.806 134.08 263.057 134.16C263.308 134.235 263.564 134.317 263.825 134.408C264.092 134.493 264.35 134.589 264.601 134.696C264.852 134.803 265.076 134.936 265.273 135.096C265.47 135.256 265.628 135.453 265.745 135.688C265.868 135.917 265.929 136.195 265.929 136.52C265.929 136.893 265.862 137.24 265.729 137.56C265.596 137.875 265.398 138.149 265.137 138.384C264.876 138.613 264.556 138.795 264.177 138.928C263.798 139.061 263.361 139.128 262.865 139.128C262.3 139.128 261.788 139.037 261.329 138.856C260.87 138.669 260.481 138.432 260.161 138.144L260.497 137.6C260.54 137.531 260.59 137.477 260.649 137.44C260.708 137.403 260.782 137.384 260.873 137.384C260.969 137.384 261.07 137.421 261.177 137.496C261.284 137.571 261.412 137.653 261.561 137.744C261.716 137.835 261.902 137.917 262.121 137.992C262.34 138.067 262.612 138.104 262.937 138.104C263.214 138.104 263.457 138.069 263.665 138C263.873 137.925 264.046 137.827 264.185 137.704C264.324 137.581 264.425 137.44 264.489 137.28C264.558 137.12 264.593 136.949 264.593 136.768C264.593 136.544 264.532 136.36 264.409 136.216C264.292 136.067 264.134 135.941 263.937 135.84C263.74 135.733 263.513 135.643 263.257 135.568C263.006 135.488 262.748 135.405 262.481 135.32C262.22 135.235 261.961 135.139 261.705 135.032C261.454 134.92 261.23 134.781 261.033 134.616C260.836 134.451 260.676 134.248 260.553 134.008C260.436 133.763 260.377 133.467 260.377 133.12C260.377 132.811 260.441 132.515 260.569 132.232C260.697 131.944 260.884 131.693 261.129 131.48C261.374 131.261 261.676 131.088 262.033 130.96C262.39 130.832 262.798 130.768 263.257 130.768C263.79 130.768 264.268 130.853 264.689 131.024C265.116 131.189 265.484 131.419 265.793 131.712L265.473 132.232ZM273.099 134.064C273.099 133.733 273.051 133.432 272.955 133.16C272.864 132.883 272.728 132.645 272.547 132.448C272.371 132.245 272.155 132.091 271.899 131.984C271.643 131.872 271.352 131.816 271.027 131.816C270.344 131.816 269.803 132.016 269.403 132.416C269.008 132.811 268.763 133.36 268.667 134.064H273.099ZM274.251 137.864C274.075 138.077 273.864 138.264 273.619 138.424C273.374 138.579 273.11 138.707 272.827 138.808C272.55 138.909 272.262 138.984 271.963 139.032C271.664 139.085 271.368 139.112 271.075 139.112C270.515 139.112 269.998 139.019 269.523 138.832C269.054 138.64 268.646 138.363 268.299 138C267.958 137.632 267.691 137.179 267.499 136.64C267.307 136.101 267.211 135.483 267.211 134.784C267.211 134.219 267.296 133.691 267.467 133.2C267.643 132.709 267.894 132.285 268.219 131.928C268.544 131.565 268.942 131.283 269.411 131.08C269.88 130.872 270.408 130.768 270.995 130.768C271.48 130.768 271.928 130.851 272.339 131.016C272.755 131.176 273.112 131.411 273.411 131.72C273.715 132.024 273.952 132.403 274.123 132.856C274.294 133.304 274.379 133.816 274.379 134.392C274.379 134.616 274.355 134.765 274.307 134.84C274.259 134.915 274.168 134.952 274.035 134.952H268.619C268.635 135.464 268.704 135.909 268.827 136.288C268.955 136.667 269.131 136.984 269.355 137.24C269.579 137.491 269.846 137.68 270.155 137.808C270.464 137.931 270.811 137.992 271.195 137.992C271.552 137.992 271.859 137.952 272.115 137.872C272.376 137.787 272.6 137.696 272.787 137.6C272.974 137.504 273.128 137.416 273.251 137.336C273.379 137.251 273.488 137.208 273.579 137.208C273.696 137.208 273.787 137.253 273.851 137.344L274.251 137.864ZM281.768 132.336C281.725 132.395 281.683 132.44 281.64 132.472C281.597 132.504 281.539 132.52 281.464 132.52C281.384 132.52 281.296 132.488 281.2 132.424C281.104 132.355 280.984 132.28 280.84 132.2C280.701 132.12 280.528 132.048 280.32 131.984C280.117 131.915 279.867 131.88 279.568 131.88C279.168 131.88 278.816 131.952 278.512 132.096C278.208 132.235 277.952 132.437 277.744 132.704C277.541 132.971 277.387 133.293 277.28 133.672C277.179 134.051 277.128 134.475 277.128 134.944C277.128 135.435 277.184 135.872 277.296 136.256C277.408 136.635 277.565 136.955 277.768 137.216C277.976 137.472 278.224 137.669 278.512 137.808C278.805 137.941 279.133 138.008 279.496 138.008C279.843 138.008 280.128 137.968 280.352 137.888C280.576 137.803 280.76 137.709 280.904 137.608C281.053 137.507 281.176 137.416 281.272 137.336C281.373 137.251 281.472 137.208 281.568 137.208C281.685 137.208 281.776 137.253 281.84 137.344L282.24 137.864C282.064 138.083 281.864 138.269 281.64 138.424C281.416 138.579 281.173 138.709 280.912 138.816C280.656 138.917 280.387 138.992 280.104 139.04C279.821 139.088 279.533 139.112 279.24 139.112C278.733 139.112 278.261 139.019 277.824 138.832C277.392 138.645 277.016 138.376 276.696 138.024C276.376 137.667 276.125 137.229 275.944 136.712C275.763 136.195 275.672 135.605 275.672 134.944C275.672 134.341 275.755 133.784 275.92 133.272C276.091 132.76 276.336 132.32 276.656 131.952C276.981 131.579 277.379 131.288 277.848 131.08C278.323 130.872 278.867 130.768 279.48 130.768C280.051 130.768 280.552 130.861 280.984 131.048C281.421 131.229 281.808 131.488 282.144 131.824L281.768 132.336ZM287.044 130.768C287.636 130.768 288.169 130.867 288.644 131.064C289.119 131.261 289.524 131.541 289.86 131.904C290.196 132.267 290.452 132.707 290.628 133.224C290.809 133.736 290.9 134.309 290.9 134.944C290.9 135.584 290.809 136.16 290.628 136.672C290.452 137.184 290.196 137.621 289.86 137.984C289.524 138.347 289.119 138.627 288.644 138.824C288.169 139.016 287.636 139.112 287.044 139.112C286.447 139.112 285.908 139.016 285.428 138.824C284.953 138.627 284.548 138.347 284.212 137.984C283.876 137.621 283.617 137.184 283.436 136.672C283.26 136.16 283.172 135.584 283.172 134.944C283.172 134.309 283.26 133.736 283.436 133.224C283.617 132.707 283.876 132.267 284.212 131.904C284.548 131.541 284.953 131.261 285.428 131.064C285.908 130.867 286.447 130.768 287.044 130.768ZM287.044 138C287.844 138 288.441 137.733 288.836 137.2C289.231 136.661 289.428 135.912 289.428 134.952C289.428 133.987 289.231 133.235 288.836 132.696C288.441 132.157 287.844 131.888 287.044 131.888C286.639 131.888 286.284 131.957 285.98 132.096C285.681 132.235 285.431 132.435 285.228 132.696C285.031 132.957 284.881 133.28 284.78 133.664C284.684 134.043 284.636 134.472 284.636 134.952C284.636 135.912 284.833 136.661 285.228 137.2C285.628 137.733 286.233 138 287.044 138ZM294.05 132.072C294.226 131.875 294.413 131.696 294.61 131.536C294.807 131.376 295.015 131.24 295.234 131.128C295.458 131.011 295.693 130.923 295.938 130.864C296.189 130.8 296.458 130.768 296.746 130.768C297.189 130.768 297.578 130.843 297.914 130.992C298.255 131.136 298.538 131.344 298.762 131.616C298.991 131.883 299.165 132.205 299.282 132.584C299.399 132.963 299.458 133.381 299.458 133.84V139H298.026V133.84C298.026 133.227 297.885 132.752 297.602 132.416C297.325 132.075 296.901 131.904 296.33 131.904C295.909 131.904 295.514 132.005 295.146 132.208C294.783 132.411 294.447 132.685 294.138 133.032V139H292.706V130.896H293.562C293.765 130.896 293.89 130.995 293.938 131.192L294.05 132.072ZM306.908 132.824C306.641 132.467 306.353 132.219 306.044 132.08C305.735 131.936 305.388 131.864 305.004 131.864C304.252 131.864 303.673 132.133 303.268 132.672C302.863 133.211 302.66 133.979 302.66 134.976C302.66 135.504 302.705 135.957 302.796 136.336C302.887 136.709 303.02 137.019 303.196 137.264C303.372 137.504 303.588 137.68 303.844 137.792C304.1 137.904 304.391 137.96 304.716 137.96C305.185 137.96 305.593 137.853 305.94 137.64C306.292 137.427 306.615 137.125 306.908 136.736V132.824ZM308.332 127.216V139H307.484C307.281 139 307.153 138.901 307.1 138.704L306.972 137.72C306.625 138.136 306.231 138.472 305.788 138.728C305.345 138.984 304.833 139.112 304.252 139.112C303.788 139.112 303.367 139.024 302.988 138.848C302.609 138.667 302.287 138.403 302.02 138.056C301.753 137.709 301.548 137.277 301.404 136.76C301.26 136.243 301.188 135.648 301.188 134.976C301.188 134.379 301.268 133.824 301.428 133.312C301.588 132.795 301.817 132.347 302.116 131.968C302.415 131.589 302.78 131.293 303.212 131.08C303.649 130.861 304.14 130.752 304.684 130.752C305.18 130.752 305.604 130.837 305.956 131.008C306.313 131.173 306.631 131.405 306.908 131.704V127.216H308.332ZM315.301 132.232C315.237 132.349 315.138 132.408 315.005 132.408C314.925 132.408 314.834 132.379 314.733 132.32C314.632 132.261 314.506 132.197 314.357 132.128C314.213 132.053 314.04 131.987 313.837 131.928C313.634 131.864 313.394 131.832 313.117 131.832C312.877 131.832 312.661 131.864 312.469 131.928C312.277 131.987 312.112 132.069 311.973 132.176C311.84 132.283 311.736 132.408 311.661 132.552C311.592 132.691 311.557 132.843 311.557 133.008C311.557 133.216 311.616 133.389 311.733 133.528C311.856 133.667 312.016 133.787 312.213 133.888C312.41 133.989 312.634 134.08 312.885 134.16C313.136 134.235 313.392 134.317 313.653 134.408C313.92 134.493 314.178 134.589 314.429 134.696C314.68 134.803 314.904 134.936 315.101 135.096C315.298 135.256 315.456 135.453 315.573 135.688C315.696 135.917 315.757 136.195 315.757 136.52C315.757 136.893 315.69 137.24 315.557 137.56C315.424 137.875 315.226 138.149 314.965 138.384C314.704 138.613 314.384 138.795 314.005 138.928C313.626 139.061 313.189 139.128 312.693 139.128C312.128 139.128 311.616 139.037 311.157 138.856C310.698 138.669 310.309 138.432 309.989 138.144L310.325 137.6C310.368 137.531 310.418 137.477 310.477 137.44C310.536 137.403 310.61 137.384 310.701 137.384C310.797 137.384 310.898 137.421 311.005 137.496C311.112 137.571 311.24 137.653 311.389 137.744C311.544 137.835 311.73 137.917 311.949 137.992C312.168 138.067 312.44 138.104 312.765 138.104C313.042 138.104 313.285 138.069 313.493 138C313.701 137.925 313.874 137.827 314.013 137.704C314.152 137.581 314.253 137.44 314.317 137.28C314.386 137.12 314.421 136.949 314.421 136.768C314.421 136.544 314.36 136.36 314.237 136.216C314.12 136.067 313.962 135.941 313.765 135.84C313.568 135.733 313.341 135.643 313.085 135.568C312.834 135.488 312.576 135.405 312.309 135.32C312.048 135.235 311.789 135.139 311.533 135.032C311.282 134.92 311.058 134.781 310.861 134.616C310.664 134.451 310.504 134.248 310.381 134.008C310.264 133.763 310.205 133.467 310.205 133.12C310.205 132.811 310.269 132.515 310.397 132.232C310.525 131.944 310.712 131.693 310.957 131.48C311.202 131.261 311.504 131.088 311.861 130.96C312.218 130.832 312.626 130.768 313.085 130.768C313.618 130.768 314.096 130.853 314.517 131.024C314.944 131.189 315.312 131.419 315.621 131.712L315.301 132.232Z" fill="#434A59"/>
    <rect width="152" height="160" rx="20" fill="#EEF1F8"/>
    <circle cx="51" cy="61" r="11" fill="#A2ACBE"/>
    <path d="M47.068 47.4259C40.0561 49.3048 35.8915 56.518 37.7704 63.5299C39.6492 70.5419 46.8625 74.7064 53.8744 72.8276C60.8863 70.9488 65.0509 63.7355 63.172 56.7236C61.2932 49.7117 54.0799 45.5471 47.068 47.4259ZM52.0595 67.6419C51.7978 67.712 51.5212 67.703 51.2647 67.6159C51.0082 67.5288 50.7833 67.3676 50.6184 67.1527C50.4534 66.9378 50.356 66.6788 50.3383 66.4085C50.3205 66.1382 50.3834 65.8687 50.5188 65.6341C50.6543 65.3995 50.8562 65.2103 51.0992 65.0905C51.3422 64.9707 51.6152 64.9256 51.8838 64.961C52.1524 64.9963 52.4044 65.1105 52.6081 65.2892C52.8118 65.4678 52.9579 65.7028 53.028 65.9644C53.122 66.3153 53.0728 66.6892 52.8912 67.0038C52.7095 67.3184 52.4104 67.5479 52.0595 67.6419ZM52.4636 60.3019C51.5842 61.3089 51.6134 62.008 51.7756 62.6132C51.8414 62.8589 51.8069 63.1206 51.6798 63.3408C51.5526 63.561 51.3432 63.7217 51.0976 63.7875C50.852 63.8533 50.5903 63.8189 50.3701 63.6917C50.1499 63.5646 49.9892 63.3552 49.9233 63.1095C49.535 61.6602 49.893 60.3292 51.0181 59.0401C52.0641 57.8424 52.6398 57.1067 52.3202 55.9141C52.1029 55.1031 51.4748 54.6113 50.3942 54.4123C50.1399 54.3656 49.6098 54.3956 48.9939 54.5685C48.2213 54.7861 47.669 55.1326 47.3052 55.63C46.6193 56.5681 46.7505 57.354 46.7535 57.3652C46.7802 57.4884 46.7824 57.6157 46.7599 57.7397C46.7375 57.8638 46.6908 57.9822 46.6226 58.0882C46.5544 58.1942 46.466 58.2857 46.3624 58.3575C46.2588 58.4294 46.1421 58.4801 46.0189 58.5068C45.8957 58.5335 45.7685 58.5357 45.6444 58.5133C45.5204 58.4908 45.402 58.4442 45.296 58.376C45.19 58.3077 45.0985 58.2193 45.0266 58.1157C44.9548 58.0121 44.9041 57.8954 44.8773 57.7722C44.8415 57.6095 44.5653 56.1316 45.7573 54.502C46.3753 53.6571 47.2892 53.0592 48.472 52.7266C49.3095 52.4916 50.1368 52.4224 50.7396 52.5317C52.5441 52.86 53.7623 53.887 54.1724 55.4178C54.772 57.6556 53.5456 59.0612 52.4636 60.3019Z" fill="white"/>
    <circle cx="75.9996" cy="43.0001" r="23.4" fill="white"/>
    <path d="M76.0008 16.6748C61.4672 16.6748 49.6758 28.4662 49.6758 42.9998C49.6758 57.5334 61.4672 69.3248 76.0008 69.3248C90.5344 69.3248 102.326 57.5334 102.326 42.9998C102.326 28.4662 90.5344 16.6748 76.0008 16.6748ZM75.1781 58.3561C74.6358 58.3561 74.1056 58.1952 73.6546 57.8939C73.2037 57.5926 72.8522 57.1643 72.6447 56.6633C72.4371 56.1622 72.3828 55.6108 72.4886 55.0789C72.5944 54.547 72.8556 54.0583 73.2391 53.6748C73.6226 53.2913 74.1112 53.0302 74.6432 52.9244C75.1751 52.8186 75.7264 52.8729 76.2275 53.0804C76.7286 53.288 77.1569 53.6394 77.4582 54.0904C77.7595 54.5413 77.9203 55.0715 77.9203 55.6139C77.9203 56.3411 77.6314 57.0386 77.1171 57.5529C76.6029 58.0672 75.9054 58.3561 75.1781 58.3561ZM79.7631 44.3709C77.5405 45.8626 77.2348 47.2296 77.2348 48.4842C77.2348 48.9933 77.0325 49.4815 76.6726 49.8415C76.3126 50.2015 75.8243 50.4037 75.3152 50.4037C74.8061 50.4037 74.3179 50.2015 73.9579 49.8415C73.5979 49.4815 73.3957 48.9933 73.3957 48.4842C73.3957 45.4801 74.7778 43.0917 77.6214 41.1817C80.2649 39.4075 81.7594 38.2832 81.7594 35.8112C81.7594 34.1302 80.7996 32.8537 78.8129 31.909C78.3454 31.6869 77.3047 31.4703 76.0241 31.4854C74.4172 31.5059 73.1695 31.8898 72.2083 32.6631C70.3958 34.122 70.2422 35.7097 70.2422 35.733C70.23 35.9851 70.1684 36.2323 70.0607 36.4605C69.953 36.6888 69.8014 36.8936 69.6145 37.0632C69.4277 37.2329 69.2093 37.3641 68.9717 37.4493C68.7342 37.5345 68.4822 37.5721 68.2301 37.56C67.978 37.5478 67.7308 37.4862 67.5026 37.3785C67.2743 37.2708 67.0696 37.1192 66.8999 36.9323C66.7303 36.7455 66.5991 36.5271 66.5138 36.2895C66.4286 36.052 66.391 35.8 66.4031 35.5479C66.4182 35.2147 66.6499 32.2134 69.7993 29.6796C71.4323 28.3661 73.5095 27.6833 75.9692 27.6532C77.7105 27.6326 79.3463 27.9274 80.4555 28.4511C83.7749 30.021 85.5984 32.6385 85.5984 35.8112C85.5984 40.4496 82.4984 42.5323 79.7631 44.3709Z" fill="url(#paint2_linear_513_371)"/>
    <g clip-path="url(#clip0_513_371)">
    <circle cx="106" cy="31" r="11" fill="#A2ACBE"/>
    <path d="M112.329 20.8689C106.6 17.5608 99.2673 19.5256 95.9592 25.2553C92.6512 30.985 94.6159 38.3175 100.346 41.6255C106.075 44.9336 113.408 42.9688 116.716 37.2391C120.024 31.5094 118.059 24.1769 112.329 20.8689ZM102.518 37.114C102.304 36.9905 102.132 36.8065 102.023 36.585C101.913 36.3636 101.872 36.1148 101.904 35.87C101.937 35.6252 102.041 35.3955 102.204 35.2098C102.366 35.0242 102.581 34.891 102.819 34.8271C103.058 34.7632 103.31 34.7715 103.543 34.8508C103.777 34.9302 103.982 35.0771 104.132 35.273C104.283 35.4689 104.372 35.7049 104.388 35.9513C104.404 36.1976 104.347 36.4433 104.223 36.6571C104.058 36.9438 103.785 37.153 103.465 37.2387C103.145 37.3244 102.805 37.2795 102.518 37.114ZM107.509 32.6441C106.293 32.7263 105.861 33.1956 105.576 33.6902C105.46 33.8909 105.269 34.0374 105.045 34.0974C104.821 34.1574 104.583 34.126 104.382 34.0101C104.181 33.8942 104.035 33.7033 103.975 33.4795C103.915 33.2556 103.946 33.0171 104.062 32.8164C104.746 31.6321 105.835 31.0051 107.39 30.8993C108.836 30.8016 109.681 30.6985 110.244 29.7239C110.627 29.0612 110.539 28.3395 109.971 27.5149C109.837 27.3209 109.476 26.9986 108.968 26.7131C108.329 26.3554 107.75 26.2228 107.195 26.3089C106.149 26.4714 105.727 27.0624 105.721 27.0716C105.659 27.1682 105.579 27.2517 105.484 27.3171C105.39 27.3826 105.283 27.4288 105.171 27.4532C105.059 27.4775 104.943 27.4795 104.83 27.4591C104.717 27.4386 104.609 27.3961 104.512 27.3339C104.416 27.2717 104.332 27.1912 104.267 27.0968C104.201 27.0023 104.155 26.896 104.131 26.7837C104.106 26.6714 104.104 26.5554 104.125 26.4424C104.145 26.3294 104.188 26.2214 104.25 26.1248C104.332 25.9969 105.106 24.8664 106.925 24.5843C107.867 24.4382 108.842 24.6418 109.818 25.1898C110.509 25.578 111.087 26.0666 111.405 26.5255C112.357 27.9 112.48 29.3469 111.758 30.5977C110.702 32.4264 109.006 32.5418 107.509 32.6441Z" fill="white"/>
    </g>
    <path d="M74.5607 108.872V111H65.3607V108.872H68.7302V99.178C68.7302 98.7947 68.7417 98.3998 68.7647 97.9935L66.3727 99.9945C66.2347 100.102 66.0967 100.171 65.9587 100.201C65.8284 100.224 65.7019 100.224 65.5792 100.201C65.4642 100.178 65.3607 100.14 65.2687 100.086C65.1767 100.025 65.1077 99.96 65.0617 99.891L64.1647 98.6605L69.2362 94.348H71.5707V108.872H74.5607ZM88.765 102.685C88.765 104.134 88.6078 105.396 88.2935 106.469C87.9868 107.535 87.5575 108.416 87.0055 109.114C86.4612 109.812 85.8133 110.333 85.062 110.678C84.3183 111.015 83.5133 111.184 82.647 111.184C81.7807 111.184 80.9757 111.015 80.232 110.678C79.496 110.333 78.8558 109.812 78.3115 109.114C77.7672 108.416 77.3417 107.535 77.035 106.469C76.7283 105.396 76.575 104.134 76.575 102.685C76.575 101.229 76.7283 99.9677 77.035 98.902C77.3417 97.8363 77.7672 96.9547 78.3115 96.257C78.8558 95.5593 79.496 95.0418 80.232 94.7045C80.9757 94.3595 81.7807 94.187 82.647 94.187C83.5133 94.187 84.3183 94.3595 85.062 94.7045C85.8133 95.0418 86.4612 95.5593 87.0055 96.257C87.5575 96.9547 87.9868 97.8363 88.2935 98.902C88.6078 99.9677 88.765 101.229 88.765 102.685ZM85.8325 102.685C85.8325 101.482 85.7443 100.485 85.568 99.6955C85.3917 98.9058 85.154 98.2772 84.855 97.8095C84.5637 97.3418 84.2263 97.016 83.843 96.832C83.4597 96.6403 83.061 96.5445 82.647 96.5445C82.2407 96.5445 81.8458 96.6403 81.4625 96.832C81.0868 97.016 80.7533 97.3418 80.462 97.8095C80.1707 98.2772 79.9368 98.9058 79.7605 99.6955C79.5918 100.485 79.5075 101.482 79.5075 102.685C79.5075 103.889 79.5918 104.886 79.7605 105.675C79.9368 106.465 80.1707 107.094 80.462 107.561C80.7533 108.029 81.0868 108.359 81.4625 108.55C81.8458 108.734 82.2407 108.826 82.647 108.826C83.061 108.826 83.4597 108.734 83.843 108.55C84.2263 108.359 84.5637 108.029 84.855 107.561C85.154 107.094 85.3917 106.465 85.568 105.675C85.7443 104.886 85.8325 103.889 85.8325 102.685Z" fill="#000714"/>
    <path d="M47.8924 132.816C47.6364 132.475 47.351 132.232 47.0364 132.088C46.7217 131.939 46.3724 131.864 45.9884 131.864C45.2364 131.864 44.6577 132.133 44.2524 132.672C43.847 133.211 43.6444 133.979 43.6444 134.976C43.6444 135.504 43.6897 135.957 43.7804 136.336C43.871 136.709 44.0044 137.019 44.1804 137.264C44.3564 137.504 44.5724 137.68 44.8284 137.792C45.0844 137.904 45.375 137.96 45.7004 137.96C46.1697 137.96 46.5777 137.853 46.9244 137.64C47.2764 137.427 47.599 137.125 47.8924 136.736V132.816ZM49.3164 130.896V141.744H47.8924V137.792C47.5564 138.187 47.1697 138.507 46.7324 138.752C46.295 138.992 45.7964 139.112 45.2364 139.112C44.7724 139.112 44.351 139.024 43.9724 138.848C43.5937 138.667 43.271 138.403 43.0044 138.056C42.7377 137.709 42.5324 137.277 42.3884 136.76C42.2444 136.243 42.1724 135.648 42.1724 134.976C42.1724 134.379 42.2524 133.824 42.4124 133.312C42.5724 132.795 42.8017 132.347 43.1004 131.968C43.399 131.589 43.7644 131.293 44.1964 131.08C44.6337 130.861 45.1244 130.752 45.6684 130.752C46.1964 130.752 46.6444 130.845 47.0124 131.032C47.3804 131.219 47.7057 131.48 47.9884 131.816L48.0844 131.192C48.1377 130.995 48.2657 130.896 48.4684 130.896H49.3164ZM58.2295 130.896V139H57.3815C57.1788 139 57.0508 138.901 56.9975 138.704L56.8855 137.832C56.5335 138.221 56.1388 138.536 55.7015 138.776C55.2642 139.011 54.7628 139.128 54.1975 139.128C53.7548 139.128 53.3628 139.056 53.0215 138.912C52.6855 138.763 52.4028 138.555 52.1735 138.288C51.9442 138.021 51.7708 137.699 51.6535 137.32C51.5415 136.941 51.4855 136.523 51.4855 136.064V130.896H52.9095V136.064C52.9095 136.677 53.0482 137.152 53.3255 137.488C53.6082 137.824 54.0375 137.992 54.6135 137.992C55.0348 137.992 55.4268 137.893 55.7895 137.696C56.1575 137.493 56.4962 137.216 56.8055 136.864V130.896H58.2295ZM65.9114 134.064C65.9114 133.733 65.8634 133.432 65.7674 133.16C65.6767 132.883 65.5407 132.645 65.3594 132.448C65.1834 132.245 64.9674 132.091 64.7114 131.984C64.4554 131.872 64.1647 131.816 63.8394 131.816C63.1567 131.816 62.6154 132.016 62.2154 132.416C61.8207 132.811 61.5754 133.36 61.4794 134.064H65.9114ZM67.0634 137.864C66.8874 138.077 66.6767 138.264 66.4314 138.424C66.186 138.579 65.922 138.707 65.6394 138.808C65.362 138.909 65.074 138.984 64.7754 139.032C64.4767 139.085 64.1807 139.112 63.8874 139.112C63.3274 139.112 62.81 139.019 62.3354 138.832C61.866 138.64 61.458 138.363 61.1114 138C60.77 137.632 60.5034 137.179 60.3114 136.64C60.1194 136.101 60.0234 135.483 60.0234 134.784C60.0234 134.219 60.1087 133.691 60.2794 133.2C60.4554 132.709 60.706 132.285 61.0314 131.928C61.3567 131.565 61.754 131.283 62.2234 131.08C62.6927 130.872 63.2207 130.768 63.8074 130.768C64.2927 130.768 64.7407 130.851 65.1514 131.016C65.5674 131.176 65.9247 131.411 66.2234 131.72C66.5274 132.024 66.7647 132.403 66.9354 132.856C67.106 133.304 67.1914 133.816 67.1914 134.392C67.1914 134.616 67.1674 134.765 67.1194 134.84C67.0714 134.915 66.9807 134.952 66.8474 134.952H61.4314C61.4474 135.464 61.5167 135.909 61.6394 136.288C61.7674 136.667 61.9434 136.984 62.1674 137.24C62.3914 137.491 62.658 137.68 62.9674 137.808C63.2767 137.931 63.6234 137.992 64.0074 137.992C64.3647 137.992 64.6714 137.952 64.9274 137.872C65.1887 137.787 65.4127 137.696 65.5994 137.6C65.786 137.504 65.9407 137.416 66.0634 137.336C66.1914 137.251 66.3007 137.208 66.3914 137.208C66.5087 137.208 66.5994 137.253 66.6634 137.344L67.0634 137.864ZM73.6605 132.232C73.5965 132.349 73.4978 132.408 73.3645 132.408C73.2845 132.408 73.1938 132.379 73.0925 132.32C72.9912 132.261 72.8658 132.197 72.7165 132.128C72.5725 132.053 72.3992 131.987 72.1965 131.928C71.9938 131.864 71.7538 131.832 71.4765 131.832C71.2365 131.832 71.0205 131.864 70.8285 131.928C70.6365 131.987 70.4712 132.069 70.3325 132.176C70.1992 132.283 70.0952 132.408 70.0205 132.552C69.9512 132.691 69.9165 132.843 69.9165 133.008C69.9165 133.216 69.9752 133.389 70.0925 133.528C70.2152 133.667 70.3752 133.787 70.5725 133.888C70.7698 133.989 70.9938 134.08 71.2445 134.16C71.4952 134.235 71.7512 134.317 72.0125 134.408C72.2792 134.493 72.5378 134.589 72.7885 134.696C73.0392 134.803 73.2632 134.936 73.4605 135.096C73.6578 135.256 73.8152 135.453 73.9325 135.688C74.0552 135.917 74.1165 136.195 74.1165 136.52C74.1165 136.893 74.0498 137.24 73.9165 137.56C73.7832 137.875 73.5858 138.149 73.3245 138.384C73.0632 138.613 72.7432 138.795 72.3645 138.928C71.9858 139.061 71.5485 139.128 71.0525 139.128C70.4872 139.128 69.9752 139.037 69.5165 138.856C69.0578 138.669 68.6685 138.432 68.3485 138.144L68.6845 137.6C68.7272 137.531 68.7778 137.477 68.8365 137.44C68.8952 137.403 68.9698 137.384 69.0605 137.384C69.1565 137.384 69.2578 137.421 69.3645 137.496C69.4712 137.571 69.5992 137.653 69.7485 137.744C69.9032 137.835 70.0898 137.917 70.3085 137.992C70.5272 138.067 70.7992 138.104 71.1245 138.104C71.4018 138.104 71.6445 138.069 71.8525 138C72.0605 137.925 72.2338 137.827 72.3725 137.704C72.5112 137.581 72.6125 137.44 72.6765 137.28C72.7458 137.12 72.7805 136.949 72.7805 136.768C72.7805 136.544 72.7192 136.36 72.5965 136.216C72.4792 136.067 72.3218 135.941 72.1245 135.84C71.9272 135.733 71.7005 135.643 71.4445 135.568C71.1938 135.488 70.9352 135.405 70.6685 135.32C70.4072 135.235 70.1485 135.139 69.8925 135.032C69.6418 134.92 69.4178 134.781 69.2205 134.616C69.0232 134.451 68.8632 134.248 68.7405 134.008C68.6232 133.763 68.5645 133.467 68.5645 133.12C68.5645 132.811 68.6285 132.515 68.7565 132.232C68.8845 131.944 69.0712 131.693 69.3165 131.48C69.5618 131.261 69.8632 131.088 70.2205 130.96C70.5778 130.832 70.9858 130.768 71.4445 130.768C71.9778 130.768 72.4552 130.853 72.8765 131.024C73.3032 131.189 73.6712 131.419 73.9805 131.712L73.6605 132.232ZM83.3824 139H81.9584V132.088H77.7824V136.952C77.7824 137.293 77.865 137.547 78.0304 137.712C78.1957 137.877 78.409 137.96 78.6704 137.96C78.8197 137.96 78.9477 137.941 79.0544 137.904C79.1664 137.861 79.2624 137.816 79.3424 137.768C79.4224 137.72 79.489 137.677 79.5424 137.64C79.601 137.597 79.6517 137.576 79.6944 137.576C79.769 137.576 79.8357 137.621 79.8944 137.712L80.3104 138.392C80.065 138.621 79.769 138.803 79.4224 138.936C79.0757 139.064 78.7184 139.128 78.3504 139.128C77.7104 139.128 77.217 138.949 76.8704 138.592C76.529 138.235 76.3584 137.72 76.3584 137.048V132.088H75.3824C75.297 132.088 75.225 132.064 75.1664 132.016C75.1077 131.963 75.0784 131.883 75.0784 131.776V131.208L76.4064 131.032L76.7344 128.536C76.7504 128.456 76.785 128.392 76.8384 128.344C76.897 128.291 76.9717 128.264 77.0624 128.264H77.7824V131.056H83.3824V139ZM83.7344 128.296C83.7344 128.435 83.705 128.565 83.6464 128.688C83.593 128.805 83.5184 128.909 83.4224 129C83.3317 129.091 83.225 129.163 83.1024 129.216C82.9797 129.269 82.849 129.296 82.7104 129.296C82.5717 129.296 82.441 129.269 82.3184 129.216C82.201 129.163 82.097 129.091 82.0064 129C81.9157 128.909 81.8437 128.805 81.7904 128.688C81.737 128.565 81.7104 128.435 81.7104 128.296C81.7104 128.157 81.737 128.027 81.7904 127.904C81.8437 127.776 81.9157 127.667 82.0064 127.576C82.097 127.48 82.201 127.405 82.3184 127.352C82.441 127.299 82.5717 127.272 82.7104 127.272C82.849 127.272 82.9797 127.299 83.1024 127.352C83.225 127.405 83.3317 127.48 83.4224 127.576C83.5184 127.667 83.593 127.776 83.6464 127.904C83.705 128.027 83.7344 128.157 83.7344 128.296ZM89.1378 130.768C89.7298 130.768 90.2631 130.867 90.7378 131.064C91.2124 131.261 91.6178 131.541 91.9538 131.904C92.2898 132.267 92.5458 132.707 92.7218 133.224C92.9031 133.736 92.9938 134.309 92.9938 134.944C92.9938 135.584 92.9031 136.16 92.7218 136.672C92.5458 137.184 92.2898 137.621 91.9538 137.984C91.6178 138.347 91.2124 138.627 90.7378 138.824C90.2631 139.016 89.7298 139.112 89.1378 139.112C88.5404 139.112 88.0018 139.016 87.5218 138.824C87.0471 138.627 86.6418 138.347 86.3058 137.984C85.9698 137.621 85.7111 137.184 85.5298 136.672C85.3538 136.16 85.2658 135.584 85.2658 134.944C85.2658 134.309 85.3538 133.736 85.5298 133.224C85.7111 132.707 85.9698 132.267 86.3058 131.904C86.6418 131.541 87.0471 131.261 87.5218 131.064C88.0018 130.867 88.5404 130.768 89.1378 130.768ZM89.1378 138C89.9378 138 90.5351 137.733 90.9298 137.2C91.3244 136.661 91.5218 135.912 91.5218 134.952C91.5218 133.987 91.3244 133.235 90.9298 132.696C90.5351 132.157 89.9378 131.888 89.1378 131.888C88.7324 131.888 88.3778 131.957 88.0738 132.096C87.7751 132.235 87.5244 132.435 87.3218 132.696C87.1244 132.957 86.9751 133.28 86.8738 133.664C86.7778 134.043 86.7298 134.472 86.7298 134.952C86.7298 135.912 86.9271 136.661 87.3218 137.2C87.7218 137.733 88.3271 138 89.1378 138ZM96.1439 132.072C96.3199 131.875 96.5065 131.696 96.7039 131.536C96.9012 131.376 97.1092 131.24 97.3279 131.128C97.5519 131.011 97.7865 130.923 98.0319 130.864C98.2825 130.8 98.5519 130.768 98.8399 130.768C99.2825 130.768 99.6719 130.843 100.008 130.992C100.349 131.136 100.632 131.344 100.856 131.616C101.085 131.883 101.259 132.205 101.376 132.584C101.493 132.963 101.552 133.381 101.552 133.84V139H100.12V133.84C100.12 133.227 99.9785 132.752 99.6959 132.416C99.4185 132.075 98.9945 131.904 98.4239 131.904C98.0025 131.904 97.6079 132.005 97.2399 132.208C96.8772 132.411 96.5412 132.685 96.2319 133.032V139H94.7999V130.896H95.6559C95.8585 130.896 95.9839 130.995 96.0319 131.192L96.1439 132.072ZM108.442 132.232C108.378 132.349 108.279 132.408 108.146 132.408C108.066 132.408 107.975 132.379 107.874 132.32C107.772 132.261 107.647 132.197 107.498 132.128C107.354 132.053 107.18 131.987 106.978 131.928C106.775 131.864 106.535 131.832 106.258 131.832C106.018 131.832 105.802 131.864 105.61 131.928C105.418 131.987 105.252 132.069 105.114 132.176C104.98 132.283 104.876 132.408 104.802 132.552C104.732 132.691 104.698 132.843 104.698 133.008C104.698 133.216 104.756 133.389 104.874 133.528C104.996 133.667 105.156 133.787 105.354 133.888C105.551 133.989 105.775 134.08 106.026 134.16C106.276 134.235 106.532 134.317 106.794 134.408C107.06 134.493 107.319 134.589 107.57 134.696C107.82 134.803 108.044 134.936 108.242 135.096C108.439 135.256 108.596 135.453 108.714 135.688C108.836 135.917 108.898 136.195 108.898 136.52C108.898 136.893 108.831 137.24 108.698 137.56C108.564 137.875 108.367 138.149 108.106 138.384C107.844 138.613 107.524 138.795 107.146 138.928C106.767 139.061 106.33 139.128 105.834 139.128C105.268 139.128 104.756 139.037 104.298 138.856C103.839 138.669 103.45 138.432 103.13 138.144L103.466 137.6C103.508 137.531 103.559 137.477 103.618 137.44C103.676 137.403 103.751 137.384 103.842 137.384C103.938 137.384 104.039 137.421 104.146 137.496C104.252 137.571 104.38 137.653 104.53 137.744C104.684 137.835 104.871 137.917 105.09 137.992C105.308 138.067 105.58 138.104 105.906 138.104C106.183 138.104 106.426 138.069 106.634 138C106.842 137.925 107.015 137.827 107.154 137.704C107.292 137.581 107.394 137.44 107.458 137.28C107.527 137.12 107.562 136.949 107.562 136.768C107.562 136.544 107.5 136.36 107.378 136.216C107.26 136.067 107.103 135.941 106.906 135.84C106.708 135.733 106.482 135.643 106.226 135.568C105.975 135.488 105.716 135.405 105.45 135.32C105.188 135.235 104.93 135.139 104.674 135.032C104.423 134.92 104.199 134.781 104.002 134.616C103.804 134.451 103.644 134.248 103.522 134.008C103.404 133.763 103.346 133.467 103.346 133.12C103.346 132.811 103.41 132.515 103.538 132.232C103.666 131.944 103.852 131.693 104.098 131.48C104.343 131.261 104.644 131.088 105.002 130.96C105.359 130.832 105.767 130.768 106.226 130.768C106.759 130.768 107.236 130.853 107.658 131.024C108.084 131.189 108.452 131.419 108.762 131.712L108.442 132.232Z" fill="#434A59"/>
    <path d="M181.084 67.684C182.14 67.684 183.082 67.846 183.91 68.17C184.75 68.494 185.464 68.926 186.052 69.466C186.652 70.006 187.12 70.624 187.456 71.32C187.804 72.016 188.008 72.736 188.068 73.48L185.242 74.074C185.206 74.086 185.164 74.092 185.116 74.092C185.08 74.092 185.044 74.092 185.008 74.092C184.804 74.092 184.618 74.038 184.45 73.93C184.294 73.81 184.168 73.63 184.072 73.39C183.964 73.078 183.826 72.784 183.658 72.508C183.49 72.22 183.286 71.974 183.046 71.77C182.806 71.554 182.524 71.386 182.2 71.266C181.876 71.134 181.504 71.068 181.084 71.068C180.58 71.068 180.13 71.158 179.734 71.338C179.338 71.506 179.002 71.74 178.726 72.04C178.45 72.328 178.24 72.67 178.096 73.066C177.952 73.45 177.88 73.858 177.88 74.29C177.88 74.65 177.916 74.998 177.988 75.334C178.072 75.67 178.198 76.006 178.366 76.342C178.534 76.678 178.75 77.026 179.014 77.386C179.29 77.734 179.626 78.112 180.022 78.52L186.934 85.702C187.33 84.946 187.648 84.148 187.888 83.308C188.128 82.468 188.284 81.616 188.356 80.752C188.38 80.476 188.47 80.254 188.626 80.086C188.782 79.918 188.998 79.834 189.274 79.834H192.064C192.052 81.418 191.824 82.93 191.38 84.37C190.936 85.81 190.3 87.136 189.472 88.348L194.926 94H190.57C190.342 94 190.138 93.988 189.958 93.964C189.79 93.94 189.628 93.898 189.472 93.838C189.316 93.766 189.166 93.676 189.022 93.568C188.878 93.46 188.728 93.322 188.572 93.154L186.772 91.3C185.62 92.236 184.336 92.968 182.92 93.496C181.516 94.024 179.992 94.288 178.348 94.288C177.34 94.288 176.356 94.12 175.396 93.784C174.436 93.436 173.578 92.938 172.822 92.29C172.066 91.642 171.454 90.862 170.986 89.95C170.53 89.026 170.302 87.988 170.302 86.836C170.302 86.032 170.434 85.27 170.698 84.55C170.962 83.818 171.328 83.14 171.796 82.516C172.264 81.892 172.816 81.328 173.452 80.824C174.1 80.32 174.808 79.888 175.576 79.528C174.94 78.628 174.472 77.752 174.172 76.9C173.884 76.036 173.74 75.178 173.74 74.326C173.74 73.426 173.902 72.574 174.226 71.77C174.562 70.954 175.042 70.246 175.666 69.646C176.302 69.046 177.076 68.572 177.988 68.224C178.9 67.864 179.932 67.684 181.084 67.684ZM174.82 86.476C174.82 87.136 174.934 87.73 175.162 88.258C175.39 88.786 175.702 89.236 176.098 89.608C176.494 89.968 176.95 90.25 177.466 90.454C177.994 90.646 178.552 90.742 179.14 90.742C180.196 90.742 181.156 90.58 182.02 90.256C182.896 89.92 183.694 89.458 184.414 88.87L177.574 81.85C176.614 82.474 175.912 83.176 175.468 83.956C175.036 84.736 174.82 85.576 174.82 86.476Z" fill="url(#paint3_linear_513_371)"/>
    <defs>
    <linearGradient id="paint0_linear_513_371" x1="257.625" y1="42.287" x2="315.75" y2="42.287" gradientUnits="userSpaceOnUse">
    <stop stop-color="#3F68E4"/>
    <stop offset="1" stop-color="#5EC4F7"/>
    </linearGradient>
    <linearGradient id="paint1_linear_513_371" x1="246.751" y1="54.0535" x2="329.045" y2="54.0535" gradientUnits="userSpaceOnUse">
    <stop stop-color="#4D7EF2"/>
    <stop offset="1" stop-color="#5FD4F4"/>
    </linearGradient>
    <linearGradient id="paint2_linear_513_371" x1="36.6785" y1="42.9992" x2="114.552" y2="42.9992" gradientUnits="userSpaceOnUse">
    <stop stop-color="#4D7EF2"/>
    <stop offset="1" stop-color="#5FD4F4"/>
    </linearGradient>
    <linearGradient id="paint3_linear_513_371" x1="143.163" y1="79.9995" x2="220.075" y2="79.9995" gradientUnits="userSpaceOnUse">
    <stop stop-color="#4D7EF2"/>
    <stop offset="1" stop-color="#5FD4F4"/>
    </linearGradient>
    <clipPath id="clip0_513_371">
    <rect width="31.957" height="31.957" fill="white" transform="translate(100.488 9.42041) rotate(30)"/>
    </clipPath>
    </defs>
</svg>
