<svg width="114" height="184" viewBox="0 0 114 184" fill="none" xmlns="http://www.w3.org/2000/svg">
<g clip-path="url(#clip0_16_270)">
<path d="M16.474 264.174L15.4203 265.341C8.73524 273.131 1.37334 281.005 -6.55379 288.468C-9.43575 291.26 -10.943 292.572 -11.3617 292.935L-11.4873 293.038C-25.1923 306.102 -39.7137 315.59 -54.298 322.372C-62.1065 326.143 -70.1383 329.031 -78.1771 331.22C-110.66 340.409 -141.336 338.286 -161.517 334.801C-164.796 334.304 -167.322 333.838 -168.955 333.517C-178.704 331.566 -188.264 328.779 -197.517 325.2C-202.018 323.56 -206.449 321.614 -210.796 319.411C-210.929 319.348 -211.054 319.284 -211.187 319.221C-265.839 294.162 -311.874 216.134 -320.652 200.559C-323.583 195.556 -326.353 190.597 -328.97 185.692C-371.997 106.049 -373.812 43.5405 -373.888 38.425C-373.93 37.6486 -373.958 37.0522 -373.979 36.6445L-374 36.3531L-374 35.5411C-374 35.3841 -373.993 35.2297 -373.993 35.077C-373.965 29.1574 -372.416 26.6552 -371.355 25.9291L-371.251 25.8606C-369.485 24.5208 -367.517 25.5769 -367.517 25.5769C-367.517 25.5769 -249.678 90.0307 -129.899 204.895C-10.1615 90.0988 107.573 25.6848 107.573 25.6848C107.573 25.6848 114 22.2462 114 35.649L114 36.4614L113.979 36.7945C113.588 44.777 109.89 120.531 56.3887 207.72L55.9979 208.386L55.9351 208.48C53.1858 213.21 38.6783 238.071 16.474 264.174Z" fill="#DDE3F0"/>
<ellipse cx="61.9004" cy="7.81495" rx="7.81495" ry="7.81495" transform="rotate(-180 61.9004 7.81495)" fill="#FAA942"/>
</g>
<defs>
<clipPath id="clip0_16_270">
<rect width="114" height="184" fill="white"/>
</clipPath>
</defs>
</svg>
