<svg width="62" height="106" viewBox="0 0 62 106" fill="none" xmlns="http://www.w3.org/2000/svg">
<path d="M0.25 8.32617C0.25 3.90789 3.83172 0.326172 8.25 0.326172H53.75C58.1683 0.326172 61.75 3.90789 61.75 8.32617V17.4704C61.75 27.5133 56.7248 36.89 48.3622 42.4511L42.889 46.0907C38.0331 49.3199 38.1528 56.4924 43.1136 59.5578L47.5198 62.2805C56.3655 67.7464 61.75 77.4031 61.75 87.8013V97.6727C61.75 102.091 58.1683 105.673 53.75 105.673H8.25C3.83172 105.673 0.25 102.091 0.25 97.6727V88.0234C0.25 77.5049 5.75877 67.7547 14.7684 62.3266L19.2893 59.6029C24.3525 56.5525 24.4729 49.2537 19.5132 46.0379L13.9291 42.4174C5.3988 36.8865 0.25 27.4118 0.25 17.2454V8.32617Z" fill="#EEF1F8"/>
<path d="M58.303 19.1385C26.125 32.3068 25.0004 13.8711 3.625 16.881L4.30337 29.6731L17.4284 43.5939L27.25 50.3662L37.7501 49.6137L53.8751 35.6929C58.2501 26.4124 59.4283 21.7721 58.303 19.1385Z" fill="url(#paint0_linear_1758_8498)"/>
<path fill-rule="evenodd" clip-rule="evenodd" d="M39.2452 20.5579C31.358 24.566 23.5145 28.5519 4.00042 18.7627C2.87507 21.3963 3.37524 26.7891 7.75024 36.0696L27.6249 51.1191L29.4068 51.0414L30.955 59.6476C30.981 59.7926 31.1072 59.898 31.2544 59.898C31.3977 59.898 31.5216 59.798 31.5518 59.658L33.4499 50.8651L36.2505 50.7429L43.7499 43.2181L59.1249 29.6736L58.0005 16.5053C49.559 15.3166 44.3928 17.942 39.2452 20.5579Z" fill="url(#paint1_linear_1758_8498)"/>
<path fill-rule="evenodd" clip-rule="evenodd" d="M55.75 4.84102H6.25C5.42158 4.84102 4.75 5.51481 4.75 6.34598V21.176C4.75 27.3418 7.88542 33.0816 13.0657 36.3989L24.8282 43.9312C31.4223 48.1539 31.2636 57.8686 24.5352 61.8722L13.568 68.3981C8.10158 71.6508 4.75 77.5547 4.75 83.9312V99.6529C4.75 100.484 5.42157 101.158 6.25 101.158H55.75C56.5784 101.158 57.25 100.484 57.25 99.6529V83.6826C57.25 77.4136 54.0096 71.5931 48.6894 68.3056L38.1339 61.7832C31.6053 57.749 31.4481 48.2824 37.8392 44.0323L49.1945 36.481C54.2252 33.1356 57.25 27.4833 57.25 21.428V6.34597C57.25 5.51481 56.5784 4.84102 55.75 4.84102ZM6.25 0.326172C2.93629 0.326172 0.25 3.02134 0.25 6.34598V21.176C0.25 28.8833 4.16927 36.058 10.6447 40.2046L22.4072 47.737C26.1752 50.1499 26.0845 55.7012 22.2397 57.989L11.2725 64.5148C4.43948 68.5807 0.25 75.9605 0.25 83.9312V99.6529C0.25 102.978 2.93629 105.673 6.25 105.673H55.75C59.0637 105.673 61.75 102.978 61.75 99.6529V83.6826C61.75 75.8464 57.6995 68.5707 51.0492 64.4613L40.4937 57.9389C36.7631 55.6337 36.6733 50.2242 40.3254 47.7956L51.6807 40.2443C57.969 36.0625 61.75 28.9971 61.75 21.428V6.34597C61.75 3.02133 59.0637 0.326172 55.75 0.326172H6.25Z" fill="white"/>
<defs>
<linearGradient id="paint0_linear_1758_8498" x1="0.625" y1="26.287" x2="58.75" y2="26.287" gradientUnits="userSpaceOnUse">
<stop stop-color="#3F68E4"/>
<stop offset="1" stop-color="#5EC4F7"/>
</linearGradient>
<linearGradient id="paint1_linear_1758_8498" x1="-10.2487" y1="38.054" x2="72.0451" y2="38.054" gradientUnits="userSpaceOnUse">
<stop stop-color="#4D7EF2"/>
<stop offset="1" stop-color="#5FD4F4"/>
</linearGradient>
</defs>
</svg>
