<svg width="32" height="32" viewBox="0 0 32 32" fill="none" xmlns="http://www.w3.org/2000/svg">
<path d="M20.0125 5C17.9673 4.99997 15.9626 5.56946 14.2228 6.64465C12.4831 7.71984 11.0771 9.25825 10.1625 11.0875V11.0875C9.39899 12.5992 9.00082 14.2689 9 15.9625C9.00437 16.22 8.91162 16.4697 8.74022 16.662C8.56882 16.8542 8.33133 16.9749 8.075 17C7.93751 17.0103 7.79937 16.9921 7.66925 16.9465C7.53913 16.9009 7.41984 16.8289 7.31889 16.735C7.21794 16.6411 7.1375 16.5273 7.08262 16.4008C7.02774 16.2743 6.99961 16.1379 7 16C7.00051 14.6026 7.22415 13.2143 7.6625 11.8875C7.69175 11.8029 7.69776 11.712 7.67988 11.6243C7.66201 11.5366 7.62091 11.4552 7.56089 11.3888C7.50086 11.3224 7.42411 11.2733 7.33864 11.2467C7.25317 11.2201 7.16212 11.2169 7.075 11.2375C5.34109 11.6674 3.80093 12.6652 2.69996 14.072C1.59899 15.4788 1.00055 17.2136 1 19C1 23.4 4.725 27 9.1125 27H20C22.9174 27.0017 25.7159 25.8443 27.78 23.7826C29.8441 21.7209 31.0046 18.9236 31.0062 16.0063C31.0079 13.0889 29.8506 10.2903 27.7888 8.22624C25.7271 6.16217 22.9299 5.00166 20.0125 5V5ZM23.95 18.95C23.758 19.1335 23.503 19.2364 23.2375 19.2375C22.9755 19.2371 22.7242 19.1338 22.5375 18.95L20 16.4125V24C20 24.2652 19.8946 24.5196 19.7071 24.7071C19.5196 24.8946 19.2652 25 19 25C18.7348 25 18.4804 24.8946 18.2929 24.7071C18.1054 24.5196 18 24.2652 18 24V16.4125L15.4625 18.95C15.2723 19.1224 15.0231 19.215 14.7664 19.2086C14.5098 19.2023 14.2655 19.0976 14.0839 18.9161C13.9024 18.7345 13.7977 18.4902 13.7914 18.2336C13.785 17.9769 13.8776 17.7277 14.05 17.5375L18.2875 13.2875C18.4771 13.0997 18.7332 12.9944 19 12.9944C19.2668 12.9944 19.5229 13.0997 19.7125 13.2875L23.95 17.5375C24.137 17.725 24.242 17.979 24.242 18.2437C24.242 18.5085 24.137 18.7625 23.95 18.95Z" fill="url(#paint0_linear_139_3165)"/>
<defs>
<linearGradient id="paint0_linear_139_3165" x1="-6.4074" y1="15.9997" x2="37.9742" y2="15.9997" gradientUnits="userSpaceOnUse">
<stop stop-color="#4D7EF2"/>
<stop offset="1" stop-color="#5FD4F4"/>
</linearGradient>
</defs>
</svg>
