<svg width="366" height="380" viewBox="0 0 366 380" fill="none" xmlns="http://www.w3.org/2000/svg">
<path d="M0 147.43C0 294.72 3.67938 319 140.166 319C276.653 319 366 279.684 366 132.394C366 44.7395 306.709 0 170.223 0C33.7359 0 0 0.139695 0 147.43Z" fill="white"/>
<path d="M342.264 303.746C351.885 325.306 363.132 331.883 338.114 343.047C313.095 354.211 288.703 353.5 279.082 331.94C269.462 310.38 309.592 293.935 309.592 293.935C309.592 293.935 332.644 282.186 342.264 303.746Z" fill="white"/>
<path d="M365.523 369.865C365.523 359.584 368.874 354.972 356.777 354.972C344.681 354.972 334.973 359.584 334.973 369.865C334.973 380.147 354.114 379.565 354.114 379.565C354.114 379.565 365.523 380.147 365.523 369.865Z" fill="white"/>
</svg>
