<svg width="840" height="476" viewBox="0 0 840 476" fill="none" xmlns="http://www.w3.org/2000/svg">
<path d="M6.10352e-05 206.556C6.10352e-05 391.713 36.0166 443 322.897 443C609.777 443 840 359.952 840 174.795C840 -10.3627 672.953 0.108106 386.072 0.108106C99.1921 0.108106 6.10352e-05 21.3985 6.10352e-05 206.556Z" fill="white"/>
<path d="M763.027 392.774C773.587 416.438 785.932 423.657 758.471 435.911C731.011 448.165 704.238 447.384 693.678 423.719C683.118 400.055 727.165 382.004 727.165 382.004C727.165 382.004 752.468 369.109 763.027 392.774Z" fill="white"/>
<path d="M766.468 465.347C766.468 454.062 762.789 449 776.067 449C789.345 449 800 454.062 800 465.347C800 476.632 778.991 475.993 778.991 475.993C778.991 475.993 766.468 476.632 766.468 465.347Z" fill="white"/>
</svg>
