<svg width="18" height="18" viewBox="0 0 18 18" fill="none" xmlns="http://www.w3.org/2000/svg">
    <path d="M17.8759 4.54263C17.8759 4.54263 17.5263 2.84211 17.0526 2.84211C16.6974 2.84211 15.2801 4.43747 14.5904 5.23705C14.3441 5.52316 13.9888 5.68421 13.6118 5.68421C12.8955 5.68421 12.3158 5.10442 12.3158 4.38821C12.3158 4.01116 12.4768 3.65589 12.7629 3.40958C13.5625 2.71989 15.1579 1.30263 15.1579 0.947368C15.1579 0.473684 13.4536 0.115579 13.4536 0.115579C13.0822 0.0388421 12.6985 0 12.3158 0C9.18089 0 6.6315 2.574 6.6315 5.73726C6.6315 6.13516 6.67982 6.53779 6.77645 6.95463L0.889466 12.7364C-0.296647 13.9386 -0.296647 15.8931 0.890414 17.0953C1.46831 17.6779 2.23853 18 3.06085 18C3.88222 18 4.65339 17.6779 5.22086 17.1038L11.1221 11.3059C11.5285 11.3684 11.9245 11.3684 12.3158 11.3684C15.5027 11.3684 18 8.89484 18 5.73726C18 5.33747 17.9583 4.93484 17.8759 4.54263Z" fill="#F8F8F8"/>
</svg>
