<svg width="32" height="32" viewBox="0 0 32 32" fill="none" xmlns="http://www.w3.org/2000/svg">
<path fill-rule="evenodd" clip-rule="evenodd" d="M3.66797 15.9993C3.66797 15.263 4.26492 14.666 5.0013 14.666H27.0013C27.7377 14.666 28.3346 15.263 28.3346 15.9993C28.3346 16.7357 27.7377 17.3327 27.0013 17.3327H5.0013C4.26492 17.3327 3.66797 16.7357 3.66797 15.9993Z" fill="#000714"/>
<path fill-rule="evenodd" clip-rule="evenodd" d="M14.9441 6.05654C15.4648 6.57724 15.4648 7.42146 14.9441 7.94216L6.88692 15.9993L14.9441 24.0565C15.4648 24.5772 15.4648 25.4215 14.9441 25.9422C14.4234 26.4629 13.5792 26.4629 13.0585 25.9422L4.05849 16.9422C3.53779 16.4215 3.53779 15.5772 4.05849 15.0565L13.0585 6.05654C13.5792 5.53584 14.4234 5.53584 14.9441 6.05654Z" fill="#000714"/>
</svg>
