<svg width="15" height="15" viewBox="0 0 15 15" fill="none" xmlns="http://www.w3.org/2000/svg">
<path d="M6.0434 4.7325e-05C5.94285 -0.00114276 5.84348 0.0201285 5.75375 0.0620515C5.66401 0.103975 5.58655 0.165309 5.52797 0.240837C5.46939 0.316366 5.43142 0.403853 5.41728 0.495858C5.40314 0.587862 5.41326 0.681661 5.44677 0.769276H3.60488C2.83746 0.769276 2.12573 1.12167 1.70041 1.71128L0.715247 3.07696H0.63315C0.550428 3.07588 0.468299 3.09 0.391535 3.11851C0.314771 3.14702 0.244903 3.18934 0.185992 3.24302C0.127081 3.2967 0.0803014 3.36067 0.048372 3.4312C0.0164425 3.50173 0 3.57743 0 3.65388C0 3.73034 0.0164425 3.80603 0.048372 3.87657C0.0803014 3.9471 0.127081 4.01106 0.185992 4.06474C0.244903 4.11842 0.314771 4.16075 0.391535 4.18925C0.468299 4.21776 0.550428 4.23188 0.63315 4.2308H14.3668C14.4496 4.23188 14.5317 4.21776 14.6085 4.18925C14.6852 4.16075 14.7551 4.11842 14.814 4.06474C14.8729 4.01106 14.9197 3.9471 14.9516 3.87657C14.9836 3.80603 15 3.73034 15 3.65388C15 3.57743 14.9836 3.50173 14.9516 3.4312C14.9197 3.36067 14.8729 3.2967 14.814 3.24302C14.7551 3.18934 14.6852 3.14702 14.6085 3.11851C14.5317 3.09 14.4496 3.07588 14.3668 3.07696H14.2848L13.2996 1.71128C12.8743 1.12167 12.1621 0.769276 11.3951 0.769276H9.55323C9.58674 0.681661 9.59686 0.587862 9.58272 0.495858C9.56858 0.403853 9.53061 0.316366 9.47203 0.240837C9.41345 0.165309 9.33599 0.103975 9.24626 0.0620515C9.15652 0.0201285 9.05715 -0.00114276 8.9566 4.7325e-05H6.0434ZM1.24603 5.38465L2.14178 13.11C2.26663 14.1877 3.24495 15 4.41772 15H10.5823C11.7546 15 12.733 14.1877 12.8582 13.11L13.754 5.38465H1.24603Z" fill="#F11940"/>
</svg>
