<svg width="60" height="60" viewBox="0 0 60 60" fill="none" xmlns="http://www.w3.org/2000/svg">
<path d="M45.8205 56.2509C43.533 56.2509 40.3197 55.4235 35.508 52.7352C29.6569 49.454 25.1311 46.4247 19.3115 40.6204C13.7006 35.013 10.9701 31.3825 7.14865 24.4286C2.83146 16.577 3.5674 12.4614 4.39005 10.7024C5.36974 8.60009 6.81584 7.34266 8.68498 6.09462C9.74664 5.39903 10.8701 4.80276 12.0412 4.31337C12.1584 4.26298 12.2674 4.21493 12.3647 4.17157C12.9447 3.91024 13.8236 3.51532 14.9369 3.93719C15.6799 4.2161 16.3432 4.7868 17.3815 5.81219C19.5108 7.91219 22.4205 12.5891 23.494 14.886C24.2147 16.4341 24.6916 17.4559 24.6928 18.602C24.6928 19.9438 24.0178 20.9786 23.1987 22.0954C23.0451 22.3052 22.8928 22.5056 22.7451 22.7001C21.8533 23.872 21.6576 24.2106 21.7865 24.8153C22.0479 26.0306 23.9967 29.6481 27.1994 32.8438C30.4022 36.0395 33.9154 37.8653 35.1354 38.1255C35.7658 38.2602 36.1115 38.0563 37.3209 37.1329C37.4944 37.0005 37.6725 36.8634 37.8588 36.7263C39.108 35.797 40.0947 35.1395 41.4049 35.1395H41.4119C42.5522 35.1395 43.5283 35.6341 45.1455 36.4497C47.2549 37.5138 52.0725 40.386 54.1854 42.5177C55.2131 43.5536 55.7862 44.2145 56.0662 44.9563C56.4881 46.0731 56.0908 46.9485 55.8319 47.5345C55.7885 47.6317 55.7404 47.7384 55.6901 47.8567C55.1968 49.0257 54.597 50.1469 53.8983 51.206C52.6526 53.0692 51.3904 54.5118 49.2834 55.4927C48.2015 56.0044 47.0174 56.2637 45.8205 56.2509Z" fill="url(#paint0_linear_6434_23585)"/>
<defs>
<linearGradient id="paint0_linear_6434_23585" x1="-9.19588" y1="30.001" x2="68.4399" y2="30.001" gradientUnits="userSpaceOnUse">
<stop stop-color="#4D7EF2"/>
<stop offset="1" stop-color="#5FD4F4"/>
</linearGradient>
</defs>
</svg>
