<svg width="60" height="60" viewBox="0 0 60 60" fill="none" xmlns="http://www.w3.org/2000/svg">
<path d="M58.1249 15.005C58.127 13.5601 57.7116 12.1453 56.9288 10.9308C56.146 9.71633 55.029 8.75383 53.7122 8.15904C52.3954 7.56426 50.9348 7.36252 49.506 7.57807C48.0773 7.79363 46.7412 8.41731 45.6585 9.37412C45.0723 9.89119 44.5699 10.496 44.169 11.1671V11.1741C44.1058 11.2796 44.046 11.3874 43.9874 11.4952L43.9593 11.5526C43.9101 11.6452 43.8644 11.739 43.8198 11.8339C43.8058 11.8632 43.7929 11.8925 43.78 11.9218C43.7413 12.0073 43.7038 12.094 43.6687 12.1819C43.6534 12.2183 43.6394 12.2546 43.6253 12.2909C43.5937 12.3729 43.5632 12.455 43.5339 12.5382L43.4917 12.6624C43.4659 12.7421 43.4413 12.8229 43.4179 12.9038C43.4038 12.9495 43.3909 12.994 43.3792 13.0397C43.3569 13.1183 43.3382 13.1979 43.3194 13.2741C43.3077 13.3222 43.296 13.3702 43.2854 13.4183C43.269 13.4979 43.2538 13.5788 43.2397 13.6526C43.2304 13.7019 43.221 13.7511 43.2128 13.8003C43.1999 13.8823 43.1894 13.9655 43.1788 14.0487C43.1729 14.0968 43.1659 14.1448 43.1601 14.194C43.1507 14.2843 43.1448 14.3745 43.1378 14.4659C43.1378 14.5081 43.1308 14.5503 43.1284 14.5925C43.1214 14.7261 43.1167 14.8597 43.1167 14.9956C43.1167 15.1128 43.1167 15.23 43.1261 15.3401V15.4151C43.1323 15.5253 43.1405 15.6354 43.1507 15.7456L43.1577 15.8019C43.1683 15.9015 43.18 15.9999 43.1952 16.0972C43.1952 16.1171 43.1952 16.1382 43.2034 16.1581C43.2198 16.2647 43.2397 16.3702 43.2608 16.4757C43.2608 16.5015 43.2714 16.5261 43.2761 16.5518C43.2972 16.6526 43.3206 16.7534 43.3464 16.853V16.8753C43.3733 16.9796 43.4026 17.0815 43.4343 17.1835L43.4589 17.2632C43.4905 17.3628 43.5233 17.4601 43.5585 17.5573C43.5655 17.5784 43.5737 17.5995 43.5819 17.6206C43.6136 17.7038 43.6464 17.787 43.6804 17.869C43.6897 17.8936 43.6991 17.9171 43.7097 17.9405C43.7495 18.0331 43.7905 18.1257 43.8339 18.2171L43.8726 18.2956C43.9136 18.3776 43.9546 18.4597 43.998 18.5405C44.6097 19.6774 45.503 20.6381 46.5925 21.3308C46.8785 21.5134 47.1768 21.676 47.4854 21.8171L47.5312 21.8382C47.739 21.9319 47.9511 22.0163 48.1675 22.0913L48.2788 22.1288L48.4546 22.1839C48.5073 22.2003 48.5601 22.2143 48.614 22.2296L48.839 22.2882L49.0417 22.3351L49.1765 22.362L49.3909 22.4007L49.5011 22.4183C49.6065 22.4335 49.7132 22.4476 49.8198 22.4593L49.9101 22.4675C49.9956 22.4745 50.0823 22.4815 50.169 22.4862L50.2698 22.4921C50.387 22.4921 50.4972 22.5015 50.612 22.5015C50.748 22.5015 50.8815 22.5015 51.0151 22.4897L51.1417 22.4804C51.2331 22.4733 51.3233 22.4675 51.4136 22.4581L51.5601 22.4394C51.6421 22.4288 51.7253 22.4183 51.8073 22.4054L51.955 22.3784C52.0347 22.3643 52.1155 22.3491 52.1894 22.3327L52.3335 22.2987C52.4132 22.28 52.4929 22.2612 52.5679 22.239C52.6136 22.2272 52.6581 22.2143 52.7038 22.2003C52.7847 22.1768 52.8655 22.1522 52.9452 22.1265L53.0694 22.0843C53.1526 22.055 53.2347 22.0245 53.3167 21.9929L53.4257 21.9495C53.5136 21.9143 53.6003 21.8769 53.6858 21.8382L53.7737 21.7983C53.8687 21.7538 53.9624 21.7081 54.055 21.6589L54.1124 21.6308C54.2202 21.5722 54.328 21.5136 54.4335 21.4491H54.4405C55.117 21.0515 55.7274 20.5509 56.2499 19.9655C57.4599 18.5966 58.1269 16.832 58.1249 15.005Z" fill="url(#paint0_linear_6434_23578)"/>
<path d="M43.5211 23.734L31.1508 33.3551C30.8217 33.6109 30.4168 33.7498 30 33.7498C29.5832 33.7498 29.1783 33.6109 28.8492 33.3551L11.9742 20.2301C11.776 20.0804 11.6094 19.8927 11.4843 19.6781C11.3592 19.4634 11.278 19.2261 11.2454 18.9798C11.2128 18.7335 11.2295 18.4831 11.2945 18.2433C11.3594 18.0035 11.4714 17.779 11.6239 17.5829C11.7764 17.3868 11.9664 17.2229 12.1828 17.1008C12.3992 16.9787 12.6377 16.9008 12.8844 16.8717C13.1311 16.8426 13.3812 16.8628 13.6201 16.9312C13.8589 16.9995 14.0818 17.1147 14.2758 17.2699L30 29.4996L41.0414 20.9121C39.9731 19.1838 39.3935 17.1981 39.3644 15.1664C39.3353 13.1347 39.8578 11.1332 40.8762 9.375H10.3125C8.57259 9.37686 6.90447 10.0689 5.67417 11.2992C4.44386 12.5295 3.75186 14.1976 3.75 15.9375V44.0625C3.75186 45.8024 4.44386 47.4705 5.67417 48.7008C6.90447 49.9311 8.57259 50.6231 10.3125 50.625H49.6875C51.4274 50.6231 53.0955 49.9311 54.3258 48.7008C55.5561 47.4705 56.2481 45.8024 56.25 44.0625V24.7488C54.2762 25.8921 52.0011 26.4074 49.7273 26.2261C47.4535 26.0448 45.2888 25.1756 43.5211 23.734Z" fill="url(#paint1_linear_6434_23578)"/>
<defs>
<linearGradient id="paint0_linear_6434_23578" x1="39.4117" y1="14.9976" x2="61.6101" y2="14.9976" gradientUnits="userSpaceOnUse">
<stop stop-color="#4D7EF2"/>
<stop offset="1" stop-color="#5FD4F4"/>
</linearGradient>
<linearGradient id="paint1_linear_6434_23578" x1="-9.21025" y1="29.9995" x2="68.4414" y2="29.9995" gradientUnits="userSpaceOnUse">
<stop stop-color="#4D7EF2"/>
<stop offset="1" stop-color="#5FD4F4"/>
</linearGradient>
</defs>
</svg>
