<svg width="60" height="60" viewBox="0 0 60 60" fill="none" xmlns="http://www.w3.org/2000/svg">
<path fill-rule="evenodd" clip-rule="evenodd" d="M28.7759 56.5973C43.2187 56.5973 54.9269 44.9887 54.9269 30.6688C54.9269 16.3488 43.2187 4.74023 28.7759 4.74023C14.3332 4.74023 2.625 16.3488 2.625 30.6688C2.625 36.3431 4.46337 41.5917 7.58179 45.861C7.75542 46.0987 7.82177 46.3991 7.75739 46.6863L6.50313 52.2825C6.3332 53.0407 7.055 53.6945 7.79272 53.4507L12.8694 51.7728C13.1747 51.6719 13.5092 51.725 13.7732 51.9087C18.0202 54.8632 23.1938 56.5973 28.7759 56.5973Z" fill="url(#paint0_linear_6434_21393)"/>
<path d="M13.7732 51.9087L13.4876 52.3191L13.7732 51.9087ZM7.79272 53.4507L7.63582 52.9759L7.79272 53.4507ZM7.58179 45.861L7.17803 46.1559L7.58179 45.861ZM7.75739 46.6863L8.24529 46.7957L7.75739 46.6863ZM54.4269 30.6688C54.4269 44.7086 42.9466 56.0973 28.7759 56.0973V57.0973C43.4908 57.0973 55.4269 45.2689 55.4269 30.6688H54.4269ZM28.7759 5.24023C42.9466 5.24023 54.4269 16.629 54.4269 30.6688H55.4269C55.4269 16.0687 43.4908 4.24023 28.7759 4.24023V5.24023ZM3.125 30.6688C3.125 16.629 14.6053 5.24023 28.7759 5.24023V4.24023C14.0611 4.24023 2.125 16.0687 2.125 30.6688H3.125ZM7.98555 45.5661C4.92737 41.3792 3.125 36.2332 3.125 30.6688H2.125C2.125 36.4529 3.99937 41.8041 7.17803 46.1559L7.98555 45.5661ZM6.99102 52.3919L8.24529 46.7957L7.2695 46.5769L6.01523 52.1732L6.99102 52.3919ZM12.7125 51.2981L7.63582 52.9759L7.94962 53.9254L13.0264 52.2476L12.7125 51.2981ZM28.7759 56.0973C23.2989 56.0973 18.2244 54.3962 14.0587 51.4982L13.4876 52.3191C17.816 55.3302 23.0888 57.0973 28.7759 57.0973V56.0973ZM13.0264 52.2476C13.1773 52.1977 13.3484 52.2223 13.4876 52.3191L14.0587 51.4982C13.67 51.2278 13.1722 51.1462 12.7125 51.2981L13.0264 52.2476ZM6.01523 52.1732C5.76034 53.3104 6.84305 54.2912 7.94962 53.9254L7.63582 52.9759C7.26696 53.0979 6.90606 52.7709 6.99102 52.3919L6.01523 52.1732ZM7.17803 46.1559C7.26952 46.2812 7.30133 46.4349 7.2695 46.5769L8.24529 46.7957C8.34222 46.3632 8.24132 45.9162 7.98555 45.5661L7.17803 46.1559Z" fill="#001F55"/>
<path d="M12.6978 6.80537C12.8175 5.96976 13.8581 5.65366 14.4283 6.2797L19.3353 11.6671C19.5621 11.916 19.8986 12.0351 20.231 11.9839L26.8031 10.9719C27.6281 10.8449 28.2404 11.7231 27.8332 12.4494L24.3901 18.5914C24.238 18.8626 24.2216 19.1895 24.3456 19.4755L27.0825 25.7876C27.4122 26.5481 26.7268 27.3529 25.9222 27.1501L19.3796 25.5007C19.0505 25.4177 18.7023 25.5065 18.4545 25.7366L13.2189 30.5977C12.5977 31.1745 11.5817 30.7624 11.5361 29.9152L11.1583 22.8967C11.1394 22.5473 10.9389 22.2325 10.6296 22.0669L4.41338 18.7375C3.66164 18.3349 3.72215 17.2405 4.51341 16.9284L11.1131 14.3251C11.446 14.1938 11.6825 13.8946 11.7332 13.5407L12.6978 6.80537Z" fill="white" stroke="#001F55"/>
<path d="M13.0866 7.17553C13.1735 6.59643 13.8929 6.3766 14.2927 6.80703L19.2083 12.0993C19.4339 12.3422 19.765 12.4584 20.0924 12.4096L26.577 11.4442C27.152 11.3586 27.5775 11.9695 27.296 12.4765L23.9064 18.5808C23.7562 18.8513 23.7405 19.1765 23.8639 19.4612L25.9007 24.1618C26.2565 24.983 25.4375 25.8181 24.6074 25.4806L19.7299 23.4972C19.3671 23.3497 18.9523 23.4263 18.6678 23.6933L14.0816 27.9987C13.4562 28.5857 12.4266 28.1619 12.3941 27.3041L12.1602 21.1426C12.1438 20.7112 11.8517 20.3381 11.436 20.2175L6.1487 18.6845C5.23758 18.4203 5.16638 17.1588 6.04237 16.8006L11.4858 14.5744C11.8108 14.4415 12.0414 14.148 12.0934 13.8011L13.0866 7.17553Z" fill="white"/>
<path d="M47.3022 6.5085C47.1825 5.67288 46.1419 5.35678 45.5717 5.98283L40.6647 11.3702C40.4379 11.6191 40.1014 11.7382 39.769 11.687L33.1969 10.675C32.3719 10.548 31.7596 11.4262 32.1668 12.1525L35.6099 18.2945C35.762 18.5657 35.7784 18.8926 35.6544 19.1786L32.9175 25.4907C32.5878 26.2512 33.2732 27.0561 34.0778 26.8532L40.6204 25.2038C40.9495 25.1208 41.2977 25.2096 41.5455 25.4397L46.7811 30.3009C47.4023 30.8776 48.4183 30.4656 48.4639 29.6183L48.8417 22.5999C48.8606 22.2504 49.0611 21.9357 49.3704 21.77L55.5866 18.4407C56.3384 18.038 56.2778 16.9436 55.4866 16.6315L48.8869 14.0282C48.554 13.8969 48.3175 13.5978 48.2668 13.2438L47.3022 6.5085Z" fill="white" stroke="#001F55"/>
<path d="M46.9134 6.87866C46.8265 6.29955 46.1071 6.07972 45.7073 6.51015L40.7917 11.8024C40.5661 12.0453 40.235 12.1615 39.9076 12.1128L33.423 11.1473C32.848 11.0617 32.4225 11.6726 32.704 12.1796L36.0936 18.2839C36.2438 18.5545 36.2595 18.8797 36.1361 19.1643L34.0993 23.865C33.7435 24.6861 34.5625 25.5212 35.3926 25.1837L40.2701 23.2003C40.6329 23.0528 41.0477 23.1294 41.3322 23.3964L45.9184 27.7019C46.5438 28.2889 47.5734 27.8651 47.6059 27.0072L47.8398 20.8457C47.8562 20.4143 48.1483 20.0412 48.564 19.9206L53.8513 18.3876C54.7624 18.1234 54.8336 16.862 53.9576 16.5037L48.5142 14.2776C48.1892 14.1447 47.9586 13.8511 47.9066 13.5042L46.9134 6.87866Z" fill="white"/>
<path d="M29.7033 50.1681C41.9071 50.1681 44.5227 33.7468 41.9071 32.8824C39.2915 32.0181 36.6769 34.611 29.7033 34.611C22.7297 34.611 20.1146 31.1539 17.4995 32.8824C14.8844 34.611 17.4995 50.1681 29.7033 50.1681Z" fill="#001F55"/>
<path d="M29.65 41.9043C24.4198 41.9043 21.8047 42.7686 21.8047 43.6329C21.8047 44.4972 22.6764 48.8186 29.65 48.8186C36.6235 48.8186 37.4952 44.4972 37.4952 43.6329C37.4952 42.7686 34.8802 41.9043 29.65 41.9043Z" fill="url(#paint1_linear_6434_21393)"/>
<path d="M29.6538 35.854C24.4236 35.854 17.4499 31.5326 17.4496 34.1257C17.4493 36.7188 16.579 39.3108 29.6538 39.3111C42.7287 39.3114 41.8576 36.7181 41.8576 34.1253C41.8576 31.5325 34.884 35.854 29.6538 35.854Z" fill="white"/>
<defs>
<linearGradient id="paint0_linear_6434_21393" x1="7.09421" y1="56.5973" x2="53.4952" y2="56.5973" gradientUnits="userSpaceOnUse">
<stop offset="0.171875" stop-color="#FAA942"/>
<stop offset="1" stop-color="#FADD43"/>
</linearGradient>
<linearGradient id="paint1_linear_6434_21393" x1="23.1455" y1="48.8186" x2="37.0657" y2="48.8186" gradientUnits="userSpaceOnUse">
<stop offset="0.171875" stop-color="#FAA942"/>
<stop offset="1" stop-color="#FADD43"/>
</linearGradient>
</defs>
</svg>
