<svg width="22" height="22" viewBox="0 0 22 22" fill="none" xmlns="http://www.w3.org/2000/svg">
<path d="M8.8 22C3.94087 22 0 18.0591 0 13.2C0 8.34087 3.94087 4.4 8.8 4.4C13.6591 4.4 17.6 8.34087 17.6 13.2C17.6 18.0591 13.6591 22 8.8 22ZM8.8 6.69565C5.20348 6.69565 2.29565 9.60348 2.29565 13.2C2.29565 16.7965 5.20348 19.7043 8.8 19.7043C12.3965 19.7043 15.3043 16.7965 15.3043 13.2C15.3043 9.60348 12.3965 6.69565 8.8 6.69565Z" fill="#FAA942"/>
<path d="M14.3429 8.8C14.0381 8.8 13.7714 8.6852 13.5429 8.4556C13.0857 7.9964 13.0857 7.26933 13.5429 6.84839L20.019 0.34304C20.3619 -0.0013611 20.819 -0.077895 21.2762 0.0751722C21.6952 0.266506 22 0.687441 22 1.14664V6.50399C22 7.15453 21.5048 7.652 20.8571 7.652C20.2095 7.652 19.7143 7.15453 19.7143 6.50399V3.90185L15.1429 8.4556C14.9143 8.6852 14.6476 8.8 14.3429 8.8Z" fill="#FAA942"/>
<path d="M20.845 2.2H15.455C14.8005 2.2 14.3 1.72333 14.3 1.1C14.3 0.476667 14.8005 2.52162e-09 15.455 2.52162e-09H20.845C21.4995 2.52162e-09 22 0.476667 22 1.1C22 1.72333 21.4995 2.2 20.845 2.2Z" fill="#FAA942"/>
</svg>
