<svg width="22" height="28" viewBox="0 0 22 28" fill="none" xmlns="http://www.w3.org/2000/svg">
<path d="M16.4999 0.000107641C16.3542 -0.00190945 16.2094 0.0244405 16.0742 0.077626C15.9389 0.130811 15.8158 0.209772 15.712 0.309918C15.6082 0.410065 15.5258 0.5294 15.4695 0.660989C15.4132 0.792578 15.3843 0.933796 15.3843 1.07644C15.3843 1.21908 15.4132 1.3603 15.4695 1.49189C15.5258 1.62347 15.6082 1.74281 15.712 1.84296C15.8158 1.9431 15.9389 2.02206 16.0742 2.07525C16.2094 2.12843 16.3542 2.15478 16.4999 2.15277H18.2444L14.7447 5.57726C13.1729 4.14902 11.1056 3.2291 8.79996 3.2291C3.9529 3.2291 0 7.09696 0 11.8397C0 16.2175 3.36971 19.8436 7.69996 20.3768V22.603H5.49997C5.35421 22.601 5.20949 22.6274 5.07423 22.6805C4.93896 22.7337 4.81585 22.8127 4.71204 22.9128C4.60824 23.013 4.52581 23.1323 4.46955 23.2639C4.41328 23.3955 4.38431 23.5367 4.38431 23.6794C4.38431 23.822 4.41328 23.9632 4.46955 24.0948C4.52581 24.2264 4.60824 24.3457 4.71204 24.4459C4.81585 24.546 4.93896 24.625 5.07423 24.6782C5.20949 24.7313 5.35421 24.7577 5.49997 24.7557H7.69996V26.9083C7.6979 27.051 7.72483 27.1926 7.77918 27.3249C7.83354 27.4573 7.91424 27.5777 8.01658 27.6793C8.11893 27.7809 8.24089 27.8615 8.37537 27.9166C8.50986 27.9717 8.65418 28 8.79996 28C8.94573 28 9.09006 27.9717 9.22454 27.9166C9.35902 27.8615 9.48098 27.7809 9.58333 27.6793C9.68568 27.5777 9.76637 27.4573 9.82073 27.3249C9.87508 27.1926 9.90201 27.051 9.89995 26.9083V24.7557H12.0999C12.2457 24.7577 12.3904 24.7313 12.5257 24.6782C12.6609 24.625 12.7841 24.546 12.8879 24.4459C12.9917 24.3457 13.0741 24.2264 13.1304 24.0948C13.1866 23.9632 13.2156 23.822 13.2156 23.6794C13.2156 23.5367 13.1866 23.3955 13.1304 23.2639C13.0741 23.1323 12.9917 23.013 12.8879 22.9128C12.7841 22.8127 12.6609 22.7337 12.5257 22.6805C12.3904 22.6274 12.2457 22.601 12.0999 22.603H9.89995V20.3768C14.2302 19.8436 17.5999 16.2175 17.5999 11.8397C17.5999 10.1403 16.9617 8.64444 16.0874 7.30738L19.7999 3.67476V5.38175C19.7978 5.52438 19.8248 5.66599 19.8791 5.79834C19.9335 5.9307 20.0142 6.05116 20.1165 6.15273C20.2189 6.2543 20.3408 6.33496 20.4753 6.39001C20.6098 6.44506 20.7541 6.47341 20.8999 6.47341C21.0457 6.47341 21.19 6.44506 21.3245 6.39001C21.459 6.33496 21.5809 6.2543 21.6833 6.15273C21.7856 6.05116 21.8663 5.9307 21.9207 5.79834C21.975 5.66599 22.002 5.52438 21.9999 5.38175V1.07644C21.9999 0.790986 21.884 0.517233 21.6777 0.315389C21.4714 0.113544 21.1916 0.000136182 20.8999 0.000107641H16.4999ZM8.79996 5.38175C12.458 5.38175 15.3999 8.26034 15.3999 11.8397C15.3999 15.3779 12.524 18.2262 8.92456 18.2914C8.87753 18.2856 8.83017 18.2828 8.78277 18.283C8.74325 18.2837 8.70381 18.2865 8.66461 18.2914C5.07025 18.2207 2.19999 15.3744 2.19999 11.8397C2.19999 8.26034 5.14186 5.38175 8.79996 5.38175Z" fill="#FAA942"/>
</svg>
