<svg width="60" height="60" viewBox="0 0 60 60" fill="none" xmlns="http://www.w3.org/2000/svg">
<path fill-rule="evenodd" clip-rule="evenodd" d="M30.1951 58.3675C44.4465 58.3675 55.9996 46.7645 55.9996 32.4513C55.9996 18.1382 44.4465 6.53516 30.1951 6.53516C15.9437 6.53516 4.39062 18.1382 4.39062 32.4513C4.39062 38.1236 6.20505 43.3702 9.28278 47.6377C9.45314 47.8739 9.5182 48.171 9.45528 48.4553L8.21724 54.0506C8.04928 54.8097 8.77383 55.4618 9.51108 55.2149L14.4872 53.5491C14.7955 53.4459 15.1339 53.5 15.3997 53.6871C19.5888 56.6366 24.6907 58.3675 30.1951 58.3675Z" fill="url(#paint0_linear_6434_21409)"/>
<path d="M14.4872 53.5491L14.3285 53.0749L14.4872 53.5491ZM15.3997 53.6871L15.6875 53.2783L15.3997 53.6871ZM9.51108 55.2149L9.66981 55.6891L9.51108 55.2149ZM9.28278 47.6377L8.87724 47.9302L9.28278 47.6377ZM9.45528 48.4553L9.94347 48.5634L9.45528 48.4553ZM55.4996 32.4513C55.4996 46.4904 44.1684 57.8675 30.1951 57.8675V58.8675C44.7247 58.8675 56.4996 47.0386 56.4996 32.4513H55.4996ZM30.1951 7.03516C44.1684 7.03516 55.4996 18.4123 55.4996 32.4513H56.4996C56.4996 17.8641 44.7247 6.03516 30.1951 6.03516V7.03516ZM4.89062 32.4513C4.89062 18.4123 16.2219 7.03516 30.1951 7.03516V6.03516C15.6655 6.03516 3.89062 17.8641 3.89062 32.4513H4.89062ZM9.68832 47.3453C6.67004 43.1602 4.89062 38.0153 4.89062 32.4513H3.89062C3.89062 38.2319 5.74005 43.5802 8.87724 47.9302L9.68832 47.3453ZM8.70543 54.1586L9.94347 48.5634L8.96709 48.3473L7.72905 53.9426L8.70543 54.1586ZM14.3285 53.0749L9.35235 54.7408L9.66981 55.6891L14.6459 54.0232L14.3285 53.0749ZM30.1951 57.8675C24.7972 57.8675 19.7953 56.1705 15.6875 53.2783L15.1118 54.096C19.3824 57.1027 24.5842 58.8675 30.1951 58.8675V57.8675ZM14.6459 54.0232C14.7983 53.9722 14.9715 53.9972 15.1118 54.096L15.6875 53.2783C15.2962 53.0028 14.7926 52.9195 14.3285 53.0749L14.6459 54.0232ZM7.72905 53.9426C7.4771 55.0813 8.56394 56.0593 9.66981 55.6891L9.35235 54.7408C8.98373 54.8642 8.62145 54.5382 8.70543 54.1586L7.72905 53.9426ZM8.87724 47.9302C8.967 48.0547 8.9982 48.2067 8.96709 48.3473L9.94347 48.5634C10.0382 48.1352 9.93928 47.6932 9.68832 47.3453L8.87724 47.9302Z" fill="#001F55"/>
<path d="M20.6871 12.9731C12.9492 13.3608 11.1206 9.44702 11.0031 7.94594C10.8856 6.44486 14.024 1.00068 29.2913 1C44.5585 0.999325 48.9875 7.06436 48.9964 7.79126C49.0054 8.51816 49.3938 11.4816 38.6464 11.4816C27.899 11.4816 19.3205 10.5497 19.3205 7.79126C19.3205 5.03284 24.973 3.73532 29.8685 3.61827C34.7639 3.50122 38.5703 4.03071 39.2845 5.5986C39.9986 7.16648 36.997 7.37836 36.997 7.37836" stroke="#001F55"/>
<path d="M7.6425 10.9299C7.64256 10.9298 7.64262 10.9298 7.64268 10.9297L7.6425 10.9299ZM10.9751 6.51396L10.8289 6.48051L10.9751 6.51396L10.9751 6.51375C10.9751 6.51382 10.9751 6.51389 10.9751 6.51396ZM10.989 6.45198L11.6216 3.64977C11.704 3.28466 11.2343 3.06082 11.0048 3.35586L9.24373 5.62029L7.16296 5.84312C6.9037 5.87088 6.76555 6.1633 6.90812 6.38255L8.05232 8.14217L7.41978 10.9444C7.33737 11.3095 7.80708 11.5333 8.03654 11.2383L9.79763 8.97387L11.8784 8.75103C12.1377 8.72327 12.2758 8.43086 12.1332 8.21161L10.989 6.45198ZM8.06631 8.08019L8.06627 8.08038L8.06631 8.08019Z" fill="white" stroke="#001F55" stroke-width="0.5"/>
<path d="M49.003 6.49236L48.8811 6.57995L49.003 6.49236C49.003 6.49232 49.0029 6.49228 49.0029 6.49224L49.003 6.49236ZM48.9661 6.44074L50.461 6.66308C50.7189 6.70144 50.845 6.99918 50.6937 7.21239L49.8165 8.44824L50.1824 10.4438C50.2499 10.8119 49.7714 11.0164 49.5542 10.7122L48.3765 9.06349L46.8816 8.84115C46.6237 8.80279 46.4975 8.50505 46.6489 8.29184L47.5261 7.05599L47.1602 5.06044C47.0926 4.69229 47.5712 4.48783 47.7884 4.79201L48.9661 6.44074Z" fill="white" stroke="#001F55" stroke-width="0.5"/>
<path d="M19.2133 27.6268C22.5739 29.1529 22.4717 24.245 19.6026 24.245C17.4863 24.245 16.3572 25.7105 16.3572 27.7283C16.3572 31.628 23.3194 33.5847 24.7975 27.7283C26.8219 19.7076 13 17.6999 13 28.1507C13 33.6026 18.1514 35.8675 21.9906 34.7017" stroke="#001F55" stroke-linecap="round"/>
<path d="M41.2133 27.6268C44.5739 29.1529 44.4717 24.245 41.6026 24.245C39.4863 24.245 38.3572 25.7105 38.3572 27.7283C38.3572 31.628 45.3194 33.5847 46.7975 27.7283C48.8219 19.7076 35 17.6999 35 28.1507C35 33.6026 40.1514 35.8675 43.9906 34.7017" stroke="#001F55" stroke-linecap="round"/>
<path d="M18.4689 10.5818L18.3988 10.4491C18.3988 10.4492 18.3987 10.4492 18.3986 10.4493L18.3988 10.4491L18.4689 10.5818ZM18.4689 10.5818L18.3237 10.5441L18.3238 10.544C18.3238 10.544 18.3237 10.5441 18.3237 10.5441L18.4689 10.5818ZM19.8388 7.31104C19.7483 6.96139 19.2517 6.96139 19.1612 7.31104L18.3403 10.4801L16.0504 11.6906C15.8018 11.822 15.8018 12.178 16.0504 12.3094L18.3403 13.5199L19.1612 16.689C19.2517 17.0386 19.7483 17.0386 19.8388 16.689L20.6597 13.5199L22.9496 12.3094C23.1982 12.178 23.1982 11.822 22.9496 11.6906L20.6597 10.4801L19.8388 7.31104ZM18.3237 13.4559L18.3238 13.456L18.3237 13.4559Z" fill="white" stroke="#001F55" stroke-width="0.5"/>
<path d="M30.1956 51.7116C34.2164 51.7116 37.5768 48.7954 37.5768 45.0804C37.5768 41.3654 34.2164 38.4492 30.1956 38.4492C26.1749 38.4492 22.8145 41.3654 22.8145 45.0804C22.8145 48.7954 26.1749 51.7116 30.1956 51.7116Z" fill="#001F55" stroke="#001F55"/>
<mask id="mask0_6434_21409" style="mask-type:alpha" maskUnits="userSpaceOnUse" x="23" y="38" width="15" height="14">
<ellipse cx="30.1976" cy="45.0804" rx="6.88119" ry="6.13119" fill="black"/>
</mask>
<g mask="url(#mask0_6434_21409)">
<path d="M30.1976 46.6133C25.8969 46.6133 24.1766 49.6789 23.3164 51.2117H37.0788C36.2186 49.6789 34.4983 46.6133 30.1976 46.6133Z" fill="url(#paint1_linear_6434_21409)"/>
</g>
<defs>
<linearGradient id="paint0_linear_6434_21409" x1="8.80063" y1="58.3675" x2="54.5869" y2="58.3675" gradientUnits="userSpaceOnUse">
<stop offset="0.171875" stop-color="#FAA942"/>
<stop offset="1" stop-color="#FADD43"/>
</linearGradient>
<linearGradient id="paint1_linear_6434_21409" x1="24.4924" y1="51.2117" x2="36.7021" y2="51.2117" gradientUnits="userSpaceOnUse">
<stop offset="0.171875" stop-color="#FAA942"/>
<stop offset="1" stop-color="#FADD43"/>
</linearGradient>
</defs>
</svg>
