<svg width="60" height="60" viewBox="0 0 60 60" fill="none" xmlns="http://www.w3.org/2000/svg">
<path fill-rule="evenodd" clip-rule="evenodd" d="M30.3194 56.0547C44.5013 56.0547 55.9981 44.558 55.9981 30.376C55.9981 16.194 44.5013 4.69727 30.3194 4.69727C16.1374 4.69727 4.64062 16.194 4.64062 30.376C4.64062 35.9927 6.44392 41.1883 9.50313 45.4152C9.67446 45.6519 9.73991 45.95 9.67652 46.2353L8.4482 51.7627C8.27958 52.5215 9.00321 53.1741 9.74062 52.9283L14.6862 51.2798C14.9935 51.1774 15.3306 51.2312 15.5958 51.4171C19.7646 54.3396 24.8417 56.0547 30.3194 56.0547Z" fill="url(#paint0_linear_6434_21427)"/>
<path d="M14.6862 51.2798L14.8444 51.7541L14.6862 51.2798ZM15.5958 51.4171L15.3088 51.8265L15.5958 51.4171ZM9.50313 45.4152L9.90818 45.1221L9.50313 45.4152ZM9.67652 46.2353L10.1646 46.3437L9.67652 46.2353ZM55.4981 30.376C55.4981 44.2818 44.2252 55.5547 30.3194 55.5547V56.5547C44.7775 56.5547 56.4981 44.8341 56.4981 30.376H55.4981ZM30.3194 5.19727C44.2252 5.19727 55.4981 16.4702 55.4981 30.376H56.4981C56.4981 15.9179 44.7775 4.19727 30.3194 4.19727V5.19727ZM5.14062 30.376C5.14062 16.4702 16.4135 5.19727 30.3194 5.19727V4.19727C15.8612 4.19727 4.14062 15.9179 4.14062 30.376H5.14062ZM9.90818 45.1221C6.90863 40.9775 5.14062 35.884 5.14062 30.376H4.14062C4.14062 36.1015 5.97921 41.399 9.09808 45.7084L9.90818 45.1221ZM8.93629 51.8712L10.1646 46.3437L9.18843 46.1268L7.96011 51.6542L8.93629 51.8712ZM14.5281 50.8054L9.5825 52.454L9.89873 53.4027L14.8444 51.7541L14.5281 50.8054ZM30.3194 55.5547C24.9477 55.5547 19.9703 53.8732 15.8829 51.0077L15.3088 51.8265C19.5589 54.8061 24.7357 56.5547 30.3194 56.5547V55.5547ZM14.8444 51.7541C14.9962 51.7035 15.1688 51.7284 15.3088 51.8265L15.8829 51.0077C15.4924 50.734 14.9908 50.6512 14.5281 50.8054L14.8444 51.7541ZM7.96011 51.6542C7.70718 52.7924 8.79262 53.7714 9.89873 53.4027L9.5825 52.454C9.2138 52.5769 8.85198 52.2506 8.93629 51.8712L7.96011 51.6542ZM9.09808 45.7084C9.1884 45.8332 9.21977 45.9858 9.18843 46.1268L10.1646 46.3437C10.2601 45.9143 10.1605 45.4707 9.90818 45.1221L9.09808 45.7084Z" fill="#001F55"/>
<path d="M37 27C37 27 37.7 30 40.5 30C43.3 30 44 27 44 27" stroke="#001F55" stroke-width="1.5" stroke-linecap="round"/>
<path d="M17 27C17 27 17.6 30 20 30C22.4 30 23 27 23 27" stroke="#001F55" stroke-width="1.5" stroke-linecap="round"/>
<path d="M14 23C14.5714 21.7327 16.5714 19.3881 20 20.1485" stroke="#001F55" stroke-linecap="round"/>
<path d="M47 23C46.4286 21.7327 44.4286 19.3881 41 20.1485" stroke="#001F55" stroke-linecap="round"/>
<path d="M22 39C24.8333 42.0185 32.2 46.2444 39 39" stroke="#001F55" stroke-width="1.5" stroke-linecap="round"/>
<defs>
<linearGradient id="paint0_linear_6434_21427" x1="9.02914" y1="56.0547" x2="54.5923" y2="56.0547" gradientUnits="userSpaceOnUse">
<stop offset="0.171875" stop-color="#FAA942"/>
<stop offset="1" stop-color="#FADD43"/>
</linearGradient>
</defs>
</svg>
