<svg width="60" height="60" viewBox="0 0 60 60" fill="none" xmlns="http://www.w3.org/2000/svg">
<path d="M58 4.33333V16C58 16.6188 57.7542 17.2123 57.3166 17.6499C56.879 18.0875 56.2855 18.3333 55.6667 18.3333C55.0478 18.3333 54.4543 18.0875 54.0167 17.6499C53.5792 17.2123 53.3333 16.6188 53.3333 16V6.66667H44C43.3812 6.66667 42.7877 6.42083 42.3501 5.98325C41.9125 5.54566 41.6667 4.95217 41.6667 4.33333C41.6667 3.71449 41.9125 3.121 42.3501 2.68342C42.7877 2.24583 43.3812 2 44 2H55.6667C56.2855 2 56.879 2.24583 57.3166 2.68342C57.7542 3.121 58 3.71449 58 4.33333ZM16 53.3333H6.66667V44C6.66667 43.3812 6.42083 42.7877 5.98325 42.3501C5.54566 41.9125 4.95217 41.6667 4.33333 41.6667C3.71449 41.6667 3.121 41.9125 2.68342 42.3501C2.24583 42.7877 2 43.3812 2 44V55.6667C2 56.2855 2.24583 56.879 2.68342 57.3166C3.121 57.7542 3.71449 58 4.33333 58H16C16.6188 58 17.2123 57.7542 17.6499 57.3166C18.0875 56.879 18.3333 56.2855 18.3333 55.6667C18.3333 55.0478 18.0875 54.4543 17.6499 54.0167C17.2123 53.5792 16.6188 53.3333 16 53.3333ZM55.6667 41.6667C55.0478 41.6667 54.4543 41.9125 54.0167 42.3501C53.5792 42.7877 53.3333 43.3812 53.3333 44V53.3333H44C43.3812 53.3333 42.7877 53.5792 42.3501 54.0167C41.9125 54.4543 41.6667 55.0478 41.6667 55.6667C41.6667 56.2855 41.9125 56.879 42.3501 57.3166C42.7877 57.7542 43.3812 58 44 58H55.6667C56.2855 58 56.879 57.7542 57.3166 57.3166C57.7542 56.879 58 56.2855 58 55.6667V44C58 43.3812 57.7542 42.7877 57.3166 42.3501C56.879 41.9125 56.2855 41.6667 55.6667 41.6667ZM4.33333 18.3333C4.95217 18.3333 5.54566 18.0875 5.98325 17.6499C6.42083 17.2123 6.66667 16.6188 6.66667 16V6.66667H16C16.6188 6.66667 17.2123 6.42083 17.6499 5.98325C18.0875 5.54566 18.3333 4.95217 18.3333 4.33333C18.3333 3.71449 18.0875 3.121 17.6499 2.68342C17.2123 2.24583 16.6188 2 16 2H4.33333C3.71449 2 3.121 2.24583 2.68342 2.68342C2.24583 3.121 2 3.71449 2 4.33333V16C2 16.6188 2.24583 17.2123 2.68342 17.6499C3.121 18.0875 3.71449 18.3333 4.33333 18.3333ZM46.3333 41.6667V18.3333C46.3333 17.0957 45.8417 15.9087 44.9665 15.0335C44.0913 14.1583 42.9043 13.6667 41.6667 13.6667H18.3333C17.0957 13.6667 15.9087 14.1583 15.0335 15.0335C14.1583 15.9087 13.6667 17.0957 13.6667 18.3333V41.6667C13.6667 42.9043 14.1583 44.0913 15.0335 44.9665C15.9087 45.8417 17.0957 46.3333 18.3333 46.3333H41.6667C42.9043 46.3333 44.0913 45.8417 44.9665 44.9665C45.8417 44.0913 46.3333 42.9043 46.3333 41.6667Z" fill="url(#paint0_linear_6434_23761)"/>
<defs>
<linearGradient id="paint0_linear_6434_23761" x1="-11.8243" y1="29.9993" x2="71.0042" y2="29.9993" gradientUnits="userSpaceOnUse">
<stop stop-color="#4D7EF2"/>
<stop offset="1" stop-color="#5FD4F4"/>
</linearGradient>
</defs>
</svg>
