<svg width="60" height="60" viewBox="0 0 60 60" fill="none" xmlns="http://www.w3.org/2000/svg">
<g clip-path="url(#clip0_6434_23766)">
<path d="M41.3333 3H18.6667C17.1657 3.00635 15.728 3.61795 14.6666 4.70161C13.6052 5.78527 13.0062 7.2532 13 8.78571V51.2143C13.0062 52.7468 13.6052 54.2147 14.6666 55.2984C15.728 56.3821 17.1657 56.9937 18.6667 57H41.3333C42.8343 56.9937 44.272 56.3821 45.3334 55.2984C46.3948 54.2147 46.9938 52.7468 47 51.2143V8.78571C46.9938 7.2532 46.3948 5.78527 45.3334 4.70161C44.272 3.61795 42.8343 3.00635 41.3333 3ZM18.6667 6.85714H41.3333C41.8343 6.85714 42.3147 7.06033 42.669 7.42201C43.0232 7.78369 43.2222 8.27423 43.2222 8.78571V10.7143H16.7778V8.78571C16.7778 8.27423 16.9768 7.78369 17.331 7.42201C17.6853 7.06033 18.1657 6.85714 18.6667 6.85714ZM41.3333 53.1429H18.6667C18.1657 53.1429 17.6853 52.9397 17.331 52.578C16.9768 52.2163 16.7778 51.7258 16.7778 51.2143V49.2857H43.2222V51.2143C43.2222 51.7258 43.0232 52.2163 42.669 52.578C42.3147 52.9397 41.8343 53.1429 41.3333 53.1429Z" fill="url(#paint0_linear_6434_23766)"/>
</g>
<defs>
<linearGradient id="paint0_linear_6434_23766" x1="4.60669" y1="29.9994" x2="54.8954" y2="29.9994" gradientUnits="userSpaceOnUse">
<stop stop-color="#4D7EF2"/>
<stop offset="1" stop-color="#5FD4F4"/>
</linearGradient>
<clipPath id="clip0_6434_23766">
<rect width="60" height="60" fill="white"/>
</clipPath>
</defs>
</svg>
