<svg width="60" height="60" viewBox="0 0 60 60" fill="none" xmlns="http://www.w3.org/2000/svg">
<path d="M56 29.0003V49.0001C55.9934 51.6502 54.9453 54.1899 53.0848 56.0638C51.2243 57.9377 48.7028 58.9934 46.0716 59H31.7995C31.2729 59 30.7678 58.7893 30.3954 58.4142C30.023 58.0392 29.8138 57.5304 29.8138 57C29.8138 56.4696 30.023 55.9609 30.3954 55.5858C30.7678 55.2108 31.2729 55 31.7995 55H46.0716C47.6495 54.9935 49.1609 54.3592 50.2766 53.2354C51.3924 52.1116 52.0221 50.5894 52.0286 49.0001V48.6501C51.3918 48.8815 50.72 48.9999 50.043 49.0001H46.0716C44.4917 49.0001 42.9765 48.368 41.8593 47.2428C40.7422 46.1176 40.1146 44.5914 40.1146 43.0002V33.0003C40.1146 31.409 40.7422 29.8829 41.8593 28.7577C42.9765 27.6325 44.4917 27.0003 46.0716 27.0003H51.9294C51.4315 21.5059 48.9022 16.4005 44.8427 12.6961C40.7832 8.99177 35.49 6.95891 30.0124 7.00055H29.9876C24.5067 6.9473 19.2072 8.97618 15.1453 12.6828C11.0834 16.3894 8.55732 21.5016 8.07064 27.0003H13.9284C15.5063 27.0069 17.0177 27.6412 18.1334 28.7649C19.2492 29.8887 19.8789 31.411 19.8854 33.0003V43.0002C19.8789 44.5894 19.2492 46.1117 18.1334 47.2355C17.0177 48.3593 15.5063 48.9935 13.9284 49.0001H9.95704C8.37915 48.9935 6.86774 48.3593 5.752 47.2355C4.63625 46.1117 4.00653 44.5894 4 43.0002V29.0003C3.99992 25.5712 4.67333 22.176 5.98145 19.0101C7.28957 15.8442 9.20655 12.9702 11.622 10.5536C14.0375 8.13698 16.9037 6.22552 20.0557 4.92925C23.2077 3.63298 26.5831 2.97751 29.9876 3.00059H30.1862C37.0304 3.00721 43.5924 5.74858 48.432 10.623C53.2717 15.4975 55.9934 22.1068 56 29.0003Z" fill="url(#paint0_linear_6434_23772)"/>
<defs>
<linearGradient id="paint0_linear_6434_23772" x1="-8.83682" y1="30.9993" x2="68.0753" y2="30.9993" gradientUnits="userSpaceOnUse">
<stop stop-color="#4D7EF2"/>
<stop offset="1" stop-color="#5FD4F4"/>
</linearGradient>
</defs>
</svg>
