<svg width="60" height="60" viewBox="0 0 60 60" fill="none" xmlns="http://www.w3.org/2000/svg">
<path d="M49 4H11C8.61386 4.00265 6.32622 4.9517 4.63896 6.63894C2.95171 8.32617 2.00265 10.6138 2 12.9999V36.9997C2.00265 39.3858 2.95171 41.6734 4.63896 43.3606C6.32622 45.0479 8.61386 45.9969 11 45.9996H14V53.9995C13.9999 54.3797 14.1082 54.7522 14.3122 55.0731C14.5163 55.394 14.8076 55.6501 15.152 55.8113C15.4964 55.9725 15.8796 56.0323 16.2567 55.9835C16.6339 55.9346 16.9893 55.7793 17.2812 55.5357L28.7175 45.9996H49C51.3861 45.9969 53.6738 45.0479 55.361 43.3606C57.0483 41.6734 57.9974 39.3858 58 36.9997V12.9999C57.9974 10.6138 57.0483 8.32617 55.361 6.63894C53.6738 4.9517 51.3861 4.00265 49 4ZM18 28.9997C17.2089 28.9997 16.4355 28.7651 15.7777 28.3256C15.1199 27.8861 14.6072 27.2614 14.3045 26.5305C14.0017 25.7996 13.9225 24.9953 14.0769 24.2194C14.2312 23.4435 14.6122 22.7308 15.1716 22.1714C15.731 21.612 16.4437 21.231 17.2196 21.0767C17.9956 20.9223 18.7998 21.0016 19.5307 21.3043C20.2616 21.607 20.8864 22.1197 21.3259 22.7775C21.7654 23.4353 22 24.2087 22 24.9998C22 26.0606 21.5786 27.078 20.8284 27.8282C20.0783 28.5783 19.0609 28.9997 18 28.9997ZM30 28.9997C29.2089 28.9997 28.4355 28.7651 27.7777 28.3256C27.1199 27.8861 26.6072 27.2614 26.3045 26.5305C26.0017 25.7996 25.9225 24.9953 26.0769 24.2194C26.2312 23.4435 26.6122 22.7308 27.1716 22.1714C27.731 21.612 28.4437 21.231 29.2196 21.0767C29.9956 20.9223 30.7998 21.0016 31.5307 21.3043C32.2616 21.607 32.8864 22.1197 33.3259 22.7775C33.7654 23.4353 34 24.2087 34 24.9998C34 26.0606 33.5786 27.078 32.8284 27.8282C32.0783 28.5783 31.0609 28.9997 30 28.9997ZM42 28.9997C41.2089 28.9997 40.4355 28.7651 39.7777 28.3256C39.1199 27.8861 38.6072 27.2614 38.3045 26.5305C38.0017 25.7996 37.9225 24.9953 38.0769 24.2194C38.2312 23.4435 38.6122 22.7308 39.1716 22.1714C39.731 21.612 40.4437 21.231 41.2196 21.0767C41.9956 20.9223 42.7998 21.0016 43.5307 21.3043C44.2616 21.607 44.8864 22.1197 45.3259 22.7775C45.7654 23.4353 46 24.2087 46 24.9998C46 26.0606 45.5786 27.078 44.8284 27.8282C44.0783 28.5783 43.0609 28.9997 42 28.9997Z" fill="url(#paint0_linear_6434_23573)"/>
<defs>
<linearGradient id="paint0_linear_6434_23573" x1="-11.8243" y1="29.9994" x2="71.0042" y2="29.9994" gradientUnits="userSpaceOnUse">
<stop stop-color="#4D7EF2"/>
<stop offset="1" stop-color="#5FD4F4"/>
</linearGradient>
</defs>
</svg>
