<svg width="60" height="60" viewBox="0 0 60 60" fill="none" xmlns="http://www.w3.org/2000/svg">
<g clip-path="url(#clip0_6434_23590)">
<path d="M30 60C46.5685 60 60 46.5685 60 30C60 13.4315 46.5685 0 30 0C13.4315 0 0 13.4315 0 30C0 46.5685 13.4315 60 30 60Z" fill="#4A8CFF"/>
<path d="M10.7515 20.6082V34.7065C10.7589 36.2356 11.373 37.6992 12.4591 38.7757C13.5451 39.8522 15.014 40.4534 16.5432 40.4474H37.0935C37.3714 40.4487 37.6384 40.3398 37.836 40.1446C38.0336 39.9493 38.1457 39.6837 38.1477 39.4059V25.3076C38.1403 23.7785 37.5262 22.3149 36.4401 21.2384C35.3541 20.1619 33.8852 19.5607 32.356 19.5667H11.812C11.6739 19.5652 11.5369 19.591 11.4088 19.6426C11.2807 19.6941 11.164 19.7705 11.0655 19.8673C10.9669 19.964 10.8885 20.0793 10.8346 20.2064C10.7807 20.3336 10.7525 20.4701 10.7515 20.6082ZM39.456 26.1078L47.9403 19.9097C48.677 19.2988 49.2485 19.4524 49.2485 20.5574V39.4567C49.2485 40.7141 48.5499 40.5617 47.9403 40.1032L39.456 33.919V26.1078Z" fill="white"/>
</g>
<defs>
<clipPath id="clip0_6434_23590">
<rect width="60" height="60" fill="white"/>
</clipPath>
</defs>
</svg>
