<svg width="40" height="41" viewBox="0 0 40 41" fill="none" xmlns="http://www.w3.org/2000/svg">
<rect x="0.5" y="0.803467" width="39" height="39" rx="19.5" stroke="url(#paint0_linear_1349_20882)"/>
<path d="M24.375 17.3035V16.866C24.375 14.905 21.4219 13.4285 17.5 13.4285C13.5781 13.4285 10.625 14.905 10.625 16.866V19.991C10.625 21.6238 12.6719 22.9207 15.625 23.3113V23.741C15.625 25.7019 18.5781 27.1785 22.5 27.1785C26.4219 27.1785 29.375 25.7019 29.375 23.741V20.616C29.375 18.9988 27.3906 17.7019 24.375 17.3035ZM15.625 22.0378V20.1863C16.2468 20.2662 16.8731 20.3053 17.5 20.3035C18.1269 20.3053 18.7532 20.2662 19.375 20.1863V22.0378C18.7547 22.1345 18.1277 22.1815 17.5 22.1785C16.8723 22.1815 16.2453 22.1345 15.625 22.0378ZM23.125 18.8894V19.991C23.125 20.6472 22.1562 21.3503 20.625 21.78V19.9519C21.6328 19.7097 22.4844 19.3425 23.125 18.8894ZM11.875 19.991V18.8894C12.5156 19.3425 13.3672 19.7097 14.375 19.9519V21.78C12.8438 21.3503 11.875 20.6472 11.875 19.991ZM16.875 23.741V23.4128L17.5 23.4285C17.8073 23.4285 18.1042 23.4207 18.3906 23.405C18.7031 23.5144 19.0312 23.6082 19.375 23.6941V25.53C17.8438 25.1003 16.875 24.3972 16.875 23.741ZM20.625 25.7878V23.9285C21.2467 24.01 21.873 24.0518 22.5 24.0535C23.1269 24.0553 23.7532 24.0162 24.375 23.9363V25.7878C23.132 25.9753 21.868 25.9753 20.625 25.7878ZM25.625 25.53V23.7019C26.6328 23.4597 27.4844 23.0925 28.125 22.6394V23.741C28.125 24.3972 27.1562 25.1003 25.625 25.53Z" fill="url(#paint1_linear_1349_20882)"/>
<defs>
<linearGradient id="paint0_linear_1349_20882" x1="-9.87448" y1="20.303" x2="49.2887" y2="20.303" gradientUnits="userSpaceOnUse">
<stop stop-color="#4D7EF2"/>
<stop offset="1" stop-color="#5FD4F4"/>
</linearGradient>
<linearGradient id="paint1_linear_1349_20882" x1="5.99634" y1="20.3033" x2="33.7291" y2="20.3033" gradientUnits="userSpaceOnUse">
<stop stop-color="#4D7EF2"/>
<stop offset="1" stop-color="#5FD4F4"/>
</linearGradient>
</defs>
</svg>
